<svg width="98" height="98" viewBox="0 0 98 98" fill="none" xmlns="http://www.w3.org/2000/svg">
<g id="Frame">
<g id="Group">
<g id="Group_2">
<path id="Vector" d="M13.5532 38.5182C16.3982 37.6853 16.6653 40.4661 16.6653 40.4661C19.1577 41.446 22.8385 40.3202 24.6301 39.6473C25.1643 39.4468 25.4855 38.8863 25.3967 38.3081C25.1615 36.7817 26.0277 35.07 27.469 34.5489C27.8472 34.4126 28.3077 34.2972 28.4484 33.9114C28.5469 33.6413 28.4409 33.3417 28.3267 33.0782C27.2424 30.5734 25.2875 28.4964 22.9284 27.2287C21.2948 26.3506 19.3582 26.2942 17.6408 26.9826L17.629 26.9873L5.77358 31.1619C5.64824 31.2061 5.52578 31.2581 5.40689 31.3178C3.95912 32.0448 3.26442 33.7673 3.7858 35.3357L4.19152 36.6944L4.6198 37.8637C4.66671 37.9912 4.7394 38.111 4.84432 38.1946C5.2436 38.5127 5.75317 38.6531 6.26058 38.5875C7.06665 38.4835 7.85732 38.251 8.59428 37.8991L8.8539 37.8512C10.2963 39.8916 10.3085 42.4628 9.78781 45.007C9.60446 45.9043 10.7307 46.4398 11.2621 45.7035C12.8123 43.5547 13.9327 41.1744 13.6147 38.5889L13.5532 38.5182Z" fill="#9C44C0"/>
<g id="Group_3">
<g id="Mask group">
<mask id="mask0_5333_31797" style="mask-type:luminance" maskUnits="userSpaceOnUse" x="1" y="33" width="3" height="6">
<g id="Group_4">
<path id="Vector_2" d="M1 33.5112H3.44V38.3824H1V33.5112Z" fill="white"/>
</g>
</mask>
<g mask="url(#mask0_5333_31797)">
<path id="Vector_3" d="M1.54138 37.5576C1.80673 37.9877 2.23214 38.3057 2.72309 38.372C4.26361 38.5795 2.89354 35.631 2.54512 34.3983C1.74478 32.0693 0.538718 34.8317 1.18221 36.8888C1.22447 37.0229 1.28857 37.1486 1.36233 37.2676L1.54138 37.5576Z" fill="#9C44C0"/>
</g>
</g>
</g>
<g id="Group_5">
<g id="Mask group_2">
<mask id="mask1_5333_31797" style="mask-type:luminance" maskUnits="userSpaceOnUse" x="15" y="43" width="28" height="46">
<g id="Group_6">
<path id="Vector_4" d="M15.8164 43.2876H42.7727V88.1429H15.8164V43.2876Z" fill="white"/>
</g>
</mask>
<g mask="url(#mask1_5333_31797)">
<path id="Vector_5" d="M30.4345 60.081C28.1975 60.6135 26.1635 61.3602 24.325 62.8246C22.1138 64.5858 20.2109 67.2159 19.6107 70.0671C19.5764 70.2307 19.3525 70.2355 19.316 70.0682C18.7209 67.343 19.6544 64.7549 21.3568 62.7893C22.358 61.6336 23.625 60.6928 25.0033 60.0663C26.7261 59.2832 28.5448 59.1137 30.4044 59.3827C30.7829 59.4372 30.8069 59.9922 30.4345 60.081ZM42.7511 78.3362C42.0413 70.7293 39.5927 63.2949 35.6351 56.8271C32.6854 52.0069 29.4236 49.2305 26.9416 44.1387C26.6222 43.4861 25.8989 43.1481 25.2142 43.342C22.8597 44.009 21.0478 44.0097 19.778 43.8163C19.08 43.7098 18.4759 44.3204 18.5558 45.0416C18.588 45.3382 18.5773 45.6393 18.5182 45.9319C18.3162 46.9328 17.6094 47.7995 17.566 48.8207C17.4883 50.6493 19.4414 51.7887 20.3019 53.3903C21.7944 56.1678 19.2688 57.9215 17.9101 60.7709C16.1193 64.5275 15.4479 68.8403 16.0097 72.9846C16.6353 77.6025 18.7055 81.8175 21.0496 85.8506C22.1568 87.7561 24.407 88.6074 26.4492 87.8907L39.6776 83.2459C41.6847 82.5413 42.9534 80.5082 42.7511 78.3362Z" fill="#9C44C0"/>
</g>
</g>
</g>
</g>
<g id="Group_7">
<path id="Vector_6" d="M67.2801 50.3688C66.2615 50.3316 65.468 49.4641 65.5077 48.4309C65.547 47.3977 66.4047 46.5904 67.4237 46.6275C68.4419 46.6646 69.2358 47.5321 69.1961 48.5653C69.1561 49.5985 68.2984 50.4059 67.2801 50.3688Z" fill="#9C44C0"/>
<g id="Group_8">
<g id="Mask group_3">
<mask id="mask2_5333_31797" style="mask-type:luminance" maskUnits="userSpaceOnUse" x="70" y="43" width="8" height="8">
<g id="Group_9">
<path id="Vector_7" d="M77.0762 44.3521L71.4116 43.7567L70.8076 49.5032L76.4722 50.0986L77.0762 44.3521Z" fill="white"/>
</g>
</mask>
<g mask="url(#mask2_5333_31797)">
<path id="Vector_8" d="M73.8311 49.8147C72.2592 49.7575 71.0346 48.4185 71.0957 46.8242C71.1569 45.2298 72.4807 43.9837 74.0526 44.041C75.6244 44.0982 76.8491 45.4371 76.7879 47.0315C76.7268 48.6259 75.403 49.8719 73.8311 49.8147Z" fill="#9C44C0"/>
</g>
</g>
</g>
<path id="Vector_9" d="M88.5484 58.3398C86.9765 58.2825 85.7519 56.9436 85.813 55.3492C85.8742 53.7549 87.198 52.5088 88.7699 52.566C90.3417 52.6233 91.5664 53.9622 91.5052 55.5565C91.4445 57.151 90.1203 58.397 88.5484 58.3398ZM86.743 45.5551C87.9021 45.5976 88.8048 46.5849 88.7598 47.7603C88.7148 48.936 87.7386 49.8549 86.5794 49.8127C85.4203 49.7703 84.5176 48.7833 84.5626 47.6076C84.6076 46.4318 85.5838 45.513 86.743 45.5551ZM73.8625 55.6147C73.788 57.5497 72.1816 59.0618 70.2739 58.9924C68.3661 58.9231 66.8798 57.2979 66.9542 55.3633C67.0286 53.4282 68.6351 51.9159 70.5428 51.9856C72.4502 52.0549 73.9366 53.6796 73.8625 55.6147ZM81.4194 49.1076C81.2957 48.9624 81.0616 49.0291 81.0278 49.2179C80.9642 49.5685 80.8456 49.9082 80.6773 50.2213C80.5438 50.4689 80.3694 50.6807 80.2717 50.9476C80.1734 51.2166 80.1257 51.542 80.26 51.8069C80.5575 52.3914 81.4981 52.3787 81.8227 51.8389C82.3448 50.9698 82.0326 49.8286 81.4194 49.1076ZM79.0773 56.2397C76.7149 55.4124 75.9956 52.2895 78.4211 49.9541C80.2971 48.1472 80.0979 47.2429 79.9952 46.6774C79.8882 46.0911 80.325 46.5095 80.3733 46.549C81.1446 47.1794 83.3056 49.1135 83.5667 51.8388C83.8737 55.0412 81.7283 57.168 79.0773 56.2397ZM61.9654 70.5638C63.6337 69.788 65.2488 68.9008 66.886 68.0612C68.8886 67.0343 71.0979 66.1781 73.1131 65.1775C73.7781 64.8474 74.4473 64.5257 75.1223 64.2169C75.1411 64.208 75.1606 64.1992 75.1797 64.1903C76.6824 63.5055 78.6956 62.7761 80.4041 63.1365C82.8464 63.6519 85.0998 64.5405 86.903 66.3425C87.1292 66.5684 87.3506 66.8609 87.2997 67.1795C87.2264 67.6388 86.6432 67.9069 86.2918 68.1174C85.8066 68.4074 85.3023 68.6627 84.7915 68.9015C83.7865 69.3705 82.7519 69.7705 81.7434 70.2322C79.7173 71.1599 77.6711 72.0471 75.6638 73.017C74.6754 73.4946 73.6789 73.9573 72.7166 74.4881C71.6964 75.0512 70.7317 75.9147 69.5477 76.1356C68.508 76.3296 67.5366 75.8539 66.6773 75.3135C65.7583 74.7361 64.622 73.9196 63.6816 73.3762C63.1412 73.0643 62.5387 72.7375 61.9673 72.4347C61.6033 72.2417 60.1934 71.3881 61.9654 70.5638Z" fill="#9C44C0"/>
<path id="Vector_10" d="M58.6791 71.9847C60.8243 73.9334 63.3321 74.838 65.696 76.3843C67.2208 77.3548 68.8181 78.0636 70.5388 77.0411C73.6676 75.5688 76.9525 73.9897 80.0336 72.4374C82.4261 71.3601 84.8182 70.2832 87.2104 69.206C88.3643 68.762 89.8681 67.761 89.4127 66.3301C88.3544 64.6427 86.2173 63.9246 84.5553 62.968C77.958 58.7182 70.735 64.3557 64.7686 67.1107C63.7772 67.6127 62.4723 68.3016 61.4634 68.7666C60.2428 69.2815 57.2809 70.2782 58.6791 71.9847ZM54.9921 70.1235C56.6496 68.5201 58.2148 67.5842 60.2632 66.6582C66.702 63.9007 72.8394 59.0469 80.0147 58.8347C84.0135 59.234 87.8911 61.3572 91.1725 63.645C93.908 65.6623 94.4379 69.8124 92.3152 72.4916C90.9825 74.1581 88.9055 74.9725 86.9653 75.8269C82.4304 77.8674 74.7466 82.2862 70.212 84.5956C67.8847 85.6641 66.525 85.3476 64.4705 84.7758C61.6979 84.0043 58.9967 81.8986 56.6053 80.332C55.1381 79.2719 53.8514 78.1326 53.6517 76.2134C53.4532 74.3058 53.5211 71.5462 54.9921 70.1235Z" fill="#9C44C0"/>
</g>
<path id="Vector_11" fill-rule="evenodd" clip-rule="evenodd" d="M58.7792 47.988C58.6723 48.0581 58.5514 48.1333 58.4177 48.213C58.2825 48.2906 58.1311 48.3662 57.9684 48.4492C57.6409 48.6108 57.2685 48.8014 56.8353 48.9683C56.6203 49.0555 56.3937 49.1452 56.1566 49.2377C56.0389 49.2861 55.9144 49.3239 55.7891 49.3672C55.6631 49.4091 55.5347 49.4517 55.4042 49.4952C55.2734 49.5376 55.14 49.5812 55.0044 49.6252C54.9366 49.6467 54.8685 49.67 54.7991 49.6904C54.7289 49.7096 54.6584 49.7288 54.5876 49.7482C54.3033 49.826 54.0101 49.9045 53.7082 49.9838C52.4954 50.2756 51.1325 50.5159 49.6853 50.6445C48.237 50.7627 46.8486 50.7565 45.5965 50.6747C45.284 50.6478 44.9796 50.62 44.6842 50.5917C44.6102 50.5847 44.5372 50.5776 44.4645 50.5702C44.392 50.5623 44.3204 50.5508 44.2491 50.5413C44.1072 50.5208 43.9671 50.5006 43.8294 50.4809C43.6923 50.4601 43.5576 50.44 43.4251 50.4201C43.2931 50.3991 43.1628 50.3827 43.0372 50.3549C42.7852 50.3043 42.5442 50.2544 42.3149 50.2049C41.8545 50.1139 41.4493 49.99 41.0945 49.8863C40.9176 49.8322 40.753 49.7836 40.604 49.7301C40.4561 49.6743 40.3221 49.6209 40.2024 49.57C39.7248 49.3669 39.4822 49.2069 39.517 49.1046C39.5523 49.0024 39.8603 48.967 40.3789 48.9885C40.5085 48.9938 40.6515 49.0028 40.8065 49.0151C40.9624 49.0248 41.1324 49.0311 41.313 49.0435C41.6752 49.0647 42.0802 49.1106 42.5331 49.1298C42.7589 49.1433 42.9941 49.1589 43.2388 49.1769C43.3605 49.1883 43.4866 49.1885 43.6139 49.1942C43.7416 49.1994 43.8712 49.2046 44.0033 49.21C44.1353 49.2163 44.2692 49.2223 44.4053 49.2285C44.4734 49.2316 44.5418 49.2363 44.6107 49.238C44.6802 49.2389 44.7497 49.2395 44.8201 49.2403C45.1011 49.2439 45.3898 49.249 45.6855 49.2558C46.8696 49.2568 48.1675 49.2205 49.5253 49.1102C50.8822 48.9892 52.1647 48.8056 53.3276 48.6048C53.6168 48.5482 53.8993 48.4947 54.1746 48.4437C54.2435 48.431 54.3118 48.4184 54.3796 48.4061C54.4474 48.3929 54.5135 48.3765 54.5798 48.3621C54.7123 48.3328 54.8424 48.3043 54.9708 48.2761C55.0995 48.2486 55.2258 48.2212 55.3501 48.1947C55.4739 48.1674 55.5978 48.1461 55.7152 48.1142C55.9515 48.0553 56.1797 48.0001 56.3985 47.9489C56.8396 47.8537 57.228 47.7399 57.5792 47.6582C57.7543 47.6154 57.9201 47.5804 58.0711 47.5446C58.221 47.5064 58.3596 47.4734 58.4856 47.4463C58.9906 47.3377 59.3008 47.3205 59.3562 47.4152C59.4116 47.5095 59.2064 47.7075 58.7792 47.988ZM52.9287 16.1086C52.8376 16.1437 52.7449 16.1824 52.6479 16.2164C52.5507 16.2501 52.4509 16.2846 52.3489 16.3197C52.1439 16.3891 51.9288 16.4616 51.7048 16.5369C51.6488 16.5556 51.5922 16.5745 51.5348 16.5935C51.4769 16.6104 51.4187 16.6273 51.3597 16.6447C51.2415 16.6787 51.1213 16.7134 50.999 16.7487C50.7539 16.8171 50.5012 16.8944 50.2378 16.9599C49.9735 17.0233 49.7017 17.0883 49.4228 17.1549C49.1445 17.2252 48.8549 17.2764 48.5604 17.3345C48.2652 17.3894 47.965 17.4551 47.6558 17.497C47.3471 17.5427 47.0326 17.5898 46.7136 17.637C46.3931 17.6716 46.068 17.7066 45.7389 17.7419C44.4205 17.8603 43.1582 17.8893 42.0161 17.8349C41.8734 17.8333 41.7328 17.8173 41.5941 17.8082C41.4554 17.7974 41.3186 17.7869 41.1838 17.7762C41.049 17.7654 40.9165 17.7548 40.7856 17.7441C40.6552 17.7325 40.5277 17.7125 40.4022 17.6974C40.1512 17.6637 39.9091 17.6311 39.6762 17.5999C39.5595 17.5865 39.4476 17.5599 39.3366 17.5407C39.2263 17.5193 39.1184 17.4987 39.0131 17.4786C38.8029 17.436 38.6021 17.4 38.4147 17.3557C38.2288 17.3065 38.0532 17.26 37.8887 17.2164C37.7253 17.1719 37.5736 17.1294 37.4349 17.0887C37.297 17.045 37.1735 16.9966 37.0622 16.9551C36.6178 16.7859 36.3853 16.6638 36.4071 16.6018C36.4286 16.54 36.7013 16.5436 37.1695 16.6023C37.2861 16.6177 37.4157 16.6354 37.5573 16.6543C37.7003 16.6684 37.8547 16.6853 38.0204 16.7045C38.1851 16.7252 38.3613 16.7471 38.548 16.7703C38.7351 16.7909 38.9351 16.8043 39.1428 16.8248C39.2469 16.8344 39.3532 16.8447 39.4621 16.8549C39.5709 16.864 39.6809 16.8799 39.7956 16.8837C40.0232 16.897 40.2602 16.9108 40.5055 16.9252C40.6281 16.9315 40.7523 16.9433 40.8794 16.9467C41.0063 16.9497 41.1355 16.9525 41.2666 16.9556C41.3973 16.9591 41.5302 16.9626 41.6648 16.9661C41.7992 16.9685 41.9353 16.9778 42.074 16.9735C43.1803 16.9794 44.3983 16.9256 45.674 16.8112C45.9932 16.7785 46.3079 16.7466 46.6185 16.7146C46.9282 16.6735 47.2334 16.6325 47.5334 16.5926C47.834 16.5583 48.1263 16.5014 48.4142 16.4571C48.7019 16.4093 48.9848 16.3702 49.2577 16.313C49.5315 16.2611 49.7988 16.2107 50.0584 16.1613C50.3178 16.1114 50.5673 16.051 50.8106 16.0004C50.932 15.9743 51.0515 15.9487 51.1688 15.9238C51.2275 15.9115 51.2858 15.8991 51.3432 15.8866C51.4002 15.8726 51.4568 15.8589 51.5128 15.845C51.7373 15.7911 51.9528 15.7393 52.1589 15.6897C52.262 15.6658 52.3629 15.6421 52.461 15.6193C52.5591 15.5961 52.6535 15.5688 52.7459 15.5452C52.9313 15.4981 53.1061 15.4534 53.2696 15.4117C53.4331 15.37 53.5873 15.3361 53.7278 15.2995C53.8677 15.2621 53.9963 15.2294 54.1127 15.2012C54.5782 15.0894 54.8489 15.0552 54.8734 15.1145C54.8976 15.1742 54.6727 15.3225 54.2408 15.5404C54.133 15.595 54.012 15.6539 53.8791 15.717C53.7458 15.779 53.5975 15.8378 53.4393 15.9039C53.2796 15.9676 53.1092 16.0362 52.9287 16.1086ZM60.6237 27.8989C60.6024 27.5731 60.5539 27.2499 60.4789 26.9317C60.4663 26.8784 60.4531 26.8253 60.4389 26.7723C60.1549 25.7021 59.5501 24.7273 58.722 23.9235L55.5941 20.8882C56.2188 20.68 56.6589 20.5033 56.9248 20.3878C57.1163 20.3045 57.2378 20.1301 57.2367 19.9407C57.2287 18.5822 57.2073 17.2235 57.1724 15.8657C57.1469 14.8658 56.3623 14.0184 55.2705 13.81C52.017 13.189 48.6751 13.3939 45.3891 13.5699C42.2298 13.7394 39.0183 14.0007 35.9878 14.9664C34.9316 15.3031 34.2517 16.2307 34.3465 17.2244C34.4753 18.5725 34.6172 19.9199 34.7726 21.2655C34.7966 21.4739 34.9406 21.6551 35.1526 21.7418C36.1996 22.1691 39.6825 23.2997 46.1091 22.695C48.4746 22.4724 50.4248 22.161 51.9961 21.8345C52.2849 21.7746 52.4338 22.1659 52.1795 22.3152C50.4894 23.3071 48.831 23.9492 45.7351 24.3751C45.2741 24.4384 45.4822 24.4236 45.0688 24.4646C44.9306 24.4915 44.7508 24.5176 44.5192 24.5416C42.7913 24.7197 42.4503 25.8633 42.4503 25.8633C42.4503 25.8633 40.474 29.403 40.2121 30.8665C40.0418 31.8195 40.3515 32.0716 40.9334 32.159C41.2424 32.2051 41.2879 32.6373 40.9936 32.7413C40.3241 32.9786 39.3745 33.0131 38.8703 32.9478C37.8267 32.8127 37.2087 31.7939 37.4135 30.793C37.5143 30.2989 37.7295 29.8022 37.9405 29.3311C38.2151 28.7173 38.5064 28.1108 38.8179 27.5149C39.155 26.8697 39.4958 26.2264 39.8117 25.5703C39.8749 25.4386 39.9102 25.2964 39.9015 25.1542C39.87 24.6468 39.3654 24.5579 38.9341 24.5091C38.4704 24.4567 38.0068 24.4041 37.5434 24.3519C37.0231 24.293 36.5114 24.5401 36.2735 24.9649L34.8394 26.9777C34.3421 27.8659 34.0714 28.8378 34.0468 29.8226C34.0386 30.1494 34.0576 30.4757 34.104 30.7988L36.4984 47.2641C36.6544 48.359 37.0123 49.4203 37.5693 50.3974C37.5804 50.417 37.5919 50.4364 37.603 50.4564C38.5306 52.0662 40.2067 53.2175 42.1921 53.6057C47.0922 54.5642 52.2453 54.0346 56.8468 52.1006L57.3871 51.8734C59.2525 51.0894 60.6583 49.6201 61.2358 47.8543C61.2428 47.8328 61.2499 47.8109 61.2566 47.7897C61.6012 46.7196 61.7339 45.6077 61.6617 44.504L60.6237 27.8989Z" fill="#9C44C0"/>
</g>
</g>
</svg>
