<svg width="98" height="98" viewBox="0 0 98 98" fill="none" xmlns="http://www.w3.org/2000/svg">
<g id="Frame">
<g id="Group">
<g id="Mask group">
<mask id="mask0_5333_31768" style="mask-type:luminance" maskUnits="userSpaceOnUse" x="9" y="9" width="80" height="80">
<g id="Group_2">
<path id="Vector" d="M9 9H89V89H9V9Z" fill="white"/>
</g>
</mask>
<g mask="url(#mask0_5333_31768)">
<path id="Vector_2" fill-rule="evenodd" clip-rule="evenodd" d="M81.9087 52.8407C77.3928 48.4515 76.1799 47.8068 75.9654 55.1349C75.8854 63.6163 73.2636 55.4776 70.5075 53.9847C68.7593 54.0574 68.283 52.5999 67.24 51.6563C63.7088 53.9342 54.4503 47.2618 56.4441 52.7642C58.7332 55.1054 66.9735 51.5974 61.2654 57.8364C49.5886 66.537 53.2057 51.175 47.5939 51.6933C45.5249 55.5457 50.6046 64.3222 55.62 61.8151C56.9085 60.7615 59.1399 59.7188 59.6517 62.0183C60.4814 67.219 52.3522 69.0588 52.8191 74.1426C52.3948 89.3321 34.3991 87.3989 35.3737 71.6292C33.5138 69.072 34.5157 65.282 31.538 63.9794C29.7079 61.4664 25.9167 63.5401 23.3287 62.8204C14.218 57.0709 18.9082 43.4521 29.3865 44.0953C32.411 44.052 35.6782 43.7049 36.9936 47.1884C38.908 48.7899 41.8695 46.4039 43.7058 48.6836C45.1047 49.8382 50.2985 48.1684 47.4475 46.741C45.9423 47.291 44.7272 45.9539 43.4123 46.0577C40.2226 47.1364 41.7315 39.835 38.8152 40.5202C39.617 43.5349 41.1128 45.4729 38.9764 44.603C34.951 33.9989 32.2959 45.1527 28.6671 42.7867C27.6533 42.1257 27.2692 40.8212 27.6627 39.6766C29.3627 34.7315 31.4486 39.215 32.6415 37.1595C31.2407 33.1915 32.7387 36.5841 37.3696 33.6675C38.2574 33.7199 38.6622 33.1288 38.7651 32.2931C40.1595 30.3752 39.4926 36.6377 42.8344 32.9939C43.5236 31.7305 46.1963 31.9268 44.0087 30.5859C45.9636 25.2174 43.3095 28.2855 42.4132 31.3627C40.9818 32.76 40.2473 31.358 39.9046 30.1385C34.8384 28.9177 46.561 22.7229 48.7683 26.012C50.7692 27.77 55.6303 24.9986 56.5833 23.0302C55.5955 19.2274 55.9533 19.53 59.1293 17.8844C67.182 8.3211 85.2696 37.6227 84.7413 46.2681C86.3142 48.7347 85.4779 53.3403 81.9087 52.8407ZM53.0029 81.0984C53.3312 78.6089 56.0853 74.8199 58.8505 75.4079C61.076 78.1141 55.2547 84.4666 53.0029 81.0984ZM30.3072 31.0588C29.9779 29.6951 33.7722 28.69 32.5436 30.6684C32.093 31.1984 30.7597 31.7913 30.3072 31.0588ZM33.5565 29.7766C33.8685 27.6659 37.2417 28.3002 35.4571 30.3482C34.3338 32.6396 35.4113 35.1746 31.4232 33.0617C31.6051 31.6129 34.236 31.7242 33.5565 29.7766ZM39.8993 15.9743C47.7366 18.4234 31.538 25.1704 30.3197 23.1597C28.9976 19.8041 37.9623 14.9317 39.8993 15.9743ZM49 9C26.9086 9 9 26.9086 9 49C9 71.0914 26.9086 89 49 89C71.0914 89 89 71.0914 89 49C89 26.9086 71.0914 9 49 9Z" fill="#005EEF"/>
</g>
</g>
</g>
</g>
</svg>
