<svg width="98" height="98" viewBox="0 0 98 98" fill="none" xmlns="http://www.w3.org/2000/svg">
<g id="Frame">
<g id="Group">
<path id="Vector" d="M88.6948 71.8349C88.0431 71.0881 86.8241 70.7132 85.8754 70.6938C84.3561 70.663 83.1746 71.5244 82.0574 72.4283C81.6066 72.7958 80.6482 73.4991 79.7301 73.8798C79.1729 74.1109 78.6004 73.5595 78.8047 72.9963C79.9461 69.8521 83.2502 60.9243 85.3222 56.9698C86.2681 55.1644 86.47 53.8497 85.9285 53.2902C85.4404 52.7856 84.4464 52.8542 83.2771 53.9623C81.4292 55.7134 79.2431 59.6841 77.3562 64.0159C77.1637 64.4576 76.8117 64.8112 76.3662 65.0029C75.6232 65.3195 76.0028 64.0644 76.0864 63.6505C76.9675 59.2787 78.7177 55.1481 79.8081 50.832C80.0775 49.7642 80.3788 48.6754 80.3593 47.5626C80.3442 46.6614 79.9139 45.7477 78.9911 45.7547C76.1157 45.7765 71.8649 63.74 70.8125 63.7668C69.1937 63.8045 72.1857 50.5877 72.1639 49.2879C72.1444 48.1818 71.8468 47.2826 70.9422 47.2894C67.0821 47.319 66.5215 63.4554 65.0008 63.531C64.5732 63.5524 64.1415 63.511 64.0851 60.2413C64.0323 57.1707 64.123 54.2052 64.1072 53.3041C64.0975 52.7415 63.8832 52.3266 63.249 52.3317C61.0705 52.3483 60.13 61.3049 60.2616 68.9601C60.3026 71.3528 60.4162 73.7543 60.744 76.1263C60.867 77.0156 61.0205 77.9021 61.2368 78.7734C61.3299 79.1473 61.4337 79.5189 61.5556 79.8846C61.7441 80.4482 61.9547 80.797 61.87 81.4002C61.8176 81.7677 61.7615 82.1345 61.6997 82.5006C61.56 83.3247 61.396 84.1444 61.2193 84.9614C60.8767 86.5459 60.486 88.1196 60.0722 89.6868C59.9731 90.0644 60.1323 90.4539 60.4521 90.6734C60.4521 90.6734 60.4535 90.6745 60.4545 90.6748C61.6473 91.5132 62.999 91.862 64.4143 91.8881C68.2935 91.9597 71.8068 89.5914 73.4518 86.0428C73.4901 85.96 73.5291 85.8779 73.5684 85.7958C73.907 85.0948 74.2926 84.4169 74.725 83.7702C75.3787 82.7934 75.9259 82.05 76.986 81.5197C78.2823 80.8716 79.5333 80.1031 80.7245 79.2769C83.183 77.5727 85.5308 75.5824 88.0129 73.9979C88.0129 73.9979 89.6646 72.9457 88.6948 71.8349ZM37.2886 49.6334C36.4705 49.3494 35.3762 49.5884 34.6405 49.9803C33.4628 50.6074 32.9247 51.7632 32.4536 52.923C32.2649 53.3933 31.8304 54.3345 31.2893 55.0145C30.9602 55.4275 30.2863 55.257 30.2025 54.7444C29.7365 51.8842 28.4607 43.7357 28.3619 39.8657C28.3166 38.0988 27.911 37.0208 27.2573 36.8305C26.6678 36.6593 25.9348 37.1364 25.511 38.4729C24.8419 40.5853 24.8601 44.516 25.2612 48.5913C25.302 49.007 25.1833 49.4244 24.9235 49.7596C24.4895 50.3165 24.2448 49.2075 24.1322 48.8593C22.9429 45.1847 22.5222 41.3202 21.5168 37.5975C21.268 36.6764 21.0339 35.7266 20.545 34.8955C20.1486 34.2224 19.4294 33.7173 18.7245 34.1177C16.5298 35.3658 20.9344 50.7346 20.139 51.2056C18.914 51.9272 15.57 40.677 14.9983 39.7064C14.5117 38.8801 13.9002 38.3294 13.2098 38.7219C10.2628 40.3974 16.7168 52.8081 15.5834 53.5164C15.2646 53.7156 14.9159 53.869 13.4781 51.4273C12.1278 49.1338 10.9323 46.8585 10.5356 46.1853C10.2882 45.7652 9.94713 45.5442 9.46295 45.8194C7.80004 46.7647 10.8997 53.9232 14.2667 59.6406C15.3184 61.4276 16.4299 63.1904 17.6934 64.8389C18.1669 65.4572 18.6628 66.0601 19.2005 66.6245C19.4311 66.867 19.6692 67.103 19.9187 67.3264C20.3034 67.6708 20.6139 67.8434 20.8061 68.3348C20.9231 68.6342 21.0367 68.935 21.1455 69.2375C21.3898 69.9189 21.6135 70.6077 21.8266 71.2994C21.8328 71.3188 21.8386 71.3382 21.8448 71.3577C22.972 75.0288 25.3096 78.2386 28.5753 80.2875C28.5966 80.3008 28.6179 80.3141 28.6388 80.3274C29.5777 80.9119 30.6219 81.4692 31.7131 81.889C33.8736 82.7208 36.0007 80.5975 35.1645 78.4504C34.5636 76.9072 33.9617 75.3641 33.3952 73.808C32.5541 71.4968 31.7948 69.1099 31.6489 66.6409C31.6095 65.967 31.6156 65.2904 31.6716 64.6176C31.756 63.601 31.8582 62.8057 32.445 61.9521C33.1619 60.9082 33.7926 59.793 34.3536 58.6595C35.5111 56.3214 36.4616 53.8151 37.6887 51.5568C37.6887 51.5568 38.5057 50.056 37.2886 49.6334Z" fill="#EA3BB7"/>
<path id="Vector_2" d="M67.1434 33.9305C67.1434 33.9305 68.6752 32.4199 67.3687 31.4687C66.49 30.8295 65.0889 30.7196 64.0624 30.9244C62.4177 31.2518 61.3481 32.4483 60.3574 33.6748C59.9582 34.1725 59.0916 35.1483 58.1922 35.7707C57.6462 36.1488 56.8992 35.698 56.9867 35.0506C57.4754 31.4363 58.9313 21.1579 60.232 16.4606C60.8251 14.3164 60.733 12.8703 60.0182 12.404C59.3733 11.983 58.3186 12.2918 57.3198 13.7478C55.7415 16.0484 54.3222 20.7899 53.3096 25.8443C53.2062 26.3596 52.911 26.8195 52.4762 27.129C51.7499 27.6419 51.8638 26.217 51.856 25.7572C51.775 20.8987 52.687 16.091 52.8446 11.242C52.8835 10.0422 52.951 8.81333 52.6687 7.63446C52.4392 6.6796 51.7608 5.80989 50.7681 6.03627C47.6752 6.74211 47.3289 26.8536 46.201 27.1323C44.4658 27.5564 44.5753 12.7912 44.2452 11.414C43.9635 10.2422 43.4311 9.35665 42.4585 9.57864C38.3062 10.5261 41.5044 27.8193 39.8841 28.2605C39.4283 28.3849 38.9535 28.443 38.1225 24.9793C37.342 21.7262 36.7408 18.5515 36.5113 17.5966C36.3687 17.0009 36.0396 16.6107 35.3574 16.7664C33.0145 17.301 34.1115 27.0492 36.0575 35.1588C36.6659 37.6936 37.3539 40.2206 38.2662 42.6652C38.6081 43.5815 38.9826 44.488 39.4208 45.3632C39.6089 45.7389 39.8082 46.1092 40.0261 46.4691C40.3616 47.0239 40.6714 47.3448 40.7216 48.0064C40.7524 48.4099 40.7785 48.813 40.7982 49.2171C40.8415 50.1266 40.8581 51.0372 40.8605 51.9482C40.8656 54.0836 40.7921 56.2187 40.6884 58.3514C40.4582 63.0821 40.0719 67.8043 39.6598 72.5225C39.327 76.3274 38.9433 80.1293 38.6739 83.9396C38.6105 84.8421 38.5397 85.7507 38.5499 86.6562C38.5898 90.2786 54.2117 94.5556 54.532 89.7414C54.9309 83.7491 54.9783 77.7408 54.6798 71.743C54.471 67.5476 54.0514 63.3663 53.8308 59.1721C53.6678 56.0828 53.6312 52.9317 54.3615 49.905C54.5611 49.0789 54.8167 48.2666 55.1305 47.4763C55.6046 46.2825 56.0188 45.3618 57.0362 44.5465C58.28 43.5497 59.4461 42.4354 60.5354 41.2741C62.782 38.8785 64.8425 36.2048 67.1434 33.9305Z" fill="#EA3BB7"/>
</g>
</g>
</svg>
