<svg width="230" height="55" viewBox="0 0 230 55" fill="none" xmlns="http://www.w3.org/2000/svg">
<g id="logo (1) 1">
<g id="Clip path group">
<mask id="mask0_598_47821" style="mask-type:luminance" maskUnits="userSpaceOnUse" x="2" y="3" width="226" height="50">
<g id="clip0_133_398">
<path id="Vector" d="M227.098 3.67578H2.57812V52.2256H227.098V3.67578Z" fill="white"/>
</g>
</mask>
<g mask="url(#mask0_598_47821)">
<g id="Group">
<path id="Vector_2" d="M183.438 13.7502C183.33 13.0219 183.186 12.9248 182.969 12.9248H160.364C156.866 12.9248 154.148 13.3496 154.04 13.8958L147.535 50.4781C147.535 50.6844 147.74 50.8422 147.992 50.9272C149.951 51.452 151.98 51.6609 154.004 51.5462H175.995C176.2 51.5462 176.38 51.352 176.536 51.1092C177.194 49.8312 177.626 48.4469 177.811 47.0189C178.101 45.7052 178.19 44.3545 178.075 43.0136C177.955 42.2489 177.811 42.1397 177.57 42.1397H161.735L162.805 36.1438H175.779C175.971 36.1438 176.152 35.9617 176.296 35.7311C176.912 34.5102 177.318 33.1929 177.498 31.835C177.781 30.59 177.861 29.3071 177.739 28.0359C177.631 27.3077 177.498 27.2106 177.27 27.2106H164.392L165.354 21.858H181.454C181.567 21.8387 181.674 21.7906 181.766 21.7185C181.856 21.6464 181.927 21.5525 181.971 21.4453C182.599 20.2294 183.006 18.9099 183.174 17.5492C183.455 16.3041 183.54 15.022 183.426 13.7502" fill="#FF0000"/>
<path id="Vector_3" d="M129.055 50.4039C129.152 50.6467 129.188 50.7317 129.572 50.9016C131.806 51.4212 134.099 51.6415 136.39 51.557C138.887 51.6813 141.391 51.469 143.833 50.9259C144.181 50.7924 144.422 50.6831 144.302 50.3433L134.887 29.5882L149.099 14.1615C149.327 13.8945 149.243 13.761 149.027 13.6275C148.245 13.1541 145.552 12.8871 142.462 12.8871C140.411 12.7908 138.357 12.9994 136.366 13.5061C136.134 13.6014 135.928 13.7511 135.765 13.943L123.14 27.5977L125.544 13.9673C125.544 13.6639 125.22 13.5546 124.919 13.4454C122.926 12.9858 120.878 12.802 118.835 12.8992C117.006 12.8509 115.18 13.0427 113.4 13.4697C113.124 13.5789 112.883 13.6882 112.823 13.9916L106.391 50.4039C106.391 50.7074 106.463 50.7924 106.679 50.8895C108.59 51.4372 110.575 51.6709 112.559 51.5813C114.616 51.6872 116.676 51.4702 118.667 50.938C118.859 50.8409 119.016 50.7802 119.076 50.5617L122.13 33.3144L129.055 50.4039Z" fill="#FF0000"/>
<path id="Vector_4" d="M226.46 13.4464C224.466 12.9868 222.419 12.803 220.376 12.9003C218.547 12.853 216.721 13.0448 214.941 13.4707C214.775 13.5261 214.624 13.6172 214.496 13.7377L198.866 33.2305L199.226 31.7497L202.413 13.9926C202.413 13.6892 202.088 13.58 201.787 13.4707C199.794 13.0111 197.746 12.8273 195.703 12.9245C193.879 12.876 192.055 13.0678 190.281 13.495C190.004 13.6042 189.752 13.7135 189.703 14.0169L183.223 50.4293C183.223 50.7327 183.295 50.8177 183.511 50.9148C185.422 51.4615 187.407 51.6952 189.391 51.6066C191.448 51.7135 193.508 51.4965 195.499 50.9633C195.62 50.9179 195.731 50.8476 195.824 50.757L211.37 31.4584L211.01 32.9028L207.895 50.405C207.835 50.7084 207.968 50.7934 208.184 50.8905C210.095 51.4384 212.08 51.6719 214.064 51.5823C216.121 51.6883 218.18 51.4713 220.172 50.939C220.364 50.8419 220.52 50.7812 220.58 50.5628L227.085 13.9926C227.085 13.6892 226.761 13.58 226.46 13.4707" fill="#FF0000"/>
<path id="Vector_5" d="M211.959 3.67541C210.806 3.64917 209.656 3.79231 208.544 4.10023C208.22 4.20947 207.883 4.39153 207.823 4.62214L205.418 16.0678C205.418 16.1649 205.418 16.2255 205.574 16.3105C206.091 16.5307 206.649 16.6343 207.21 16.6139C207.765 16.6341 208.321 16.5686 208.857 16.4197C209.06 16.3702 209.236 16.2442 209.35 16.0678L216.035 4.94986C216.085 4.85373 216.099 4.74194 216.072 4.63635C216.046 4.53087 215.981 4.43923 215.891 4.3794C214.662 3.82229 213.315 3.58046 211.971 3.67541" fill="#FF0000"/>
<path id="Vector_6" d="M109.744 3.67541C108.591 3.64917 107.441 3.79231 106.329 4.10023C106.017 4.20947 105.68 4.39153 105.608 4.62214L103.203 16.0678C103.203 16.1649 103.203 16.2255 103.359 16.3105C103.877 16.5292 104.434 16.6328 104.995 16.6139C105.546 16.6329 106.098 16.5673 106.63 16.4197C106.731 16.3971 106.827 16.3542 106.911 16.2938C106.996 16.2333 107.068 16.1565 107.123 16.0678L113.808 4.94986C113.859 4.85373 113.872 4.74194 113.845 4.63635C113.819 4.53087 113.754 4.43923 113.664 4.3794C112.435 3.82229 111.088 3.58046 109.744 3.67541Z" fill="#FF0000"/>
<path id="Vector_7" d="M102.845 26.9072C103.374 42.6859 90.6767 52.2259 78.3163 52.2259C68.0119 52.2259 61.5672 46.8733 61.2546 37.2968C60.7616 22.6226 71.5228 11.6504 85.7229 11.6504C97.3739 11.6504 102.556 18.6052 102.845 26.9072ZM74.1079 35.9496C74.2282 39.5908 75.6831 42.8072 80.1198 42.8072C86.3241 42.8072 90.352 35.6825 90.0995 28.0845C89.9673 24.2248 88.2479 21.0691 83.9314 21.0691C76.7171 21.0691 73.9757 30.0629 74.1681 35.9496" fill="#FF0000"/>
<path id="Vector_8" d="M21.3838 51.9214C20.1815 52.055 18.9791 52.1643 17.7767 52.2248C17.7767 52.2248 2.43441 45.4643 2.62679 30.9357C2.77108 19.66 7.96534 16.3708 7.96534 16.3708C10.5194 17.5291 12.8389 19.1546 14.8068 21.1651C16.3936 22.9481 17.7067 24.961 18.7025 27.1367C20.071 21.5424 23.176 16.5366 27.564 12.8509C38.5057 2.84973 50.337 3.68715 50.337 3.68715C52.0102 8.0303 52.8822 12.6456 52.9101 17.3054C53.1025 35.6693 42.0887 48.9234 24.8948 51.4602C23.6924 51.6301 22.5862 51.7879 21.4199 51.9214" fill="#FF0000"/>
<path id="Vector_9" d="M20.1927 51.157C24.5537 50.5898 28.74 49.0708 32.4608 46.7057C36.1817 44.3406 39.3478 41.1859 41.7391 37.4611C44.1305 33.7362 45.6896 29.5304 46.3085 25.136C46.9272 20.7415 46.5907 16.2636 45.3223 12.0137C39.8982 12.2638 34.6412 13.9854 30.1047 16.9971C25.5681 20.0087 21.9196 24.1992 19.5434 29.1275C18.6528 31.2137 17.9173 33.3639 17.343 35.5603C17.33 35.6429 17.31 35.7242 17.2829 35.8031C17.1025 36.3614 16.9943 36.5435 16.9342 36.5071C15.9563 41.4135 16.196 46.488 17.6316 51.2783C18.4867 51.2831 19.3416 51.2425 20.1927 51.157Z" fill="url(#paint0_linear_598_47821)"/>
<path id="Vector_10" d="M20.1966 51.157C24.5576 50.5898 28.7439 49.0708 32.4648 46.7057C36.1856 44.3406 39.3517 41.1859 41.743 37.4611C44.1344 33.7362 45.6935 29.5304 46.3124 25.136C46.9311 20.7415 46.5946 16.2636 45.3262 12.0137C39.9022 12.2638 34.6451 13.9854 30.1086 16.9971C25.572 20.0087 21.9235 24.1992 19.5473 29.1275C18.6567 31.2137 17.9212 33.3639 17.3469 35.5603C17.3339 35.6429 17.3139 35.7242 17.2868 35.8031C17.1065 36.3614 16.9982 36.5435 16.9381 36.5071C15.9602 41.4135 16.1999 46.488 17.6355 51.2783C18.4906 51.2831 19.3455 51.2425 20.1966 51.157Z" fill="url(#paint1_linear_598_47821)"/>
<path id="Vector_11" d="M17.6432 51.2783C16.2076 46.4879 15.968 41.4135 16.9458 36.507C16.8945 35.5433 16.9631 34.5769 17.1502 33.6305C17.3426 32.3318 17.547 31.203 17.7875 29.9892C15.6203 26.8103 12.6973 24.2312 9.28669 22.4883C7.75883 24.8835 6.76038 27.583 6.35939 30.4029C5.95839 33.2228 6.16424 36.0969 6.9631 38.8292C7.76184 41.5616 9.13471 44.0879 10.9882 46.2362C12.8416 48.3845 15.132 50.1043 17.7033 51.2783H17.6432Z" fill="url(#paint2_linear_598_47821)"/>
</g>
</g>
</g>
</g>
<defs>
<linearGradient id="paint0_linear_598_47821" x1="32.9921" y1="29.7045" x2="38.7748" y2="53.3296" gradientUnits="userSpaceOnUse">
<stop stop-color="#00A03A"/>
<stop offset="0.25" stop-color="#30AA31"/>
<stop offset="0.78" stop-color="#93C01F"/>
<stop offset="1" stop-color="#93C01F"/>
</linearGradient>
<linearGradient id="paint1_linear_598_47821" x1="32.996" y1="29.7045" x2="38.7787" y2="53.3296" gradientUnits="userSpaceOnUse">
<stop stop-color="#00A03A"/>
<stop offset="0.25" stop-color="#30AA31"/>
<stop offset="0.78" stop-color="#93C01F"/>
<stop offset="1" stop-color="#93C01F"/>
</linearGradient>
<linearGradient id="paint2_linear_598_47821" x1="10.3234" y1="26.2346" x2="17.3713" y2="51.7388" gradientUnits="userSpaceOnUse">
<stop stop-color="#00A03A"/>
<stop offset="0.25" stop-color="#30AA31"/>
<stop offset="0.78" stop-color="#93C01F"/>
<stop offset="1" stop-color="#93C01F"/>
</linearGradient>
</defs>
</svg>
