<svg width="230" height="26" viewBox="0 0 230 26" fill="none" xmlns="http://www.w3.org/2000/svg">
<g id="logo 1" clip-path="url(#clip0_598_47798)">
<g id="Clip path group">
<mask id="mask0_598_47798" style="mask-type:luminance" maskUnits="userSpaceOnUse" x="0" y="0" width="230" height="26">
<g id="clip0_519_1206">
<path id="Vector" d="M230 0H0V26H230V0Z" fill="white"/>
</g>
</mask>
<g mask="url(#mask0_598_47798)">
<g id="Group">
<path id="Vector_2" d="M49.4862 0.419731H33.5611C31.8147 0.419731 30.4129 1.76349 30.4129 3.39362C30.4129 5.0678 31.8147 6.38952 33.5611 6.38952H38.3409V22.6908C38.3409 24.365 39.7888 25.6647 41.5352 25.6647C43.3046 25.6647 44.7294 24.365 44.7294 22.6908V6.38952H49.4862C51.2328 6.38952 52.6345 5.0678 52.6345 3.39362C52.6115 1.76349 51.2098 0.419731 49.4862 0.419731ZM187.021 10.553L181.827 9.75992C180.564 9.56167 179.644 8.96689 179.644 7.77733C179.644 6.19126 181.092 5.79475 182.38 5.79475C183.896 5.79475 184.839 5.86083 185.918 5.92691C187.319 5.99301 188.561 6.08112 189.572 6.08112C191.318 6.08112 192.628 4.86954 192.628 3.30549C192.628 1.52117 191.227 0.463788 189.595 0.331615C187.251 0.155386 186.171 0.133356 182.838 0.133356C177.392 0.133356 173.463 2.90898 173.463 7.73328C173.463 11.9187 175.945 14.452 179.99 15.0909C182.012 15.3993 183.252 15.5315 185.09 15.8839C186.378 16.1263 187.296 16.6328 187.296 17.8885C187.296 19.3425 186.148 19.849 184.86 19.849C181.827 19.849 178.956 19.5628 177.071 19.5628C176.197 19.5628 175.738 19.739 175.163 20.1355C174.451 20.6422 173.991 21.5233 173.991 22.4044C173.991 24.1668 175.393 25.2682 177.048 25.3782C179.392 25.5105 180.816 25.6206 184.126 25.6206C189.572 25.6206 193.479 22.8009 193.479 17.9766C193.479 13.7471 190.997 11.1698 187.021 10.553ZM95.2393 0.155386C87.564 0.155386 81.9109 5.59648 81.9109 12.91C81.9109 20.2015 87.564 25.6206 95.2393 25.6206C102.915 25.6206 108.568 20.1795 108.568 12.91C108.568 5.59648 102.846 0.155386 95.2393 0.155386ZM95.2393 19.739C91.1029 19.739 88.2764 16.8091 88.2764 12.91C88.2764 9.01095 91.0799 6.03707 95.2393 6.03707C99.3757 6.03707 102.202 9.01095 102.202 12.91C102.202 16.8091 99.3757 19.739 95.2393 19.739ZM70.6277 12.7118L78.3261 5.08983C79.4751 3.94433 79.3832 2.04986 78.1882 0.97045C77.0162 -0.175045 75.04 -0.130988 73.891 1.01451L66.4685 8.32806L65.9399 8.85674C65.2505 9.53963 64.7679 9.64978 64.2624 9.64978C63.4581 9.64978 62.8147 9.14311 62.8147 8.35008V3.10724C62.8147 1.45509 61.3898 0.133356 59.6664 0.133356C57.9429 0.133356 56.5182 1.45509 56.5182 3.10724V22.6687C56.5182 24.3209 57.9429 25.6427 59.6664 25.6427C61.3898 25.6427 62.8147 24.3209 62.8147 22.6687V17.0955C62.8147 16.3466 63.4811 15.8179 64.2624 15.8179C64.7679 15.8179 65.2505 15.906 65.9399 16.6109L66.4685 17.1396L74.1437 24.7395C75.3157 25.8849 77.2919 25.9511 78.4869 24.7836C79.6589 23.682 79.7738 21.7876 78.6248 20.6201L70.6277 12.7118ZM134.443 0.111328C132.719 0.111328 131.318 1.43305 131.318 3.10724V14.6503L119.46 1.21277L119.437 1.23479C118.863 0.551903 117.989 0.111328 116.978 0.111328C115.301 0.111328 113.876 1.43305 113.876 3.10724V22.6908C113.876 24.343 115.278 25.6427 116.978 25.6427C118.725 25.6427 120.104 24.343 120.104 22.6908V11.0596L131.8 24.2549C132.352 25.0919 133.34 25.6206 134.443 25.6206C136.189 25.6206 137.545 24.3209 137.545 22.6687V3.10724C137.545 1.43305 136.189 0.111328 134.443 0.111328ZM155.906 0.155386C148.231 0.155386 142.578 5.59648 142.578 12.91C142.578 20.2015 148.231 25.6206 155.906 25.6206C163.582 25.6206 169.235 20.1795 169.235 12.91C169.212 5.59648 163.512 0.155386 155.906 0.155386ZM155.906 19.739C151.769 19.739 148.943 16.8091 148.943 12.91C148.943 9.01095 151.748 6.03707 155.906 6.03707C160.042 6.03707 162.869 9.01095 162.869 12.91C162.847 16.8091 160.042 19.739 155.906 19.739ZM23.45 0.199443C21.7954 0.199443 20.3477 1.58725 20.3477 3.32752V13.4167C20.3477 17.1836 17.5442 19.7169 13.7984 19.7169C10.0757 19.7169 7.24917 17.1836 7.24917 13.4167V3.32752C7.24917 1.58725 5.82442 0.199443 4.14688 0.199443C2.33147 0.199443 0.929688 1.58725 0.929688 3.32752V13.3066C0.929688 17.0514 2.23954 20.0474 4.42263 22.1622C6.72063 24.365 9.9608 25.6427 13.7525 25.6427C17.5902 25.6427 20.8303 24.365 23.1282 22.1622C25.3344 20.0474 26.6212 17.0734 26.6212 13.3066V3.32752C26.6672 1.58725 25.2654 0.199443 23.45 0.199443Z" fill="black"/>
<path id="Vector_3" fill-rule="evenodd" clip-rule="evenodd" d="M203.727 0.111328C201.98 0.111328 200.578 1.45508 200.578 3.12927V22.5586C200.578 24.2329 201.98 25.5767 203.727 25.5767H216.366C223.697 25.5767 229.648 19.8711 229.648 12.844C229.648 5.81678 223.697 0.111328 216.366 0.111328C211.333 0.111328 208.76 0.111328 203.727 0.111328Z" fill="#FFC709"/>
<path id="Vector_4" fill-rule="evenodd" clip-rule="evenodd" d="M219.882 13.7691C219.192 13.7691 218.641 14.3199 218.641 14.9807C218.641 15.6415 219.192 16.1702 219.882 16.1702C220.57 16.1702 221.123 15.6415 221.123 14.9807C221.123 14.3199 220.57 13.7691 219.882 13.7691ZM219.882 9.51758C219.192 9.51758 218.641 10.0683 218.641 10.7071C218.641 11.368 219.192 11.8967 219.882 11.8967C220.57 11.8967 221.123 11.346 221.123 10.7071C221.123 10.0683 220.57 9.51758 219.882 9.51758Z" fill="black"/>
</g>
</g>
</g>
</g>
<defs>
<clipPath id="clip0_598_47798">
<rect width="230" height="26" fill="white"/>
</clipPath>
</defs>
</svg>
