<svg width="128" height="42" viewBox="0 0 128 42" fill="none" xmlns="http://www.w3.org/2000/svg">
<g id="logo">
<g id="logo_2">
<path id="Vector" d="M73.1424 40.334H56.7812V9.32324H73.5548V9.46061L71.3549 12.3551L60.7684 12.4932V21.5896H72.7298V21.8646L71.2172 24.6214H60.7684V37.4398H74.6544V37.5774L73.1424 40.334Z" fill="white"/>
<g id="Group">
<path id="Vector_2" d="M123.736 40.4716L112.875 23.9326C117.412 24.07 120.712 23.243 122.361 21.5896C123.736 20.2114 124.012 18.4193 124.012 16.7658C124.012 13.1823 121.949 11.8041 117.962 11.8041H111.638V40.334H107.65V9.32324H118.375C121.674 9.32324 124.561 10.2878 126.211 12.0795C127.311 13.32 127.999 14.6984 127.999 16.3524C127.999 22.2784 124.149 24.6215 118.1 25.1734L127.999 40.4717H123.736V40.4716Z" fill="white"/>
<path id="Vector_3" d="M31.6219 35.3717C30.2472 36.0607 27.2226 37.99 21.0356 37.99C12.9239 37.99 5.087 31.7878 5.087 21.0375C5.087 11.1142 12.0988 4.08509 20.8983 4.08509C28.1849 4.08509 31.0723 6.70344 31.3471 6.84192L34.0969 5.04973C32.0345 3.53339 27.91 0.915039 20.8983 0.915039C8.11209 1.05269 0 10.012 0 20.7617C0 33.0284 8.3868 41.0224 20.8983 41.0224C24.4729 41.0224 27.6349 40.3333 30.5219 39.0926C31.7599 38.5416 32.7219 37.9899 33.8217 37.1633L31.6219 35.3717Z" fill="white"/>
</g>
<path id="Vector_4" d="M41.1093 9.18457H41.2469V37.4393H53.7582L53.8957 37.5769L52.3832 40.3335H37.2598V10.7006L41.1093 9.18457Z" fill="white"/>
<g id="Group_2">
<path id="Vector_5" d="M75.6191 40.4701L90.7426 8.3564V8.21875H91.1549L105.866 40.1945L106.004 40.4701H101.604V40.3324C100.367 37.8515 99.817 36.1974 90.3304 15.7992L85.518 26.9634H92.942L94.317 29.7202L94.4548 29.9953H84.0059C83.7308 30.8223 79.8809 38.8161 79.1935 40.3324L75.6191 40.4701Z" fill="white"/>
</g>
<path id="Vector_6" d="M73.1424 40.334H56.7812V9.32324H73.5548V9.46061L71.3549 12.3551L60.7684 12.4932V21.5896H72.7298V21.8646L71.2172 24.6214H60.7684V37.4398H74.6544V37.5774L73.1424 40.334Z" fill="white"/>
<g id="Group_3">
<path id="Vector_7" d="M123.736 40.4716L112.875 23.9326C117.412 24.07 120.712 23.243 122.361 21.5896C123.736 20.2114 124.012 18.4193 124.012 16.7658C124.012 13.1823 121.949 11.8041 117.962 11.8041H111.638V40.334H107.65V9.32324H118.375C121.674 9.32324 124.561 10.2878 126.211 12.0795C127.311 13.32 127.999 14.6984 127.999 16.3524C127.999 22.2784 124.149 24.6215 118.1 25.1734L127.999 40.4717H123.736V40.4716Z" fill="white"/>
<path id="Vector_8" d="M31.6219 35.3717C30.2472 36.0607 27.2226 37.99 21.0356 37.99C12.9239 37.99 5.087 31.7878 5.087 21.0375C5.087 11.1142 12.0988 4.08509 20.8983 4.08509C28.1849 4.08509 31.0723 6.70344 31.3471 6.84192L34.0969 5.04973C32.0345 3.53339 27.91 0.915039 20.8983 0.915039C8.11209 1.05269 0 10.012 0 20.7617C0 33.0284 8.3868 41.0224 20.8983 41.0224C24.4729 41.0224 27.6349 40.3333 30.5219 39.0926C31.7599 38.5416 32.7219 37.9899 33.8217 37.1633L31.6219 35.3717Z" fill="white"/>
</g>
<path id="Vector_9" d="M41.1093 9.18457H41.2469V37.4393H53.7582L53.8957 37.5769L52.3832 40.3335H37.2598V10.7006L41.1093 9.18457Z" fill="white"/>
<g id="Group_4">
<path id="Vector_10" d="M75.6191 40.4701L90.7426 8.3564V8.21875H91.1549L105.866 40.1945L106.004 40.4701H101.604V40.3324C100.367 37.8515 99.817 36.1974 90.3304 15.7992L85.518 26.9634H92.942L94.317 29.7202L94.4548 29.9953H84.0059C83.7308 30.8223 79.8809 38.8161 79.1935 40.3324L75.6191 40.4701Z" fill="white"/>
</g>
</g>
</g>
</svg>
