<svg width="121" height="83" viewBox="0 0 121 83" fill="none" xmlns="http://www.w3.org/2000/svg">
<g id="dove (2) 1" clip-path="url(#clip0_4054_28182)">
<path id="Vector" d="M73.9975 25.7146C73.9408 20.5725 71.2542 16.0737 64.4081 16.0859C53.7263 16.1062 46.1074 26.6958 46.1479 35.6853C46.1722 41.3567 49.3848 45.424 55.7413 45.4077C65.8486 45.4077 73.9975 35.5917 73.9975 25.7146ZM56.1459 43.9542C53.1275 43.9542 51.6223 41.4544 51.6385 36.7235C51.6709 26.9523 58.6383 17.5394 64.3515 17.5394C67.374 17.5394 68.6849 20.3689 68.7011 24.5054C68.7537 33.1896 62.5509 43.9542 56.1459 43.9542ZM120.532 19.8397C119.889 17.6249 117.101 15.5525 112.46 16.0085C101.244 17.12 94.127 28.7925 96.138 38.0345C96.7975 41.0839 98.9258 45.428 105.849 45.428C107.915 45.4313 109.953 44.9428 111.796 44.0025C113.639 43.0621 115.235 41.6965 116.454 40.0172C117.866 37.9083 117.542 36.6869 115.944 38.5923C114.637 40.1597 110.801 44.1619 106.589 43.6692C102.498 43.1888 100.973 38.2543 101.511 33.2018C117.582 30.4252 121.782 24.1268 120.532 19.8397ZM106.88 20.3404C108.305 18.7119 110.271 17.5516 111.817 17.3399C117.68 16.5256 117.761 28.9269 101.649 31.7361C102.616 25.8897 105.031 22.3639 106.88 20.3527V20.3404ZM45.0069 25.1731C43.4815 41.7028 28.6848 44.7156 20.8798 45.2163C16.8741 45.4688 11.9054 45.3955 1.38951 45.3955C-0.669971 45.3955 -0.0873281 44.7766 1.31264 42.285C2.7126 39.7933 5.57727 32.6807 9.87427 21.2646C14.1268 9.9748 21.3167 7.60121 22.1583 7.27143C23.1092 6.90094 26.1721 6.34317 25.0716 7.27143C21.8063 10.0644 18.5977 14.1357 14.8955 24.8637C11.3997 35.0054 8.29628 41.9633 6.75874 43.5919V43.6244C6.75874 43.6244 14.2765 44.2514 20.9202 43.0422C27.564 41.833 34.5517 38.8732 38.0313 27.6159C41.4422 16.5663 36.506 6.97015 27.2888 3.66422C18.0717 0.358289 9.939 3.45251 6.67377 6.31059C5.27381 7.53199 4.59406 8.89182 4.21777 9.26639C3.93049 9.55138 3.91026 9.19718 3.91431 8.67198C3.93858 6.95794 7.71363 0.325727 18.9781 0.289085C30.4772 0.272799 46.4878 9.15239 45.0069 25.1731ZM82.0655 39.6915C88.8994 33.9916 92.7635 25.9426 93.3947 21.9364C94.0259 17.9302 93.3218 16.5704 93.771 16.3831C94.2201 16.1958 96.5426 18.1378 96.3969 21.1669C96.3362 22.5023 95.5877 27.3106 89.3971 35.0095C83.1053 42.802 77.6147 45.9695 76.9188 45.4199C76.2229 44.8703 77.4529 37.892 77.202 29.4765C76.9512 21.0611 75.2801 19.1842 74.7743 17.2299C74.6368 16.7047 75.098 16.8228 75.098 16.8228C75.2235 16.8432 79.8968 17.7103 81.5435 22.2906C83.3117 27.2169 82.4094 36.5403 82.0372 39.7078C82.0534 39.6793 82.0493 39.6956 82.0655 39.6915Z" fill="#00205C"/>
<path id="Vector_2" d="M83.8782 63.7104C83.8782 63.9018 83.6314 63.9344 83.3603 64.0158C81.7418 64.5084 80.6413 65.4489 78.339 69.6383C76.0368 73.8277 68.0416 95.243 33.3419 72.1585C33.2772 72.1137 32.9373 71.8897 32.9009 71.7717C32.8966 71.7575 32.8952 71.7426 32.8967 71.7279C32.8983 71.7132 32.9028 71.6989 32.91 71.686C32.9172 71.6731 32.9269 71.6617 32.9385 71.6527C32.9502 71.6436 32.9635 71.637 32.9777 71.6333C33.0499 71.619 33.1241 71.619 33.1962 71.6333C33.4754 71.6984 34.0945 71.8287 34.932 72.02C38.3874 72.8017 46.9936 73.7219 52.8605 72.8628C54.2757 72.7004 55.6658 72.3641 56.9997 71.8612C57.9303 71.4867 57.9101 71.1528 57.8291 71.0063C57.7482 70.8597 57.6794 70.7376 56.4818 71.0063C55.1749 71.275 53.2165 71.3075 50.4126 70.9086C46.9745 70.3939 43.6731 69.1938 40.7018 67.3787C40.7018 67.3787 39.8076 66.8454 39.8926 66.6418C39.929 66.5604 40.1232 66.6052 40.192 66.6133L40.544 66.6459C46.0994 66.8006 51.3149 64.6102 59.0227 59.8793C62.9151 57.4935 66.9653 57.8436 68.9156 59.6106C68.9156 59.6106 72.3912 62.204 69.1664 66.9919C68.426 68.1523 69.215 68.5431 72.3224 65.1843C75.4298 61.8254 78.8488 59.8915 82.5591 62.774L83.6071 63.4906C83.6071 63.4906 83.862 63.6086 83.8782 63.7104Z" fill="url(#paint0_linear_4054_28182)"/>
</g>
<defs>
<linearGradient id="paint0_linear_4054_28182" x1="32.8928" y1="70.4322" x2="91.404" y2="70.4322" gradientUnits="userSpaceOnUse">
<stop stop-color="#FBDEAE"/>
<stop offset="0.18" stop-color="#E3B783"/>
<stop offset="0.44" stop-color="#FFFBDA"/>
<stop offset="0.49" stop-color="#FDF7D5"/>
<stop offset="0.54" stop-color="#F8EDC8"/>
<stop offset="0.6" stop-color="#F0DBB2"/>
<stop offset="0.66" stop-color="#E5C393"/>
<stop offset="0.7" stop-color="#DBAE78"/>
<stop offset="0.82" stop-color="#E4C079"/>
<stop offset="0.97" stop-color="#FFFBDA"/>
</linearGradient>
<clipPath id="clip0_4054_28182">
<rect width="121" height="83" fill="white"/>
</clipPath>
</defs>
</svg>
