<svg width="230" height="27" viewBox="0 0 230 27" fill="none" xmlns="http://www.w3.org/2000/svg">
<g id="logo" clip-path="url(#clip0_598_47768)">
<path id="Vector" d="M7.70849 25.7661L0.75 0.894531H5.35765L10.7176 19.9916L16.4536 0.894531H20.7321L26.4682 20.0825L31.8281 0.894531H36.3887L29.4302 25.7661H24.1173L18.5224 7.21474L12.9744 25.7661H7.70849Z" fill="#BE11A5"/>
<path id="Vector_2" d="M39.5859 0.894531H43.9585V25.7661H39.5859V0.894531Z" fill="#BE11A5"/>
<path id="Vector_3" d="M53.2199 21.8553H63.7987V25.7656H48.9414V0.939453H53.2199V21.8553Z" fill="#BE11A5"/>
<path id="Vector_4" d="M77.2458 0.939959C80.5839 0.849021 83.8281 2.16763 86.1319 4.53202C90.8806 9.48816 90.8806 17.2179 86.1319 22.174C83.8281 24.5384 80.5839 25.857 77.2458 25.7661H66.9961V0.939959H77.2458ZM77.2458 21.8558C79.6906 21.8558 81.7124 21.0373 83.2169 19.4459C84.8155 17.809 85.6618 15.581 85.5677 13.353C85.6618 11.0796 84.8155 8.89706 83.2169 7.26017C81.6653 5.66875 79.5026 4.75937 77.2458 4.85031H71.2746V21.8558H77.2458Z" fill="#BE11A5"/>
<path id="Vector_5" d="M112.647 18.6725C112.694 20.5822 111.848 22.4464 110.39 23.7195C108.886 25.0836 106.911 25.8111 104.842 25.7657H93.6992V0.939512H104.043C106.018 0.894043 107.945 1.62155 109.45 2.89469C110.907 4.12235 111.707 5.94112 111.66 7.80535C111.754 9.80599 110.719 11.7157 109.027 12.8524C111.283 13.9437 112.694 16.2171 112.647 18.6725ZM97.9777 4.75892V11.3065H104.043C105.924 11.3065 107.428 9.85146 107.428 8.0327C107.428 6.21393 105.924 4.75892 104.043 4.75892H97.9777ZM104.842 21.9008C106.817 21.8098 108.368 20.2184 108.274 18.3087C108.227 16.49 106.676 15.0349 104.842 14.9895H97.9777V21.9463L104.842 21.9008Z" fill="#BE11A5"/>
<path id="Vector_6" d="M121.017 21.8553H132.536V25.7656H116.738V0.939453H132.348V4.8498H121.017V11.3064H131.455V15.1713H121.017V21.8553Z" fill="#BE11A5"/>
<path id="Vector_7" d="M151.201 25.7659L145.653 16.7175H140.622V25.7659H136.344V0.894287H146.781C148.991 0.848818 151.154 1.71273 152.706 3.25868C154.304 4.71369 155.197 6.7598 155.15 8.89685C155.103 12.0797 153.082 14.9442 149.979 16.081L155.903 25.7659H151.201ZM140.622 4.75916V13.08H146.734C149.085 12.9891 150.919 11.0339 150.825 8.71497C150.731 6.57793 148.944 4.8501 146.734 4.75916H140.622Z" fill="#BE11A5"/>
<path id="Vector_8" d="M174.006 25.7659L168.505 16.7175H163.474V25.7659H159.195V0.894287H169.633C171.843 0.848818 174.006 1.71273 175.557 3.25868C177.156 4.71369 178.049 6.7598 178.002 8.89685C177.955 12.0797 175.933 14.9442 172.83 16.081L178.754 25.7659H174.006ZM163.474 4.75916V13.08H169.586C171.984 12.9436 173.771 10.9884 173.629 8.6695C173.488 6.57792 171.749 4.8501 169.586 4.75916H163.474Z" fill="#BE11A5"/>
<path id="Vector_9" d="M181.859 0.894531H186.138V25.7661H181.859V0.894531Z" fill="#BE11A5"/>
<path id="Vector_10" d="M195.447 21.8553H206.966V25.7656H191.168V0.939453H206.778V4.8498H195.447V11.3064H205.884V15.1713H195.447V21.8553Z" fill="#BE11A5"/>
<path id="Vector_11" d="M209.973 20.1272L213.687 18.0811C214.721 20.9002 216.884 22.2643 220.128 22.2643C223.372 22.2643 224.971 20.9457 224.971 18.9905C225.018 18.0811 224.501 17.1717 223.655 16.717C222.808 16.1714 221.257 15.5803 219.047 14.9437C216.555 14.2162 215.333 13.7615 213.593 12.6703C211.853 11.579 211.054 9.89667 211.054 7.66869C210.96 5.66804 211.9 3.71287 213.499 2.43974C215.145 1.12113 217.26 0.439093 219.423 0.484562C223.325 0.348154 226.899 2.53067 228.497 5.94086L224.924 7.89603C223.843 5.62257 222.009 4.44038 219.47 4.44038C216.931 4.44038 215.38 5.62257 215.38 7.53228C215.38 9.44198 216.649 10.215 220.645 11.3972C221.633 11.7154 222.338 11.9428 222.808 12.1247C223.278 12.3065 223.937 12.5339 224.736 12.8522C225.394 13.0795 226.052 13.4433 226.617 13.8525C227.98 14.8983 229.485 16.5806 229.297 18.945C229.391 21.0366 228.45 22.9918 226.758 24.3104C225.065 25.629 222.855 26.2656 220.081 26.2656C214.956 26.2201 211.289 23.9012 209.973 20.1272Z" fill="#BE11A5"/>
</g>
<defs>
<clipPath id="clip0_598_47768">
<rect width="230" height="27" fill="white"/>
</clipPath>
</defs>
</svg>
