<svg width="16" height="16" viewBox="0 0 16 16" fill="none" xmlns="http://www.w3.org/2000/svg">
<g id="logo" clip-path="url(#clip0_4972_30596)">
<g id="logo-sketch">
<g id="text">
<path id="Mask" d="M12.9 12.5726C13.091 12.5726 13.2182 12.6817 13.2273 12.8181C13.2273 12.9181 13.1455 12.9999 13.0455 12.9999C12.8273 12.9999 12.8819 12.8363 12.791 12.8363C12.5873 12.8363 12.4274 13.1493 12.275 13.4844L12.2516 13.536L12.2167 13.6137L12.1819 13.6908C12.1 13.8545 12.0637 13.8817 12 13.8817C11.8455 13.8817 11.8182 13.4726 11.7546 13.2908C11.6273 13.5635 11.3728 13.8817 10.9728 13.8817C10.7364 13.8726 10.5091 13.7545 10.5091 13.3908C10.5091 12.9817 10.7819 12.6908 11.0546 12.6908C11.2637 12.6908 11.4 12.909 11.4 13.0545C11.391 13.4545 10.8546 13.4635 10.8546 13.5454C10.8546 13.6272 10.991 13.6545 11.0728 13.6545C11.4182 13.6545 11.6455 13.209 11.7273 12.8999C11.7455 12.8454 11.791 12.7363 11.891 12.7363C12 12.7363 11.9455 13.409 12.1 13.409C12.2 13.409 12.3273 12.5726 12.9 12.5726ZM7.51823 11.6545C7.70004 11.6454 7.8455 11.8181 7.86368 12.0908C7.90004 12.8181 7.65459 13.109 7.52732 13.3726C7.55459 13.4726 7.72732 13.6454 7.89095 13.6454C7.95459 13.6454 8.02732 13.6181 8.0455 13.5908C8.02732 13.5454 8.01823 13.4999 8.01823 13.4181C8.01823 12.9999 8.30004 12.6545 8.53641 12.6545C8.72732 12.6545 8.83641 12.8999 8.83641 13.0635C8.83641 13.2545 8.67277 13.409 8.42732 13.5545C8.47277 13.5999 8.55459 13.6272 8.61823 13.6272C8.96368 13.6363 9.15459 13.2181 9.29095 12.8454C9.31823 12.7726 9.36368 12.6726 9.4455 12.6726C9.59095 12.6726 9.6455 13.6181 9.89095 13.6181C9.99095 13.6181 10.0819 13.409 10.0819 13.2454C10.091 13.1181 10.0455 13.109 10.0455 12.9363C10.0455 12.7454 10.1455 12.5817 10.291 12.5817C10.3819 12.5817 10.4091 12.6635 10.4091 12.7635C10.4 13.1454 10.1182 13.8545 9.70004 13.8545C9.39095 13.8545 9.41823 13.3272 9.30913 13.3272C9.19095 13.3272 9.01823 13.8545 8.40913 13.8545C8.30913 13.8545 8.20004 13.809 8.11823 13.709C7.97277 13.809 7.8455 13.8454 7.70913 13.8454C7.48186 13.8454 7.38186 13.6181 7.29095 13.6181C7.18186 13.6181 7.05459 13.8454 6.69095 13.8454C6.40004 13.8454 6.3455 13.4635 6.2455 13.4635C6.15459 13.4635 6.00913 13.8454 5.85459 13.8454C5.73041 13.8454 5.65386 13.6875 5.58159 13.5257L5.56004 13.4772C5.49177 13.3243 5.42359 13.1817 5.31823 13.1817C5.23559 13.1817 5.06368 13.3356 4.88968 13.4942L4.84223 13.5375C4.66868 13.6956 4.50123 13.845 4.42732 13.8363C4.36368 13.8272 4.33641 13.7908 4.3455 13.7272C4.35459 13.6454 4.43641 13.4181 4.46368 13.3181C4.51823 13.1363 4.56368 12.9363 4.59095 12.8726C4.60913 12.809 4.68186 12.7635 4.73641 12.7726C4.76368 12.7726 4.77277 12.8181 4.78186 12.8635C4.80913 13.009 4.85459 13.1635 4.90004 13.1635C4.98186 13.1635 5.27277 12.6363 5.43641 12.6363C5.6455 12.6363 5.66368 13.4726 5.93641 13.4726C6.02732 13.4726 6.09095 13.3635 6.15459 13.2363C6.16368 13.0181 6.22732 12.6999 6.40913 12.6999C6.53641 12.6999 6.59095 12.9817 6.50004 13.2272C6.49095 13.5181 6.69095 13.5908 6.81823 13.5908C6.90913 13.5908 7.06368 13.5635 7.19095 13.3726C7.11823 13.2181 7.07277 12.8999 7.06368 12.7908C7.03641 12.209 7.26368 11.6635 7.51823 11.6545ZM4.01823 11.8363C4.12732 11.7999 4.17277 11.8545 4.21823 11.9817C4.27277 12.1726 4.27277 12.4272 4.25459 12.7817C4.22732 13.2726 3.97277 13.8635 3.3455 13.8454C2.80004 13.8363 2.56368 13.4908 2.5455 12.9726C2.53641 12.7272 2.55459 12.4817 2.66368 12.1363C2.72732 11.9545 2.77277 11.8908 2.9455 11.8545C3.08186 11.8272 3.06368 11.9635 3.03641 12.1272C2.96368 12.4817 2.93641 12.6545 2.95459 13.0635C2.98186 13.4908 3.18186 13.6635 3.40004 13.6635C3.73641 13.6726 3.88186 13.409 3.9455 13.0181C3.99095 12.709 3.95459 12.5635 3.92732 12.4635C3.90913 12.409 3.85459 12.2908 3.8455 12.1999C3.80913 11.9999 3.91823 11.8635 4.01823 11.8363ZM8.4455 12.9363C8.39095 12.9272 8.26368 12.9908 8.26368 13.1817C8.26368 13.3363 8.31823 13.409 8.3455 13.4363C8.52732 13.3817 8.57277 13.2363 8.56368 13.1181C8.56368 13.0181 8.50913 12.9363 8.4455 12.9363ZM10.9728 12.9272C10.7364 12.9272 10.7546 13.2999 10.791 13.3817C10.9637 13.3545 11.0819 13.2545 11.1091 13.1635C11.1364 13.0726 11.1 12.9272 10.9728 12.9272ZM7.53841 12.0084L7.52732 12.009C7.40913 12.0181 7.35459 12.3908 7.37277 12.7817C7.39095 13.0363 7.42732 13.0726 7.46368 13.0726C7.52732 13.0726 7.69095 12.609 7.67277 12.2454C7.66368 12.0817 7.61823 11.9999 7.52732 12.009L7.53841 12.0084ZM6.48186 11.7272C6.59095 11.7272 6.66368 11.7908 6.67277 11.8908C6.69095 12.0272 6.59095 12.1726 6.45459 12.1726C6.33641 12.1726 6.28186 12.0908 6.26368 11.9908C6.25459 11.8454 6.36368 11.7272 6.48186 11.7272Z" fill="#1F35C6"/>
</g>
<path id="fish" fill-rule="evenodd" clip-rule="evenodd" d="M8.79094 9.74542C8.75458 9.68178 8.78185 9.57269 8.68185 9.57269C8.61822 9.57269 8.60912 9.62724 8.60003 9.67269C8.46367 9.62724 8.34549 9.60905 8.2364 9.60905C8.16367 9.60905 8.10003 9.61815 8.0364 9.63633C8.00003 9.57269 7.8364 9.44542 7.70003 9.39996C7.64549 9.69996 7.38185 9.92724 6.99094 9.9636C6.97276 10.1545 6.81822 10.2091 6.70003 10.2091C6.61822 10.2091 6.48185 10.1818 6.47276 10.1454C6.42731 9.8636 6.21822 9.70905 6.11822 9.67269C6.11822 9.69996 6.12731 9.73633 6.12731 9.7636C6.12731 9.99996 5.96367 10.1454 5.66367 10.1454C5.61822 10.1454 5.55458 10.1454 5.50912 10.1363C5.85458 10.5181 6.10003 10.3818 6.25458 10.4545C6.46367 10.5454 6.6364 10.8454 7.30912 10.8454C7.55458 10.8454 7.80003 10.7454 7.96367 10.6454C7.99094 10.7454 8.09094 10.8363 8.26367 10.8363C8.54549 10.8363 8.70912 10.7454 8.70912 10.6727C8.70912 10.6545 8.70912 10.6272 8.65458 10.6272C8.60912 10.6272 8.60912 10.6363 8.45458 10.6363C8.27276 10.6363 7.98185 10.5636 7.84549 10.2454C7.81822 10.1909 7.78185 10.1909 7.77276 10.1909C7.68185 10.1909 7.5364 10.5181 6.96367 10.5181C6.71822 10.5181 6.60912 10.4272 6.60912 10.4091C6.60912 10.4091 6.60913 10.4 6.61822 10.4C6.64549 10.4 6.72731 10.4091 6.8364 10.4091C7.20003 10.4091 7.49094 10.2363 7.67276 10.0454C7.7364 9.97269 7.76367 9.9636 7.81822 9.9636C7.86367 9.9636 7.90912 9.99996 7.9364 10.0636C8.01822 10.2727 8.20912 10.4454 8.40912 10.4454C8.68185 10.4454 8.69094 9.97269 8.75458 9.94542C8.76367 9.94542 8.78185 9.95451 8.79094 9.95451C8.82731 9.95451 8.87276 9.92724 8.87276 9.87269C8.88185 9.79996 8.80003 9.78178 8.79094 9.74542ZM8.3364 10.1C8.26367 10.1 8.20912 10.0454 8.20912 9.97269C8.20912 9.89996 8.26367 9.83633 8.3364 9.83633C8.40912 9.83633 8.46367 9.89996 8.46367 9.9636C8.47276 10.0454 8.40912 10.1 8.3364 10.1Z" fill="#1F35C6"/>
<path id="chilli_pepper" fill-rule="evenodd" clip-rule="evenodd" d="M7.39082 8.83636C7.45446 8.83636 7.48173 8.89091 7.49082 8.94546C7.50901 8.92727 7.53628 8.91818 7.56355 8.91818C7.62719 8.91818 7.66355 8.96364 7.66355 9.01818C7.66355 9.05455 7.64537 9.08182 7.6181 9.1C7.65446 9.11818 7.68173 9.14546 7.68173 9.18182C7.68173 9.22727 7.64537 9.26364 7.59082 9.26364C7.54537 9.26364 7.50901 9.20909 7.46355 9.20909C7.43628 9.20909 7.39991 9.21818 7.39082 9.23636C7.40901 9.28182 7.4181 9.31818 7.4181 9.36364C7.4181 9.6 7.09991 9.79091 6.76355 9.79091C6.43628 9.79091 6.30901 9.6 6.30901 9.51818C6.30901 9.5 6.3181 9.49091 6.34537 9.49091C6.39991 9.49091 6.40901 9.50909 6.56355 9.50909C6.9181 9.50909 6.79082 9.05455 7.12719 9.05455C7.17264 9.05455 7.27264 9.08182 7.30901 9.14546C7.33628 9.11818 7.34537 9.08182 7.34537 9.05455C7.34537 9 7.30901 8.96364 7.30901 8.91818C7.30901 8.87273 7.34537 8.84546 7.39082 8.83636Z" fill="#1F35C6"/>
<path id="swirl" fill-rule="evenodd" clip-rule="evenodd" d="M5.2819 8.59991C5.6819 8.59991 5.99099 8.93628 5.99099 9.4181C5.99099 9.63628 5.87281 9.95446 5.39099 9.95446C4.81826 9.95446 4.47281 9.47264 4.47281 9.16355C4.47281 8.89991 4.64554 8.73628 4.75463 8.70901C4.63645 9.18173 4.90008 9.63628 5.42735 9.63628C5.69099 9.63628 5.81826 9.50901 5.81826 9.28173C5.81826 9.02719 5.64554 8.78173 5.34554 8.78173C5.20008 8.78173 5.09099 8.86355 5.09099 8.98173C5.09099 9.17264 5.25463 9.29082 5.42735 9.29082C5.53645 9.29082 5.60917 9.24537 5.60917 9.17264C5.60917 9.16355 5.60917 9.14537 5.60008 9.13628C5.59099 9.14537 5.56372 9.14537 5.52735 9.14537C5.39099 9.14537 5.2819 9.07264 5.2819 8.99082C5.2819 8.92719 5.32735 8.89082 5.3819 8.89082C5.5819 8.89082 5.71826 9.09082 5.71826 9.23628C5.71826 9.38173 5.60917 9.50901 5.42735 9.50901C5.03645 9.50901 4.86372 9.19082 4.86372 8.98173C4.87281 8.75446 5.06372 8.59991 5.2819 8.59991Z" fill="#1F35C6"/>
<g id="packaging">
<path id="Vector" fill-rule="evenodd" clip-rule="evenodd" d="M10.0728 9.67255C9.99099 9.73618 9.79099 9.88164 9.45462 9.88164C9.27281 9.88164 9.20008 9.82709 9.17281 9.82709C9.13644 9.82709 9.10008 9.86346 9.06372 9.89982C8.9819 9.99073 8.8819 10.1544 8.8819 10.3453C8.8819 10.4725 8.9819 10.5998 9.17281 10.5998C9.79099 10.5998 10.2455 10.218 10.2455 9.918C10.2546 9.74527 10.1455 9.67255 10.0728 9.67255ZM9.75462 10.2635L9.40008 10.3635C9.42735 10.2907 9.44553 10.2089 9.44553 10.1271C9.44553 10.0998 9.44553 10.0816 9.43644 10.0544H9.4819C9.74553 10.0544 9.85463 9.95437 9.87281 9.95437C9.89099 9.95437 9.90917 9.96346 9.90917 10.018C9.90917 10.0907 9.87281 10.1907 9.75462 10.2635Z" fill="#1F35C6"/>
<path id="Vector_2" fill-rule="evenodd" clip-rule="evenodd" d="M9.54546 9.74533C9.69092 9.74533 9.81819 9.70897 9.90001 9.63624C9.92728 9.61806 9.93637 9.58169 9.93637 9.54533V9.4726C9.93637 9.38169 9.79092 9.32715 9.59092 9.32715C9.35455 9.32715 9.22728 9.43624 9.22728 9.48169V9.62715C9.22728 9.68169 9.36364 9.74533 9.54546 9.74533Z" fill="#1F35C6"/>
</g>
<path id="clothes" fill-rule="evenodd" clip-rule="evenodd" d="M10.6546 8.20007C10.1727 8.20007 10.3 8.60916 9.73639 8.73644C9.63639 8.75462 9.60002 8.79098 9.60002 8.83644C9.60002 8.91826 9.64548 9.02735 9.70911 9.02735C9.95457 9.02735 10.3273 8.52735 10.4 8.52735C10.4273 8.52735 10.4546 8.52735 10.4546 8.60007C10.4546 8.78189 9.92729 9.01826 9.92729 9.14553C9.92729 9.21826 10.1091 9.38189 10.3 9.38189C10.5637 9.38189 10.8 8.85462 10.8546 8.85462C10.9 8.85462 10.9091 8.88189 10.9091 8.91826C10.9091 9.06371 10.7273 9.34553 10.4182 9.46371C10.3546 9.49098 10.3455 9.51826 10.3455 9.53644C10.3455 9.60916 10.4273 9.70916 10.5 9.70916C10.5909 9.70916 11.2 9.18189 11.2 8.76371C11.2182 8.3728 10.9182 8.20007 10.6546 8.20007ZM10.8727 8.65462C10.8364 8.65462 10.8 8.64553 10.7818 8.62735C10.7364 8.60916 10.6637 8.54553 10.6637 8.45462C10.6637 8.36371 10.7091 8.33644 10.7546 8.33644C10.8909 8.33644 11.0455 8.45462 11.0455 8.55462C11.0455 8.63644 10.9727 8.65462 10.8727 8.65462Z" fill="#1F35C6"/>
<path id="spoon" fill-rule="evenodd" clip-rule="evenodd" d="M6.32718 8.8728H6.24536C6.21809 8.8728 6.17263 8.86371 6.14536 8.84553C6.09081 8.80007 6.07263 8.55462 5.98172 8.40916C5.87263 8.24553 5.75445 8.20007 5.5999 8.20007C5.49081 8.20007 5.36354 8.26371 5.36354 8.35462C5.36354 8.40916 5.39081 8.44553 5.5999 8.50007C5.86354 8.56371 5.99081 8.70916 6.01809 8.8728C6.04536 9.03644 6.07263 9.16371 6.13627 9.22735C6.21809 9.31826 6.37263 9.40007 6.51809 9.40007C6.63627 9.40007 6.72718 9.36371 6.72718 9.25462C6.71809 9.13644 6.55445 8.8728 6.32718 8.8728ZM6.4999 9.22735C6.3999 9.22735 6.25445 9.12735 6.25445 9.06371C6.25445 9.01826 6.2999 8.99098 6.33627 8.99098C6.41809 8.99098 6.56354 9.09098 6.56354 9.1728C6.56354 9.20007 6.54536 9.22735 6.4999 9.22735Z" fill="#1F35C6"/>
<g id="wave">
<path id="Vector_3" fill-rule="evenodd" clip-rule="evenodd" d="M8.30915 8.53644C8.24551 8.53644 8.24551 8.63644 8.24551 8.67281C8.24551 8.70917 8.24551 8.71826 8.21824 8.71826C8.19097 8.71826 8.17278 8.70917 8.14551 8.70917C8.12733 8.70917 8.10915 8.72735 8.10915 8.75463C8.10915 8.89099 8.28187 9.00008 8.4546 9.00008C8.68187 9.00008 8.79097 8.90008 8.8546 8.90008C8.88188 8.90008 8.89097 8.92735 8.89097 8.94554C8.89097 8.9819 8.8546 9.02735 8.8546 9.04554C8.8546 9.10008 8.96369 9.05463 8.96369 9.11826C8.96369 9.20008 8.82733 9.26372 8.61824 9.26372C8.20915 9.26372 7.94551 8.9819 7.94551 8.71826C7.94551 8.22735 8.47278 8.3819 8.47278 8.19099C8.47278 8.12735 8.40915 8.09099 8.36369 8.09099C8.41824 8.01826 8.49097 8.00917 8.56369 8.00917C8.61824 8.00917 8.67278 8.01826 8.71824 8.01826C8.78188 8.01826 8.84551 7.99099 8.84551 7.91826C8.84551 7.87281 8.80915 7.81826 8.6546 7.80008C8.67278 7.70008 8.88187 7.75463 8.88187 7.66372C8.88187 7.60008 8.76369 7.55463 8.61824 7.55463C8.0546 7.55463 7.6546 8.01826 7.6546 8.51826C7.6546 8.97281 7.98188 9.47281 8.59097 9.47281C9.18187 9.47281 9.46369 8.99099 9.46369 8.62735C9.3546 8.72735 9.06369 8.75463 8.91824 8.75463C8.49097 8.76372 8.37278 8.53644 8.30915 8.53644Z" fill="#1F35C6"/>
<path id="Vector_4" fill-rule="evenodd" clip-rule="evenodd" d="M8.77265 8.59993C8.86355 8.59993 8.92719 8.5272 8.92719 8.44538C8.92719 8.31811 8.79992 8.19993 8.60901 8.19993C8.64537 8.23629 8.65446 8.26356 8.65446 8.29993C8.65446 8.34538 8.62719 8.39993 8.62719 8.45447C8.62719 8.53629 8.68174 8.59993 8.77265 8.59993ZM9.69083 7.98175C9.7181 8.01811 9.72719 8.05447 9.72719 8.09084C9.72719 8.18175 9.66355 8.27266 9.66355 8.36356C9.66355 8.47266 9.74537 8.56356 9.87265 8.56356C10.009 8.56356 10.0999 8.45447 10.0999 8.3272C10.0908 8.14538 9.93628 7.99993 9.69083 7.98175ZM9.03628 7.63629C9.08174 7.69084 9.09992 7.74538 9.09992 7.80902C9.09992 7.95447 8.99083 8.09993 8.99083 8.23629C8.99083 8.41811 9.10901 8.53629 9.28174 8.53629C9.46355 8.53629 9.57265 8.38175 9.57265 8.20902C9.57265 7.96356 9.38174 7.69993 9.03628 7.63629ZM9.29083 8.15447C9.24537 8.15447 9.20901 8.11811 9.20901 8.07266C9.20901 8.04538 9.22719 8.00902 9.22719 7.97265C9.23628 7.9272 9.22719 7.89084 9.25446 7.89084C9.30901 7.89084 9.37265 7.99084 9.37265 8.05447C9.37265 8.10902 9.34537 8.15447 9.29083 8.15447Z" fill="#1F35C6"/>
</g>
<g id="bowl">
<path id="Vector_5" fill-rule="evenodd" clip-rule="evenodd" d="M7.19096 7.76356C7.04551 7.70901 6.98187 7.6272 6.94551 7.45447C6.87278 7.55447 6.83642 7.64538 6.83642 7.69992C6.83642 7.9181 7.13642 7.9181 7.13642 8.06356C7.13642 8.14538 6.98187 8.23629 6.78187 8.23629C6.5546 8.23629 6.39096 8.19992 6.24551 8.05447C6.20914 8.0181 6.19096 7.98174 6.14551 7.98174C6.09096 7.98174 6.06369 8.07265 6.06369 8.16356C6.06369 8.47265 6.36369 8.84538 6.78187 8.84538C7.30005 8.84538 7.50915 8.49083 7.50915 8.19992C7.51824 8.02719 7.48187 7.87265 7.19096 7.76356ZM7.04551 8.63629C7.00005 8.63629 6.99096 8.6181 6.99096 8.57265C6.99096 8.54538 7.00005 8.49083 7.00005 8.44538C7.00005 8.33629 7.04551 8.34538 7.1546 8.29083C7.23642 8.25447 7.26369 8.20901 7.29096 8.20901C7.31824 8.20901 7.34551 8.2272 7.34551 8.27265C7.34551 8.43629 7.16369 8.63629 7.04551 8.63629Z" fill="#1F35C6"/>
<path id="Vector_6" fill-rule="evenodd" clip-rule="evenodd" d="M6.52727 7.23629C6.47272 7.23629 6.38182 7.18175 6.29091 7.10902C6.19091 7.20902 6.11818 7.34538 6.11818 7.49993C6.11818 7.81811 6.45454 8.08175 6.78182 8.08175C6.83636 8.08175 6.89091 8.07266 6.94545 8.06357C6.76363 8.04538 6.65454 7.90902 6.65454 7.74538C6.65454 7.53629 6.89091 7.34538 6.89091 7.18175C6.89091 6.98175 6.64545 6.96357 6.64545 6.79993C6.64545 6.66357 6.88182 6.56357 6.87272 6.34538C6.87272 6.21811 6.74545 6.06357 6.57272 5.97266C6.6 6.0272 6.61818 6.09993 6.61818 6.14538C6.61818 6.39993 6.12727 6.50902 6.12727 6.70902C6.12727 6.96357 6.6 7.06357 6.6 7.18175C6.6 7.20902 6.58182 7.23629 6.52727 7.23629Z" fill="#1F35C6"/>
</g>
<path id="heart" fill-rule="evenodd" clip-rule="evenodd" d="M11.4818 7.40009C11.6454 7.40009 11.7727 7.60918 11.7727 7.85463C11.7727 8.11827 11.6454 8.40009 11.4272 8.60009C11.4272 8.16372 10.8909 8.30009 10.8909 7.9819C10.8909 7.84554 10.9909 7.75463 11.1091 7.75463C11.2091 7.75463 11.2909 7.7819 11.3545 7.84554C11.3 7.79099 11.2636 7.70918 11.2636 7.63645C11.2636 7.51827 11.3363 7.40009 11.4818 7.40009Z" fill="#1F35C6"/>
<path id="flower" fill-rule="evenodd" clip-rule="evenodd" d="M5.04545 7.84556C5 7.85465 4.96364 7.86374 4.93636 7.89101C4.90909 7.79101 4.81818 7.7001 4.69091 7.72738C4.58182 7.74556 4.5 7.84556 4.51818 7.97283C4.51818 7.99101 4.52727 8.01829 4.53636 8.03647C4.53636 8.03647 4.51818 8.03647 4.5 8.04556C4.40909 8.06374 4.3 8.15465 4.31818 8.29101C4.33636 8.40919 4.43636 8.49101 4.55455 8.48192C4.6 8.47283 4.63636 8.46374 4.66364 8.44556C4.69091 8.55465 4.78182 8.61828 4.9 8.60919C5.01818 8.59101 5.1 8.49101 5.09091 8.37283C5.09091 8.33647 5.08182 8.31829 5.07273 8.3001H5.1C5.21818 8.27283 5.3 8.18192 5.29091 8.06374C5.25455 7.91828 5.15455 7.82738 5.04545 7.84556ZM4.80909 8.29101C4.73636 8.3001 4.68182 8.24556 4.67273 8.18192C4.66364 8.10919 4.70909 8.04556 4.78182 8.03647C4.85455 8.02738 4.90909 8.08192 4.91818 8.14556C4.92727 8.21828 4.88182 8.28192 4.80909 8.29101Z" fill="#1F35C6"/>
<g id="transformation">
<path id="Vector_7" fill-rule="evenodd" clip-rule="evenodd" d="M10.9363 7.29981C10.9363 7.25436 11.0454 7.14526 11.0454 7.1089C11.0454 7.09981 11.0363 7.09072 11.0272 7.09072C10.9818 7.09072 10.8272 7.2089 10.6 7.2089C10.5091 7.2089 10.4454 7.19981 10.4454 7.12708C10.4454 7.06345 10.5 7.0089 10.5909 6.97254C10.6909 6.92708 10.8909 6.92708 10.8909 6.88163C10.8909 6.84526 10.7 6.84526 10.7 6.8089C10.7 6.76345 10.7727 6.65436 10.7727 6.6089C10.7727 6.6089 10.7727 6.59072 10.7636 6.59072C10.7272 6.59072 10.6363 6.69981 10.5818 6.69981C10.5272 6.69981 10.4818 6.56345 10.4363 6.56345C10.4272 6.56345 10.409 6.57254 10.409 6.59981C10.409 6.65436 10.4363 6.75436 10.4363 6.89072C10.4363 7.0089 10.3727 7.1089 10.309 7.1089C10.2272 7.1089 10.2 7.0089 10.2 6.92708C10.2 6.8089 10.2636 6.67254 10.2636 6.54526C10.2636 6.51799 10.2545 6.5089 10.2363 6.5089C10.1909 6.5089 10.1181 6.64526 10.0636 6.64526C10.0272 6.64526 9.9636 6.48163 9.90905 6.48163C9.89996 6.48163 9.89087 6.5089 9.89087 6.54526C9.89087 6.59072 9.89996 6.65436 9.89996 6.68163C9.89996 6.71799 9.8545 6.72708 9.79996 6.72708C9.7636 6.72708 9.69087 6.72708 9.69087 6.75436C9.69087 6.78163 9.7636 6.8089 9.82723 6.85436C9.94541 6.93617 10.1363 7.01799 10.1363 7.2089C10.1363 7.38163 9.89087 7.49981 9.71814 7.53617C9.63632 7.54526 9.5545 7.56345 9.5545 7.59072C9.5545 7.62708 9.77269 7.63617 9.77269 7.68163C9.77269 7.7089 9.67269 7.83617 9.67269 7.87254C9.67269 7.88163 9.68178 7.88163 9.68178 7.88163C9.71814 7.88163 9.82723 7.79072 9.87269 7.79072C9.93632 7.79072 9.92723 7.98163 9.97269 7.98163C10.0272 7.98163 10.0091 7.69981 10.0272 7.62708C10.0636 7.49981 10.1545 7.37254 10.2363 7.37254C10.3363 7.37254 10.3454 7.54526 10.3454 7.62708C10.3454 7.79072 10.2272 7.96345 10.2272 8.04526C10.2272 8.05436 10.2363 8.06345 10.2454 8.06345C10.2818 8.06345 10.3636 7.95436 10.409 7.95436C10.4545 7.95436 10.5545 8.13617 10.5909 8.13617C10.609 8.13617 10.6181 8.11799 10.6181 8.09981C10.6181 8.04526 10.5909 7.95436 10.5909 7.89981C10.5909 7.83617 10.8 7.87254 10.8 7.82708C10.8 7.8089 10.709 7.77254 10.6545 7.73617C10.5363 7.66345 10.4 7.5089 10.4 7.38163C10.4 7.33617 10.4272 7.29981 10.4636 7.29981C10.7181 7.29981 10.8272 7.69072 10.8727 7.69072C10.9181 7.69072 10.8909 7.51799 10.909 7.49072C10.9181 7.48163 10.9454 7.47254 10.9727 7.47254C11.0181 7.47254 11.0727 7.48163 11.109 7.48163C11.1363 7.48163 11.1454 7.48163 11.1454 7.47254C11.1363 7.41799 10.9363 7.35436 10.9363 7.29981Z" fill="#1F35C6"/>
<path id="Vector_8" fill-rule="evenodd" clip-rule="evenodd" d="M9.92714 7.1909C9.92714 7.10908 9.5726 6.83635 9.49987 6.83635C9.48169 6.83635 9.4726 6.84544 9.4726 6.86363C9.4726 6.8909 9.48169 6.92726 9.48169 6.95454C9.48169 7.01817 9.45442 7.02726 9.39078 7.02726C9.31805 7.02726 9.19987 6.99999 9.19987 6.88181C9.19987 6.65454 9.63624 6.70908 9.68169 6.49999C9.49078 6.49999 9.39987 6.37272 9.2726 6.37272C9.22714 6.37272 9.13624 6.39999 9.13624 6.51817C9.13624 6.55454 9.14533 6.61817 9.14533 6.67272C9.14533 6.72726 9.13624 6.76363 9.0726 6.76363C9.01805 6.76363 9.00896 6.69999 9.00896 6.62726C9.00896 6.56363 9.01805 6.4909 9.01805 6.44544C9.01805 6.10908 8.64533 6.24544 8.60896 5.97272C8.51805 6.13635 8.49078 6.25454 8.49078 6.35454C8.49078 6.70908 8.9726 6.67272 8.9726 6.91817C8.9726 6.98181 8.92714 7.01817 8.88169 7.01817C8.79987 7.01817 8.74533 6.84544 8.61805 6.84544C8.55442 6.84544 8.50896 6.8909 8.50896 6.9909C8.50896 7.06363 8.52714 7.11817 8.52714 7.1909C8.52714 7.33635 8.46351 7.39999 8.39987 7.46363C8.83624 7.42726 8.86351 7.09999 8.99078 7.09999C9.02714 7.09999 9.04533 7.12726 9.04533 7.14544C9.04533 7.19999 8.95442 7.2909 8.95442 7.38181C8.95442 7.49999 9.09078 7.56363 9.18169 7.56363C9.29078 7.56363 9.32714 7.52726 9.32714 7.45454C9.32714 7.37272 9.18169 7.26363 9.18169 7.17272C9.18169 7.12726 9.22714 7.11817 9.29078 7.11817C9.42714 7.11817 9.4726 7.13635 9.4726 7.16363C9.4726 7.19999 9.41805 7.27272 9.41805 7.2909C9.41805 7.29999 9.42714 7.32726 9.45442 7.32726C9.55442 7.34544 9.92714 7.26363 9.92714 7.1909Z" fill="#1F35C6"/>
</g>
<path id="hair" fill-rule="evenodd" clip-rule="evenodd" d="M5.33638 5.96362C5.27274 6.0818 5.25456 6.23635 5.25456 6.32726C5.25456 6.8818 5.91819 7.39999 5.91819 7.74544C5.91819 7.8818 5.81819 8.04544 5.63638 8.04544C5.47274 8.04544 5.38183 7.91817 5.38183 7.80908C5.38183 7.72726 5.43638 7.65453 5.46365 7.65453C5.47274 7.65453 5.47274 7.66362 5.47274 7.6818C5.47274 7.72726 5.5091 7.7909 5.58183 7.7818C5.65456 7.7818 5.69092 7.73635 5.69092 7.67271C5.69092 7.39999 5.14547 6.92726 5.14547 6.2818C5.11819 6.35453 5.08183 6.44544 5.08183 6.58181C5.08183 6.8909 5.3091 7.21817 5.3091 7.51817C5.3091 7.63635 5.21819 7.74544 5.10001 7.74544C4.96365 7.74544 4.91819 7.63635 4.91819 7.57271C4.91819 7.52726 4.93638 7.48181 4.95456 7.48181C4.97274 7.48181 4.96365 7.55453 5.03638 7.55453C5.11819 7.55453 5.14547 7.49999 5.14547 7.39999C5.14547 7.12726 4.99092 6.93635 4.99092 6.65453C4.99092 6.60908 4.99092 6.56362 5.00001 6.52726C4.91819 6.62726 4.9091 6.77271 4.9091 6.89999V7.23635C4.9091 7.46362 4.80001 7.56362 4.66365 7.56362C4.57274 7.56362 4.49092 7.4909 4.49092 7.37271C4.49092 7.35453 4.50001 7.29999 4.51819 7.29999C4.54547 7.29999 4.56365 7.37271 4.63638 7.37271C4.78183 7.37271 4.79092 7.23635 4.79092 6.95453C4.77274 6.60908 4.90001 6.23635 5.33638 5.96362Z" fill="#1F35C6"/>
<path id="hand" fill-rule="evenodd" clip-rule="evenodd" d="M4.43633 5.80005C4.48179 5.80005 4.49997 5.8455 4.49997 5.88187C4.49997 6.03641 4.29997 6.49096 4.29997 6.61823C4.29997 6.63641 4.30906 6.65459 4.32724 6.65459C4.40906 6.65459 4.5727 6.30005 4.62724 6.12732C4.65452 6.03641 4.69997 5.99096 4.73633 5.99096C4.7727 5.99096 4.79997 6.02732 4.79997 6.10005C4.79997 6.27278 4.63633 6.69096 4.49088 6.96368C4.38179 7.18187 4.19997 7.49096 4.19997 7.66369C4.19997 7.75459 4.21815 7.8455 4.34542 7.95459C4.13633 7.9455 4.04542 7.91823 3.96361 7.76369C3.60906 8.45459 4.61815 8.39096 4.2727 9.00914C4.20906 8.90005 3.70906 8.78187 3.70906 8.13641C3.70906 7.58187 4.20906 7.25459 4.20906 7.01823C4.20906 6.97278 4.19088 6.93641 4.14542 6.90005C4.03633 6.80914 4.03633 6.73641 3.94542 6.73641C3.88179 6.73641 3.80906 6.88187 3.88179 7.00914C3.90906 7.05459 3.92724 7.08187 3.92724 7.11823C3.92724 7.20914 3.78179 7.45459 3.68179 7.45459C3.58179 7.45459 3.49997 7.20005 3.49997 6.80005C3.49997 6.4455 3.58179 6.08187 3.68179 6.08187C3.70906 6.08187 3.71815 6.10005 3.71815 6.12732C3.71815 6.17278 3.70906 6.25459 3.70906 6.40005C3.70906 6.55459 3.74542 6.56368 3.7727 6.56368C3.88179 6.56368 3.86361 5.88187 4.04542 5.88187C4.09088 5.88187 4.09997 5.92732 4.09997 5.97278C4.09997 6.12732 4.02724 6.35459 4.02724 6.47278C4.02724 6.53641 4.04542 6.55459 4.0727 6.55459C4.16361 6.5455 4.29997 5.80005 4.43633 5.80005Z" fill="#1F35C6"/>
<path id="plant" fill-rule="evenodd" clip-rule="evenodd" d="M11.8272 6.69098C11.6727 6.69098 11.5908 6.9637 11.4363 6.97279C11.5272 6.58188 11.9181 6.37279 11.9181 6.00916C11.9181 5.59098 11.5727 5.44552 11.4272 5.35461C11.1908 5.00916 11.0181 4.73643 10.6272 4.73643C10.4636 4.73643 10.3545 4.7637 10.2454 4.7637C10.0272 4.7637 9.95448 4.68188 9.94538 4.68188C9.94538 4.68188 9.93629 4.68188 9.93629 4.70007C9.93629 5.00916 10.0999 5.70007 10.7908 5.70007C11.1636 5.70007 11.3181 5.55461 11.409 5.55461C11.4999 5.55461 11.7999 5.65461 11.7999 6.00916C11.7999 6.20007 11.6454 6.40007 11.5908 6.40007C11.5363 6.40007 11.4817 6.30916 11.4817 6.21825C11.4817 6.11825 11.5363 5.92734 11.5363 5.80916C11.5363 5.7637 11.5272 5.74552 11.4999 5.74552C11.4454 5.74552 11.1636 5.92734 11.1636 6.14552C11.1636 6.33643 11.4454 6.45461 11.5545 6.50916C11.4454 6.68188 11.3817 6.80007 11.3363 6.9637C11.3363 6.83643 11.2181 6.59098 11.1817 6.48188C11.009 5.99098 10.9454 5.90007 10.5727 5.85461C10.6272 6.05461 11.2636 6.52734 11.2636 7.00916C11.2636 7.03643 11.2636 7.08188 11.2545 7.10007C11.0636 6.53643 10.7363 6.40007 10.6181 6.2637C10.4272 6.04552 10.5363 5.83643 10.2272 5.71825C10.2454 5.74552 10.2545 5.78188 10.2545 5.80916C10.2545 5.91825 10.1999 6.04552 10.1999 6.13643C10.1999 6.48188 10.5908 6.37279 10.8272 6.5637C11.0545 6.74552 11.1817 7.04552 11.2727 7.38188C11.3636 7.23643 11.4181 7.05461 11.5727 7.05461C11.6727 7.05461 11.709 7.18188 11.709 7.28188V7.32734C11.8636 7.19098 11.9454 6.97279 11.9454 6.82734C11.9363 6.75461 11.8999 6.69098 11.8272 6.69098ZM11.209 5.40916C11.1727 5.40916 11.1181 5.39098 11.0727 5.39098C10.9636 5.39098 10.8817 5.54552 10.8272 5.54552C10.809 5.54552 10.7999 5.52734 10.7999 5.50916C10.7999 5.44552 10.909 5.37279 10.909 5.32734C10.909 5.30007 10.8636 5.29098 10.8454 5.29098C10.7363 5.29098 10.5817 5.44552 10.4908 5.44552C10.4727 5.44552 10.4545 5.43643 10.4545 5.41825C10.4545 5.37279 10.5727 5.31825 10.5727 5.27279C10.5727 5.22734 10.5272 5.22734 10.4908 5.22734C10.4363 5.22734 10.3272 5.25461 10.2636 5.25461C10.2272 5.25461 10.1999 5.24552 10.1999 5.21825C10.1999 5.15461 10.409 5.19098 10.409 5.11825C10.409 5.08189 10.3454 5.00916 10.3454 4.97279C10.3454 4.95461 10.3636 4.94552 10.3817 4.94552C10.4545 4.94552 10.5363 5.15461 10.6181 5.15461C10.6545 5.15461 10.6636 5.12734 10.6636 5.08188C10.6636 5.03643 10.6545 5.01825 10.6545 4.98189C10.6545 4.94552 10.6727 4.93643 10.6817 4.93643C10.7363 4.93643 10.7817 5.22734 10.9363 5.22734C10.9999 5.22734 10.9545 5.04552 11.0181 5.04552C11.0545 5.04552 11.0636 5.10007 11.0636 5.12734C11.0817 5.31825 11.2545 5.32734 11.2545 5.40007C11.2454 5.39098 11.2363 5.40916 11.209 5.40916Z" fill="#1F35C6"/>
<g id="particles">
<path id="Vector_9" fill-rule="evenodd" clip-rule="evenodd" d="M9.0364 4.98189C9.10913 4.98189 9.16368 5.03643 9.16368 5.10007C9.16368 5.1637 9.10913 5.21825 9.0364 5.21825C8.97277 5.21825 8.90913 5.1637 8.90913 5.10007C8.90913 5.03643 8.97277 4.98189 9.0364 4.98189ZM9.87277 6.12734C9.80913 6.12734 9.74549 6.18188 9.74549 6.24552C9.74549 6.31825 9.80913 6.3637 9.87277 6.3637C9.94549 6.3637 10 6.30916 10 6.23643C10 6.17279 9.94549 6.12734 9.87277 6.12734ZM9.45458 5.90007C9.32731 5.90007 9.22731 6.00007 9.22731 6.11825C9.22731 6.23643 9.32731 6.33643 9.45458 6.33643C9.58186 6.33643 9.68186 6.23643 9.68186 6.11825C9.68186 6.00007 9.58186 5.90007 9.45458 5.90007ZM9.05458 5.80007C8.98186 5.80007 8.92731 5.85461 8.92731 5.92734C8.92731 6.00007 8.99095 6.05461 9.05458 6.05461C9.12731 6.05461 9.18186 6.00007 9.18186 5.92734C9.18186 5.85461 9.12731 5.80007 9.05458 5.80007ZM9.85458 6.00007C9.9364 6.00007 10.0091 5.93643 10.0091 5.85461C10.0091 5.77279 9.9364 5.70916 9.85458 5.70916C9.77277 5.70916 9.70004 5.77279 9.70004 5.85461C9.70004 5.92734 9.77277 6.00007 9.85458 6.00007ZM8.67277 5.53643C8.57277 5.53643 8.48186 5.61825 8.48186 5.71825C8.48186 5.81825 8.56368 5.90007 8.67277 5.90007C8.77277 5.90007 8.86368 5.81825 8.86368 5.71825C8.85458 5.61825 8.77277 5.53643 8.67277 5.53643ZM9.35458 5.67279C9.35458 5.74552 9.40913 5.80007 9.48186 5.80007C9.55458 5.80007 9.60913 5.74552 9.60913 5.67279C9.60913 5.60007 9.55458 5.54552 9.48186 5.54552C9.40913 5.54552 9.35458 5.60916 9.35458 5.67279ZM9.10004 5.70916C9.20913 5.70916 9.30004 5.62734 9.30004 5.51825C9.30004 5.40916 9.20913 5.32734 9.10004 5.32734C8.99095 5.32734 8.90004 5.40916 8.90004 5.51825C8.90004 5.61825 8.98186 5.70916 9.10004 5.70916ZM9.82731 5.58188C9.90004 5.58188 9.96368 5.51825 9.96368 5.44552C9.96368 5.37279 9.90004 5.30916 9.82731 5.31825C9.75458 5.31825 9.69095 5.38188 9.69095 5.45461C9.69095 5.52734 9.75458 5.58188 9.82731 5.58188ZM8.72731 5.40007C8.80004 5.40007 8.85458 5.34552 8.85458 5.27279C8.85458 5.20007 8.80004 5.14552 8.72731 5.14552C8.65458 5.14552 8.60004 5.20007 8.60004 5.27279C8.59095 5.34552 8.65458 5.40007 8.72731 5.40007ZM9.47277 5.39098C9.59095 5.39098 9.68186 5.30007 9.68186 5.19098C9.68186 5.08188 9.59095 4.99098 9.47277 4.99098C9.35458 4.99098 9.26368 5.08188 9.26368 5.19098C9.26368 5.30007 9.35458 5.39098 9.47277 5.39098ZM9.62731 4.91825C9.70004 4.91825 9.75458 4.8637 9.75458 4.80007C9.75458 4.73643 9.70004 4.68188 9.62731 4.68188C9.55458 4.68188 9.50004 4.73643 9.50004 4.80007C9.50913 4.87279 9.56368 4.91825 9.62731 4.91825Z" fill="#1F35C6"/>
</g>
<path id="tree" fill-rule="evenodd" clip-rule="evenodd" d="M5.95463 5.08177C6.03645 5.08177 6.1819 5.21814 6.21827 5.36359C6.20009 5.36359 6.1819 5.3545 6.17281 5.3545C6.06372 5.3545 6.00918 5.4545 5.92736 5.62723C6.11827 5.49996 6.291 5.39996 6.491 5.39996C6.66372 5.39996 6.80009 5.49996 6.80009 5.6545C6.80009 5.71814 6.76372 5.79086 6.72736 5.86359C6.70009 5.71814 6.5819 5.6545 6.37281 5.6545C6.25463 5.6545 6.10918 5.67268 5.991 5.71814C6.36372 5.77268 6.41827 5.89996 6.41827 6.01814C6.41827 6.21814 6.20918 6.31814 6.07281 6.38177C6.08191 6.32723 6.10009 6.26359 6.10009 6.19996C6.10009 6.08177 6.05463 5.93632 5.86372 5.80905C5.83645 5.93632 5.72736 6.01814 5.72736 6.11814C5.72736 6.1545 5.75463 6.17268 5.77281 6.17268C5.77281 6.22723 5.74554 6.39086 5.74554 6.43632C5.74554 6.51814 5.76372 6.53632 5.80918 6.54541C5.83645 6.61814 5.83645 6.74541 5.85463 6.80905C5.86372 6.84541 5.891 6.8545 5.91827 6.8545C5.94554 6.91814 5.9819 7.01814 6.03645 7.0545C6.04554 7.06359 6.06372 7.09086 6.06372 7.10905C6.06372 7.16359 5.97281 7.22723 5.91827 7.22723C5.90009 7.22723 5.87281 7.21814 5.84554 7.1545C5.82736 7.10905 5.66372 7.00905 5.65463 6.9545C5.66372 6.94541 5.67281 6.92723 5.67281 6.89996C5.67281 6.80905 5.52736 6.70905 5.52736 6.56359C5.54554 6.5545 5.56372 6.52723 5.56372 6.49996C5.56372 6.41814 5.48191 6.26359 5.48191 6.1545C5.51827 6.1545 5.53645 6.1545 5.53645 6.09996C5.54554 5.99086 5.56372 5.83632 5.66372 5.74541C5.63645 5.74541 5.60918 5.73632 5.57281 5.73632C5.37281 5.73632 5.07281 5.84541 4.95463 6.09996C4.94554 6.06359 4.94554 6.02723 4.94554 5.99086C4.94554 5.78177 5.07281 5.64541 5.17281 5.59996C5.21827 5.58177 5.28191 5.57268 5.34554 5.57268C5.45463 5.57268 5.57281 5.59086 5.70009 5.61814C5.591 5.47268 5.41827 5.37268 5.27281 5.37268C5.20918 5.37268 5.15463 5.39086 5.13645 5.44541C5.12736 5.41814 5.12736 5.37268 5.12736 5.33632C5.12736 5.18177 5.1819 5.09086 5.31827 5.09086C5.51827 5.09086 5.70009 5.32723 5.80009 5.54541V5.51814C5.80009 5.20905 5.80918 5.0545 5.93645 5.04541L5.95463 5.08177Z" fill="#1F35C6"/>
<g id="bee">
<path id="Vector_10" fill-rule="evenodd" clip-rule="evenodd" d="M3.42725 5.60008C3.42725 5.84553 3.50906 5.96372 3.64543 5.96372C3.75452 5.96372 3.89997 5.89099 4.0727 5.74553C3.93634 5.77281 3.83634 5.79099 3.74543 5.79099C3.62725 5.79099 3.52725 5.74553 3.42725 5.60008ZM4.3727 5.26372C4.29088 5.2819 4.13634 5.37281 4.13634 5.53644C4.13634 5.65463 4.22725 5.72735 4.34543 5.72735C4.40906 5.72735 4.45452 5.71826 4.48179 5.69099C4.39088 5.60008 4.35452 5.50917 4.35452 5.40917C4.35452 5.34553 4.36361 5.30008 4.3727 5.26372ZM4.65452 5.00008C4.58179 5.0819 4.49997 5.22735 4.49997 5.37281C4.49997 5.54553 4.60906 5.69099 4.78179 5.69099C4.94543 5.69099 5.02725 5.55463 5.02725 5.41826C5.03634 5.20008 4.82725 5.04553 4.65452 5.00008ZM3.54543 5.30917V5.35463C3.54543 5.50917 3.62725 5.59099 3.74543 5.59099C3.82725 5.59099 3.92725 5.54553 4.01815 5.43644C3.98179 5.44553 3.93634 5.44553 3.89997 5.44553C3.76361 5.45463 3.62725 5.41826 3.54543 5.30917ZM4.21816 4.47281C4.10906 4.47281 3.9727 4.4819 3.82725 4.57281C3.53634 4.75463 3.5727 5.04553 3.52725 5.12735C3.51816 5.13644 3.51816 5.14553 3.51816 5.16372C3.51816 5.19099 3.55452 5.22735 3.58179 5.22735C3.60906 5.22735 3.62725 5.21826 3.63634 5.21826C3.71816 5.21826 3.80906 5.27281 3.94543 5.27281C4.02725 5.27281 4.11816 5.24553 4.22725 5.19099C4.4727 5.07281 4.56361 4.7819 4.56361 4.73644C4.56361 4.67281 4.50906 4.6819 4.4727 4.62735C4.42725 4.57281 4.44543 4.51826 4.41815 4.49099C4.39997 4.47281 4.35452 4.47281 4.29088 4.47281H4.21816ZM4.01815 5.11826C3.90906 5.11826 3.78179 4.9819 3.78179 4.86372C3.78179 4.80008 3.83634 4.71826 3.8727 4.71826C3.88179 4.71826 3.89088 4.72735 3.89997 4.75463C3.91816 4.90917 4.02725 5.00008 4.12725 5.04553C4.13634 5.05463 4.14543 5.05463 4.14543 5.06372C4.13634 5.09099 4.0727 5.11826 4.01815 5.11826ZM4.41815 4.81826C4.41815 4.86372 4.39088 4.91826 4.33634 4.91826C4.21815 4.91826 4.12725 4.74553 4.11816 4.64553C4.11816 4.5819 4.15452 4.5819 4.20906 4.5819C4.23634 4.5819 4.24543 4.5819 4.26361 4.59099C4.29088 4.60917 4.29088 4.67281 4.32725 4.71826C4.35452 4.75463 4.41815 4.79099 4.41815 4.81826ZM4.6727 4.67281C4.6727 4.74553 4.73634 4.80008 4.80906 4.80008C4.88179 4.80008 4.94543 4.74553 4.94543 4.67281C4.94543 4.60008 4.88179 4.54553 4.80906 4.54553C4.73634 4.53644 4.6727 4.60008 4.6727 4.67281ZM4.62725 4.50917C4.69997 4.50917 4.76361 4.45462 4.76361 4.3819C4.76361 4.30917 4.69997 4.25463 4.62725 4.25463C4.55452 4.25463 4.49088 4.30917 4.49088 4.3819C4.49997 4.44553 4.55452 4.50917 4.62725 4.50917ZM3.70906 4.44553C3.82725 4.44553 3.92725 4.37281 3.92725 4.37281C3.72725 4.31826 3.61816 4.1819 3.61816 3.99099V3.93644C3.49088 3.99099 3.43634 4.09099 3.43634 4.19099C3.44543 4.34553 3.56361 4.44553 3.70906 4.44553ZM4.29997 4.30008C4.31816 4.24553 4.32725 4.1819 4.32725 4.10917C4.32725 3.95462 4.25452 3.71826 4.01815 3.71826C3.88179 3.71826 3.79088 3.81826 3.79088 3.93644C3.79997 4.20008 4.0727 4.30008 4.29997 4.30008Z" fill="#1F35C6"/>
</g>
<g id="ice_cream">
<path id="Vector_11" fill-rule="evenodd" clip-rule="evenodd" d="M11.7727 4.2182C11.6273 4.50911 11.2636 4.57275 11.1454 4.55457C11.1818 4.85457 11.6273 5.25457 11.7454 5.24548C11.8273 5.23639 11.8545 4.85457 11.8545 4.55457C11.8545 4.38184 11.8636 4.24548 11.7727 4.2182ZM11.7818 3.93639C11.7818 3.8273 11.7363 3.74548 11.6091 3.72729C11.6273 3.75457 11.6363 3.78184 11.6363 3.82729C11.6363 4.00002 11.3818 4.19093 11.1 4.19093C11 4.19093 10.9636 4.26366 10.9727 4.30002C10.9727 4.39093 11.0545 4.42729 11.1727 4.42729C11.4909 4.4182 11.7818 4.16366 11.7818 3.93639Z" fill="#1F35C6"/>
<path id="Vector_12" fill-rule="evenodd" clip-rule="evenodd" d="M11.0999 4.07275C11.2272 4.07275 11.4999 3.96366 11.4999 3.8182C11.4999 3.77275 11.4818 3.72729 11.409 3.72729C11.309 3.72729 11.1727 3.82729 11.0363 3.82729C10.9909 3.82729 10.9363 3.8273 10.8818 3.80911C10.9363 3.84548 10.9272 3.93639 10.9545 4.00002C10.9999 4.07275 11.0545 4.07275 11.0999 4.07275Z" fill="#1F35C6"/>
</g>
<g id="cycle">
<path id="Vector_13" fill-rule="evenodd" clip-rule="evenodd" d="M9.39084 4.14551C9.39084 4.43642 9.19084 4.5546 9.00903 4.5546C8.96357 4.5546 8.92721 4.54551 8.89084 4.52733C8.92721 4.49096 8.96357 4.43642 8.96357 4.40005C8.96357 4.37278 8.94539 4.36369 8.91812 4.36369C8.89994 4.36369 8.85448 4.37278 8.81812 4.37278C8.72721 4.37278 8.65448 4.33642 8.57266 4.2546C8.51812 4.33642 8.49084 4.44551 8.49084 4.5546C8.49084 4.72733 8.55448 4.90005 8.62721 4.90914C8.66357 4.90914 8.66357 4.79096 8.72721 4.79096C8.74539 4.79096 8.81812 4.84551 8.97266 4.84551C9.19994 4.84551 9.45448 4.70914 9.45448 4.3546C9.44539 4.30914 9.42721 4.20005 9.39084 4.14551Z" fill="#1F35C6"/>
<path id="Vector_14" fill-rule="evenodd" clip-rule="evenodd" d="M8.87274 3.96366C8.9182 3.96366 9.00911 3.98184 9.03638 4.0273C9.00001 4.04548 8.96365 4.09093 8.96365 4.1273C8.96365 4.14548 8.97274 4.16366 8.99092 4.17275C9.07274 4.20911 9.1182 4.27275 9.14547 4.32729C9.29092 4.24548 9.34547 4.0182 9.34547 3.89093C9.34547 3.85457 9.34547 3.80002 9.30911 3.80002C9.28183 3.80002 9.25456 3.83639 9.2182 3.83639C9.19092 3.83639 9.10911 3.72729 8.90911 3.72729C8.68183 3.72729 8.58183 3.90002 8.58183 4.04548C8.58183 4.08184 8.59092 4.12729 8.60001 4.15457C8.64547 4.06366 8.73638 3.96366 8.87274 3.96366Z" fill="#1F35C6"/>
</g>
<path id="DNA" fill-rule="evenodd" clip-rule="evenodd" d="M6.57279 4.15463C6.40915 4.15463 6.26369 4.29099 6.1546 4.47281C6.16369 4.43645 6.16369 4.40008 6.16369 4.36372C6.16369 4.10917 6.02733 3.89099 5.78188 3.89099C5.58188 3.89099 5.39097 4.00917 5.31824 4.24554C5.33642 4.22735 5.40915 4.1819 5.46369 4.1819C5.52733 4.1819 5.54551 4.23645 5.54551 4.32735C5.54551 4.3819 5.53642 4.45463 5.50915 4.51826C5.47279 4.62735 5.40006 4.65463 5.36369 4.65463C5.20915 4.65463 5.28188 4.39099 5.20006 4.39099C5.13642 4.39099 5.11824 4.53645 5.11824 4.59099C5.11824 4.77281 5.23642 4.96372 5.50006 4.96372C5.78188 4.96372 5.93642 4.82735 6.10006 4.65463C6.13642 4.84554 6.23642 5.1819 6.51824 5.1819C6.67279 5.1819 6.78188 5.05463 6.79097 4.90008C6.77279 4.91826 6.74551 4.93645 6.70915 4.93645C6.6546 4.93645 6.63642 4.85463 6.63642 4.7819C6.63642 4.66372 6.67279 4.53645 6.72733 4.53645C6.7546 4.53645 6.77279 4.55463 6.78188 4.64554C6.79097 4.70917 6.78188 4.79099 6.82733 4.79099C6.87279 4.79099 6.89097 4.65463 6.89097 4.57281C6.88188 4.33645 6.78188 4.14554 6.57279 4.15463ZM5.63642 4.77281C5.60915 4.77281 5.60006 4.74554 5.60006 4.72735C5.60006 4.60008 5.73642 4.03645 5.83642 4.03645C5.8546 4.03645 5.86369 4.05463 5.86369 4.0819C5.86369 4.1819 5.74551 4.77281 5.63642 4.77281ZM6.0546 4.52735C5.97279 4.61826 5.92733 4.66372 5.89097 4.66372C5.87279 4.66372 5.8546 4.62735 5.8546 4.59099C5.8546 4.52735 5.90006 4.26372 6.00006 4.26372C6.03642 4.26372 6.06369 4.33645 6.06369 4.40008C6.06369 4.45463 6.06369 4.49099 6.0546 4.52735ZM6.24551 4.75463C6.21824 4.75463 6.19097 4.70008 6.19097 4.59099C6.24551 4.50008 6.27279 4.46372 6.30915 4.46372C6.31824 4.46372 6.33642 4.47281 6.33642 4.52735C6.32733 4.64554 6.28188 4.75463 6.24551 4.75463ZM6.40915 4.94554C6.39097 4.94554 6.37279 4.91826 6.37279 4.84554C6.37279 4.67281 6.48188 4.35463 6.54551 4.35463C6.56369 4.35463 6.57279 4.40008 6.57279 4.44554C6.58188 4.63645 6.49097 4.94554 6.40915 4.94554Z" fill="#1F35C6"/>
<path id="lips" fill-rule="evenodd" clip-rule="evenodd" d="M10.5818 3.7819C10.5181 3.7819 10.4181 3.85463 10.3454 3.85463C10.2454 3.85463 10.2727 3.71826 10.1636 3.71826C10.1363 3.71826 10.109 3.72735 10.0818 3.74553C9.8545 3.86372 9.67268 3.81826 9.63632 3.84553C9.62722 3.85463 9.61813 3.85462 9.61813 3.8819C9.61813 4.13644 9.87268 4.51826 10.2909 4.51826C10.5818 4.51826 10.8181 4.41826 10.8181 4.24553C10.809 4.10008 10.6727 3.7819 10.5818 3.7819ZM10.3181 4.27281C10.0818 4.27281 9.93632 4.13644 9.93632 4.05463C9.93632 4.04553 9.94541 4.03644 9.9545 4.03644C9.99086 4.03644 10.0909 4.09099 10.2272 4.10917C10.3818 4.13644 10.4636 4.13644 10.509 4.13644C10.5545 4.13644 10.5727 4.14553 10.5727 4.16372C10.5636 4.20917 10.4545 4.27281 10.3181 4.27281Z" fill="#1F35C6"/>
<path id="dove" fill-rule="evenodd" clip-rule="evenodd" d="M11.8546 2.25456C11.691 2.25456 11.6728 2.20911 11.5637 2.20911C11.4365 2.20911 11.3456 2.30002 11.3456 2.43638C11.3456 2.48183 11.3637 2.55456 11.3637 2.64547C11.3637 2.75456 11.3456 2.86365 11.2456 2.86365C11.1546 2.86365 11.1183 2.80002 11.1183 2.72729C11.1183 2.60002 11.1819 2.50911 11.1819 2.42729C11.1819 2.27274 11.0001 2.22729 10.8001 2.22729C10.5637 2.22729 10.3092 2.29092 10.3092 2.32729C10.3092 2.38183 10.6456 2.34547 10.891 2.66365C10.7365 2.66365 10.4365 2.73638 10.4365 2.78183C10.4365 2.83638 10.9819 2.89092 10.9819 3.1182C10.9819 3.26365 10.8637 3.28183 10.8183 3.28183C10.6365 3.28183 10.5456 3.09092 10.5001 3.09092C10.491 3.09092 10.4728 3.10002 10.4728 3.1182C10.4728 3.14547 10.5001 3.22729 10.5001 3.30911C10.5001 3.5182 10.2728 3.53638 10.2728 3.58183C10.2728 3.60002 10.2819 3.60002 10.3092 3.60911C10.4728 3.63638 10.6456 3.64547 10.8001 3.64547C11.3819 3.64547 11.8456 3.46365 11.8456 2.95456C11.8456 2.67274 11.7546 2.58183 11.7546 2.44547C11.7365 2.40002 11.7728 2.30002 11.8546 2.25456ZM11.0456 3.36365H10.9274C11.3001 3.30002 11.5092 3.08183 11.5092 2.79092C11.591 2.8182 11.6456 2.90002 11.6456 2.99092C11.6365 3.16365 11.4819 3.36365 11.0456 3.36365ZM11.5637 2.48183C11.5183 2.48183 11.4819 2.44547 11.4819 2.40002C11.4819 2.35456 11.5183 2.3182 11.5637 2.3182C11.6092 2.3182 11.6456 2.35456 11.6456 2.40002C11.6456 2.44547 11.6092 2.48183 11.5637 2.48183Z" fill="#1F35C6"/>
<path id="spark" fill-rule="evenodd" clip-rule="evenodd" d="M9.59095 2.14532C9.37277 2.14532 9.20913 2.25441 9.11822 2.25441C9.06368 2.25441 8.99095 2.12714 8.94549 2.12714C8.92731 2.12714 8.90913 2.1635 8.90913 2.21805V2.23623C8.90913 2.28168 8.90004 2.3635 8.87277 2.3635C8.79095 2.3635 8.48186 2.14532 8.48186 2.21805C8.48186 2.29077 8.69095 2.51805 8.69095 2.57259C8.69095 2.62714 8.49095 2.68168 8.49095 2.72714C8.49095 2.79986 8.70913 2.80895 8.70913 2.89986C8.70913 2.99077 8.48186 3.0635 8.48186 3.12714C8.48186 3.18168 8.70913 3.14532 8.70913 3.20895C8.70913 3.27259 8.54549 3.49986 8.54549 3.5635C8.54549 3.58168 8.54549 3.58168 8.56367 3.58168C8.62731 3.58168 8.81822 3.37259 8.86368 3.37259C8.91822 3.37259 8.92731 3.49986 8.9364 3.57259C8.94549 3.60895 8.94549 3.61805 8.96367 3.61805C9.00004 3.61805 9.06367 3.47259 9.10913 3.47259C9.17277 3.47259 9.3364 3.64532 9.61822 3.64532C10.0182 3.64532 10.3909 3.37259 10.3909 2.89077C10.4 2.41805 10.0546 2.14532 9.59095 2.14532ZM9.0364 3.18168C9.02731 3.18168 9.01822 3.17259 9.01822 3.15441L9.00913 3.02714C9.00913 3.01805 9.00004 2.99986 8.98186 2.99986H8.84549C8.82731 2.99986 8.81822 2.99986 8.81822 2.99077C8.81822 2.9635 8.95458 2.87259 8.95458 2.85441C8.95458 2.81805 8.82731 2.75441 8.82731 2.70895C8.82731 2.69986 8.8364 2.69986 8.84549 2.69986C8.88186 2.69986 8.94549 2.70895 8.99095 2.70895C9.0364 2.70895 9.0364 2.52714 9.07277 2.52714C9.10004 2.52714 9.1364 2.69986 9.17277 2.69986C9.21822 2.69986 9.29095 2.65441 9.32731 2.65441C9.3364 2.65441 9.3364 2.65441 9.3364 2.6635C9.3364 2.68168 9.25458 2.77259 9.25458 2.79986C9.25458 2.82714 9.4364 2.8635 9.4364 2.89077C9.4364 2.92714 9.24549 2.91805 9.24549 2.94532C9.24549 2.9635 9.31822 3.05441 9.31822 3.09077C9.31822 3.09986 9.31822 3.09986 9.30913 3.09986C9.28186 3.09986 9.18186 3.05441 9.15458 3.05441C9.11822 3.05441 9.06368 3.18168 9.0364 3.18168ZM9.60004 3.4635C9.37277 3.4635 9.21822 3.35441 9.21822 3.29077C9.21822 3.2635 9.2364 3.24532 9.26368 3.24532C9.3364 3.24532 9.49095 3.35441 9.54549 3.35441C9.55458 3.35441 9.57277 3.34532 9.57277 3.32714C9.57277 3.27259 9.51822 3.17259 9.51822 3.12714C9.51822 3.11805 9.52731 3.10895 9.54549 3.10895C9.6364 3.10895 9.76367 3.14532 9.8364 3.14532C9.86367 3.14532 9.86367 3.13623 9.86367 3.11805C9.86367 3.04532 9.64549 2.90895 9.64549 2.8635C9.64549 2.82714 9.90913 2.7635 9.90913 2.70895C9.90913 2.64532 9.54549 2.69077 9.54549 2.62714C9.54549 2.58168 9.61822 2.50895 9.61822 2.47259C9.61822 2.45441 9.60913 2.45441 9.58186 2.45441C9.55458 2.45441 9.39095 2.51805 9.32731 2.51805C9.29095 2.51805 9.25458 2.50895 9.25458 2.4635C9.25458 2.39077 9.38186 2.30895 9.58186 2.30895C9.90913 2.30895 10.1 2.52714 10.1 2.89077C10.1091 3.34532 9.78186 3.4635 9.60004 3.4635Z" fill="#1F35C6"/>
<g id="sun">
<path id="Vector_15" fill-rule="evenodd" clip-rule="evenodd" d="M6.14546 3.07278C6.27273 3.07278 6.65455 3.24551 6.82728 3.24551C6.89091 3.24551 6.92728 3.20914 6.92728 3.17278C6.92728 2.97278 6.39091 2.61824 6.38182 2.47278C6.38182 2.4546 6.39091 2.44551 6.4 2.43642C6.49091 2.33642 6.87273 2.27278 6.87273 2.19096C6.87273 2.14551 6.79091 2.14551 6.75455 2.14551C6.44546 2.14551 6 2.2546 6 2.36369C6 2.47278 6.4 2.74551 6.4 2.88187C6.4 2.91824 6.37273 2.92733 6.33637 2.92733C6.22728 2.92733 5.98182 2.79096 5.86364 2.79096C5.80909 2.79096 5.79091 2.82733 5.79091 2.88187C5.79091 3.03642 5.98182 3.33642 5.98182 3.42733C5.98182 3.43642 5.98182 3.4546 5.96364 3.4546C5.9 3.4546 5.62728 3.12733 5.52728 3.12733C5.49091 3.12733 5.49091 3.17278 5.49091 3.24551V3.3546C5.49091 3.42733 5.49091 3.47278 5.45455 3.47278C5.37273 3.47278 5.32728 3.23642 5.24546 3.23642C5.16364 3.23642 5.14546 3.66369 5.06364 3.66369C4.96364 3.66369 5.04546 3.20005 4.95455 3.20005C4.85455 3.20005 4.73637 3.50914 4.66364 3.50914C4.63637 3.50914 4.62728 3.48187 4.62728 3.46369C4.62728 3.37278 4.68182 3.21824 4.68182 3.12733C4.68182 3.08187 4.67273 3.0546 4.62728 3.0546C4.52728 3.0546 4.3 3.21824 4.21819 3.21824C4.20909 3.21824 4.19091 3.20914 4.19091 3.20005C4.19091 3.11824 4.55455 2.87278 4.55455 2.76369C4.55455 2.6546 4.05455 2.72733 4.05455 2.60005C4.05455 2.50005 4.40909 2.39096 4.40909 2.28187C4.40909 2.19096 3.99091 2.14551 3.82728 2.14551C3.63637 2.14551 3.52728 2.17278 3.52728 2.22733C3.52728 2.30914 3.97273 2.33642 3.97273 2.40914C3.97273 2.48187 3.50909 2.67278 3.50909 2.78187C3.50909 2.88187 4.15455 2.79096 4.15455 2.89096C4.15455 3.00005 3.59091 3.48187 3.59091 3.64551C3.59091 3.68187 3.61819 3.70005 3.65455 3.70005C3.82728 3.70005 4.27273 3.37278 4.39091 3.37278C4.43637 3.37278 4.43637 3.42733 4.43637 3.47278C4.43637 3.5546 4.40909 3.69096 4.40909 3.78187C4.40909 3.8546 4.42728 3.90914 4.49091 3.90914C4.60909 3.90914 4.72728 3.70005 4.80909 3.70005C4.91819 3.70005 4.85455 4.30005 5.00909 4.30005C5.14546 4.30005 5.2 3.64551 5.28182 3.64551C5.36364 3.64551 5.43637 3.83642 5.51819 3.83642C5.61819 3.83642 5.57273 3.50914 5.67273 3.50914C5.79091 3.50914 6.11819 3.90005 6.27273 3.90005C6.31819 3.90005 6.33637 3.86369 6.33637 3.81824C6.33637 3.64551 6.09091 3.2546 6.09091 3.12733C6.1 3.08187 6.10909 3.07278 6.14546 3.07278Z" fill="#1F35C6"/>
<path id="Vector_16" fill-rule="evenodd" clip-rule="evenodd" d="M6.35443 3.29993C6.34534 3.29993 6.33625 3.30903 6.33625 3.31812C6.33625 3.4363 6.75443 3.99084 6.82716 3.99084C6.8908 3.99084 6.94534 3.87266 6.94534 3.78175C6.94534 3.75448 6.93625 3.72721 6.92716 3.70903C6.86352 3.61812 6.44534 3.29993 6.35443 3.29993ZM3.90898 2.98175C3.90898 2.95448 3.85443 2.94539 3.80898 2.94539C3.73625 2.94539 3.63625 2.96357 3.5908 2.99993C3.55443 3.02721 3.52716 3.11812 3.52716 3.18175C3.52716 3.21812 3.53625 3.25448 3.57262 3.25448C3.65443 3.26357 3.90898 3.04539 3.90898 2.98175ZM4.49989 2.57266C4.57262 2.57266 4.6908 2.5363 4.77262 2.5363C4.81807 2.5363 4.86352 2.54539 4.86352 2.59084C4.86352 2.67266 4.68171 2.81812 4.68171 2.88175C4.68171 2.89993 4.69989 2.90903 4.71807 2.90903C4.78171 2.90903 4.89989 2.74539 4.99989 2.74539C5.17262 2.74539 5.06352 3.11812 5.15443 3.11812C5.25443 3.11812 5.20898 2.75448 5.35443 2.75448C5.47262 2.75448 5.55443 3.00903 5.63625 3.00903C5.65443 3.00903 5.67262 2.99084 5.67262 2.97266C5.67262 2.89993 5.57262 2.76357 5.57262 2.67266C5.57262 2.61812 5.60898 2.59084 5.66352 2.59084C5.73625 2.59084 5.84534 2.6363 5.89989 2.6363C5.91807 2.6363 5.93625 2.62721 5.93625 2.60903C5.93625 2.52721 5.64534 2.44539 5.64534 2.34539C5.64534 2.24539 5.80898 2.24539 5.80898 2.19993C5.80898 2.18175 5.70898 2.16357 5.57262 2.16357C5.35443 2.16357 5.3908 2.3363 5.21807 2.3363C5.04534 2.3363 5.0908 2.15448 4.87262 2.15448C4.73625 2.15448 4.61807 2.18175 4.61807 2.20903C4.61807 2.24539 4.77262 2.22721 4.77262 2.3363C4.77262 2.45448 4.43625 2.48175 4.43625 2.55448C4.43625 2.56357 4.46352 2.57266 4.49989 2.57266ZM6.58171 2.52721C6.58171 2.58175 6.7908 2.70903 6.88171 2.70903C6.93625 2.70903 6.95443 2.6363 6.95443 2.55448C6.95443 2.45448 6.90898 2.45448 6.82716 2.45448C6.71807 2.45448 6.58171 2.48175 6.58171 2.52721Z" fill="#1F35C6"/>
</g>
</g>
</g>
<defs>
<clipPath id="clip0_4972_30596">
<rect width="16" height="16" fill="white"/>
</clipPath>
</defs>
</svg>
