<svg width="69" height="48" viewBox="0 0 69 48" fill="none" xmlns="http://www.w3.org/2000/svg">
<g id="Frame" clip-path="url(#clip0_976_25705)">
<path id="Vector" d="M67.4358 7.74C66.6458 4.81 64.914 2.33 61.9465 1.55C56.5686 0.13 34.5001 0 34.5001 0C34.5001 0 12.4315 0.13 7.05364 1.55C4.08618 2.33 2.36445 4.81 1.56435 7.74C0.126197 13.05 0.0654297 24 0.0654297 24C0.0654297 24 0.126197 34.95 1.56435 40.26C2.35432 43.19 4.08618 45.67 7.05364 46.45C12.4315 47.87 34.5001 48 34.5001 48C34.5001 48 56.5686 47.87 61.9465 46.45C64.914 45.67 66.6458 43.19 67.4358 40.26C68.874 34.95 68.9347 24 68.9347 24C68.9347 24 68.874 13.05 67.4358 7.74Z" fill="#858380"/>
<path id="Vector_2" d="M45.6405 24L27.4104 14V34" fill="white"/>
</g>
<defs>
<clipPath id="clip0_976_25705">
<rect width="69" height="48" fill="white"/>
</clipPath>
</defs>
</svg>
