<svg width="210" height="52" viewBox="0 0 210 52" fill="none" xmlns="http://www.w3.org/2000/svg">
<g id="Frame" clip-path="url(#clip0_598_47840)">
<g id="Group">
<path id="Vector" d="M73.898 18.9501L81.5916 12.7392C81.5916 12.7168 81.5619 12.7168 81.536 12.6981C81.5619 12.6757 81.5619 12.6757 81.5916 12.6533C81.3989 12.5299 81.21 12.3954 81.0211 12.3057C78.9542 10.7623 76.5317 9.61883 73.8943 8.97607C72.2867 8.58369 70.6347 8.35573 68.9048 8.36321C58.1294 8.37068 49.3283 16.5883 49.3394 26.6333C49.3431 28.8867 49.7802 31.0242 50.6025 33.016L41.8904 39.9817C41.6348 40.2359 41.331 40.2359 41.0532 39.9817C35.6933 34.1035 30.3149 28.2028 24.9512 22.3245C24.9512 22.2461 24.9512 22.2012 24.9512 22.1265L35.9304 9.45814C36.0452 11.0277 38.69 15.5083 43.6461 15.7662C47.1836 15.9343 50.0247 14.2265 51.4249 11.9657C53.3288 8.87891 53.1399 5.45958 50.4803 2.48868C47.8578 0.410924 46.3131 -0.0935673 42.8646 0.0185419C39.842 0.347396 37.838 1.50212 35.6266 3.59109L24.366 16.2744L24.3808 1.64039L0.0481541 11.9432L0 51.9999L24.4067 41.3981L24.3993 28.1879L40.8939 44.9407C41.1532 45.1126 41.3866 45.1126 41.6866 44.9407C45.2463 42.0782 48.8097 39.2007 52.3731 36.312L52.3694 36.3345L73.898 18.9501Z" fill="#D20A11"/>
<path id="Vector_2" d="M73.9132 40.2954C70.2572 40.2992 67.3013 37.4441 67.3013 33.9015C67.2976 30.3812 70.2535 27.5075 73.9058 27.5C77.547 27.5 80.5289 30.37 80.5326 33.8865C80.5289 37.4329 77.5507 40.2954 73.9132 40.2954ZM205.396 33.9164C197.795 42.3059 186.012 43.3336 179.645 33.5763L194.195 19.7832C194.084 19.9663 193.454 21.6629 193.517 22.0253C193.521 25.1233 194.41 26.5434 197.414 28.2474C207.874 31.4724 213.356 16.0686 201.062 10.3286C198.662 9.07299 195.491 8.26581 192.139 8.26954C183.982 8.27328 176.978 12.9781 174.044 19.5926L166.777 10.067L144.003 10.1754L160.557 33.3484L158.361 35.5196C157.872 31.8125 154.475 28.9275 150.375 28.9313C148.945 28.9313 147.622 29.2826 146.463 29.873L131.983 10.2053L116.278 26.1622L105.176 10.224L88.3928 28.2175C88.4632 27.6869 88.4854 27.1375 88.4854 26.5994C88.4817 22.1972 86.8074 18.1613 84.0108 15.0148L74.1207 23.068L73.9021 23.2436L54.5664 38.98C58.1557 42.5862 63.2527 44.8097 68.9348 44.8059C70.6647 44.8022 72.3167 44.5892 73.9206 44.2043C74.8504 43.9726 75.7616 43.6961 76.6432 43.3448C79.4658 42.3507 82.0661 40.7625 84.1627 38.5876L94.0491 28.2624L104.936 43.8792L120.53 28.1054L131.865 44.152L142.544 34.462C142.562 34.462 142.596 34.462 142.611 34.462C142.422 35.0861 142.329 35.7363 142.329 36.4127C142.333 40.5383 145.952 43.8792 150.371 43.8754C151.004 43.8754 151.63 43.8381 152.23 43.6923C154.542 43.3261 155.894 42.5787 157.89 41.1512L172.581 26.6517C172.674 36.607 181.445 44.6938 192.157 44.6826C200.044 44.6789 206.9 40.2693 209.993 33.9276L205.396 33.9164Z" fill="#D20A11"/>
</g>
</g>
<defs>
<clipPath id="clip0_598_47840">
<rect width="210" height="52" fill="white"/>
</clipPath>
</defs>
</svg>
