<svg width="208" height="42" viewBox="0 0 208 42" fill="none" xmlns="http://www.w3.org/2000/svg">
<g id="Lamoda_logo 1" clip-path="url(#clip0_598_47784)">
<g id="Group">
<path id="Vector" d="M94.2916 36.6818H101.761V21.0787C101.761 12.8362 96.5536 8.46037 90.2876 8.46037C86.1406 8.46037 83.0076 10.2769 80.7508 12.7916H79.7368C78.0338 10.5551 75.0854 8.46037 70.7096 8.46037C66.7394 8.46037 63.5674 10.2296 61.9086 12.2797H60.8946V9.25313H53.937V36.6818H61.36V22.3388C61.36 17.4458 62.79 15.771 67.7638 15.771C72.7376 15.771 74.1182 17.4458 74.1182 22.3388V36.6791H81.5906V22.3388C81.5906 17.4458 82.9712 15.771 87.9476 15.771C92.9266 15.771 94.3046 17.4458 94.3046 22.3388L94.2942 36.6791L94.2916 36.6818ZM24.18 32.7547C22.8462 31.7782 22.2456 30.3345 22.2456 28.1479C22.2456 25.3995 23.0776 22.0133 24.4582 20.5564C25.4254 19.5772 26.806 19.1126 28.6962 19.1126C31.369 19.1126 34.6398 19.8214 36.0204 21.2546C36.9434 22.1865 37.3594 23.4885 37.3594 25.305C37.3594 27.9143 36.621 31.5919 35.0064 33.1275C34.086 33.9675 32.8432 34.3376 31.0934 34.3376C28.7014 34.3376 25.6958 33.7759 24.18 32.7547ZM35.932 38.5298L35.607 41.0445L42.5594 41.9107L45.8536 14.7341L38.9038 13.8705L38.5788 16.506H37.7754C36.7354 14.6449 33.9482 12.1275 28.6962 12.1275C21.372 12.1275 15.9822 17.577 15.0124 25.0241C14.9225 25.7513 14.8765 26.4832 14.8746 27.216C14.8746 34.3376 19.6664 40.2071 27.1284 41.0445C27.5444 41.0839 27.9578 41.097 28.3738 41.0918C31.5068 41.0918 33.8572 39.7425 35.0558 38.5324H35.9294L35.932 38.5298ZM193.206 30.4868C187.632 30.4868 185.788 28.6256 185.788 22.9924C185.788 17.3565 187.634 15.4403 193.206 15.4403C198.78 15.4403 200.624 17.3486 200.624 22.9924C200.624 28.6335 198.78 30.4868 193.206 30.4868ZM157.456 30.4868C151.879 30.4868 150.038 28.6256 150.038 22.9924C150.038 17.3565 151.879 15.4403 157.453 15.4403C163.028 15.4403 164.874 17.3486 164.874 22.9924C164.874 28.6335 163.028 30.4868 157.453 30.4868H157.456ZM122.624 30.4868C117.052 30.4868 115.209 28.6256 115.209 22.9924C115.209 17.3565 117.052 15.4403 122.624 15.4403C128.196 15.4403 130.044 17.3486 130.044 22.9924C130.044 28.6335 128.198 30.4868 122.624 30.4868ZM4.5292 0L0 36.6266L7.3944 37.5375L11.8508 0.90825L4.5292 0ZM200.946 34.0279V36.6791H207.901V9.25575H200.946V11.9123H199.932C198.825 10.4213 196.017 8.46562 192.228 8.46562C183.934 8.46562 178.272 14.8365 178.272 22.995C178.272 31.1509 183.937 37.4771 192.228 37.4771C196.009 37.4771 198.817 35.5215 199.932 34.0305L200.946 34.0279ZM122.624 8.463C113.409 8.463 107.7 14.8339 107.7 22.9924C107.7 31.1483 113.409 37.4745 122.624 37.4745C131.838 37.4745 137.566 31.1404 137.566 22.9924C137.566 14.8417 131.851 8.463 122.624 8.463ZM165.287 34.0279V36.6791H172.242V0.315H164.874V11.9096H163.86C162.755 10.4186 160.264 8.463 156.489 8.463C148.195 8.463 142.527 14.8339 142.527 22.9924C142.527 31.1483 148.195 37.4745 156.489 37.4745C160.264 37.4745 163.212 35.5189 164.273 34.0279H165.287Z" fill="black"/>
</g>
</g>
<defs>
<clipPath id="clip0_598_47784">
<rect width="208" height="42" fill="white"/>
</clipPath>
</defs>
</svg>
