<svg width="190" height="42" viewBox="0 0 190 42" fill="none" xmlns="http://www.w3.org/2000/svg">
<g id="logo" clip-path="url(#clip0_598_47754)">
<path id="Vector" fill-rule="evenodd" clip-rule="evenodd" d="M22.8388 0.11456C18.5674 -0.339821 14.2614 0.552977 10.5127 2.67024C6.7641 4.78749 3.75684 8.02528 1.90431 11.9385C0.0517714 15.8518 -0.555093 20.2485 0.167128 24.5242C0.889349 28.7999 2.9052 32.7447 5.9376 35.8165C8.97 38.8883 12.8701 40.9362 17.1018 41.6788C21.3335 42.4213 25.6891 41.8221 29.5698 39.9634C33.4506 38.1047 36.666 35.0778 38.7742 31.2988C40.8824 27.5198 41.7798 23.1741 41.343 18.8591C40.8625 14.0627 38.76 9.58007 35.3896 6.16593C32.0192 2.75179 27.5869 0.614722 22.8388 0.11456ZM22.1652 32.1044C19.8678 32.4156 17.5317 31.9921 15.485 30.8933C13.4384 29.7944 11.7841 28.0756 10.7548 25.9783C9.72542 23.8811 9.37269 21.5108 9.74618 19.2006C10.1197 16.8904 11.2006 14.7565 12.837 13.0987C14.4735 11.441 16.5832 10.3427 18.8696 9.95834C21.156 9.57394 23.5043 9.92273 25.5843 10.9557C27.6643 11.9886 29.3715 13.6538 30.466 15.7172C31.5605 17.7806 31.9872 20.1384 31.6862 22.4593C31.3703 24.9006 30.2663 27.1686 28.5451 28.9122C26.8239 30.6558 24.5816 31.7778 22.1652 32.1044ZM52.4627 0.94514C51.7416 0.946883 51.03 1.11094 50.3796 1.42538C49.7293 1.73981 49.1565 2.19672 48.703 2.76284C48.2495 3.32897 47.9267 3.99007 47.758 4.69805C47.5894 5.40603 47.5792 6.14307 47.7281 6.85554C48.1843 9.16372 50.3192 10.7408 52.6448 10.7408H66.1412L45.1378 38.8101C44.9825 39.0173 44.8873 39.2641 44.8631 39.5229C44.8389 39.7816 44.8865 40.0421 45.0007 40.275C45.1148 40.508 45.2909 40.7042 45.5093 40.8417C45.7277 40.9792 45.9797 41.0526 46.237 41.0536H79.1829C81.5071 41.0536 83.6435 39.4769 84.0997 37.1683C84.2487 36.456 84.2385 35.7191 84.07 35.0112C83.9015 34.3033 83.5789 33.6422 83.1256 33.076C82.6723 32.5099 82.0998 32.0528 81.4496 31.7382C80.7995 31.4236 80.088 31.2592 79.3671 31.2572H62.9228L83.9101 3.20971C84.0669 3.00048 84.163 2.75124 84.1874 2.48997C84.2118 2.2287 84.1636 1.96573 84.0483 1.73056C83.933 1.49539 83.755 1.29733 83.5344 1.1586C83.3138 1.01986 83.0593 0.945947 82.7995 0.94514H52.4627ZM184.112 1.05813C183.022 1.32005 182.052 1.95005 181.364 2.84396C180.676 3.73786 180.311 4.84214 180.328 5.97421V22.2837L154.159 1.25319C153.954 1.08868 153.707 0.986015 153.446 0.957009C153.186 0.928003 152.922 0.973832 152.687 1.08922C152.451 1.20462 152.252 1.38488 152.113 1.60929C151.974 1.83369 151.901 2.09312 151.902 2.35772V36.0333C151.884 37.1654 152.249 38.2697 152.938 39.1636C153.626 40.0575 154.595 40.6875 155.686 40.9494C156.394 41.1068 157.129 41.1016 157.835 40.9342C158.541 40.7667 159.2 40.4414 159.765 39.9821C160.33 39.5229 160.786 38.9414 161.099 38.2806C161.411 37.6198 161.573 36.8965 161.572 36.1641V19.7135L187.742 40.7444C187.947 40.9088 188.194 41.0114 188.454 41.0404C188.715 41.0694 188.978 41.0235 189.214 40.9082C189.449 40.7929 189.648 40.6127 189.787 40.3884C189.926 40.1641 189.999 39.9048 189.998 39.6403V5.8418C189.999 5.10959 189.837 4.38654 189.524 3.72597C189.211 3.06539 188.756 2.48413 188.191 2.02505C187.626 1.56596 186.966 1.24076 186.261 1.07341C185.555 0.906065 184.821 0.900843 184.112 1.05813ZM115.974 9.80321C127.043 9.80321 135.314 15.7104 135.314 20.9944C135.314 26.2784 127.043 32.1857 115.974 32.1857C104.905 32.1857 96.6346 26.2784 96.6346 20.9944C96.6346 15.7104 104.905 9.80321 115.974 9.80321ZM115.974 0.00791301C99.9524 0.00791301 86.9644 9.40398 86.9644 20.9944C86.9644 32.5849 99.9524 41.981 115.974 41.981C131.996 41.981 144.984 32.5849 144.984 20.9944C144.984 9.40398 131.996 0.00791301 115.974 0.00791301Z" fill="#0069FF"/>
</g>
<defs>
<clipPath id="clip0_598_47754">
<rect width="190" height="42" fill="white"/>
</clipPath>
</defs>
</svg>
