<svg width="32" height="32" viewBox="0 0 32 32" fill="none" xmlns="http://www.w3.org/2000/svg">
<g id="Name=Flower">
<path id="Vector" fill-rule="evenodd" clip-rule="evenodd" d="M19.1564 16.1228C19.3541 17.8698 18.1564 19.4452 16.4795 19.6509C14.8026 19.8551 13.2803 18.6078 13.0878 16.8628C12.8911 15.1168 14.0879 13.5336 15.7666 13.3289C17.4444 13.1227 18.9616 14.374 19.1564 16.1228ZM4.30535 19.0142C4.64147 21.823 7.17907 23.9469 10.0444 23.6171C11.0755 23.4992 12.0347 23.2039 12.673 22.7917C13.3123 25.4193 15.452 27.1094 18.3392 26.7169C21.2714 26.3205 23.2644 23.933 22.9436 20.8898C22.8578 20.072 22.7027 19.5735 22.4641 18.9984C22.4641 18.9984 22.8513 18.9571 23.1451 18.8991C26.0179 18.3364 27.9552 15.9537 27.7129 13.074C27.3926 10.1156 24.8206 7.9203 22.1414 8.26302C21.1038 8.39579 20.1437 8.80609 19.5063 9.38223C18.7863 6.91996 16.5398 4.77932 13.4734 5.30753C10.7055 5.78349 8.87683 8.20886 9.15631 11.2837C9.20227 11.7836 9.31601 12.3531 9.55696 12.9239C9.55696 12.9239 9.08621 12.9977 8.76448 13.0452C6.44137 13.4052 3.92327 15.8248 4.30535 19.0142Z" fill="#015EFF"/>
</g>
</svg>
