<svg width="32" height="32" viewBox="0 0 32 32" fill="none" xmlns="http://www.w3.org/2000/svg">
<g id="Name=Ice cream">
<path id="Vector" fill-rule="evenodd" clip-rule="evenodd" d="M11.4358 9.12445C10.7295 9.12502 9.71952 9.12627 9.16291 7.94527C8.70686 6.97581 8.858 5.41286 8 4.71518C8.858 4.98195 9.76539 4.98069 10.4725 4.98006C12.7454 4.97818 14.9154 3.3079 16.5808 3.30664C17.6791 3.30601 18.0331 4.05924 18.0337 4.81059C18.036 7.18232 13.5567 9.12251 11.4358 9.12445ZM12.9416 14.9422C18.2232 14.937 23.0538 10.6056 23.0505 6.79892C23.0487 5.0245 22.2314 3.5663 20.1468 3.30664C20.5036 3.77639 20.6554 4.14125 20.656 4.97494C20.6589 7.84453 16.4009 11.0294 11.7702 11.0337C10.0916 11.0355 9.58367 12.2331 9.58426 12.8595C9.58545 14.3213 10.9605 14.944 12.9416 14.9422ZM12.2247 16.9977C12.8972 22.0491 20.2701 28.853 22.268 28.6905C23.6023 28.5717 24.1077 22.0916 24.1035 16.9871C24.1006 14.0616 24.2525 11.7719 22.7662 11.24C20.4122 16.1925 14.225 17.2083 12.2247 16.9977Z" fill="#015EFF"/>
</g>
</svg>
