<svg width="32" height="32" viewBox="0 0 32 32" fill="none" xmlns="http://www.w3.org/2000/svg">
<g id="Name=Spark">
<path id="Vector" fill-rule="evenodd" clip-rule="evenodd" d="M18.112 23.7582C14.9298 23.7613 12.839 22.2201 12.8382 21.4241C12.8376 21.0274 13.109 20.7632 13.4744 20.7627C14.4733 20.7619 16.6555 22.2586 17.3836 22.2576C17.565 22.2576 17.7011 22.1714 17.7011 21.9065C17.7003 21.1108 16.9269 19.7887 16.9264 19.1289C16.9264 18.9516 17.0627 18.8197 17.3352 18.8197C18.5613 18.8186 20.3805 19.3033 21.3358 19.3023C21.653 19.3018 21.7424 19.125 21.7424 18.9475C21.7414 17.9766 18.7858 16.0825 18.7853 15.508C18.7848 14.9786 22.4562 14.1798 22.4557 13.3445C22.4547 12.4601 17.4641 13.0826 17.4636 12.2445C17.4625 11.626 18.4173 10.5677 18.4167 10.0815C18.4167 9.86024 18.2341 9.77304 17.9171 9.77329C17.5078 9.77381 15.3272 10.6135 14.4188 10.6145C13.9631 10.615 13.4177 10.5278 13.4172 9.90887C13.4161 8.89374 15.1877 7.79037 17.9606 7.78805C22.4504 7.78394 25.1351 10.7825 25.1396 15.8118C25.1455 22.1653 20.5656 23.7561 18.112 23.7582ZM9.09294 15.3802C9.0924 14.8788 7.28933 13.9246 7.2888 13.3786C7.2888 13.2872 7.3802 13.2416 7.51972 13.2416C8.02863 13.2408 8.90556 13.4224 9.59808 13.4219C10.1995 13.4214 10.2882 10.8705 10.7406 10.87C11.0627 10.87 11.6176 13.2835 12.1281 13.283C12.7273 13.2825 13.8322 12.5973 14.2954 12.5973C14.3876 12.5968 14.479 12.6422 14.479 12.7343C14.4796 13.0533 13.3271 14.2818 13.3271 14.6475C13.3276 15.0573 15.913 15.5565 15.9135 15.9212C15.9135 16.3774 13.2833 16.3341 13.2833 16.7442C13.2833 17.0602 14.2543 18.3363 14.2546 18.7463C14.2546 18.8377 14.2078 18.8839 14.1164 18.8839C13.7467 18.8847 12.316 18.2465 11.9006 18.2465C11.3925 18.247 10.5731 20.1153 10.1578 20.1159C10.0193 20.1159 9.92875 19.9329 9.92821 19.7048L9.8325 17.8848C9.8325 17.7021 9.74218 17.5191 9.51044 17.5196C8.95611 17.5202 7.89394 17.4753 7.56973 17.4753C7.33799 17.4758 7.24659 17.4304 7.24659 17.3396C7.24605 16.9752 9.09294 15.6989 9.09294 15.3802ZM7.96942 22.9073C8.70758 22.9068 8.84771 24.6494 8.98757 25.6738C9.07867 26.2104 9.17084 26.2549 9.40234 26.2549C9.95429 26.2544 10.8235 24.2002 11.4135 24.1997C12.2859 24.1987 14.6351 26.5626 18.5433 26.56C24.1002 26.555 29.3395 22.7548 29.3333 16.0621C29.3274 9.58992 24.6313 5.7996 18.1558 5.80532C15.0756 5.80845 12.8225 7.28278 11.6259 7.28382C10.9009 7.32884 9.79486 5.54611 9.24292 5.54663C9.01329 5.54663 8.78341 5.99088 8.78448 6.75082C8.78501 7.24244 8.78609 8.80291 8.23414 8.80343C7.1281 8.80448 2.85344 5.73063 2.85451 6.84477C2.85532 7.87277 5.70643 10.9955 5.70696 11.7969C5.70777 12.6008 2.90596 13.3628 2.90649 13.8987C2.90756 14.8793 5.89425 15.0557 5.89532 16.3063C5.89639 17.5544 2.77226 18.5403 2.77333 19.4785C2.77386 20.2361 5.89827 19.6989 5.89934 20.6353C5.90041 21.5717 3.60688 24.6981 3.60741 25.5895C3.60795 25.8138 3.65323 25.8138 3.83623 25.8133C4.7081 25.8128 7.3253 22.9078 7.96942 22.9073Z" fill="#015EFF"/>
</g>
</svg>
