<svg width="32" height="32" viewBox="0 0 32 32" fill="none" xmlns="http://www.w3.org/2000/svg">
<g id="Name=Bowl">
<path id="Vector" fill-rule="evenodd" clip-rule="evenodd" d="M9.37185 9.19331C9.37003 7.19259 14.1176 6.12645 14.1156 3.65645C14.1153 3.24985 13.9576 2.53271 13.6757 2C15.3318 2.90486 16.5508 4.43701 16.5519 5.68577C16.5537 7.84285 14.3072 8.8443 14.3083 10.1897C14.3097 11.7521 16.7139 12.0008 16.7158 13.9385C16.7172 15.5308 14.4385 17.3777 14.4403 19.4405C14.4417 21.0343 15.5678 22.345 17.2857 22.5626C16.7236 22.6885 16.2243 22.7828 15.6933 22.7835C12.5381 22.7861 9.28845 20.1961 9.28572 17.1003C9.28426 15.5687 9.93981 14.2259 10.9368 13.256C11.8128 14.005 12.6869 14.5036 13.2498 14.5033C13.7498 14.5025 13.9681 14.2538 13.9678 13.8787C13.9668 12.7202 9.37404 11.6633 9.37185 9.19331ZM19.5941 24.7581C18.4246 25.236 17.9579 25.1547 17.9591 26.2192C17.9595 26.614 17.8571 27.1282 17.8571 27.4016C17.8575 27.7665 17.9267 27.9797 18.4035 27.9794C19.6315 27.9783 21.5728 26.1246 21.5714 24.5438C21.5706 24.1176 21.2976 23.9378 20.9907 23.9381C20.7171 23.9381 20.4129 24.4231 19.5941 24.7581ZM19.374 22.5627C19.3731 21.1869 16.4659 21.1593 16.464 19.0785C16.4637 18.5581 16.8066 17.6715 17.4942 16.7216C17.7776 18.3114 18.433 19.1377 19.8402 19.6571C22.6214 20.6633 22.9985 22.1919 23 23.8149C23.0029 26.5689 21.0371 29.9957 15.9758 30C11.9129 30.0034 9.00292 26.4582 9 23.4602C8.99928 22.6328 9.21754 21.7163 9.749 21.7159C10.2183 21.7156 10.375 22.0812 10.749 22.4482C12.1576 23.8247 13.6883 24.1892 15.9071 24.1873C17.9072 24.1855 19.3747 23.389 19.374 22.5627Z" fill="#015EFF"/>
</g>
</svg>
