<svg width="32" height="32" viewBox="0 0 32 32" fill="none" xmlns="http://www.w3.org/2000/svg">
<g id="Name=Palm tree">
<path id="Vector" fill-rule="evenodd" clip-rule="evenodd" d="M17.0816 1.91992C15.2413 1.92187 15.1574 4.09388 15.1614 8.47098C13.7885 5.59507 11.5162 2.50926 8.86136 2.51169C7.06349 2.51315 6.37905 3.68307 6.38055 5.72495C6.3808 6.14282 6.42425 6.76961 6.5104 7.14272C6.72365 6.43517 7.40983 6.14209 8.26507 6.1416C10.1074 6.13965 12.3352 7.51388 13.792 9.3911C12.1225 9.10069 10.4929 8.80931 9.12455 8.81076C8.26706 8.81125 7.49648 8.89565 6.85474 9.18849C5.61246 9.72967 3.94419 11.5261 3.94668 14.2388C3.94719 14.6557 3.99089 15.113 4.07678 15.614C5.57226 12.3587 9.55404 10.8952 12.1237 10.8933C12.6386 10.8928 13.0227 10.9344 13.3223 10.976C11.9964 12.1432 11.6982 14.1897 11.6141 15.5654C11.5721 16.2335 11.3147 16.2761 10.8435 16.2766C10.8443 17.6513 11.9609 19.6961 11.9619 20.7378C11.9624 21.1139 11.7482 21.4481 11.5339 21.5322C11.5359 23.3664 13.421 24.7005 13.422 25.868C13.422 26.1598 13.3366 26.4101 13.208 26.5361C13.3376 27.2877 15.4108 28.5491 15.6795 29.181C16.0091 29.951 16.3799 30.0799 16.5942 30.0799C17.3223 30.0789 18.4767 29.2427 18.4762 28.4912C18.4757 28.2409 18.2615 27.949 18.0922 27.8235C17.2774 27.2427 16.8466 25.9908 16.5035 25.1573C16.2029 25.1578 15.8149 25.0349 15.6795 24.5434C15.4443 23.6802 15.4316 22.071 15.0877 21.111C14.5306 20.9867 14.2727 20.7775 14.2717 19.6531C14.2712 19.1094 14.6125 16.9819 14.6115 16.2306C14.3541 16.2306 14.0132 16.0645 14.0127 15.563C14.0118 14.2298 15.3804 13.1847 15.7624 11.4751C18.207 13.2239 18.8068 15.0164 18.8083 16.6032C18.8088 17.4353 18.6807 18.2297 18.5102 18.9815C20.3093 18.1027 23.0063 16.808 23.0038 14.1795C23.0026 12.6353 22.2727 10.9263 17.4322 10.2619C18.9299 9.71775 20.8159 9.42637 22.3993 9.42491C25.1398 9.42248 26.7249 10.2536 27.0698 12.1298C27.6259 11.2973 28.0538 10.3363 28.0533 9.46115C28.0513 7.41586 26.2924 6.0842 24.0666 6.08614C21.4534 6.08858 19.1422 7.42316 16.6604 9.05472C17.7735 6.80123 18.5401 5.46616 19.912 5.46519C20.1265 5.4647 20.3407 5.50678 20.555 5.54764C20.0386 3.71347 18.1109 1.91895 17.0816 1.91992Z" fill="#015EFF"/>
</g>
</svg>
