<svg width="32" height="32" viewBox="0 0 32 32" fill="none" xmlns="http://www.w3.org/2000/svg">
<g id="Name=Waves">
<path id="Vector" fill-rule="evenodd" clip-rule="evenodd" d="M13.663 8.01092C15.3137 8.23252 15.7101 8.82693 15.7105 9.31108C15.7114 10.1286 14.9927 10.3877 14.3102 10.3883C13.8086 10.3888 13.2354 10.2779 12.625 10.2787C11.8363 10.2792 11.0487 10.4659 10.404 11.247C10.8698 11.3207 11.5519 11.6545 11.5527 12.3986C11.5544 14.5537 5.78124 12.7738 5.78626 18.3115C5.78856 21.2452 8.73115 24.4395 13.1754 24.4353C15.4712 24.4334 16.9416 23.6516 16.9408 22.7583C16.9399 22.0529 15.722 22.5373 15.7216 21.942C15.7212 21.6821 16.15 21.1966 16.1496 20.7874C16.1492 20.607 16.0064 20.2715 15.7199 20.2719C15.0732 20.2723 13.8546 21.3485 11.3803 21.3507C9.44438 21.3524 7.54396 20.2054 7.5427 18.6438C7.54229 18.3097 7.68585 18.1226 7.90026 18.1226C8.11613 18.1221 8.40285 18.2718 8.65362 18.2714C8.86949 18.2714 8.90481 18.1217 8.90439 17.7129C8.90397 17.304 8.90314 16.1507 9.58273 16.1505C10.2644 16.1496 11.558 18.751 16.5076 18.7464C18.1499 18.7449 21.342 18.4081 22.5248 17.291C22.4922 21.3777 19.4119 26.7673 12.9625 26.7733C6.26022 26.7798 2.67127 21.2094 2.66666 16.0822C2.66186 10.3987 7.13562 5.23254 13.267 5.22669C14.8429 5.22539 16.1722 5.77972 16.1726 6.48591C16.1734 7.45312 13.8419 6.86066 13.663 8.01092ZM25.1001 9.76283C25.3419 10.1703 25.4452 10.5814 25.4456 10.9543C25.4464 11.9994 24.7935 12.9682 24.7943 14.05C24.7955 15.2819 25.6579 16.2848 26.959 16.2835C28.3709 16.2824 29.3345 15.054 29.3333 13.598C29.3317 11.6224 27.6773 9.94654 25.1001 9.76283ZM13.1631 12.3144C13.5135 12.6805 13.6198 13.0504 13.6202 13.4206C13.6206 13.9739 13.3754 14.5655 13.3758 15.193C13.3766 16.0758 14.0077 16.8514 14.9182 16.8505C15.9025 16.8495 16.5682 16.0353 16.5674 15.08C16.5661 13.6758 15.1938 12.3125 13.1631 12.3144ZM17.6194 5.79371C21.3482 6.54393 23.3734 9.51889 23.3759 12.3069C23.3775 14.2298 22.2442 15.9983 20.2554 16C18.4445 16.0016 17.1368 14.687 17.1347 12.5751C17.1337 10.9932 18.2954 9.3348 18.2941 7.71353C18.2937 7.07403 18.1162 6.43387 17.6194 5.79371ZM19.6879 10.5785C19.6883 11.0746 20.0292 11.4643 20.5057 11.4639C21.0498 11.4635 21.3905 10.9667 21.3901 10.3991C21.3893 9.65654 20.7416 8.62838 20.1289 8.62879C19.8556 8.629 19.9589 9.05485 19.8903 9.51541C19.8568 9.86936 19.6879 10.294 19.6879 10.5785Z" fill="#015EFF"/>
</g>
</svg>
