<svg width="32" height="32" viewBox="0 0 32 32" fill="none" xmlns="http://www.w3.org/2000/svg">
<g id="Name=Particles">
<path id="Vector" fill-rule="evenodd" clip-rule="evenodd" d="M24.5076 28.3988C24.5064 27.3736 25.4215 26.5006 26.4264 26.5C27.5463 26.4988 28.412 27.37 28.4126 28.3952C28.4137 29.5758 27.5499 30.3988 26.43 30.4C25.4251 30.4006 24.5082 29.579 24.5076 28.3988ZM4.98268 11.6517C4.98399 12.723 5.99989 13.6011 7.23506 13.6C8.47712 13.5988 9.48974 12.7196 9.48843 11.6477C9.48711 10.5766 8.47318 9.69884 7.23112 9.69997C5.9953 9.70055 4.98202 10.5803 4.98268 11.6517ZM2.88 18.8526C2.88129 20.5684 4.31892 22.0013 6.03596 22C7.75041 21.998 9.18933 20.5626 9.18804 18.8468C9.18675 17.1354 7.7446 15.698 6.03015 15.7C4.31312 15.7013 2.87806 17.1412 2.88 18.8526ZM10.0892 15.7027C10.0911 17.5444 11.5578 19.0019 13.3898 19C15.2338 18.9987 16.6995 17.5387 16.6976 15.6967C16.6957 13.8574 15.2281 12.3987 13.3834 12.4C11.5514 12.4019 10.0873 13.8637 10.0892 15.7027ZM10.3896 8.94938C10.3908 10.0285 11.2663 10.9012 12.3382 10.9C13.4208 10.8994 14.2958 10.0252 14.2946 8.94579C14.294 7.86997 13.4172 6.99878 12.3346 6.99997C11.2633 7.00117 10.3884 7.87416 10.3896 8.94938ZM20.3022 3.55386C20.3034 4.62892 21.1766 5.50117 22.2562 5.49998C23.3337 5.49938 24.2084 4.62533 24.2072 3.55027C24.2066 2.47253 23.3304 1.59938 22.2526 1.59998C21.173 1.60117 20.3016 2.47582 20.3022 3.55386ZM16.0969 10.3045C16.0988 12.1074 17.7334 13.6018 19.7047 13.6C21.6764 13.5982 23.308 12.1023 23.306 10.2979C23.3041 8.49074 21.6698 6.99817 19.6982 6.99997C17.7269 7.00178 16.0952 8.49645 16.0969 10.3045ZM10.69 22.7523C10.6913 23.8262 11.7093 24.7011 12.9377 24.7C14.181 24.6994 15.1964 23.8231 15.1957 22.7488C15.1947 21.6749 14.1764 20.7988 12.9338 20.8C11.7053 20.8011 10.6893 21.6786 10.69 22.7523ZM17.8992 18.5505C17.9005 19.6236 18.9144 20.5005 20.1545 20.5C21.3936 20.4988 22.4062 19.6199 22.4049 18.5471C22.4036 17.4755 21.3897 16.5988 20.1505 16.6C18.9105 16.6011 17.8978 17.4795 17.8992 18.5505ZM15.7965 26.5024C15.7984 28.4846 17.4857 30.1018 19.5547 30.1C21.6213 30.0981 23.3079 28.4779 23.306 26.4963C23.3041 24.5153 21.6143 22.8982 19.5478 22.9C17.4787 22.9018 15.7946 24.522 15.7965 26.5024ZM23.9068 21.7001C23.9081 23.1951 25.0536 24.4013 26.4572 24.4C27.8723 24.398 29.0146 23.1907 29.0133 21.6951C29.0121 20.2042 27.8675 18.9986 26.4525 19C25.0485 19.0013 23.9055 20.2086 23.9068 21.7001ZM23.9068 14.9495C23.9074 16.1838 24.9323 17.2012 26.1545 17.2C27.3921 17.1993 28.4132 16.1797 28.4126 14.9451C28.4116 13.7152 27.388 12.6987 26.1508 12.7C24.9279 12.7012 23.9056 13.719 23.9068 14.9495Z" fill="#015EFF"/>
</g>
</svg>
