<svg width="32" height="32" viewBox="0 0 32 32" fill="none" xmlns="http://www.w3.org/2000/svg">
<g id="Name=Virtuous cycle">
<path id="Vector" fill-rule="evenodd" clip-rule="evenodd" d="M7.66302 14.7407C9.36564 16.4303 10.8653 17.1715 12.6974 17.17C13.42 17.1692 14.2705 16.9669 14.7295 16.9661C15.3153 16.9661 15.708 17.2334 15.708 17.7066C15.7088 18.4514 15.0559 19.6702 14.2728 20.3484C15.0567 20.6859 15.9072 20.8215 16.8233 20.8207C20.536 20.8168 24.7841 18.3745 24.7781 12.2913C25.5642 13.3693 26.0251 15.6034 26.0267 16.6183C26.0324 23.9885 20.803 26.8322 15.9804 26.8365C12.8395 26.8397 11.2671 25.7589 10.8736 25.7589C9.6357 25.7605 9.7035 28.3321 8.85295 28.2654C7.34877 27.9965 5.97677 24.5484 5.97333 20.8976C5.97181 18.731 6.49251 16.4326 7.66302 14.7407ZM17.2417 9.95288C16.7158 9.06888 14.7606 8.5973 13.8456 8.5981C10.9566 8.60127 8.99555 10.7114 8.60259 12.6196C8.34099 11.9376 8.14203 11.1215 8.14126 10.3038C8.13897 7.30961 10.1019 3.63149 14.8889 3.62671C19.0706 3.62275 20.7097 5.93418 21.302 5.93418C21.9558 5.93339 22.6107 5.25064 23.1373 5.24984C23.8572 5.24905 23.858 6.40734 23.8587 7.22664C23.861 9.94732 22.6863 14.6472 19.7358 16.3529C19.2104 15.1954 18.1617 13.9013 16.4684 13.0884C16.0109 12.8855 15.8134 12.4771 15.8127 12.0686C15.8123 11.318 16.4661 10.3629 17.2417 9.95288Z" fill="#015EFF"/>
</g>
</svg>
