<svg width="32" height="32" viewBox="0 0 32 32" fill="none" xmlns="http://www.w3.org/2000/svg">
<g id="Name=Packaging">
<path id="Vector" fill-rule="evenodd" clip-rule="evenodd" d="M25.0142 10.9351C23.4806 12.0821 19.893 14.6541 13.9279 14.6594C10.7405 14.6611 9.32071 13.6899 8.84801 13.6906C8.25732 13.6916 7.60745 14.2635 6.96033 15.0096C5.55842 16.6137 3.73094 19.591 3.73335 22.8476C3.73542 25.1358 5.5684 27.4167 8.97978 27.4134C20.0227 27.404 28.2722 20.7079 28.2667 15.278C28.2639 12.1911 26.3749 10.9338 25.0142 10.9351ZM21.9198 10.2893C22.3992 9.89598 22.5095 9.26069 22.5089 8.62974L22.5075 7.31351C22.5061 5.65564 19.915 4.69071 16.3651 4.69336C12.0459 4.69704 9.74082 6.58023 9.74151 7.3835L9.74392 10.013C9.74461 11.1009 12.3505 12.1858 15.5441 12.1835C18.0883 12.1808 20.3951 11.5499 21.9198 10.2893ZM13.2463 23.4186C13.7096 22.0083 14.0582 20.5323 14.0568 19.123C14.0568 18.6502 13.9988 18.295 13.9407 17.7659L14.6987 17.7652C19.3004 17.7604 21.2806 15.9285 21.616 15.9285C21.9086 15.9285 22.2575 16.1035 22.2585 17.167C22.2592 18.4656 21.6788 20.1723 19.5964 21.53" fill="#015EFF"/>
</g>
</svg>
