<svg width="32" height="32" viewBox="0 0 32 32" fill="none" xmlns="http://www.w3.org/2000/svg">
<g id="Name=Swirl">
<path id="Vector" fill-rule="evenodd" clip-rule="evenodd" d="M7.97888 6.56808C6.14442 6.99812 3.19547 9.7699 3.2 14.148C3.20455 19.3723 9.05704 27.4214 18.6829 27.4134C26.8062 27.4071 28.8039 22.0194 28.8 18.389C28.7929 10.3358 23.6159 4.68716 16.8835 4.69336C13.2087 4.69648 9.92852 7.26118 9.93241 11.0448C9.93565 14.5684 12.7227 19.8437 19.3448 19.8384C22.4608 19.8359 24.294 17.6991 24.292 15.2503C24.2894 12.848 22.005 9.54633 18.6657 9.54944C17.6648 9.55006 16.9438 10.1856 16.9445 11.2006C16.9458 12.4792 18.7822 13.7597 21.0628 13.7578C21.6195 13.7575 22.0643 13.6511 22.2879 13.5439C22.3989 13.7049 22.455 13.9714 22.4556 14.1841C22.4569 15.4123 21.2315 16.1602 19.3415 16.162C16.5042 16.1645 13.7726 14.1384 13.7697 10.935C13.7684 9.01989 15.4932 7.63058 17.9967 7.62809C22.9501 7.62405 25.9013 11.8324 25.9052 16.0492C25.9091 19.8328 23.744 22.0237 19.2913 22.0274C10.3853 22.0355 6.0406 14.3589 7.97888 6.56808Z" fill="#015EFF"/>
</g>
</svg>
