<svg width="32" height="32" viewBox="0 0 32 32" fill="none" xmlns="http://www.w3.org/2000/svg">
<g id="Name=Transformation">
<path id="Vector" fill-rule="evenodd" clip-rule="evenodd" d="M4.59556 5.22668C4.96356 7.99938 8.74602 6.59286 8.7495 9.95424C8.74989 10.4445 8.61762 11.1638 8.618 11.7823C8.61878 12.502 8.68607 13.1221 9.24319 13.1213C9.80669 13.1211 9.93993 12.7296 9.93954 12.2062C9.93916 11.683 9.80476 11.0315 9.80437 10.6725C9.80321 9.52886 10.6334 9.2683 11.1317 9.2683C12.3933 9.26697 13.3567 10.5387 15.2491 10.537C14.8192 12.6264 10.4367 12.0747 10.439 14.3607C10.4402 15.5044 11.6018 15.7623 12.3659 15.7623C13.0636 15.7615 13.2956 15.6629 13.2952 15.0769C13.2948 14.7497 13.2272 14.391 13.2272 14.1618C13.227 14.0314 13.3275 13.9001 13.4934 13.9001C14.2242 13.8994 17.803 16.5735 17.8038 17.3905C17.8046 18.1399 14.0285 18.8941 12.9332 18.8949C12.6014 18.8953 12.5345 18.6665 12.5345 18.5369C12.5341 18.3085 13.0974 17.6218 13.097 17.2309C13.097 16.9372 12.5995 16.7417 11.2708 16.7427C10.6403 16.7434 10.1755 16.8089 10.1759 17.3003C10.1766 18.1793 11.6395 19.2556 11.6403 20.0709C11.6407 20.7241 11.2425 21.1164 10.1793 21.1174C9.28342 21.1181 7.92842 20.4329 7.92726 19.2912C7.92649 18.3776 8.88235 17.4634 8.88196 16.9082C8.88196 16.7446 8.75511 16.4838 8.35675 16.484C7.12861 16.4852 6.79929 19.6828 2.45332 20.0458C3.14987 19.4265 3.74566 18.7398 3.7445 17.3378C3.74373 16.6519 3.57859 16.0961 3.57781 15.3466C3.57665 14.367 4.0396 13.8759 4.70308 13.8752C5.92967 13.874 6.52817 15.571 7.32682 15.5702C7.75979 15.5699 8.22274 15.1793 8.22235 14.5914C8.21965 12.1097 3.37573 12.4734 3.37264 8.9809C3.37148 8.03383 3.7008 6.85894 4.59556 5.22668ZM20.398 14.8223C20.3987 15.6441 20.6593 16.5994 21.4682 16.5986C22.1475 16.5982 22.7297 15.5456 22.729 14.3915C22.7275 13.0736 22.5 12.0526 22.4996 11.5246C22.4994 11.2951 22.5964 11.1968 22.7259 11.1968C23.2119 11.2292 23.6657 12.5788 24.1841 12.5784C24.7671 12.5781 25.6335 11.4887 25.989 11.4883C26.0863 11.4883 26.1178 11.6203 26.1178 11.6527C26.1185 12.148 25.3753 13.2368 25.3757 13.664C25.376 14.0256 27.2537 14.0898 27.2541 14.4197C27.2544 14.9143 25.2867 14.9162 24.3486 15.3452C23.4426 15.7407 22.8919 16.2354 22.8923 16.8948C22.893 17.5537 23.5409 17.6838 24.4478 17.683C26.61 17.6811 28.1282 16.4945 28.6131 16.4941C28.7104 16.4941 28.7741 16.5594 28.7745 16.6587C28.7749 16.9883 27.6759 18.0758 27.6763 18.5697C27.6771 19.1296 29.6848 19.7847 29.653 20.115C29.6205 20.2139 29.4904 20.2468 29.2641 20.2468C28.9071 20.2472 28.3583 20.1494 27.9364 20.1498C27.6778 20.1502 27.4511 20.1826 27.3534 20.3142C27.1301 20.5791 27.4204 22.3239 26.9697 22.3243C26.5485 22.3247 25.4445 18.4401 22.9594 18.442C22.603 18.4424 22.345 18.7387 22.3452 19.2335C22.3463 20.5497 23.6104 22.0637 24.8086 22.7874C25.3515 23.15 26.2587 23.5116 26.259 23.7096C26.2594 24.1033 24.1941 23.7444 24.1945 24.4022C24.1953 24.9958 24.455 25.8862 24.4557 26.4115C24.4557 26.5765 24.4235 26.7734 24.229 26.7734C23.8413 26.7737 22.8993 24.9645 22.4468 24.9649C22.0589 24.9653 21.2181 26.0514 20.8604 26.0518C20.765 26.0518 20.7001 25.9535 20.6997 25.8561C20.699 25.098 21.8952 23.3841 21.8939 21.7041C21.8931 20.9129 21.7945 19.2005 20.8545 19.2016C20.0787 19.2024 19.2049 20.4538 18.8176 21.7072C18.5924 22.4313 18.7568 25.2311 18.2382 25.2319C17.7524 25.2323 17.8801 23.3549 17.2322 23.3551C16.7549 23.3558 15.7197 24.2449 15.3635 24.2453C15.2986 24.2453 15.2335 24.2124 15.2335 24.1469C15.2332 23.7526 16.1708 22.466 16.1705 22.2027C16.1701 21.7095 14.0339 21.6461 14.0335 21.2503C14.0331 21.0189 14.8746 20.8541 15.6509 20.7208C17.2956 20.4225 19.7222 19.2024 19.7209 17.4911C19.719 15.5807 17.905 14.7577 16.7138 13.9678C16.0982 13.5725 15.4184 13.2457 15.4178 12.9823C15.4178 12.7179 16.1954 12.7171 16.5182 12.7171C17.0035 12.7163 17.4831 12.6829 17.4827 12.2879C17.4823 11.9904 17.4161 11.3994 17.4157 10.9381C17.4154 10.6079 17.4474 10.344 17.5779 10.344C18.063 10.3433 18.7446 11.9567 19.0686 11.9564C19.5861 11.956 20.2967 10.6381 20.7834 10.6379C20.9437 10.6375 21.009 10.7366 21.0094 11.0331C21.0105 12.2506 20.3968 13.6344 20.398 14.8223Z" fill="#015EFF"/>
</g>
</svg>
