<svg width="32" height="32" viewBox="0 0 32 32" fill="none" xmlns="http://www.w3.org/2000/svg">
<g id="Name=Chilli pepper">
<path id="Vector" fill-rule="evenodd" clip-rule="evenodd" d="M23.1549 10.7373C23.1557 11.3051 22.9531 11.9365 22.4185 12.5649C21.6849 11.3059 19.6074 10.676 18.6689 10.6793C11.7772 10.6848 14.3956 20.0636 7.03254 20.0698C3.95643 20.0727 3.68757 19.6947 2.54968 19.6954C2.08064 19.6954 1.81334 19.8859 1.81334 20.2632C1.81529 21.9018 4.29592 25.9248 11.1884 25.92C18.0816 25.9138 24.7052 21.9451 24.7013 17.0302C24.7006 16.212 24.4992 15.3362 24.0953 14.4541C24.3626 14.0775 25.0338 13.8217 25.6355 13.8217C26.7039 13.8202 27.3084 14.957 28.3124 14.957C29.3844 14.9555 30.1874 14.1979 30.1867 13.19C30.1859 12.3707 29.7165 11.8036 28.9114 11.4252C29.4472 11.0482 29.848 10.4165 29.848 9.72456C29.8464 8.65201 29.0418 7.65251 27.7025 7.65398C27.0985 7.65471 26.6977 7.84301 26.2326 8.27724C26.0983 7.15 25.4271 6.07892 24.155 6.08002C23.1502 6.08075 22.4131 6.77487 22.4139 7.84668C22.4146 8.84619 23.1541 9.66804 23.1549 10.7373Z" fill="#015EFF"/>
</g>
</svg>
