<svg width="32" height="32" viewBox="0 0 32 32" fill="none" xmlns="http://www.w3.org/2000/svg">
<g id="Name=Hair">
<path id="Vector" fill-rule="evenodd" clip-rule="evenodd" d="M7.50742 24.4262C9.61267 24.4238 11.3631 22.8624 11.3596 19.4004L11.3552 14.2744C11.3535 12.3155 11.5018 10.1058 12.8037 8.54554C12.6548 9.19852 12.6553 9.90247 12.6565 10.554C12.6597 14.8755 15.0658 17.8396 15.0696 22.0082C15.0707 23.5631 14.6201 24.4191 13.4202 24.4203C12.2669 24.4215 12.3668 23.3654 12.1157 23.366C11.9159 23.366 11.6154 24.019 11.616 24.7235C11.6172 25.7793 12.3703 27.4344 14.4732 27.4333C16.2774 27.4315 17.7267 25.7734 17.725 23.9129C17.7209 19.3945 14.2101 14.3722 14.206 9.55005C14.2037 7.43732 14.7542 6.03147 15.2045 4.9256C15.2135 14.9239 23.6839 22.2009 23.6871 26.3702C23.6883 27.3246 22.9897 28.0804 21.9375 28.081C20.7846 28.0815 20.2318 27.1766 20.2312 26.4724C20.2306 26.1211 20.1807 26.0204 20.0312 26.0204C19.7336 26.021 18.8312 27.0272 18.8324 28.3352C18.8335 29.991 20.1859 32.0023 22.6921 32C25.5453 31.9971 27.0951 29.582 27.0933 27.4218C27.0887 22.1479 16.8141 14.1684 16.8063 5.62809C16.8051 4.16921 17.0533 1.80865 18.1046 0C11.4969 4.27438 9.45001 9.95666 9.45439 14.9291C9.45789 19.2513 9.30983 21.4094 7.10588 21.4109C5.95382 21.412 5.65215 20.3583 5.25119 20.3589C4.95011 20.3595 4.79942 21.2632 4.8 21.514C4.80176 23.3721 6.15678 24.4273 7.50742 24.4262Z" fill="#015EFF"/>
</g>
</svg>
