<svg width="32" height="32" viewBox="0 0 32 32" fill="none" xmlns="http://www.w3.org/2000/svg">
<g id="Name=Plant">
<path id="Vector" fill-rule="evenodd" clip-rule="evenodd" d="M19 9.07468C18.9996 8.37289 17.1948 8.30817 17.0236 6.33557C16.9889 6.03497 16.8868 5.50083 16.5116 5.50122C15.8998 5.502 16.3775 7.3401 15.6971 7.34049C14.1347 7.34205 13.6219 4.33255 13.044 4.33333C12.9074 4.33333 12.7447 4.43353 12.7451 4.8355C12.7455 5.20316 12.8147 5.43767 12.8151 5.87083C12.8155 6.30594 12.7124 6.60693 12.3049 6.60732C11.3859 6.6081 10.5673 4.50293 9.78467 4.50332C9.61461 4.50371 9.44516 4.6043 9.44555 4.77117C9.44595 5.17275 10.1264 5.9067 10.1268 6.27494C10.1275 7.0779 7.91587 6.64435 7.91667 7.31359C7.91706 7.61496 8.22189 7.7136 8.63017 7.71341C9.34586 7.71263 10.468 7.41242 11.0462 7.41203C11.3867 7.41164 11.8974 7.47792 11.8976 7.91127C11.898 8.37952 10.674 8.98169 10.6744 9.417C10.6748 9.61759 10.8791 9.71584 11.0484 9.71584C11.9674 9.71525 13.5916 8.14403 14.7481 8.14286C14.9516 8.14286 15.4604 8.24248 15.4608 8.54366C15.4612 8.9774 14.3071 9.74664 14.3075 10.3818C14.3079 10.5494 14.411 10.75 14.6141 10.75C15.2238 10.7496 16.0384 9.17839 17.1958 9.17722C17.6384 9.17683 18.2853 9.34311 18.626 9.34272C18.8979 9.34272 19 9.17566 19 9.07468ZM19.6753 25.573C20.2159 23.8833 20.8928 22.699 22.0002 20.8737C20.8904 20.3016 17.9419 19.0865 17.9404 17.0926C17.9386 14.761 20.8482 12.9336 21.4515 12.9336C21.722 12.9332 21.7904 13.1696 21.7912 13.6096C21.792 14.8252 21.2179 16.7854 21.2187 17.834C21.2193 18.779 21.8303 19.6918 22.3717 19.691C22.9477 19.6906 24.5367 17.6618 24.5351 15.6679C24.5316 12.0846 21.3821 11.0075 20.4069 11.0082C19.4924 11.0094 17.8346 12.4972 13.9419 12.5001C6.66926 12.5068 5.00276 5.3126 5 2.16905C5 2.03409 5.03295 2 5.06668 2C5.23596 2 5.94856 2.87874 8.25112 2.87637C9.43643 2.87558 10.5197 2.57 12.2472 2.56842C16.3007 2.56487 18.0992 5.36935 20.6095 8.94695C22.1256 9.89071 25.751 11.409 25.7548 15.7004C25.7583 19.4851 21.7297 21.5842 20.759 25.6392C22.3089 25.4702 23.2214 22.697 24.8125 22.6954C25.6257 22.6947 25.999 23.3374 26 24.3518C26.0012 25.8378 25.1562 28.0695 23.5317 29.456C23.5658 29.3201 23.5655 29.1514 23.5655 28.9479C23.5647 28.0025 23.1912 26.6533 22.1067 26.6537C20.4209 26.6553 19.8807 28.4797 18.9339 30C17.949 26.5558 16.6254 23.4465 14.2558 21.5566C11.8576 19.6333 7.72535 20.6834 7.72199 17.17C7.7212 16.2225 8.32984 14.8713 8.32865 13.7899C8.32865 13.4185 8.26039 13.0802 8.0558 12.8097C11.3093 14.0247 10.1593 16.1865 12.1608 18.4149C13.4073 19.8344 16.8606 21.1829 18.8641 27.0261C18.8974 26.8576 18.9307 26.4196 18.9304 26.1148C18.9256 21.1133 12.2934 16.219 11.7165 14.1914C15.567 14.6276 16.2453 15.5743 18.0791 20.6397C18.4519 21.6886 19.6743 24.29 19.6753 25.573Z" fill="#015EFF"/>
</g>
</svg>
