<svg width="32" height="32" viewBox="0 0 32 32" fill="none" xmlns="http://www.w3.org/2000/svg">
<g id="Name=Clothes">
<path id="Vector" fill-rule="evenodd" clip-rule="evenodd" d="M21.5294 6.21917C20.8189 6.21977 20.0574 6.78283 20.0588 8.16076C20.06 9.68584 21.2295 10.6556 21.89 10.9597C22.2456 11.1642 22.8052 11.3676 23.3591 11.367C24.8351 11.3658 26.0037 10.9558 26.0025 9.73103C26.0013 8.15511 23.7121 6.2165 21.5294 6.21917ZM15.9752 9.34757C14.9062 9.34815 9.00702 17.0802 5.20134 17.0843C4.28536 17.0848 3.5212 15.3901 3.52001 14.0983C3.51883 13.4005 3.97489 12.9012 5.60551 12.5495C14.3475 10.5961 12.4073 4.16644 19.8775 4.16004C23.997 4.15627 28.5807 6.89666 28.5867 13.0776C28.5923 19.659 19.0455 27.8386 17.6204 27.84C16.4494 27.8406 15.1752 26.1994 15.1746 25.1017C15.174 24.7544 15.3267 24.3036 16.345 23.9057C21.2176 22.0035 24.0094 17.6164 24.007 15.3721C24.007 14.8728 23.7532 14.3799 23.0911 14.3805C22.229 14.3811 18.5325 22.6554 14.4092 22.6592C11.5575 22.6618 8.65474 20.1263 8.65356 18.9275C8.65178 16.9322 16.8942 13.2377 16.8918 10.4441C16.8906 9.39553 16.3823 9.34699 15.9752 9.34757Z" fill="#015EFF"/>
</g>
</svg>
