<svg width="32" height="32" viewBox="0 0 32 32" fill="none" xmlns="http://www.w3.org/2000/svg">
<g id="Name=Lips">
<path id="Vector" fill-rule="evenodd" clip-rule="evenodd" d="M2.57173 9.57574C3.49878 8.91506 7.61767 9.95884 12.9414 7.15488C13.5975 6.77178 14.2557 6.61328 14.8398 6.61328C17.4007 6.61102 16.7425 9.71703 19.0861 9.71522C20.9116 9.71341 23.2518 8.07912 24.6437 8.07731C26.8207 8.0755 29.9699 15.3748 29.9733 18.7914C29.9768 22.7528 24.3646 25.166 17.7087 25.1733C7.99855 25.1823 2.13846 16.1799 2.13335 10.3528C2.13335 9.88684 2.35403 9.73152 2.57173 9.57574ZM18.2859 19.4625C21.5223 19.4587 23.947 17.8437 23.9461 16.8762C23.9453 16.5592 23.5036 16.3164 22.547 16.3174C21.5917 16.3192 19.6803 16.2399 16.0758 15.5998C12.985 15.0371 10.6327 13.7508 9.75027 13.7517C9.45597 13.7517 9.3086 13.9138 9.3086 14.1537C9.31032 16.2511 12.8428 19.4681 18.2859 19.4625Z" fill="#015EFF"/>
</g>
</svg>
