<svg width="32" height="32" viewBox="0 0 32 32" fill="none" xmlns="http://www.w3.org/2000/svg">
<g id="Name=DNA">
<path id="Vector" fill-rule="evenodd" clip-rule="evenodd" d="M10.193 19.6978C11.9305 19.6966 13.9137 10.0995 13.9119 8.48143C13.9119 8.06398 13.761 7.75112 13.4026 7.75112C11.8175 7.75295 9.62731 16.8802 9.6291 18.9149C9.6291 19.2809 9.73138 19.6984 10.193 19.6978ZM22.7355 22.5422C23.9626 22.541 25.3357 17.6157 25.3328 14.539C25.3322 13.8714 25.233 13.1556 24.9375 13.1556C23.905 13.1568 22.1901 18.234 22.1921 21.0027C22.1932 22.0809 22.44 22.5428 22.7355 22.5422ZM14.2047 17.9911C14.7373 17.9905 15.4145 17.379 16.6718 15.9037C16.7682 15.2427 16.7676 14.6312 16.7671 13.8673C16.7659 12.8522 16.378 11.7328 15.7977 11.7333C14.3451 11.7351 13.6253 15.8059 13.6264 16.8746C13.627 17.4814 13.9154 17.9911 14.2047 17.9911ZM21.621 16.1969C21.6198 15.3458 21.4163 15.1467 21.2132 15.1467C20.7049 15.1473 20.149 15.7483 19.3368 17.0996C19.4405 18.8983 19.7471 19.6984 20.2535 19.6978C20.8106 19.6972 21.6228 17.9451 21.621 16.1969ZM25.3098 10.0333C28.6589 10.0296 30.1831 12.9698 30.1867 16.2732C30.1878 17.7161 29.7857 19.8354 29.1255 19.836C28.4648 19.8366 28.566 18.6486 28.4624 17.5632C28.3609 16.1709 28.1062 15.8613 27.6484 15.8619C26.7855 15.8625 26.2316 17.927 26.2328 19.8381C26.234 21.0231 26.4378 22.3658 27.3495 22.3652C27.857 22.3646 28.3145 22.1058 28.619 21.7962C28.4183 24.1694 26.6923 26.2376 24.2582 26.24C19.7924 26.2442 18.1122 20.9286 17.6015 17.832C14.915 20.7246 12.4318 22.8445 7.96417 22.8484C3.80463 22.8514 1.92238 19.7572 1.92001 16.8161C1.91942 15.9368 2.22213 13.6677 3.28916 13.6664C4.55593 13.6652 3.44481 17.8964 5.93101 17.8939C6.54116 17.8933 7.65495 17.3752 8.26304 15.6738C8.61753 14.6402 8.82023 13.5584 8.81963 12.628C8.81845 11.233 8.51219 10.3588 7.4999 10.3594C6.63467 10.3606 5.56882 11.0302 5.21432 11.3919C6.43079 7.67411 9.37179 5.76303 12.6179 5.76001C16.6292 5.75671 18.7621 9.36734 18.7659 13.3935C18.7665 13.9601 18.715 14.5794 18.6144 15.1472C20.3369 12.2558 22.7222 10.0357 25.3098 10.0333Z" fill="#015EFF"/>
</g>
</svg>
