<svg width="32" height="32" viewBox="0 0 32 32" fill="none" xmlns="http://www.w3.org/2000/svg">
<g id="Name=Bee">
<path id="Vector" fill-rule="evenodd" clip-rule="evenodd" d="M12.1925 10.1848C12.1925 10.1848 11.0248 11.0677 9.57534 11.0691C7.84649 11.0703 6.47453 9.7872 6.47265 7.97955C6.47125 6.73369 7.11461 5.44777 8.60396 4.80329C8.56334 5.04483 8.56334 5.24489 8.56381 5.4869C8.56569 7.77667 9.85593 9.50302 12.1925 10.1848ZM21.2346 17.6198C20.3084 18.6585 19.34 20.4177 19.3422 22.214C19.3442 24.3704 20.7381 26.166 22.8876 26.1641C24.9533 26.1625 25.9215 24.4843 25.92 22.7679C25.917 20.0922 23.3443 18.2158 21.2346 17.6198ZM7.45485 19.5117C7.37736 19.6357 7.33062 19.7945 7.33062 19.9563C7.33111 20.3197 7.74715 20.7227 8.11863 20.7227C8.45209 20.7222 8.65938 20.6413 8.82574 20.6413C9.82128 20.6404 10.9423 21.3237 12.5633 21.3223C13.5174 21.3219 14.6399 21.0372 16.0502 20.3527C19.0393 18.8966 20.2007 15.3052 20.2002 14.6995C20.1992 13.9321 19.5643 14.0328 19.0342 13.3274C18.5038 12.6252 18.7056 12.0025 18.3677 11.6746C18.1752 11.4855 17.5797 11.4735 16.8312 11.3932C16.5806 11.3674 16.249 11.3535 15.9173 11.3539C14.5476 11.3549 12.9234 11.5203 11.1006 12.6501C7.4999 14.8865 8.03363 18.5828 7.45485 19.5117ZM17.1717 14.4633C17.4446 14.8242 18.1983 15.2686 18.1983 15.5374C18.1987 16.0723 17.8836 16.7645 17.2527 16.7654C15.8722 16.7662 14.7673 14.7341 14.7664 13.5826C14.7659 12.8554 15.1992 12.7785 15.7892 12.778C16.0655 12.7776 16.1834 12.8158 16.3815 12.9314C16.7362 13.1219 16.7366 13.8879 17.1717 14.4633ZM13.2689 19.3287C11.9353 19.3296 10.4779 17.7174 10.4765 16.259C10.4756 15.4733 11.081 14.4873 11.5254 14.4869C11.687 14.4864 11.7681 14.6051 11.8087 14.8815C12.0537 16.8095 13.3488 17.9118 14.5638 18.4605C14.6857 18.5385 14.7664 18.578 14.7664 18.6565C14.7668 18.9324 13.9975 19.3277 13.2689 19.3287ZM16.9657 9.36027C17.1743 8.72195 17.3413 7.92841 17.3403 7.05134C17.3388 5.14244 16.4142 2.23767 13.5661 2.23999C11.9345 2.24139 10.7613 3.47532 10.7625 4.94893C10.7654 8.09292 14.0759 9.36258 16.9657 9.36027ZM6.18666 25.3097C6.18951 28.4024 7.12575 29.8681 8.79185 29.8667C10.0911 29.8657 11.8385 28.9268 13.9084 27.1343C12.3238 27.5027 11.1042 27.7475 10.0082 27.7484C8.54565 27.7496 7.40822 27.1806 6.18666 25.3097ZM7.65699 21.892C7.61613 22.0873 7.61661 22.2808 7.61661 22.4743C7.61855 24.3005 8.6541 25.311 10.0226 25.3097C11.0567 25.3088 12.2612 24.7242 13.3364 23.4404C12.8819 23.5174 12.3425 23.5569 11.8449 23.5573C10.3113 23.5587 8.65216 23.1733 7.65699 21.892ZM17.7489 21.0375C16.7799 21.277 14.7644 22.3946 14.7664 24.3856C14.7676 25.8189 15.944 26.7351 17.4176 26.7337C18.175 26.7328 18.7196 26.5737 19.0562 26.3338C17.8788 25.2605 17.4571 24.065 17.4556 22.8708C17.4551 22.0335 17.5802 21.5162 17.7489 21.0375ZM19.3422 10.2173C19.3431 11.1554 20.0518 11.9241 20.916 11.9236C21.7817 11.9231 22.489 11.1524 22.4881 10.2141C22.4872 9.27454 21.779 8.50534 20.9128 8.50583C20.0486 8.50683 19.3413 9.27703 19.3422 10.2173ZM21.3441 13.6331C21.3448 14.5735 22.0541 15.3423 22.9193 15.3413C23.7828 15.3408 24.4905 14.57 24.49 13.6296C24.4891 12.6914 23.7801 11.9226 22.9165 11.9236C22.0509 11.9241 21.3432 12.6949 21.3441 13.6331Z" fill="#015EFF"/>
</g>
</svg>
