<svg width="32" height="32" viewBox="0 0 32 32" fill="none" xmlns="http://www.w3.org/2000/svg">
<g id="Name=Sun">
<path id="Vector" fill-rule="evenodd" clip-rule="evenodd" d="M25.0959 16.9822C25.0965 17.9407 28.6387 22.6227 29.3183 22.6224C29.8852 22.6218 30.3075 21.6628 30.3068 20.8396C30.3065 20.6222 30.2497 20.4025 30.138 20.2381C29.6272 19.5533 26.0302 16.8166 25.2371 16.8172C25.1513 16.8175 25.0959 16.9 25.0959 16.9822ZM4.86512 14.0342C4.8658 14.5338 2.65719 16.2056 1.87218 16.2061C1.58156 16.2064 1.49367 15.9077 1.49333 15.6336C1.49299 15.1358 1.75393 14.436 2.07407 14.2111C2.45054 13.9118 3.32378 13.7624 3.99325 13.7619C4.39941 13.7616 4.86512 13.8349 4.86512 14.0342ZM30.3068 15.762C30.3052 14.1269 25.7814 11.1618 25.7309 9.88156C25.7258 9.76448 25.7907 9.64787 25.892 9.54335C26.6658 8.74476 29.8811 8.15969 29.8805 7.47929C29.8802 7.12583 29.2112 7.12647 28.8762 7.12679C26.2858 7.12901 22.497 8.05833 22.4977 8.95716C22.4987 9.88426 25.9 12.1431 25.901 13.2598C25.9013 13.5598 25.706 13.6692 25.3988 13.6695C24.4524 13.6702 22.3895 12.5539 21.415 12.5548C20.9691 12.5551 20.8016 12.8546 20.8019 13.2921C20.8032 14.5992 22.394 17.0769 22.3945 17.8113C22.3945 17.8931 22.3669 18.0023 22.2551 18.0023C21.753 18.0029 19.3843 15.2821 18.5474 15.2828C18.2412 15.2831 18.2134 15.6905 18.214 16.2904L18.215 17.2167C18.2153 17.8429 18.1872 18.2243 17.8826 18.2243C17.1574 18.2253 16.8207 16.2372 16.1252 16.2378C15.4 16.2383 15.2637 19.7802 14.5682 19.7808C13.7595 19.7812 14.4527 15.8845 13.672 15.8851C12.8092 15.8861 11.8352 18.4752 11.2223 18.4758C11.0002 18.4761 10.9441 18.258 10.9438 18.0669C10.9432 17.2779 11.415 15.9968 11.414 15.2348C11.4137 14.8526 11.3017 14.6345 10.9683 14.6348C10.1044 14.6357 8.21037 15.9994 7.48676 16C7.37547 16 7.23608 15.946 7.23575 15.8369C7.23543 15.1839 10.2702 13.1102 10.2693 12.1845C10.2683 11.2838 6.08811 11.8881 6.08714 10.8515C6.08649 9.98037 9.06866 9.07821 9.06801 8.1797C9.06736 7.3889 5.5281 7.03878 4.16325 7.04004C2.51847 7.04164 1.62801 7.23163 1.62834 7.69518C1.62899 8.40433 5.36255 8.61895 5.3632 9.24485C5.36385 9.84502 1.49236 11.4555 1.49333 12.3817C1.49398 13.1993 6.95404 12.4309 6.95469 13.2768C6.95518 14.202 2.19566 18.2107 2.19696 19.5456C2.19712 19.8457 2.42083 19.9821 2.72594 19.9818C4.17495 19.9805 7.93256 17.2804 8.96468 17.2798C9.32746 17.2791 9.35557 17.7139 9.35606 18.0958C9.35671 18.8053 9.107 19.8941 9.10765 20.6849C9.1083 21.3111 9.27548 21.7469 9.83224 21.7462C10.8637 21.7453 11.8091 20.0279 12.5059 20.0275C13.397 20.0268 12.8731 25.0677 14.2106 25.0667C15.3521 25.0654 15.8211 19.6158 16.545 19.6152C17.27 19.6145 17.8576 21.194 18.5251 21.1937C19.3613 21.1928 18.9687 18.4418 19.8609 18.4412C20.8347 18.4402 23.6239 21.7073 24.8784 21.706C25.2674 21.7057 25.4058 21.4056 25.4055 21.0238C25.4043 19.5796 23.3412 16.3136 23.3402 15.2785C23.3399 15.006 23.4219 14.9241 23.7288 14.9237C24.8162 14.9228 27.994 16.3906 29.4984 16.3894C30.0006 16.389 30.3071 16.1164 30.3068 15.762ZM27.2415 10.3675C27.2422 10.8605 29.1068 11.9293 29.9648 11.9286C30.4664 11.9285 30.614 11.2966 30.6133 10.6382C30.6126 9.81659 30.2293 9.78925 29.4592 9.78987C28.4843 9.79084 27.2412 10.0388 27.2415 10.3675ZM20.6117 7.71291C20.6113 7.55233 19.7793 7.39284 18.6418 7.39377C16.8388 7.39533 17.0899 8.83635 15.7028 8.83744C14.2597 8.83868 14.618 7.34403 12.787 7.34558C11.6774 7.34683 10.6517 7.5343 10.652 7.77416C10.6523 8.0947 11.9556 7.95977 11.9566 8.84086C11.9576 9.77324 9.15584 10.0425 9.15649 10.6026C9.15649 10.7882 9.377 10.8682 9.6551 10.8682C10.266 10.8676 11.2367 10.6009 11.9302 10.6002C12.3191 10.5996 12.6802 10.6783 12.6805 11.0254C12.6812 11.6921 11.1833 12.8931 11.1839 13.4265C11.1839 13.587 11.3224 13.6405 11.4609 13.6405C12.0166 13.6399 12.9583 12.2789 13.8467 12.278C15.3169 12.2768 14.3496 15.2902 15.1527 15.2895C15.986 15.2891 15.6227 12.329 16.815 12.3281C17.7875 12.3271 18.5097 14.3795 19.1762 14.3789C19.3433 14.3789 19.4813 14.2455 19.481 14.0587C19.4807 13.4997 18.6467 12.3531 18.646 11.6072C18.6457 11.1533 18.9787 10.9397 19.4227 10.9391C20.0602 10.9385 20.9208 11.3116 21.3913 11.311C21.5579 11.311 21.7244 11.2575 21.7241 11.0709C21.7234 10.4317 19.255 9.74044 19.2545 8.91438C19.2535 8.08708 20.612 8.08584 20.6117 7.71291Z" fill="#015EFF"/>
</g>
</svg>
