<svg width="32" height="32" viewBox="0 0 32 32" fill="none" xmlns="http://www.w3.org/2000/svg">
<g id="Name=Hand">
<path id="Vector" fill-rule="evenodd" clip-rule="evenodd" d="M12.37 7.4775C13.491 7.47636 13.2533 0.69058 15.0689 0.689058C15.4983 0.688678 15.6309 1.11337 15.6317 1.63506C15.6328 3.16837 14.8746 5.41984 14.8757 6.65835C14.8765 7.27875 15.042 7.47484 15.3391 7.47446C16.1324 7.4737 17.5111 0.000951714 18.8643 2.54642e-07C19.294 -0.000379615 19.4917 0.424314 19.4924 0.848437C19.4936 2.41389 17.4852 6.91758 17.4863 8.18862C17.4863 8.38471 17.5519 8.54751 17.7173 8.54751C18.5431 8.54675 20.1893 5.02348 20.7155 3.26137C21.0119 2.34732 21.4079 1.85739 21.7715 1.85701C22.1013 1.85663 22.3992 2.21552 22.4 2.96639C22.4015 4.72736 20.7536 8.87178 19.3046 11.6467C18.1847 13.8002 16.4386 16.8987 16.4402 18.6281C16.4409 19.5085 16.6049 20.4209 17.8941 21.5299C15.7814 21.4015 14.9227 21.2064 14.1298 19.5764C10.6046 26.5282 20.6383 25.8339 17.21 32C16.5814 30.8937 11.6304 29.7556 11.6242 23.2969C11.6194 17.7198 16.5664 14.4527 16.5645 12.137C16.5641 11.6813 16.4001 11.2895 15.9704 10.931C14.8792 10.0181 14.8451 9.26928 13.9887 9.27004C13.3605 9.2708 12.6021 10.7062 13.3958 11.9764C13.661 12.4004 13.8919 12.6613 13.8923 13.0531C13.8931 13.9656 12.4422 16.4124 11.421 16.4136C10.3968 16.4143 9.60388 13.9063 9.60001 9.85925C9.59695 6.27151 10.4172 2.65068 11.441 2.64953C11.7376 2.64953 11.8367 2.84486 11.8371 3.10637C11.8375 3.53068 11.7066 4.37817 11.7078 5.81201C11.7089 7.34684 12.0725 7.4775 12.37 7.4775Z" fill="#015EFF"/>
</g>
</svg>
