<svg width="32" height="32" viewBox="0 0 32 32" fill="none" xmlns="http://www.w3.org/2000/svg">
<g id="Name=Spoon">
<path id="Vector" fill-rule="evenodd" clip-rule="evenodd" d="M7.44115 10.2753C12.437 11.5217 14.937 14.2286 15.4391 17.4417C15.9423 20.5223 16.5689 23.0431 17.7552 24.301C19.319 26.0638 22.38 27.6289 25.0671 27.6267C27.3137 27.6245 29.1222 26.8743 29.12 24.7961C29.1178 22.527 26.0546 17.4329 21.5575 17.4366C21.1228 17.4373 20.561 17.5012 19.9358 17.5023C19.3733 17.503 18.5609 17.3775 18.0603 16.937C17.063 16.0547 16.7462 11.3334 14.8685 8.50429C12.807 5.35839 10.5579 4.47713 7.49831 4.48005C5.31514 4.4819 2.87854 5.67845 2.88 7.44318C2.88109 8.51493 3.44327 9.26883 7.44115 10.2753ZM24.8505 24.3589C22.9494 24.3612 20.1007 22.333 20.1 21.1897C20.0985 20.2386 20.9848 19.7296 21.6788 19.7296C23.2628 19.7281 26.1111 21.6935 26.1133 23.3413C26.1133 23.7867 25.797 24.3582 24.8505 24.3589Z" fill="#015EFF"/>
</g>
</svg>
