<svg width="32" height="32" viewBox="0 0 32 32" fill="none" xmlns="http://www.w3.org/2000/svg">
<g id="Name=Dove">
<path id="Vector" fill-rule="evenodd" clip-rule="evenodd" d="M23.3453 13.7651C23.3496 18.3974 19.931 21.9399 13.7487 22.9345C14.4371 22.9852 15.0717 22.9846 15.7057 22.984C22.9307 22.9776 25.5707 19.749 25.5682 17.0428C25.5664 15.5316 24.7197 14.1795 23.3453 13.7651ZM14.5284 19.1402C14.5253 15.3977 5.60045 14.4559 5.59984 13.614C5.59923 12.9289 10.5824 11.7628 13.1556 11.7083C9.21139 6.65246 3.59758 7.1842 3.59696 6.28884C3.59635 5.75955 7.79966 4.70067 11.6808 4.69729C14.9367 4.69422 17.9859 5.43006 17.9877 7.90775C17.9896 9.27984 16.8875 10.7051 16.8893 12.8124C16.8906 13.973 17.4667 14.9726 18.9942 14.9714C20.6249 14.9698 20.9906 13.2307 20.9888 11.3835C20.9876 9.85707 20.7229 8.69553 20.7223 7.95785C20.7205 5.74449 22.2327 4.26851 24.3878 4.26666C26.1763 4.26513 26.5974 5.05261 29.2267 5.05015C27.807 5.89725 27.2835 7.42733 27.2841 8.16317C27.2866 10.379 28.7081 11.9051 28.7124 16.4397C28.7201 24.7653 20.9508 27.7256 11.4379 27.7333C8.82178 27.7357 6.03294 27.5276 3.29802 27.1105C2.8787 27.058 2.77333 26.9529 2.77333 26.6891C2.77211 26.0028 6.50587 25.6296 6.50342 22.2578C6.50219 20.9395 6.07889 19.6762 6.07828 19.2023C6.07828 18.9373 6.28809 18.7787 6.49974 18.7781C7.28784 18.7775 8.86925 21.8343 11.8017 21.8312C12.5843 21.8306 14.5308 21.565 14.5284 19.1402ZM23.3169 7.48317C23.3175 8.18478 23.8744 8.73767 24.5833 8.7365C25.2933 8.73591 25.8502 8.18243 25.8496 7.48083C25.8491 6.77511 25.291 6.22163 24.5809 6.22222C23.8723 6.22281 23.3163 6.77746 23.3169 7.48317Z" fill="#015EFF"/>
</g>
</svg>
