<svg width="32" height="32" viewBox="0 0 32 32" fill="none" xmlns="http://www.w3.org/2000/svg">
<g id="Name=Fish">
<path id="Vector" fill-rule="evenodd" clip-rule="evenodd" d="M26.4871 20.3799C27.7898 20.3786 27.7222 20.2791 28.1306 20.2785C28.5374 20.2782 28.5653 20.5041 28.5653 20.6556C28.5659 21.2097 27.234 21.8915 24.8731 21.8935C23.4873 21.8946 22.6446 21.2145 22.3991 20.4594C21.043 21.2663 18.9796 21.9981 16.9419 22C11.3756 22.0047 9.96066 19.7641 8.22224 19.0381C6.88968 18.485 4.85482 19.5697 2 16.6276C2.38069 16.7024 2.89756 16.7271 3.30484 16.7269C5.80147 16.7247 7.13133 15.593 7.12943 13.7791C7.12943 13.5522 7.10172 13.3032 7.07464 13.0776C7.83601 13.3536 9.57507 14.5584 9.9852 16.6964C10.0397 16.948 11.1526 17.1737 11.8582 17.173C12.8369 17.1724 14.0858 16.7929 14.2742 15.3096C17.5332 15.0556 19.7321 13.2674 20.1918 11C21.3586 11.3522 22.6902 12.3326 23.0167 12.8365C23.4786 12.6855 24.021 12.6095 24.6457 12.6089C25.5146 12.6082 26.4929 12.7581 27.6605 13.0853C27.7151 12.757 27.7689 12.3539 28.3126 12.3536C29.127 12.353 28.9102 13.1844 29.1824 13.6599C29.3186 13.9116 29.9994 14.0624 30 14.5657C30.0003 15.0452 29.5633 15.2219 29.2928 15.2222C29.1837 15.2222 29.048 15.1971 28.9659 15.1723C28.4242 15.349 28.4003 18.9713 26.1186 18.9734C24.4348 18.9748 22.8859 17.6925 22.2045 16.0841C22.0135 15.6063 21.607 15.3039 21.226 15.3042C20.7923 15.3045 20.5481 15.3804 20.0338 15.9104C18.5687 17.3941 16.1249 18.6787 13.1107 18.6812C12.1863 18.6821 11.4536 18.6077 11.2633 18.608C11.1542 18.608 11.1542 18.6328 11.1542 18.6573C11.1542 18.8343 12.0782 19.5138 14.0883 19.512C18.868 19.5082 20.0347 17.0149 20.7942 17.0144C20.903 17.0142 21.2276 17.0142 21.4183 17.4171C22.534 19.8295 24.9661 20.3814 26.4871 20.3799ZM24.2857 15.4541C24.286 16.0307 24.8016 16.5006 25.4291 16.5C26.0577 16.4998 26.5721 16.0289 26.5714 15.4521C26.5708 14.8752 26.0559 14.4045 25.4271 14.4048C24.7996 14.4054 24.285 14.8772 24.2857 15.4541Z" fill="#015EFF"/>
</g>
</svg>
