<svg width="98" height="98" viewBox="0 0 98 98" fill="none" xmlns="http://www.w3.org/2000/svg">
<g id="Frame">
<g id="Group">
<path id="Vector" fill-rule="evenodd" clip-rule="evenodd" d="M28.4595 29.154C31.4286 27.9057 32.9082 24.2315 31.7526 20.9867C30.6089 17.7752 27.2479 16.1666 24.2785 17.4149C21.3229 18.6575 19.8111 22.3152 20.9548 25.5267C22.1104 28.7711 25.5043 30.3967 28.4595 29.154Z" fill="#00D7C4"/>
<g id="Group_2">
<g id="Mask group">
<mask id="mask0_5333_31845" style="mask-type:luminance" maskUnits="userSpaceOnUse" x="25" y="57" width="12" height="34">
<g id="Group_3">
<path id="Vector_2" d="M25.1797 57.5757H36.4361V90.2766H25.1797V57.5757Z" fill="white"/>
</g>
</mask>
<g mask="url(#mask0_5333_31845)">
<path id="Vector_3" fill-rule="evenodd" clip-rule="evenodd" d="M35.433 57.6569C32.6041 59.1733 29.1252 59.8933 25.9686 59.4555C25.578 59.4015 25.1799 59.7314 25.2628 60.1116C28.3418 74.2018 22.0615 89.8762 27.4759 90.2572C32.8589 90.8943 35.1614 75.7288 36.4343 58.2951C36.474 57.7486 35.8886 57.4121 35.433 57.6569Z" fill="#00D7C4"/>
</g>
</g>
</g>
<path id="Vector_4" fill-rule="evenodd" clip-rule="evenodd" d="M70.8535 28.1619C74.0492 29.3603 77.7193 27.7926 78.9689 24.6636C79.5134 23.3007 79.5002 21.855 79.0446 20.5603C80.2185 20.3051 81.2525 19.5066 81.7184 18.3403C82.4502 16.5071 81.4824 14.4194 79.5913 13.7102C77.6907 12.9978 75.5396 13.9162 74.8074 15.7494C74.6945 16.0316 74.6252 16.32 74.5887 16.6081C71.5913 15.904 68.4295 17.4383 67.2924 20.2851C66.0428 23.4144 67.6427 26.958 70.8535 28.1619ZM74.3301 59.319C74.4152 58.9325 74.006 58.5974 73.6044 58.6526C70.3585 59.0969 66.7819 58.3656 63.8733 56.8256C63.4045 56.5773 62.8026 56.9187 62.8438 57.4737C64.1522 75.1794 66.5196 90.5813 72.0542 89.9343C77.6211 89.5474 71.1643 73.6289 74.3301 59.319Z" fill="#00D7C4"/>
<g id="Mask group_2">
<mask id="mask1_5333_31845" style="mask-type:luminance" maskUnits="userSpaceOnUse" x="9" y="8" width="80" height="52">
<g id="Group_4">
<path id="Vector_5" d="M9 8H89V59.6849H9V8Z" fill="white"/>
</g>
</mask>
<g mask="url(#mask1_5333_31845)">
<path id="Vector_6" fill-rule="evenodd" clip-rule="evenodd" d="M87.8409 43.0325C86.5554 40.1068 84.6509 37.3796 82.2177 35.2895C80.7408 34.0214 79.0089 32.9359 77.1207 32.4572C73.7669 31.6063 70.3316 31.6289 67.0536 30.389C63.3399 28.9843 59.922 26.5269 57.836 23.0563C56.6936 21.1928 55.7952 19.0772 55.1519 16.8417C54.8279 15.725 54.5616 14.5788 54.3553 13.4177C54.256 12.8371 54.1636 12.2533 54.0944 11.6694C54.0596 11.378 54.0274 11.0859 54.0013 10.7967C53.9752 10.5179 53.9534 10.1958 53.9397 9.97514L53.9324 9.84962C53.8722 8.86736 53.0999 8.05468 52.099 8.00247C51.713 7.98248 51.3502 8.08726 51.0411 8.2809C50.8566 8.39567 50.6185 8.39863 50.4337 8.28386C50.1637 8.11688 49.8498 8.01432 49.5102 8.00136C48.448 7.96026 47.571 8.85552 47.5036 9.93959L47.5014 9.97514C47.4876 10.1958 47.4662 10.5179 47.4394 10.7967C47.4137 11.0859 47.3814 11.378 47.347 11.6694C47.2774 12.2533 47.185 12.8371 47.0861 13.4177C46.8798 14.5788 46.6131 15.725 46.2895 16.8417C45.6458 19.0772 44.7478 21.1928 43.6051 23.0566C41.652 26.3063 38.5472 28.7466 35.1554 30.2627C33.0038 31.2242 30.6966 31.7293 28.3587 31.8862C26.1288 32.0354 23.8347 31.58 21.6446 32.0055C17.7574 32.7604 14.6367 35.6746 12.4419 38.8991C11.5569 40.1994 10.7944 41.5878 10.1594 43.0325C7.99798 47.9515 9.12363 54.3557 11.3644 58.6439C11.9381 59.7357 13.3037 60.0323 14.3152 59.2288C15.1694 58.5506 15.3709 57.2791 14.8835 56.3239C14.5935 55.7552 14.3533 55.1554 14.1677 54.5345C12.6684 49.5044 15.0299 43.6815 19.4231 41.0739C19.9993 40.7318 20.739 41.0083 20.9629 41.6496C21.296 42.6034 21.6392 43.6252 21.7722 44.0799L21.525 43.3946C22.2676 46.669 22.6058 50.1208 22.497 53.4815C22.4844 53.8673 22.5322 54.1942 22.6293 54.4712C23.3324 56.4716 26.6217 55.8455 28.4609 55.7319C31.3628 55.5523 39.9317 54.794 38.9952 50.0083C37.9692 44.7645 37.3814 41.4126 37.2233 38.9268C37.1791 38.2267 37.5633 37.5751 38.1805 37.2678C40.339 36.1933 42.3656 34.7964 44.049 33.064C44.5858 32.5494 45.0558 31.9751 45.5367 31.4183C45.9832 30.8333 46.4362 30.2568 46.8251 29.6418C47.6246 28.4274 48.3154 27.1615 48.8702 25.8605C49.4573 24.505 49.9281 23.1259 50.2988 21.7363C50.4163 21.2965 51.0248 21.2965 51.1422 21.7363C51.5133 23.1259 51.9841 24.505 52.5712 25.8605C53.1257 27.1615 53.8164 28.4274 54.6159 29.6418C55.0048 30.2568 55.4578 30.8333 55.9043 31.4183C56.3852 31.9751 56.8553 32.5494 57.3916 33.064C58.5731 34.2795 59.9249 35.328 61.3713 36.2185C61.92 36.5558 62.2552 37.1611 62.2472 37.815C62.2139 40.4015 61.6138 43.9299 60.4337 49.9609C59.4973 54.7467 68.0665 55.5053 70.9676 55.6849C72.8072 55.7985 76.0965 56.4246 76.7992 54.4238C76.8967 54.1472 76.9446 53.8199 76.9319 53.4341C76.838 50.5285 77.3834 45.101 78.0126 41.5674C78.0786 41.1983 78.4892 41.012 78.8023 41.2086C83.0509 43.8792 85.3062 49.5906 83.8322 54.5345C83.6474 55.1554 83.4071 55.7552 83.1165 56.3239C82.629 57.2791 82.8309 58.5506 83.6851 59.2288C84.6966 60.0323 86.0625 59.7357 86.6358 58.6439C88.8763 54.3557 90.0023 47.9515 87.8409 43.0325Z" fill="#00D7C4"/>
</g>
</g>
</g>
</g>
</svg>
