<svg width="64" height="64" viewBox="0 0 64 64" fill="none" xmlns="http://www.w3.org/2000/svg">
<g clip-path="url(#clip0_4972_30641)">
<g clip-path="url(#clip1_4972_30641)">
<g clip-path="url(#clip2_4972_30641)">
<path d="M51.6002 50.2905C52.3638 50.2905 52.8729 50.7269 52.9093 51.2723C52.9093 51.6723 52.582 51.9996 52.182 51.9996C51.3093 51.9996 51.5274 51.345 51.1638 51.345C50.3493 51.345 49.7096 52.597 49.1002 53.9374L49.0064 54.1439L48.8667 54.4549L48.7274 54.7632C48.4002 55.4178 48.2547 55.5269 48.0002 55.5269C47.382 55.5269 47.2729 53.8905 47.0184 53.1632C46.5093 54.2541 45.4911 55.5269 43.8911 55.5269C42.9456 55.4905 42.0365 55.0178 42.0365 53.5632C42.0365 51.9269 43.1274 50.7632 44.2184 50.7632C45.0547 50.7632 45.6002 51.6359 45.6002 52.2178C45.5638 53.8178 43.4184 53.8541 43.4184 54.1814C43.4184 54.5087 43.9638 54.6178 44.2911 54.6178C45.6729 54.6178 46.582 52.8359 46.9093 51.5996C46.982 51.3814 47.1638 50.945 47.5638 50.945C48.0002 50.945 47.782 53.6359 48.4002 53.6359C48.8002 53.6359 49.3093 50.2905 51.6002 50.2905V50.2905ZM30.0729 46.6178C30.8002 46.5814 31.382 47.2723 31.4547 48.3632C31.6002 51.2723 30.6184 52.4359 30.1093 53.4905C30.2184 53.8905 30.9093 54.5814 31.5638 54.5814C31.8184 54.5814 32.1093 54.4723 32.182 54.3632C32.1093 54.1814 32.0729 53.9996 32.0729 53.6723C32.0729 51.9996 33.2002 50.6178 34.1456 50.6178C34.9093 50.6178 35.3456 51.5996 35.3456 52.2541C35.3456 53.0178 34.6911 53.6359 33.7093 54.2178C33.8911 54.3996 34.2184 54.5087 34.4729 54.5087C35.8547 54.545 36.6184 52.8723 37.1638 51.3814C37.2729 51.0905 37.4547 50.6905 37.782 50.6905C38.3638 50.6905 38.582 54.4723 39.5638 54.4723C39.9638 54.4723 40.3274 53.6359 40.3274 52.9814C40.3638 52.4723 40.182 52.4359 40.182 51.745C40.182 50.9814 40.582 50.3269 41.1638 50.3269C41.5274 50.3269 41.6365 50.6541 41.6365 51.0541C41.6002 52.5814 40.4729 55.4178 38.8002 55.4178C37.5638 55.4178 37.6729 53.3087 37.2365 53.3087C36.7638 53.3087 36.0729 55.4178 33.6365 55.4178C33.2365 55.4178 32.8002 55.2359 32.4729 54.8359C31.8911 55.2359 31.382 55.3814 30.8365 55.3814C29.9274 55.3814 29.5274 54.4723 29.1638 54.4723C28.7274 54.4723 28.2184 55.3814 26.7638 55.3814C25.6002 55.3814 25.382 53.8541 24.982 53.8541C24.6184 53.8541 24.0365 55.3814 23.4184 55.3814C22.9216 55.3814 22.6154 54.7498 22.3264 54.1029L22.2402 53.9087C21.9671 53.297 21.6944 52.7269 21.2729 52.7269C20.9424 52.7269 20.2547 53.3425 19.5587 53.9767L19.3689 54.1498C18.6747 54.7825 18.0049 55.3799 17.7093 55.345C17.4547 55.3087 17.3456 55.1632 17.382 54.9087C17.4184 54.5814 17.7456 53.6723 17.8547 53.2723C18.0729 52.545 18.2547 51.745 18.3638 51.4905C18.4365 51.2359 18.7274 51.0541 18.9456 51.0905C19.0547 51.0905 19.0911 51.2723 19.1274 51.4541C19.2365 52.0359 19.4184 52.6541 19.6002 52.6541C19.9274 52.6541 21.0911 50.545 21.7456 50.545C22.582 50.545 22.6547 53.8905 23.7456 53.8905C24.1093 53.8905 24.3638 53.4541 24.6184 52.945C24.6547 52.0723 24.9093 50.7996 25.6365 50.7996C26.1456 50.7996 26.3638 51.9269 26.0002 52.9087C25.9638 54.0723 26.7638 54.3632 27.2729 54.3632C27.6365 54.3632 28.2547 54.2541 28.7638 53.4905C28.4729 52.8723 28.2911 51.5996 28.2547 51.1632C28.1456 48.8359 29.0547 46.6541 30.0729 46.6178V46.6178ZM16.0729 47.345C16.5093 47.1996 16.6911 47.4178 16.8729 47.9269C17.0911 48.6905 17.0911 49.7087 17.0184 51.1269C16.9093 53.0905 15.8911 55.4541 13.382 55.3814C11.2002 55.345 10.2547 53.9632 10.182 51.8905C10.1456 50.9087 10.2184 49.9269 10.6547 48.545C10.9093 47.8178 11.0911 47.5632 11.782 47.4178C12.3274 47.3087 12.2547 47.8541 12.1456 48.5087C11.8547 49.9269 11.7456 50.6178 11.8184 52.2541C11.9274 53.9632 12.7274 54.6541 13.6002 54.6541C14.9456 54.6905 15.5274 53.6359 15.782 52.0723C15.9638 50.8359 15.8184 50.2541 15.7093 49.8541C15.6365 49.6359 15.4184 49.1632 15.382 48.7996C15.2365 47.9996 15.6729 47.4541 16.0729 47.345V47.345ZM33.782 51.745C33.5638 51.7087 33.0547 51.9632 33.0547 52.7269C33.0547 53.345 33.2729 53.6359 33.382 53.745C34.1093 53.5269 34.2911 52.945 34.2547 52.4723C34.2547 52.0723 34.0365 51.745 33.782 51.745V51.745ZM43.8911 51.7087C42.9456 51.7087 43.0184 53.1996 43.1638 53.5269C43.8547 53.4178 44.3274 53.0178 44.4365 52.6541C44.5456 52.2905 44.4002 51.7087 43.8911 51.7087V51.7087ZM30.1536 48.0334L30.1093 48.0359C29.6365 48.0723 29.4184 49.5632 29.4911 51.1269C29.5638 52.145 29.7093 52.2905 29.8547 52.2905C30.1093 52.2905 30.7638 50.4359 30.6911 48.9814C30.6547 48.3269 30.4729 47.9996 30.1093 48.0359L30.1536 48.0334ZM25.9274 46.9087C26.3638 46.9087 26.6547 47.1632 26.6911 47.5632C26.7638 48.1087 26.3638 48.6905 25.8184 48.6905C25.3456 48.6905 25.1274 48.3632 25.0547 47.9632C25.0184 47.3814 25.4547 46.9087 25.9274 46.9087Z" fill="#1F35C6"/>
<path fill-rule="evenodd" clip-rule="evenodd" d="M35.1638 38.9816C35.0183 38.7271 35.1274 38.2907 34.7274 38.2907C34.4729 38.2907 34.4365 38.5089 34.4001 38.6907C33.8547 38.5089 33.382 38.4362 32.9456 38.4362C32.6547 38.4362 32.4001 38.4725 32.1456 38.5452C32.0001 38.2907 31.3456 37.7816 30.8001 37.5998C30.582 38.7998 29.5274 39.7089 27.9638 39.8543C27.891 40.618 27.2729 40.8362 26.8001 40.8362C26.4729 40.8362 25.9274 40.7271 25.891 40.5816C25.7092 39.4543 24.8729 38.8362 24.4729 38.6907C24.4729 38.7998 24.5092 38.9452 24.5092 39.0543C24.5092 39.9998 23.8547 40.5816 22.6547 40.5816C22.4729 40.5816 22.2183 40.5816 22.0365 40.5452C23.4183 42.0725 24.4001 41.5271 25.0183 41.818C25.8547 42.1816 26.5456 43.3816 29.2365 43.3816C30.2183 43.3816 31.2001 42.9816 31.8547 42.5816C31.9638 42.9816 32.3638 43.3452 33.0547 43.3452C34.182 43.3452 34.8365 42.9816 34.8365 42.6907C34.8365 42.618 34.8365 42.5089 34.6183 42.5089C34.4365 42.5089 34.4365 42.5452 33.8183 42.5452C33.091 42.5452 31.9274 42.2543 31.382 40.9816C31.2729 40.7634 31.1274 40.7634 31.091 40.7634C30.7274 40.7634 30.1456 42.0725 27.8547 42.0725C26.8729 42.0725 26.4365 41.7089 26.4365 41.6362C26.4365 41.6362 26.4365 41.5998 26.4729 41.5998C26.582 41.5998 26.9092 41.6362 27.3456 41.6362C28.8001 41.6362 29.9638 40.9452 30.691 40.1816C30.9456 39.8907 31.0547 39.8543 31.2729 39.8543C31.4547 39.8543 31.6365 39.9998 31.7456 40.2543C32.0729 41.0907 32.8365 41.7816 33.6365 41.7816C34.7274 41.7816 34.7638 39.8907 35.0183 39.7816C35.0547 39.7816 35.1274 39.818 35.1638 39.818C35.3092 39.818 35.491 39.7089 35.491 39.4907C35.5274 39.1998 35.2001 39.1271 35.1638 38.9816ZM33.3456 40.3998C33.0547 40.3998 32.8365 40.1816 32.8365 39.8907C32.8365 39.5998 33.0547 39.3452 33.3456 39.3452C33.6365 39.3452 33.8547 39.5998 33.8547 39.8543C33.891 40.1816 33.6365 40.3998 33.3456 40.3998Z" fill="#1F35C6"/>
<path fill-rule="evenodd" clip-rule="evenodd" d="M29.5633 35.3455C29.8179 35.3455 29.9269 35.5637 29.9633 35.7819C30.036 35.7092 30.1451 35.6728 30.2542 35.6728C30.5088 35.6728 30.6542 35.8546 30.6542 36.0728C30.6542 36.2182 30.5815 36.3273 30.4724 36.4001C30.6179 36.4728 30.7269 36.5819 30.7269 36.7273C30.7269 36.9092 30.5815 37.0546 30.3633 37.0546C30.1815 37.0546 30.036 36.8364 29.8542 36.8364C29.7451 36.8364 29.5997 36.8728 29.5633 36.9455C29.636 37.1273 29.6724 37.2728 29.6724 37.4546C29.6724 38.4001 28.3997 39.1637 27.0542 39.1637C25.7451 39.1637 25.236 38.4001 25.236 38.0728C25.236 38.0001 25.2724 37.9637 25.3815 37.9637C25.5997 37.9637 25.636 38.0364 26.2542 38.0364C27.6724 38.0364 27.1633 36.2182 28.5088 36.2182C28.6906 36.2182 29.0906 36.3273 29.236 36.5819C29.3451 36.4728 29.3815 36.3273 29.3815 36.2182C29.3815 36.0001 29.236 35.8546 29.236 35.6728C29.236 35.491 29.3815 35.3819 29.5633 35.3455Z" fill="#1F35C6"/>
<path fill-rule="evenodd" clip-rule="evenodd" d="M21.1276 34.3996C22.7276 34.3996 23.964 35.7451 23.964 37.6723C23.964 38.5451 23.4912 39.8178 21.564 39.8178C19.2731 39.8178 17.8912 37.8905 17.8912 36.6541C17.8912 35.5996 18.5821 34.9451 19.0185 34.836C18.5458 36.7269 19.6003 38.5451 21.7094 38.5451C22.764 38.5451 23.2731 38.036 23.2731 37.1269C23.2731 36.1087 22.5821 35.1269 21.3821 35.1269C20.8003 35.1269 20.364 35.4541 20.364 35.9269C20.364 36.6905 21.0185 37.1632 21.7094 37.1632C22.1458 37.1632 22.4367 36.9814 22.4367 36.6905C22.4367 36.6541 22.4367 36.5814 22.4003 36.5451C22.364 36.5814 22.2549 36.5814 22.1094 36.5814C21.564 36.5814 21.1276 36.2905 21.1276 35.9632C21.1276 35.7087 21.3094 35.5632 21.5276 35.5632C22.3276 35.5632 22.8731 36.3632 22.8731 36.9451C22.8731 37.5269 22.4367 38.036 21.7094 38.036C20.1458 38.036 19.4549 36.7632 19.4549 35.9269C19.4912 35.0178 20.2549 34.3996 21.1276 34.3996Z" fill="#1F35C6"/>
<path fill-rule="evenodd" clip-rule="evenodd" d="M40.2912 38.6902C39.964 38.9448 39.164 39.5266 37.8185 39.5266C37.0912 39.5266 36.8003 39.3084 36.6912 39.3084C36.5458 39.3084 36.4003 39.4539 36.2549 39.5993C35.9276 39.963 35.5276 40.6175 35.5276 41.3812C35.5276 41.8902 35.9276 42.3993 36.6912 42.3993C39.164 42.3993 40.9821 40.8721 40.9821 39.6721C41.0185 38.9812 40.5821 38.6902 40.2912 38.6902ZM39.0185 41.0539L37.6003 41.4539C37.7094 41.163 37.7821 40.8357 37.7821 40.5084C37.7821 40.3993 37.7821 40.3266 37.7458 40.2175H37.9276C38.9821 40.2175 39.4185 39.8175 39.4912 39.8175C39.564 39.8175 39.6367 39.8539 39.6367 40.0721C39.6367 40.363 39.4912 40.763 39.0185 41.0539Z" fill="#1F35C6"/>
<path fill-rule="evenodd" clip-rule="evenodd" d="M38.1819 38.9813C38.7637 38.9813 39.2728 38.8359 39.6 38.545C39.7091 38.4722 39.7455 38.3268 39.7455 38.1813V37.8904C39.7455 37.5268 39.1637 37.3086 38.3637 37.3086C37.4182 37.3086 36.9091 37.745 36.9091 37.9268V38.5086C36.9091 38.7268 37.4546 38.9813 38.1819 38.9813Z" fill="#1F35C6"/>
<path fill-rule="evenodd" clip-rule="evenodd" d="M42.6183 32.8003C40.691 32.8003 41.2001 34.4367 38.9456 34.9457C38.5456 35.0185 38.4001 35.1639 38.4001 35.3457C38.4001 35.673 38.5819 36.1094 38.8365 36.1094C39.8183 36.1094 41.3092 34.1094 41.6001 34.1094C41.7092 34.1094 41.8183 34.1094 41.8183 34.4003C41.8183 35.1276 39.7092 36.073 39.7092 36.5821C39.7092 36.873 40.4365 37.5276 41.2001 37.5276C42.2546 37.5276 43.2001 35.4185 43.4183 35.4185C43.6001 35.4185 43.6365 35.5276 43.6365 35.673C43.6365 36.2548 42.9092 37.3821 41.6728 37.8548C41.4183 37.9639 41.3819 38.073 41.3819 38.1457C41.3819 38.4367 41.7092 38.8367 42.0001 38.8367C42.3637 38.8367 44.8001 36.7276 44.8001 35.0548C44.8728 33.4912 43.6728 32.8003 42.6183 32.8003ZM43.491 34.6185C43.3456 34.6185 43.2001 34.5821 43.1274 34.5094C42.9456 34.4367 42.6546 34.1821 42.6546 33.8185C42.6546 33.4548 42.8365 33.3457 43.0183 33.3457C43.5637 33.3457 44.1819 33.8185 44.1819 34.2185C44.1819 34.5457 43.891 34.6185 43.491 34.6185Z" fill="#1F35C6"/>
<path fill-rule="evenodd" clip-rule="evenodd" d="M25.3087 35.4912H24.9814C24.8723 35.4912 24.6905 35.4548 24.5814 35.3821C24.3632 35.2003 24.2905 34.2185 23.9269 33.6367C23.4905 32.9821 23.0178 32.8003 22.3996 32.8003C21.9632 32.8003 21.4541 33.0548 21.4541 33.4185C21.4541 33.6367 21.5632 33.7821 22.3996 34.0003C23.4541 34.2548 23.9632 34.8367 24.0723 35.4912C24.1814 36.1457 24.2905 36.6548 24.5451 36.9094C24.8723 37.273 25.4905 37.6003 26.0723 37.6003C26.5451 37.6003 26.9087 37.4548 26.9087 37.0185C26.8723 36.5458 26.2178 35.4912 25.3087 35.4912ZM25.9996 36.9094C25.5996 36.9094 25.0178 36.5094 25.0178 36.2548C25.0178 36.073 25.1996 35.9639 25.3451 35.9639C25.6723 35.9639 26.2541 36.3639 26.2541 36.6912C26.2541 36.8003 26.1814 36.9094 25.9996 36.9094Z" fill="#1F35C6"/>
<path fill-rule="evenodd" clip-rule="evenodd" d="M33.2366 34.1458C32.982 34.1458 32.982 34.5458 32.982 34.6913C32.982 34.8367 32.982 34.8731 32.873 34.8731C32.7639 34.8731 32.6911 34.8368 32.582 34.8368C32.5093 34.8368 32.4366 34.9095 32.4366 35.0186C32.4366 35.564 33.1275 36.0004 33.8184 36.0004C34.7275 36.0004 35.1639 35.6004 35.4184 35.6004C35.5275 35.6004 35.5639 35.7095 35.5639 35.7822C35.5639 35.9277 35.4184 36.1095 35.4184 36.1822C35.4184 36.4004 35.8548 36.2186 35.8548 36.4731C35.8548 36.8004 35.3093 37.0549 34.473 37.0549C32.8366 37.0549 31.782 35.9277 31.782 34.8731C31.782 32.9095 33.8911 33.5277 33.8911 32.764C33.8911 32.5095 33.6366 32.364 33.4548 32.364C33.673 32.0731 33.9639 32.0367 34.2548 32.0367C34.473 32.0367 34.6911 32.0731 34.873 32.0731C35.1275 32.0731 35.382 31.964 35.382 31.6731C35.382 31.4913 35.2366 31.2731 34.6184 31.2004C34.6911 30.8004 35.5275 31.0186 35.5275 30.6549C35.5275 30.4004 35.0548 30.2186 34.473 30.2186C32.2184 30.2186 30.6184 32.0731 30.6184 34.0731C30.6184 35.8913 31.9275 37.8913 34.3639 37.8913C36.7275 37.8913 37.8548 35.964 37.8548 34.5095C37.4184 34.9095 36.2548 35.0186 35.673 35.0186C33.9639 35.0549 33.4911 34.1458 33.2366 34.1458Z" fill="#1F35C6"/>
<path fill-rule="evenodd" clip-rule="evenodd" d="M35.0906 34.3996C35.4542 34.3996 35.7088 34.1087 35.7088 33.7815C35.7088 33.2724 35.1997 32.7996 34.436 32.7996C34.5815 32.9451 34.6179 33.0542 34.6179 33.1997C34.6179 33.3815 34.5088 33.5997 34.5088 33.8178C34.5088 34.1451 34.7269 34.3996 35.0906 34.3996ZM38.7633 31.9269C38.8724 32.0724 38.9088 32.2178 38.9088 32.3633C38.9088 32.7269 38.6542 33.0906 38.6542 33.4542C38.6542 33.8906 38.9815 34.2542 39.4906 34.2542C40.036 34.2542 40.3997 33.8178 40.3997 33.3087C40.3633 32.5815 39.7451 31.9997 38.7633 31.9269ZM36.1451 30.5451C36.3269 30.7633 36.3997 30.9815 36.3997 31.236C36.3997 31.8178 35.9633 32.3996 35.9633 32.9451C35.9633 33.6724 36.436 34.1451 37.1269 34.1451C37.8542 34.1451 38.2906 33.5269 38.2906 32.836C38.2906 31.8542 37.5269 30.7997 36.1451 30.5451ZM37.1633 32.6178C36.9815 32.6178 36.836 32.4724 36.836 32.2906C36.836 32.1815 36.9088 32.036 36.9088 31.8906C36.9451 31.7087 36.9088 31.5633 37.0179 31.5633C37.236 31.5633 37.4906 31.9633 37.4906 32.2178C37.4906 32.436 37.3815 32.6178 37.1633 32.6178Z" fill="#1F35C6"/>
<path fill-rule="evenodd" clip-rule="evenodd" d="M28.7639 31.0542C28.182 30.8361 27.9275 30.5088 27.782 29.8179C27.4911 30.2179 27.3457 30.5815 27.3457 30.7997C27.3457 31.6724 28.5457 31.6724 28.5457 32.2542C28.5457 32.5815 27.9275 32.9451 27.1275 32.9451C26.2184 32.9451 25.5639 32.7997 24.982 32.2179C24.8366 32.0724 24.7639 31.927 24.582 31.927C24.3639 31.927 24.2548 32.2906 24.2548 32.6542C24.2548 33.8906 25.4548 35.3815 27.1275 35.3815C29.2002 35.3815 30.0366 33.9633 30.0366 32.7997C30.0729 32.1088 29.9275 31.4906 28.7639 31.0542ZM28.182 34.5451C28.0002 34.5451 27.9639 34.4724 27.9639 34.2906C27.9639 34.1815 28.0002 33.9633 28.0002 33.7815C28.0002 33.3451 28.182 33.3815 28.6184 33.1633C28.9457 33.0179 29.0548 32.8361 29.1639 32.8361C29.2729 32.8361 29.382 32.9088 29.382 33.0906C29.382 33.7451 28.6548 34.5451 28.182 34.5451Z" fill="#1F35C6"/>
<path fill-rule="evenodd" clip-rule="evenodd" d="M26.1091 28.9452C25.8909 28.9452 25.5272 28.727 25.1636 28.4361C24.7636 28.8361 24.4727 29.3815 24.4727 29.9997C24.4727 31.2724 25.8182 32.327 27.1272 32.327C27.3454 32.327 27.5636 32.2906 27.7818 32.2543C27.0545 32.1815 26.6182 31.6361 26.6182 30.9815C26.6182 30.1452 27.5636 29.3815 27.5636 28.727C27.5636 27.927 26.5818 27.8543 26.5818 27.1997C26.5818 26.6543 27.5272 26.2543 27.4909 25.3815C27.4909 24.8724 26.9818 24.2543 26.2909 23.8906C26.4 24.1088 26.4727 24.3997 26.4727 24.5815C26.4727 25.5997 24.5091 26.0361 24.5091 26.8361C24.5091 27.8543 26.4 28.2543 26.4 28.727C26.4 28.8361 26.3272 28.9452 26.1091 28.9452Z" fill="#1F35C6"/>
<path fill-rule="evenodd" clip-rule="evenodd" d="M45.9272 29.6004C46.5817 29.6004 47.0908 30.4368 47.0908 31.4186C47.0908 32.4731 46.5817 33.6004 45.709 34.4004C45.709 32.6549 43.5635 33.2004 43.5635 31.9277C43.5635 31.3822 43.9635 31.0186 44.4362 31.0186C44.8362 31.0186 45.1635 31.1277 45.4181 31.3822C45.1999 31.164 45.0544 30.8368 45.0544 30.5459C45.0544 30.0731 45.3453 29.6004 45.9272 29.6004Z" fill="#1F35C6"/>
<path fill-rule="evenodd" clip-rule="evenodd" d="M20.1818 31.3822C20 31.4185 19.8545 31.4549 19.7454 31.564C19.6363 31.164 19.2727 30.8004 18.7636 30.9094C18.3273 30.9822 18 31.3822 18.0727 31.8913C18.0727 31.964 18.1091 32.0731 18.1454 32.1458C18.1454 32.1458 18.0727 32.1458 18 32.1822C17.6363 32.2549 17.2 32.6185 17.2727 33.164C17.3454 33.6367 17.7454 33.964 18.2182 33.9276C18.4 33.8913 18.5454 33.8549 18.6545 33.7822C18.7636 34.2185 19.1273 34.4731 19.6 34.4367C20.0727 34.364 20.4 33.964 20.3636 33.4913C20.3636 33.3458 20.3273 33.2731 20.2909 33.2004H20.4C20.8727 33.0913 21.2 32.7276 21.1636 32.2549C21.0182 31.6731 20.6182 31.3094 20.1818 31.3822ZM19.2363 33.164C18.9454 33.2004 18.7273 32.9822 18.6909 32.7276C18.6545 32.4367 18.8363 32.1822 19.1273 32.1458C19.4182 32.1094 19.6363 32.3276 19.6727 32.5822C19.7091 32.8731 19.5273 33.1276 19.2363 33.164Z" fill="#1F35C6"/>
<path fill-rule="evenodd" clip-rule="evenodd" d="M43.7453 29.1993C43.7453 29.0175 44.1817 28.5811 44.1817 28.4357C44.1817 28.3993 44.1453 28.3629 44.1089 28.3629C43.9271 28.3629 43.3089 28.8357 42.3998 28.8357C42.0362 28.8357 41.7817 28.7993 41.7817 28.5084C41.7817 28.2538 41.9998 28.0357 42.3635 27.8902C42.7635 27.7084 43.5635 27.7084 43.5635 27.5266C43.5635 27.3811 42.7998 27.3811 42.7998 27.2357C42.7998 27.0538 43.0907 26.6175 43.0907 26.4357C43.0907 26.4357 43.0907 26.3629 43.0544 26.3629C42.9089 26.3629 42.5453 26.7993 42.3271 26.7993C42.1089 26.7993 41.9271 26.2538 41.7453 26.2538C41.7089 26.2538 41.6362 26.2902 41.6362 26.3993C41.6362 26.6175 41.7453 27.0175 41.7453 27.5629C41.7453 28.0357 41.4907 28.4357 41.2362 28.4357C40.9089 28.4357 40.7998 28.0357 40.7998 27.7084C40.7998 27.2357 41.0544 26.6902 41.0544 26.1811C41.0544 26.072 41.018 26.0357 40.9453 26.0357C40.7635 26.0357 40.4726 26.5811 40.2544 26.5811C40.1089 26.5811 39.8544 25.9266 39.6362 25.9266C39.5998 25.9266 39.5635 26.0357 39.5635 26.1811C39.5635 26.3629 39.5998 26.6175 39.5998 26.7266C39.5998 26.872 39.418 26.9084 39.1998 26.9084C39.0544 26.9084 38.7635 26.9084 38.7635 27.0175C38.7635 27.1266 39.0544 27.2357 39.3089 27.4175C39.7817 27.7448 40.5453 28.072 40.5453 28.8357C40.5453 29.5266 39.5635 29.9993 38.8726 30.1448C38.5453 30.1811 38.218 30.2538 38.218 30.3629C38.218 30.5084 39.0907 30.5448 39.0907 30.7266C39.0907 30.8357 38.6907 31.3448 38.6907 31.4902C38.6907 31.5266 38.7271 31.5266 38.7271 31.5266C38.8726 31.5266 39.3089 31.1629 39.4907 31.1629C39.7453 31.1629 39.7089 31.9266 39.8907 31.9266C40.1089 31.9266 40.0362 30.7993 40.1089 30.5084C40.2544 29.9993 40.618 29.4902 40.9453 29.4902C41.3453 29.4902 41.3817 30.1811 41.3817 30.5084C41.3817 31.1629 40.9089 31.8538 40.9089 32.1811C40.9089 32.2175 40.9453 32.2538 40.9817 32.2538C41.1271 32.2538 41.4544 31.8175 41.6362 31.8175C41.818 31.8175 42.218 32.5448 42.3635 32.5448C42.4362 32.5448 42.4726 32.472 42.4726 32.3993C42.4726 32.1811 42.3635 31.8175 42.3635 31.5993C42.3635 31.3448 43.1998 31.4902 43.1998 31.3084C43.1998 31.2357 42.8362 31.0902 42.618 30.9448C42.1453 30.6538 41.5998 30.0357 41.5998 29.5266C41.5998 29.3448 41.7089 29.1993 41.8544 29.1993C42.8726 29.1993 43.3089 30.7629 43.4907 30.7629C43.6726 30.7629 43.5635 30.072 43.6362 29.9629C43.6726 29.9266 43.7817 29.8902 43.8907 29.8902C44.0726 29.8902 44.2907 29.9266 44.4362 29.9266C44.5453 29.9266 44.5817 29.9266 44.5817 29.8902C44.5453 29.672 43.7453 29.4175 43.7453 29.1993Z" fill="#1F35C6"/>
<path fill-rule="evenodd" clip-rule="evenodd" d="M39.7086 28.7635C39.7086 28.4363 38.2904 27.3454 37.9995 27.3454C37.9268 27.3454 37.8904 27.3817 37.8904 27.4544C37.8904 27.5635 37.9268 27.709 37.9268 27.8181C37.9268 28.0726 37.8177 28.109 37.5631 28.109C37.2722 28.109 36.7995 27.9999 36.7995 27.5272C36.7995 26.6181 38.5449 26.8363 38.7268 25.9999C37.9631 25.9999 37.5995 25.4908 37.0904 25.4908C36.9086 25.4908 36.5449 25.5999 36.5449 26.0726C36.5449 26.2181 36.5813 26.4726 36.5813 26.6908C36.5813 26.909 36.5449 27.0544 36.2904 27.0544C36.0722 27.0544 36.0358 26.7999 36.0358 26.509C36.0358 26.2544 36.0722 25.9635 36.0722 25.7817C36.0722 24.4363 34.5813 24.9817 34.4358 23.8908C34.0722 24.5454 33.9631 25.0181 33.9631 25.4181C33.9631 26.8363 35.8904 26.6908 35.8904 27.6726C35.8904 27.9272 35.7086 28.0726 35.5268 28.0726C35.1995 28.0726 34.9813 27.3817 34.4722 27.3817C34.2177 27.3817 34.0358 27.5635 34.0358 27.9635C34.0358 28.2544 34.1086 28.4726 34.1086 28.7635C34.1086 29.3454 33.854 29.5999 33.5995 29.8544C35.3449 29.709 35.454 28.3999 35.9631 28.3999C36.1086 28.3999 36.1813 28.509 36.1813 28.5817C36.1813 28.7999 35.8177 29.1635 35.8177 29.5272C35.8177 29.9999 36.3631 30.2544 36.7268 30.2544C37.1631 30.2544 37.3086 30.109 37.3086 29.8181C37.3086 29.4908 36.7268 29.0544 36.7268 28.6908C36.7268 28.509 36.9086 28.4726 37.1631 28.4726C37.7086 28.4726 37.8904 28.5454 37.8904 28.6544C37.8904 28.7999 37.6722 29.0908 37.6722 29.1635C37.6722 29.1999 37.7086 29.309 37.8177 29.309C38.2177 29.3817 39.7086 29.0544 39.7086 28.7635Z" fill="#1F35C6"/>
<path fill-rule="evenodd" clip-rule="evenodd" d="M21.3455 23.8545C21.0909 24.3272 21.0182 24.9454 21.0182 25.309C21.0182 27.5272 23.6728 29.5999 23.6728 30.9818C23.6728 31.5272 23.2728 32.1818 22.5455 32.1818C21.8909 32.1818 21.5273 31.6727 21.5273 31.2363C21.5273 30.909 21.7455 30.6181 21.8546 30.6181C21.8909 30.6181 21.8909 30.6545 21.8909 30.7272C21.8909 30.909 22.0364 31.1636 22.3273 31.1272C22.6182 31.1272 22.7637 30.9454 22.7637 30.6909C22.7637 29.5999 20.5818 27.709 20.5818 25.1272C20.4728 25.4181 20.3273 25.7818 20.3273 26.3272C20.3273 27.5636 21.2364 28.8727 21.2364 30.0727C21.2364 30.5454 20.8728 30.9818 20.4 30.9818C19.8546 30.9818 19.6728 30.5454 19.6728 30.2909C19.6728 30.109 19.7455 29.9272 19.8182 29.9272C19.8909 29.9272 19.8546 30.2181 20.1455 30.2181C20.4728 30.2181 20.5818 29.9999 20.5818 29.5999C20.5818 28.509 19.9637 27.7454 19.9637 26.6181C19.9637 26.4363 19.9637 26.2545 20 26.109C19.6728 26.509 19.6364 27.0909 19.6364 27.5999V28.9454C19.6364 29.8545 19.2 30.2545 18.6546 30.2545C18.2909 30.2545 17.9637 29.9636 17.9637 29.4909C17.9637 29.4181 18 29.1999 18.0728 29.1999C18.1818 29.1999 18.2546 29.4909 18.5455 29.4909C19.1273 29.4909 19.1637 28.9454 19.1637 27.8181C19.0909 26.4363 19.6 24.9454 21.3455 23.8545Z" fill="#1F35C6"/>
<path fill-rule="evenodd" clip-rule="evenodd" d="M17.7453 23.2002C17.9272 23.2002 17.9999 23.382 17.9999 23.5275C17.9999 24.1456 17.1999 25.9638 17.1999 26.4729C17.1999 26.5456 17.2362 26.6184 17.309 26.6184C17.6362 26.6184 18.2908 25.2002 18.509 24.5093C18.6181 24.1456 18.7999 23.9638 18.9453 23.9638C19.0908 23.9638 19.1999 24.1093 19.1999 24.4002C19.1999 25.0911 18.5453 26.7638 17.9635 27.8547C17.5272 28.7275 16.7999 29.9638 16.7999 30.6547C16.7999 31.0184 16.8726 31.382 17.3817 31.8184C16.5453 31.782 16.1817 31.6729 15.8544 31.0547C14.4362 33.8184 18.4726 33.5638 17.0908 36.0366C16.8362 35.6002 14.8362 35.1275 14.8362 32.5456C14.8362 30.3275 16.8362 29.0184 16.8362 28.0729C16.8362 27.8911 16.7635 27.7456 16.5817 27.6002C16.1453 27.2366 16.1453 26.9456 15.7817 26.9456C15.5272 26.9456 15.2362 27.5275 15.5271 28.0366C15.6362 28.2184 15.709 28.3275 15.709 28.4729C15.709 28.8366 15.1272 29.8184 14.7272 29.8184C14.3272 29.8184 13.9999 28.8002 13.9999 27.2002C13.9999 25.782 14.3272 24.3275 14.7272 24.3275C14.8362 24.3275 14.8726 24.4002 14.8726 24.5093C14.8726 24.6911 14.8362 25.0184 14.8362 25.6002C14.8362 26.2184 14.9817 26.2547 15.0908 26.2547C15.5272 26.2547 15.4544 23.5275 16.1817 23.5275C16.3635 23.5275 16.3999 23.7093 16.3999 23.8911C16.3999 24.5093 16.109 25.4184 16.109 25.8911C16.109 26.1456 16.1817 26.2184 16.2908 26.2184C16.6544 26.182 17.1999 23.2002 17.7453 23.2002Z" fill="#1F35C6"/>
<path fill-rule="evenodd" clip-rule="evenodd" d="M47.3088 26.7639C46.6906 26.7639 46.3633 27.8548 45.7452 27.8912C46.1088 26.3275 47.6724 25.4912 47.6724 24.0366C47.6724 22.3639 46.2906 21.7821 45.7088 21.4184C44.7633 20.0366 44.0724 18.9457 42.5088 18.9457C41.8543 18.9457 41.4179 19.0548 40.9815 19.0548C40.1088 19.0548 39.8179 18.7275 39.7815 18.7275C39.7815 18.7275 39.7452 18.7275 39.7452 18.8003C39.7452 20.0366 40.3997 22.8003 43.1633 22.8003C44.6543 22.8003 45.2724 22.2184 45.6361 22.2184C45.9997 22.2184 47.1997 22.6184 47.1997 24.0366C47.1997 24.8003 46.5815 25.6003 46.3633 25.6003C46.1452 25.6003 45.927 25.2366 45.927 24.873C45.927 24.473 46.1452 23.7094 46.1452 23.2366C46.1452 23.0548 46.1088 22.9821 45.9997 22.9821C45.7815 22.9821 44.6543 23.7094 44.6543 24.5821C44.6543 25.3457 45.7815 25.8184 46.2179 26.0366C45.7815 26.7275 45.527 27.2003 45.3452 27.8548C45.3452 27.3457 44.8724 26.3639 44.727 25.9275C44.0361 23.9639 43.7815 23.6003 42.2906 23.4184C42.5088 24.2184 45.0543 26.1094 45.0543 28.0366C45.0543 28.1457 45.0543 28.3275 45.0179 28.4003C44.2543 26.1457 42.9452 25.6003 42.4724 25.0548C41.7088 24.1821 42.1452 23.3457 40.9088 22.873C40.9815 22.9821 41.0179 23.1275 41.0179 23.2366C41.0179 23.673 40.7997 24.1821 40.7997 24.5457C40.7997 25.9275 42.3633 25.4912 43.3088 26.2548C44.2179 26.9821 44.727 28.1821 45.0906 29.5275C45.4543 28.9457 45.6724 28.2184 46.2906 28.2184C46.6906 28.2184 46.8361 28.7275 46.8361 29.1275V29.3094C47.4543 28.7639 47.7815 27.8912 47.7815 27.3094C47.7452 27.0184 47.5997 26.7639 47.3088 26.7639ZM44.8361 21.6366C44.6906 21.6366 44.4724 21.5639 44.2906 21.5639C43.8543 21.5639 43.527 22.1821 43.3088 22.1821C43.2361 22.1821 43.1997 22.1094 43.1997 22.0366C43.1997 21.7821 43.6361 21.4912 43.6361 21.3094C43.6361 21.2003 43.4543 21.1639 43.3815 21.1639C42.9452 21.1639 42.327 21.7821 41.9633 21.7821C41.8906 21.7821 41.8179 21.7457 41.8179 21.673C41.8179 21.4912 42.2906 21.273 42.2906 21.0912C42.2906 20.9094 42.1088 20.9094 41.9633 20.9094C41.7452 20.9094 41.3088 21.0184 41.0543 21.0184C40.9088 21.0184 40.7997 20.9821 40.7997 20.873C40.7997 20.6184 41.6361 20.7639 41.6361 20.473C41.6361 20.3275 41.3815 20.0366 41.3815 19.8912C41.3815 19.8184 41.4543 19.7821 41.527 19.7821C41.8179 19.7821 42.1452 20.6184 42.4724 20.6184C42.6179 20.6184 42.6543 20.5094 42.6543 20.3275C42.6543 20.1457 42.6179 20.073 42.6179 19.9275C42.6179 19.7821 42.6906 19.7457 42.727 19.7457C42.9452 19.7457 43.127 20.9094 43.7452 20.9094C43.9997 20.9094 43.8179 20.1821 44.0724 20.1821C44.2179 20.1821 44.2543 20.4003 44.2543 20.5094C44.327 21.273 45.0179 21.3094 45.0179 21.6003C44.9815 21.5639 44.9452 21.6366 44.8361 21.6366Z" fill="#1F35C6"/>
<path fill-rule="evenodd" clip-rule="evenodd" d="M36.1456 19.9275C36.4365 19.9275 36.6547 20.1457 36.6547 20.4003C36.6547 20.6548 36.4365 20.873 36.1456 20.873C35.8911 20.873 35.6365 20.6548 35.6365 20.4003C35.6365 20.1457 35.8911 19.9275 36.1456 19.9275ZM39.4911 24.5094C39.2365 24.5094 38.982 24.7275 38.982 24.9821C38.982 25.273 39.2365 25.4548 39.4911 25.4548C39.782 25.4548 40.0002 25.2366 40.0002 24.9457C40.0002 24.6912 39.782 24.5094 39.4911 24.5094ZM37.8184 23.6003C37.3093 23.6003 36.9093 24.0003 36.9093 24.473C36.9093 24.9457 37.3093 25.3457 37.8184 25.3457C38.3274 25.3457 38.7274 24.9457 38.7274 24.473C38.7274 24.0003 38.3274 23.6003 37.8184 23.6003ZM36.2184 23.2003C35.9274 23.2003 35.7093 23.4184 35.7093 23.7094C35.7093 24.0003 35.9638 24.2184 36.2184 24.2184C36.5093 24.2184 36.7274 24.0003 36.7274 23.7094C36.7274 23.4184 36.5093 23.2003 36.2184 23.2003ZM39.4184 24.0003C39.7456 24.0003 40.0365 23.7457 40.0365 23.4184C40.0365 23.0912 39.7456 22.8366 39.4184 22.8366C39.0911 22.8366 38.8002 23.0912 38.8002 23.4184C38.8002 23.7094 39.0911 24.0003 39.4184 24.0003ZM34.6911 22.1457C34.2911 22.1457 33.9274 22.473 33.9274 22.873C33.9274 23.273 34.2547 23.6003 34.6911 23.6003C35.0911 23.6003 35.4547 23.273 35.4547 22.873C35.4184 22.473 35.0911 22.1457 34.6911 22.1457ZM37.4184 22.6912C37.4184 22.9821 37.6365 23.2003 37.9274 23.2003C38.2184 23.2003 38.4365 22.9821 38.4365 22.6912C38.4365 22.4003 38.2184 22.1821 37.9274 22.1821C37.6365 22.1821 37.4184 22.4366 37.4184 22.6912ZM36.4002 22.8366C36.8365 22.8366 37.2002 22.5094 37.2002 22.073C37.2002 21.6366 36.8365 21.3094 36.4002 21.3094C35.9638 21.3094 35.6002 21.6366 35.6002 22.073C35.6002 22.473 35.9274 22.8366 36.4002 22.8366ZM39.3093 22.3275C39.6002 22.3275 39.8547 22.073 39.8547 21.7821C39.8547 21.4912 39.6002 21.2366 39.3093 21.273C39.0184 21.273 38.7638 21.5275 38.7638 21.8184C38.7638 22.1094 39.0184 22.3275 39.3093 22.3275ZM34.9093 21.6003C35.2002 21.6003 35.4184 21.3821 35.4184 21.0912C35.4184 20.8003 35.2002 20.5821 34.9093 20.5821C34.6184 20.5821 34.4002 20.8003 34.4002 21.0912C34.3638 21.3821 34.6184 21.6003 34.9093 21.6003ZM37.8911 21.5639C38.3638 21.5639 38.7274 21.2003 38.7274 20.7639C38.7274 20.3275 38.3638 19.9639 37.8911 19.9639C37.4184 19.9639 37.0547 20.3275 37.0547 20.7639C37.0547 21.2003 37.4184 21.5639 37.8911 21.5639ZM38.5093 19.673C38.8002 19.673 39.0184 19.4548 39.0184 19.2003C39.0184 18.9457 38.8002 18.7275 38.5093 18.7275C38.2184 18.7275 38.0002 18.9457 38.0002 19.2003C38.0365 19.4912 38.2547 19.673 38.5093 19.673Z" fill="#1F35C6"/>
<path fill-rule="evenodd" clip-rule="evenodd" d="M23.8185 20.3271C24.1458 20.3271 24.7276 20.8725 24.8731 21.4544C24.8004 21.4544 24.7276 21.418 24.6913 21.418C24.2549 21.418 24.0367 21.818 23.7095 22.5089C24.4731 21.9998 25.164 21.5998 25.964 21.5998C26.6549 21.5998 27.2004 21.9998 27.2004 22.618C27.2004 22.8725 27.0549 23.1635 26.9095 23.4544C26.8004 22.8725 26.3276 22.618 25.4913 22.618C25.0185 22.618 24.4367 22.6907 23.964 22.8726C25.4549 23.0907 25.6731 23.5998 25.6731 24.0725C25.6731 24.8725 24.8367 25.2725 24.2913 25.5271C24.3276 25.3089 24.4004 25.0544 24.4004 24.7998C24.4004 24.3271 24.2185 23.7453 23.4549 23.2362C23.3458 23.7453 22.9095 24.0726 22.9095 24.4726C22.9095 24.618 23.0185 24.6907 23.0913 24.6907C23.0913 24.9089 22.9822 25.5635 22.9822 25.7453C22.9822 26.0726 23.0549 26.1453 23.2367 26.1816C23.3458 26.4725 23.3458 26.9816 23.4185 27.2362C23.4549 27.3816 23.564 27.418 23.6731 27.418C23.7822 27.6725 23.9276 28.0725 24.1458 28.218C24.1822 28.2544 24.2549 28.3635 24.2549 28.4362C24.2549 28.6544 23.8913 28.9089 23.6731 28.9089C23.6004 28.9089 23.4913 28.8725 23.3822 28.618C23.3095 28.4362 22.6549 28.0362 22.6185 27.818C22.6549 27.7816 22.6913 27.7089 22.6913 27.5998C22.6913 27.2362 22.1095 26.8362 22.1095 26.2544C22.1822 26.218 22.2549 26.1089 22.2549 25.9998C22.2549 25.6725 21.9276 25.0544 21.9276 24.618C22.0731 24.618 22.1458 24.618 22.1458 24.3998C22.1822 23.9635 22.2549 23.3453 22.6549 22.9816C22.5458 22.9816 22.4367 22.9453 22.2913 22.9453C21.4913 22.9453 20.2913 23.3816 19.8185 24.3998C19.7822 24.2544 19.7822 24.1089 19.7822 23.9635C19.7822 23.1271 20.2913 22.5816 20.6913 22.3998C20.8731 22.3271 21.1276 22.2907 21.3822 22.2907C21.8185 22.2907 22.2913 22.3635 22.8004 22.4726C22.364 21.8907 21.6731 21.4907 21.0913 21.4907C20.8367 21.4907 20.6185 21.5635 20.5458 21.7816C20.5095 21.6726 20.5095 21.4907 20.5095 21.3453C20.5095 20.7271 20.7276 20.3635 21.2731 20.3635C22.0731 20.3635 22.8004 21.3089 23.2004 22.1816V22.0725C23.2004 20.8362 23.2367 20.218 23.7458 20.1816L23.8185 20.3271Z" fill="#1F35C6"/>
<path fill-rule="evenodd" clip-rule="evenodd" d="M13.709 22.4003C13.709 23.3821 14.0363 23.8549 14.5817 23.8549C15.0181 23.8549 15.5999 23.564 16.2908 22.9821C15.7453 23.0912 15.3453 23.164 14.9817 23.164C14.509 23.164 14.109 22.9821 13.709 22.4003ZM17.4908 21.0549C17.1635 21.1276 16.5453 21.4912 16.5453 22.1458C16.5453 22.6185 16.909 22.9094 17.3817 22.9094C17.6363 22.9094 17.8181 22.873 17.9272 22.764C17.5635 22.4003 17.4181 22.0367 17.4181 21.6367C17.4181 21.3821 17.4544 21.2003 17.4908 21.0549ZM18.6181 20.0003C18.3272 20.3276 17.9999 20.9094 17.9999 21.4912C17.9999 22.1821 18.4363 22.764 19.1272 22.764C19.7817 22.764 20.109 22.2185 20.109 21.673C20.1453 20.8003 19.309 20.1821 18.6181 20.0003ZM14.1817 21.2367V21.4185C14.1817 22.0367 14.509 22.364 14.9817 22.364C15.309 22.364 15.709 22.1821 16.0726 21.7458C15.9272 21.7821 15.7453 21.7821 15.5999 21.7821C15.0544 21.8185 14.509 21.673 14.1817 21.2367ZM16.8726 17.8912C16.4363 17.8912 15.8908 17.9276 15.309 18.2912C14.1453 19.0185 14.2908 20.1821 14.109 20.5094C14.0726 20.5458 14.0726 20.5821 14.0726 20.6549C14.0726 20.764 14.2181 20.9094 14.3272 20.9094C14.4363 20.9094 14.509 20.873 14.5453 20.873C14.8726 20.873 15.2363 21.0912 15.7817 21.0912C16.109 21.0912 16.4726 20.9821 16.909 20.764C17.8908 20.2912 18.2544 19.1276 18.2544 18.9458C18.2544 18.6912 18.0363 18.7276 17.8908 18.5094C17.709 18.2912 17.7817 18.073 17.6726 17.964C17.5999 17.8912 17.4181 17.8912 17.1635 17.8912H16.8726ZM16.0726 20.473C15.6363 20.473 15.1272 19.9276 15.1272 19.4549C15.1272 19.2003 15.3453 18.873 15.4908 18.873C15.5272 18.873 15.5635 18.9094 15.5999 19.0185C15.6726 19.6367 16.109 20.0003 16.509 20.1821C16.5453 20.2185 16.5817 20.2185 16.5817 20.2549C16.5453 20.364 16.2908 20.473 16.0726 20.473ZM17.6726 19.273C17.6726 19.4549 17.5635 19.673 17.3453 19.673C16.8726 19.673 16.509 18.9821 16.4726 18.5821C16.4726 18.3276 16.6181 18.3276 16.8363 18.3276C16.9453 18.3276 16.9817 18.3276 17.0544 18.364C17.1635 18.4367 17.1635 18.6912 17.309 18.873C17.4181 19.0185 17.6726 19.164 17.6726 19.273ZM18.6908 18.6912C18.6908 18.9821 18.9453 19.2003 19.2363 19.2003C19.5272 19.2003 19.7817 18.9821 19.7817 18.6912C19.7817 18.4003 19.5272 18.1821 19.2363 18.1821C18.9453 18.1458 18.6908 18.4003 18.6908 18.6912ZM18.509 18.0367C18.7999 18.0367 19.0544 17.8185 19.0544 17.5276C19.0544 17.2367 18.7999 17.0185 18.509 17.0185C18.2181 17.0185 17.9635 17.2367 17.9635 17.5276C17.9999 17.7821 18.2181 18.0367 18.509 18.0367ZM14.8363 17.7821C15.309 17.7821 15.709 17.4912 15.709 17.4912C14.909 17.273 14.4726 16.7276 14.4726 15.964V15.7458C13.9635 15.964 13.7453 16.364 13.7453 16.764C13.7817 17.3821 14.2544 17.7821 14.8363 17.7821ZM17.1999 17.2003C17.2726 16.9821 17.309 16.7276 17.309 16.4367C17.309 15.8185 17.0181 14.873 16.0726 14.873C15.5272 14.873 15.1635 15.273 15.1635 15.7458C15.1999 16.8003 16.2908 17.2003 17.1999 17.2003Z" fill="#1F35C6"/>
<path fill-rule="evenodd" clip-rule="evenodd" d="M47.0908 16.8728C46.509 18.0365 45.0545 18.291 44.5817 18.2183C44.7272 19.4183 46.509 21.0183 46.9817 20.9819C47.309 20.9455 47.4181 19.4183 47.4181 18.2183C47.4181 17.5274 47.4545 16.9819 47.0908 16.8728ZM47.1272 15.7455C47.1272 15.3092 46.9454 14.9819 46.4363 14.9092C46.509 15.0183 46.5454 15.1274 46.5454 15.3092C46.5454 16.0001 45.5272 16.7637 44.3999 16.7637C43.9999 16.7637 43.8545 17.0546 43.8908 17.2001C43.8908 17.5637 44.2181 17.7092 44.6908 17.7092C45.9636 17.6728 47.1272 16.6546 47.1272 15.7455Z" fill="#1F35C6"/>
<path fill-rule="evenodd" clip-rule="evenodd" d="M44.3998 16.291C44.9089 16.291 45.9998 15.8546 45.9998 15.2728C45.9998 15.091 45.9271 14.9092 45.6361 14.9092C45.2361 14.9092 44.6907 15.3092 44.1452 15.3092C43.9634 15.3092 43.7452 15.3092 43.5271 15.2365C43.7452 15.3819 43.7089 15.7455 43.818 16.0001C43.9998 16.291 44.218 16.291 44.3998 16.291Z" fill="#1F35C6"/>
<path fill-rule="evenodd" clip-rule="evenodd" d="M37.5634 16.582C37.5634 17.7457 36.7634 18.2184 36.0361 18.2184C35.8543 18.2184 35.7088 18.182 35.5634 18.1093C35.7088 17.9639 35.8543 17.7457 35.8543 17.6002C35.8543 17.4911 35.7816 17.4548 35.6725 17.4548C35.5997 17.4548 35.4179 17.4911 35.2725 17.4911C34.9088 17.4911 34.6179 17.3457 34.2907 17.0184C34.0725 17.3457 33.9634 17.782 33.9634 18.2184C33.9634 18.9093 34.2179 19.6002 34.5088 19.6366C34.6543 19.6366 34.6543 19.1638 34.9088 19.1638C34.9816 19.1638 35.2725 19.382 35.8907 19.382C36.7997 19.382 37.8179 18.8366 37.8179 17.4184C37.7816 17.2366 37.7088 16.8002 37.5634 16.582Z" fill="#1F35C6"/>
<path fill-rule="evenodd" clip-rule="evenodd" d="M35.491 15.8546C35.6728 15.8546 36.0364 15.9274 36.1455 16.1092C36.0001 16.1819 35.8546 16.3637 35.8546 16.5092C35.8546 16.5819 35.891 16.6546 35.9637 16.691C36.291 16.8365 36.4728 17.091 36.5819 17.3092C37.1637 16.9819 37.3819 16.0728 37.3819 15.5637C37.3819 15.4183 37.3819 15.2001 37.2364 15.2001C37.1273 15.2001 37.0183 15.3455 36.8728 15.3455C36.7637 15.3455 36.4364 14.9092 35.6364 14.9092C34.7273 14.9092 34.3273 15.6001 34.3273 16.1819C34.3273 16.3274 34.3637 16.5092 34.4001 16.6183C34.5819 16.2546 34.9455 15.8546 35.491 15.8546Z" fill="#1F35C6"/>
<path fill-rule="evenodd" clip-rule="evenodd" d="M26.2911 16.6185C25.6366 16.6185 25.0548 17.164 24.6184 17.8912C24.6548 17.7458 24.6548 17.6003 24.6548 17.4549C24.6548 16.4367 24.1093 15.564 23.1275 15.564C22.3275 15.564 21.5639 16.0367 21.2729 16.9821C21.3457 16.9094 21.6366 16.7276 21.8548 16.7276C22.1093 16.7276 22.182 16.9458 22.182 17.3094C22.182 17.5276 22.1457 17.8185 22.0366 18.0731C21.8911 18.5094 21.6002 18.6185 21.4548 18.6185C20.8366 18.6185 21.1275 17.564 20.8002 17.564C20.5457 17.564 20.4729 18.1458 20.4729 18.364C20.4729 19.0912 20.9457 19.8549 22.0002 19.8549C23.1275 19.8549 23.7457 19.3094 24.4002 18.6185C24.5457 19.3821 24.9457 20.7276 26.0729 20.7276C26.6911 20.7276 27.1275 20.2185 27.1639 19.6003C27.0911 19.6731 26.982 19.7458 26.8366 19.7458C26.6184 19.7458 26.5457 19.4185 26.5457 19.1276C26.5457 18.6549 26.6911 18.1458 26.9093 18.1458C27.0184 18.1458 27.0911 18.2185 27.1275 18.5821C27.1639 18.8367 27.1275 19.164 27.3093 19.164C27.4911 19.164 27.5639 18.6185 27.5639 18.2912C27.5275 17.3458 27.1275 16.5821 26.2911 16.6185ZM22.5457 19.0912C22.4366 19.0912 22.4002 18.9821 22.4002 18.9094C22.4002 18.4003 22.9457 16.1458 23.3457 16.1458C23.4184 16.1458 23.4548 16.2185 23.4548 16.3276C23.4548 16.7276 22.982 19.0912 22.5457 19.0912ZM24.2184 18.1094C23.8911 18.4731 23.7093 18.6549 23.5639 18.6549C23.4911 18.6549 23.4184 18.5094 23.4184 18.364C23.4184 18.1094 23.6002 17.0549 24.0002 17.0549C24.1457 17.0549 24.2548 17.3458 24.2548 17.6003C24.2548 17.8185 24.2548 17.964 24.2184 18.1094ZM24.982 19.0185C24.8729 19.0185 24.7639 18.8003 24.7639 18.364C24.982 18.0003 25.0911 17.8549 25.2366 17.8549C25.2729 17.8549 25.3457 17.8912 25.3457 18.1094C25.3093 18.5821 25.1275 19.0185 24.982 19.0185ZM25.6366 19.7821C25.5639 19.7821 25.4911 19.6731 25.4911 19.3821C25.4911 18.6912 25.9275 17.4185 26.182 17.4185C26.2548 17.4185 26.2911 17.6003 26.2911 17.7821C26.3275 18.5458 25.9639 19.7821 25.6366 19.7821Z" fill="#1F35C6"/>
<path fill-rule="evenodd" clip-rule="evenodd" d="M42.3271 15.1276C42.0725 15.1276 41.6725 15.4185 41.3816 15.4185C40.9816 15.4185 41.0907 14.873 40.6544 14.873C40.5453 14.873 40.4362 14.9094 40.3271 14.9821C39.418 15.4549 38.6907 15.273 38.5453 15.3821C38.5089 15.4185 38.4725 15.4185 38.4725 15.5276C38.4725 16.5458 39.4907 18.073 41.1634 18.073C42.3271 18.073 43.2725 17.673 43.2725 16.9821C43.2362 16.4003 42.6907 15.1276 42.3271 15.1276ZM41.2725 17.0912C40.3271 17.0912 39.7453 16.5458 39.7453 16.2185C39.7453 16.1821 39.7816 16.1458 39.818 16.1458C39.9634 16.1458 40.3634 16.364 40.9089 16.4367C41.5271 16.5458 41.8544 16.5458 42.0362 16.5458C42.218 16.5458 42.2907 16.5821 42.2907 16.6549C42.2544 16.8367 41.818 17.0912 41.2725 17.0912Z" fill="#1F35C6"/>
<path fill-rule="evenodd" clip-rule="evenodd" d="M47.4186 9.01824C46.764 9.01824 46.6913 8.83643 46.2549 8.83643C45.7459 8.83643 45.3822 9.20006 45.3822 9.74552C45.3822 9.92733 45.4549 10.2182 45.4549 10.5819C45.4549 11.0182 45.3822 11.4546 44.9822 11.4546C44.6186 11.4546 44.4731 11.2001 44.4731 10.9092C44.4731 10.4001 44.7277 10.0364 44.7277 9.70915C44.7277 9.09097 44.0004 8.90915 43.2004 8.90915C42.2549 8.90915 41.2368 9.1637 41.2368 9.30915C41.2368 9.52733 42.5822 9.38188 43.564 10.6546C42.9459 10.6546 41.7459 10.9455 41.7459 11.1273C41.7459 11.3455 43.9277 11.5637 43.9277 12.4728C43.9277 13.0546 43.4549 13.1273 43.2731 13.1273C42.5459 13.1273 42.1822 12.3637 42.0004 12.3637C41.964 12.3637 41.8913 12.4001 41.8913 12.4728C41.8913 12.5819 42.0004 12.9092 42.0004 13.2364C42.0004 14.0728 41.0913 14.1455 41.0913 14.3273C41.0913 14.4001 41.1277 14.4001 41.2368 14.4364C41.8913 14.5455 42.5822 14.5819 43.2004 14.5819C45.5277 14.5819 47.3822 13.8546 47.3822 11.8182C47.3822 10.691 47.0186 10.3273 47.0186 9.78188C46.9459 9.60006 47.0913 9.20006 47.4186 9.01824ZM44.1822 13.4546H43.7095C45.2004 13.2001 46.0368 12.3273 46.0368 11.1637C46.364 11.2728 46.5822 11.6001 46.5822 11.9637C46.5459 12.6546 45.9277 13.4546 44.1822 13.4546ZM46.2549 9.92733C46.0731 9.92733 45.9277 9.78188 45.9277 9.60006C45.9277 9.41824 46.0731 9.27279 46.2549 9.27279C46.4368 9.27279 46.5822 9.41824 46.5822 9.60006C46.5822 9.78188 46.4368 9.92733 46.2549 9.92733Z" fill="#1F35C6"/>
<path fill-rule="evenodd" clip-rule="evenodd" d="M38.3638 8.58133C37.4911 8.58133 36.8365 9.0177 36.4729 9.0177C36.2547 9.0177 35.9638 8.50861 35.782 8.50861C35.7093 8.50861 35.6365 8.65406 35.6365 8.87224V8.94497C35.6365 9.12679 35.6002 9.45406 35.4911 9.45406C35.1638 9.45406 33.9274 8.58133 33.9274 8.87224C33.9274 9.16315 34.7638 10.0722 34.7638 10.2904C34.7638 10.5086 33.9638 10.7268 33.9638 10.9086C33.9638 11.1995 34.8365 11.2359 34.8365 11.5995C34.8365 11.9632 33.9274 12.2541 33.9274 12.5086C33.9274 12.7268 34.8365 12.5813 34.8365 12.8359C34.8365 13.0904 34.182 13.9995 34.182 14.2541C34.182 14.3268 34.182 14.3268 34.2547 14.3268C34.5093 14.3268 35.2729 13.4904 35.4547 13.4904C35.6729 13.4904 35.7093 13.9995 35.7456 14.2904C35.782 14.4359 35.782 14.4722 35.8547 14.4722C36.0002 14.4722 36.2547 13.8904 36.4365 13.8904C36.6911 13.8904 37.3456 14.5813 38.4729 14.5813C40.0729 14.5813 41.5638 13.4904 41.5638 11.5632C41.6002 9.67224 40.2184 8.58133 38.3638 8.58133ZM36.1456 12.7268C36.1093 12.7268 36.0729 12.6904 36.0729 12.6177L36.0365 12.1086C36.0365 12.0722 36.0002 11.9995 35.9274 11.9995H35.382C35.3093 11.9995 35.2729 11.9995 35.2729 11.9632C35.2729 11.8541 35.8184 11.4904 35.8184 11.4177C35.8184 11.2722 35.3093 11.0177 35.3093 10.8359C35.3093 10.7995 35.3456 10.7995 35.382 10.7995C35.5274 10.7995 35.782 10.8359 35.9638 10.8359C36.1456 10.8359 36.1456 10.1086 36.2911 10.1086C36.4002 10.1086 36.5456 10.7995 36.6911 10.7995C36.8729 10.7995 37.1638 10.6177 37.3093 10.6177C37.3456 10.6177 37.3456 10.6177 37.3456 10.6541C37.3456 10.7268 37.0184 11.0904 37.0184 11.1995C37.0184 11.3086 37.7456 11.4541 37.7456 11.5632C37.7456 11.7086 36.982 11.6722 36.982 11.7813C36.982 11.8541 37.2729 12.2177 37.2729 12.3632C37.2729 12.3995 37.2729 12.3995 37.2365 12.3995C37.1274 12.3995 36.7274 12.2177 36.6184 12.2177C36.4729 12.2177 36.2547 12.7268 36.1456 12.7268ZM38.4002 13.8541C37.4911 13.8541 36.8729 13.4177 36.8729 13.1632C36.8729 13.0541 36.9456 12.9813 37.0547 12.9813C37.3456 12.9813 37.9638 13.4177 38.182 13.4177C38.2184 13.4177 38.2911 13.3813 38.2911 13.3086C38.2911 13.0904 38.0729 12.6904 38.0729 12.5086C38.0729 12.4722 38.1093 12.4359 38.182 12.4359C38.5456 12.4359 39.0547 12.5813 39.3456 12.5813C39.4547 12.5813 39.4547 12.545 39.4547 12.4722C39.4547 12.1813 38.582 11.6359 38.582 11.4541C38.582 11.3086 39.6365 11.0541 39.6365 10.8359C39.6365 10.5813 38.182 10.7632 38.182 10.5086C38.182 10.3268 38.4729 10.0359 38.4729 9.89042C38.4729 9.8177 38.4365 9.8177 38.3274 9.8177C38.2184 9.8177 37.5638 10.0722 37.3093 10.0722C37.1638 10.0722 37.0184 10.0359 37.0184 9.85406C37.0184 9.56315 37.5274 9.23588 38.3274 9.23588C39.6365 9.23588 40.4002 10.1086 40.4002 11.5632C40.4365 13.3813 39.1274 13.8541 38.4002 13.8541Z" fill="#1F35C6"/>
<path fill-rule="evenodd" clip-rule="evenodd" d="M24.5818 12.2911C25.0909 12.2911 26.6182 12.982 27.3091 12.982C27.5637 12.982 27.7091 12.8366 27.7091 12.6911C27.7091 11.8911 25.5636 10.4729 25.5273 9.89112C25.5273 9.8184 25.5637 9.78203 25.6 9.74567C25.9637 9.34567 27.4909 9.09112 27.4909 8.76385C27.4909 8.58203 27.1637 8.58203 27.0182 8.58203C25.7818 8.58203 24 9.0184 24 9.45476C24 9.89112 25.6 10.982 25.6 11.5275C25.6 11.6729 25.4909 11.7093 25.3455 11.7093C24.9091 11.7093 23.9273 11.1639 23.4546 11.1639C23.2364 11.1639 23.1636 11.3093 23.1636 11.5275C23.1636 12.1457 23.9273 13.3457 23.9273 13.7093C23.9273 13.7457 23.9273 13.8184 23.8546 13.8184C23.6 13.8184 22.5091 12.5093 22.1091 12.5093C21.9637 12.5093 21.9637 12.6911 21.9637 12.982V13.4184C21.9637 13.7093 21.9637 13.8911 21.8182 13.8911C21.4909 13.8911 21.3091 12.9457 20.9818 12.9457C20.6546 12.9457 20.5818 14.6548 20.2546 14.6548C19.8546 14.6548 20.1818 12.8002 19.8182 12.8002C19.4182 12.8002 18.9455 14.0366 18.6546 14.0366C18.5455 14.0366 18.5091 13.9275 18.5091 13.8548C18.5091 13.4911 18.7273 12.8729 18.7273 12.5093C18.7273 12.3275 18.6909 12.2184 18.5091 12.2184C18.1091 12.2184 17.2 12.8729 16.8727 12.8729C16.8364 12.8729 16.7636 12.8366 16.7636 12.8002C16.7636 12.4729 18.2182 11.4911 18.2182 11.0548C18.2182 10.6184 16.2182 10.9093 16.2182 10.4002C16.2182 10.0002 17.6364 9.56385 17.6364 9.12749C17.6364 8.76385 15.9636 8.58203 15.3091 8.58203C14.5455 8.58203 14.1091 8.69112 14.1091 8.9093C14.1091 9.23658 15.8909 9.34567 15.8909 9.63658C15.8909 9.92749 14.0364 10.6911 14.0364 11.1275C14.0364 11.5275 16.6182 11.1638 16.6182 11.5638C16.6182 12.0002 14.3637 13.9275 14.3637 14.582C14.3637 14.7275 14.4727 14.8002 14.6182 14.8002C15.3091 14.8002 17.0909 13.4911 17.5637 13.4911C17.7455 13.4911 17.7455 13.7093 17.7455 13.8911C17.7455 14.2184 17.6364 14.7638 17.6364 15.1275C17.6364 15.4184 17.7091 15.6366 17.9637 15.6366C18.4364 15.6366 18.9091 14.8002 19.2364 14.8002C19.6727 14.8002 19.4182 17.2002 20.0364 17.2002C20.5818 17.2002 20.8 14.582 21.1273 14.582C21.4546 14.582 21.7455 15.3457 22.0727 15.3457C22.4727 15.3457 22.2909 14.0366 22.6909 14.0366C23.1637 14.0366 24.4727 15.6002 25.0909 15.6002C25.2727 15.6002 25.3455 15.4548 25.3455 15.2729C25.3455 14.582 24.3637 13.0184 24.3637 12.5093C24.4 12.3275 24.4364 12.2911 24.5818 12.2911Z" fill="#1F35C6"/>
<path fill-rule="evenodd" clip-rule="evenodd" d="M25.4177 13.1998C25.3814 13.1998 25.345 13.2362 25.345 13.2725C25.345 13.7453 27.0177 15.9634 27.3086 15.9634C27.5632 15.9634 27.7814 15.4907 27.7814 15.1271C27.7814 15.018 27.745 14.9089 27.7086 14.8362C27.4541 14.4725 25.7814 13.1998 25.4177 13.1998ZM15.6359 11.9271C15.6359 11.818 15.4177 11.7816 15.2359 11.7816C14.945 11.7816 14.545 11.8543 14.3632 11.9998C14.2177 12.1089 14.1086 12.4725 14.1086 12.7271C14.1086 12.8725 14.145 13.018 14.2905 13.018C14.6177 13.0543 15.6359 12.1816 15.6359 11.9271ZM17.9996 10.2907C18.2905 10.2907 18.7632 10.1453 19.0905 10.1453C19.2723 10.1453 19.4541 10.1816 19.4541 10.3634C19.4541 10.6907 18.7268 11.2725 18.7268 11.5271C18.7268 11.5998 18.7996 11.6362 18.8723 11.6362C19.1268 11.6362 19.5996 10.9816 19.9996 10.9816C20.6905 10.9816 20.2541 12.4725 20.6177 12.4725C21.0177 12.4725 20.8359 11.018 21.4177 11.018C21.8905 11.018 22.2177 12.0362 22.545 12.0362C22.6177 12.0362 22.6905 11.9634 22.6905 11.8907C22.6905 11.5998 22.2905 11.0543 22.2905 10.6907C22.2905 10.4725 22.4359 10.3634 22.6541 10.3634C22.945 10.3634 23.3814 10.5453 23.5996 10.5453C23.6723 10.5453 23.745 10.5089 23.745 10.4362C23.745 10.1089 22.5814 9.78162 22.5814 9.38162C22.5814 8.98162 23.2359 8.98162 23.2359 8.7998C23.2359 8.72707 22.8359 8.65434 22.2905 8.65434C21.4177 8.65434 21.5632 9.34525 20.8723 9.34525C20.1814 9.34525 20.3632 8.61798 19.4905 8.61798C18.945 8.61798 18.4723 8.72707 18.4723 8.83616C18.4723 8.98162 19.0905 8.90889 19.0905 9.34525C19.0905 9.81798 17.745 9.92707 17.745 10.218C17.745 10.2543 17.8541 10.2907 17.9996 10.2907ZM26.3268 10.1089C26.3268 10.3271 27.1632 10.8362 27.5268 10.8362C27.745 10.8362 27.8177 10.5453 27.8177 10.218C27.8177 9.81798 27.6359 9.81798 27.3086 9.81798C26.8723 9.81798 26.3268 9.92707 26.3268 10.1089Z" fill="#1F35C6"/>
</g>
</g>
</g>
<defs>
<clipPath id="clip0_4972_30641">
<rect width="64" height="64" fill="white"/>
</clipPath>
<clipPath id="clip1_4972_30641">
<rect width="64" height="64" fill="white"/>
</clipPath>
<clipPath id="clip2_4972_30641">
<rect width="64" height="64" fill="white"/>
</clipPath>
</defs>
</svg>
