<svg  xmlns="http://www.w3.org/2000/svg"
     width="100%" height="100%" viewBox="0 0 1336 340" fill="none">
    <path fill-rule="evenodd" clip-rule="evenodd"
          d="M791.351 -601.891C895.135 -601.891 972.973 -524.054 972.973 -433.243C972.973 -342.433 895.135 -264.594 791.351 -264.594C700.54 -264.594 609.729 -342.433 609.729 -433.243C609.729 -524.054 700.54 -601.891 791.351 -601.891ZM1984.87 1032.7C1894.05 1032.7 1803.24 1110.54 1803.24 1201.35C1803.24 1305.13 1894.05 1370 1984.87 1370C2088.65 1370 2166.49 1292.16 2166.49 1188.38C2166.49 1097.57 2088.65 1032.7 1984.87 1032.7ZM1388.11 708.379C1206.49 708.379 1063.78 851.082 1063.78 1019.73C1063.78 1188.38 1206.49 1331.08 1388.11 1331.08C1569.73 1331.08 1712.43 1188.38 1712.43 1019.73C1712.43 851.082 1569.73 708.379 1388.11 708.379ZM817.297 565.676C713.513 565.676 635.675 643.513 635.675 747.297C635.675 851.081 726.486 928.919 817.297 928.919C921.081 928.919 998.919 851.081 998.919 747.297C998.919 643.513 921.081 565.676 817.297 565.676ZM1958.92 851.081C2075.67 851.081 2179.46 760.271 2179.46 643.514C2179.46 526.757 2075.67 435.946 1958.92 435.946C1842.16 435.946 1738.38 526.757 1738.38 643.514C1738.38 747.298 1842.16 851.081 1958.92 851.081ZM272.432 189.46C129.73 189.46 0 306.216 0 448.919C0 591.622 116.757 708.379 272.432 708.379C415.135 708.379 544.865 591.622 544.865 448.919C531.892 306.216 415.135 189.46 272.432 189.46ZM1245.41 384.054C1245.41 487.838 1323.24 565.676 1427.03 565.676C1530.81 565.676 1608.65 487.838 1608.65 384.054C1608.65 280.271 1530.81 202.432 1427.03 202.432C1323.24 202.432 1245.41 293.244 1245.41 384.054ZM882.162 435.946C1037.84 435.946 1167.57 319.189 1167.57 163.513C1167.57 7.83752 1037.84 -108.919 882.162 -108.919C726.486 -108.919 596.757 7.83752 596.757 163.513C596.757 306.216 713.513 435.946 882.162 435.946ZM1920 254.325C2023.78 254.325 2114.6 163.514 2114.6 59.73C2114.6 -44.0538 2023.78 -134.865 1920 -121.892C1816.22 -121.892 1725.41 -31.0811 1725.41 72.7028C1725.41 176.487 1816.22 254.325 1920 254.325ZM350.27 -5.13489C454.054 -5.13489 531.892 -82.9729 531.892 -186.757C531.892 -290.541 454.054 -368.379 350.27 -368.379C246.486 -368.379 168.648 -290.541 168.648 -186.757C155.675 -82.9729 246.486 -5.13489 350.27 -5.13489ZM1414.05 -18.1077C1582.7 -18.1077 1712.43 -147.838 1712.43 -303.514C1712.43 -459.189 1582.7 -588.919 1414.05 -588.919C1245.4 -588.919 1115.68 -459.189 1115.68 -303.514C1115.68 -147.838 1245.4 -18.1077 1414.05 -18.1077ZM1634.59 -692.703C1738.38 -692.703 1816.22 -770.54 1816.22 -861.351C1816.22 -952.162 1738.38 -1030 1634.59 -1030C1530.81 -1030 1452.97 -952.162 1452.97 -861.351C1465.95 -757.567 1543.78 -692.703 1634.59 -692.703Z"
          fill="#94E4F7"/>
</svg>
