<svg xmlns="http://www.w3.org/2000/svg" class="2xl:hidden xl:hidden lg:hidden md:hidden sm:block block"
     width="100%" height="100%" viewBox="0 0 375 480" fill="none">
    <path fill-rule="evenodd" clip-rule="evenodd"
          d="M364.911 -164.713C412.768 -164.713 448.661 -128.843 448.661 -86.9947C448.661 -45.1461 412.768 -9.2756 364.911 -9.2756C323.036 -9.2756 281.16 -45.1461 281.16 -86.9947C281.16 -128.843 323.036 -164.713 364.911 -164.713ZM915.268 588.562C873.393 588.562 831.517 624.432 831.517 666.281C831.517 714.108 873.393 744 915.268 744C963.125 744 999.018 708.13 999.018 660.303C999.018 618.454 963.125 588.562 915.268 588.562ZM640.089 439.103C556.339 439.103 490.535 504.865 490.535 582.584C490.535 660.303 556.339 726.065 640.089 726.065C723.839 726.065 789.643 660.303 789.643 582.584C789.643 504.865 723.839 439.103 640.089 439.103ZM376.875 373.341C329.018 373.341 293.125 409.211 293.125 457.038C293.125 504.865 335 540.735 376.875 540.735C424.732 540.735 460.625 504.865 460.625 457.038C460.625 409.211 424.732 373.341 376.875 373.341ZM903.303 504.865C957.142 504.865 1005 463.016 1005 409.211C1005 355.406 957.142 313.557 903.303 313.557C849.464 313.557 801.607 355.406 801.607 409.211C801.607 457.038 849.464 504.865 903.303 504.865ZM125.625 199.968C59.8213 199.968 0 253.773 0 319.535C0 385.297 53.8392 439.103 125.625 439.103C191.428 439.103 251.25 385.297 251.25 319.535C245.268 253.773 191.428 199.968 125.625 199.968ZM574.286 289.643C574.286 337.47 610.178 373.341 658.036 373.341C705.893 373.341 741.785 337.47 741.785 289.643C741.785 241.816 705.893 205.946 658.036 205.946C610.178 205.946 574.286 247.795 574.286 289.643ZM406.785 313.557C478.571 313.557 538.393 259.751 538.393 188.011C538.393 116.27 478.571 62.4648 406.785 62.4648C335 62.4648 275.178 116.27 275.178 188.011C275.178 253.773 329.018 313.557 406.785 313.557ZM885.357 229.86C933.214 229.86 975.089 188.011 975.089 140.184C975.089 92.3568 933.214 50.5081 885.357 56.4865C837.5 56.4865 795.625 98.3351 795.625 146.162C795.625 193.989 837.5 229.86 885.357 229.86ZM161.518 110.292C209.375 110.292 245.268 74.4216 245.268 26.5946C245.268 -21.2325 209.375 -57.1028 161.518 -57.1028C113.661 -57.1028 77.7676 -21.2325 77.7676 26.5946C71.7854 74.4216 113.661 110.292 161.518 110.292ZM652.053 104.314C729.821 104.314 789.643 44.5296 789.643 -27.2109C789.643 -98.9514 729.821 -158.735 652.053 -158.735C574.285 -158.735 514.464 -98.9514 514.464 -27.2109C514.464 44.5296 574.285 104.314 652.053 104.314ZM753.75 -206.562C801.607 -206.562 837.5 -242.432 837.5 -284.281C837.5 -326.13 801.607 -362 753.75 -362C705.893 -362 670 -326.13 670 -284.281C675.982 -236.454 711.875 -206.562 753.75 -206.562Z"
          fill="#94E4F7"/>
</svg>
