<svg xmlns="http://www.w3.org/2000/svg" width="98" height="98" viewBox="0 0 98 98"
     fill="none">
    <path fill-rule="evenodd" clip-rule="evenodd"
          d="M86.6723 33.6243C84.3486 35.1389 80.0648 36.5218 78.1891 37.7446C77.0845 38.4646 75.569 39.7652 76.4975 41.2035C77.5001 42.7571 82.7624 42.1583 83.6935 43.601C84.1241 44.2672 83.6715 45.0266 83.1229 45.3844C80.1396 47.3291 71.503 45.5637 67.7491 48.0106C67.0884 48.441 65.6504 49.8494 66.2962 50.8498C67.2236 52.2869 72.6159 52.3906 73.9768 54.4985C74.3355 55.0542 74.4308 55.9368 73.7705 56.3675C71.7931 57.6561 65.7815 54.174 62.0235 56.6235C60.5863 57.5603 58.8451 59.4829 57.7404 60.203C56.8581 60.7782 56.1668 60.4392 55.9523 60.1068C54.4502 57.78 60.165 53.7417 56.4898 46.8407C55.959 45.7688 55.1445 43.7855 56.3639 42.9906C58.3497 41.696 60.7405 48.7988 62.9483 47.3598C68.0199 44.0539 63.2325 32.9944 65.1081 31.7721C65.5521 31.4824 66.2951 31.4689 67.1555 32.8024C67.9428 34.0218 68.221 34.9447 69.1488 36.3819C70.081 37.8258 71.0587 38.6061 72.3827 37.7431C75.3656 35.7984 73.5049 27.0859 76.0468 25.4294C76.5999 25.069 77.3642 25.045 77.7221 25.5997C78.5817 26.9313 77.9456 30.805 78.7348 32.0273C80.454 34.6909 86.6984 28.5691 88.1308 30.7878C88.7748 31.7852 87.9994 32.7594 86.6723 33.6243ZM36.9137 69.8065C36.8416 70.0769 36.4537 70.455 35.7413 70.2617C34.8495 70.0196 33.2745 69.1093 32.1142 68.7939C29.0803 67.9706 25.818 71.6212 24.2219 71.188C23.6887 71.0433 23.5626 70.4298 23.6821 69.9783C24.137 68.2659 27.7122 67.0186 28.0223 65.851C28.2381 65.0385 26.976 64.407 26.4424 64.2624C23.4125 63.4398 18.029 66.511 15.621 65.8569C15.1779 65.7368 14.713 65.3259 14.8568 64.7845C15.1683 63.6124 18.8076 62.8653 19.1426 61.6032C19.453 60.4348 18.1622 59.8922 17.2704 59.6505C15.7563 59.2392 12.6011 59.2467 10.7252 58.7372C9.65391 58.4464 8.92686 57.9619 9.14237 57.1512C9.62081 55.3488 15.1029 58.095 15.6773 55.9315C15.9413 54.9383 14.684 52.4765 14.9712 51.3944C15.0911 50.9441 15.6063 50.7931 16.0524 50.9143C18.1044 51.4714 18.7359 57.7272 21.1442 58.381C22.2129 58.6714 22.6976 57.9336 23.0091 56.7608C23.3191 55.5935 23.3066 54.913 23.5696 53.9223C23.8571 52.8391 24.3558 52.6863 24.7144 52.7833C26.228 53.1946 25.4112 61.6653 29.5058 62.7768C31.2882 63.2609 31.3563 57.9701 32.9597 58.4051C33.9438 58.6725 33.8268 60.1819 33.7033 61.0175C32.7346 66.4534 37.4153 67.9163 36.9137 69.8065ZM85.9729 8.09884C85.6888 7.65851 85.0902 7.09918 84.6829 7.90917C84.3626 8.54586 84.3981 12.4169 76.9397 17.281C73.1017 19.7835 68.952 21.0792 63.3565 24.7283C50.2272 33.2901 50.3141 46.2321 49.7252 63.1989C49.6815 64.4529 48.1674 66.4318 47.6847 67.6148C47.0222 69.2377 46.2764 71.2664 45.7785 73.3866C45.7223 73.6269 45.6694 73.8686 45.6198 74.1111C45.325 73.7332 45.0349 73.3777 44.7623 73.0538C44.1786 72.3606 42.7251 71.3564 42.4225 70.5186C38.3327 59.1839 35.5753 50.4197 24.8405 47.5223C20.2656 46.2872 17.1794 46.3244 14.0417 45.4772C7.94385 43.8315 7.12521 41.2078 6.77045 40.8482C6.31915 40.3904 6.03616 40.8999 5.93998 41.2602C3.70194 49.6398 2.97319 70.0072 22.2329 75.2063C32.5404 77.9889 37.9938 75.2134 40.4142 75.8668C41.9228 76.274 43.6651 77.3738 45.0557 78.7937C44.9573 79.8145 44.9225 80.8383 44.9506 81.8566C45.0135 84.0988 44.6114 87.7549 46.1369 89.6229C47.4971 91.2887 51.1827 90.4854 51.0436 88.0822C50.99 87.1517 50.4643 86.2993 50.2194 85.4108C49.9878 84.5715 49.7748 83.7314 49.6301 82.8711C49.3505 81.2095 49.2717 79.5036 49.4973 77.8304C49.9631 74.3811 51.8105 71.3862 54.7225 69.4873C57.683 67.5568 66.1857 68.8967 78.7923 60.6752C102.349 45.3135 92.586 18.3483 85.9729 8.09884Z"
          fill="#005EFF"/>
</svg>
