<svg xmlns="http://www.w3.org/2000/svg" width="16" height="17" viewBox="0 0 16 17" fill="none">
<g clip-path="url(#clip0_1693_2819)">
<path d="M15.7279 6.4064C15.6686 6.1825 15.5989 5.96156 15.5203 5.74952C15.2969 5.14192 15.0012 4.56342 14.6395 4.02649C14.4912 3.81445 14.3429 3.60834 14.1784 3.41112C14.0138 3.21391 13.8432 3.02411 13.6623 2.84321C12.1609 1.34282 10.1251 0.5 8.00245 0.5C5.87981 0.5 3.84403 1.34282 2.34256 2.84321C2.16165 3.02411 1.98965 3.21342 1.82654 3.41112C1.66343 3.60834 1.50922 3.81445 1.36538 4.02649C1.14966 4.34759 0.956909 4.68355 0.788571 5.03184C0.675877 5.26464 0.575046 5.50485 0.484594 5.74952C-0.139674 7.46137 -0.161411 9.33495 0.422974 11.0608C1.00736 12.7867 2.16291 14.2617 3.69879 15.2421C5.23467 16.2225 7.05901 16.6498 8.87052 16.4533C10.682 16.2568 12.3724 15.4484 13.6623 14.1615C13.8432 13.9791 14.0152 13.7908 14.1784 13.5921C14.3415 13.3934 14.4957 13.1888 14.6395 12.9767C15.0012 12.4398 15.2969 11.8613 15.5203 11.2537C15.5989 11.0387 15.6686 10.8207 15.7279 10.5968C16.0976 9.22448 16.0976 7.77875 15.7279 6.4064ZM11.146 11.3412C11.1272 11.443 11.0973 11.5424 11.057 11.6378C10.9797 11.8254 10.8658 11.9958 10.7219 12.139L10.3468 12.5052C10.2487 12.6034 10.1782 12.7256 10.1421 12.8596C10.0917 13.0479 10.0517 13.2377 9.98348 13.4186L9.46302 14.8228C8.98413 14.9343 8.49413 14.991 8.00245 14.9919V14.2208C8.05879 13.8027 7.74889 13.0197 7.25215 12.523C7.15373 12.4244 7.07571 12.3074 7.02254 12.1787C6.96936 12.0499 6.94207 11.912 6.94224 11.7727V10.7125C6.94251 10.5233 6.89202 10.3375 6.79604 10.1745C6.70007 10.0115 6.56211 9.87726 6.39656 9.78573C5.92058 9.52179 5.24294 9.15405 4.77882 8.92125C4.39706 8.72976 4.04211 8.48897 3.72305 8.20505L3.70229 8.1754C3.47768 7.97126 3.27853 7.74074 3.10917 7.48885C2.81261 7.07219 2.36776 6.41382 2.04451 5.93042C2.71831 4.37732 3.96942 3.14694 5.53357 2.4992L6.16673 2.81652C6.24763 2.85694 6.33752 2.87602 6.42787 2.87195C6.51822 2.86788 6.60603 2.84079 6.68297 2.79326C6.75991 2.74573 6.82343 2.67933 6.86751 2.60035C6.91159 2.52138 6.93476 2.43246 6.93482 2.34202V2.10032C7.24372 2.04903 7.55593 2.02028 7.86899 2.01432L8.68009 2.82541C8.7295 2.8746 8.7687 2.93306 8.79545 2.99744C8.8222 3.06182 8.83598 3.13085 8.83598 3.20057C8.83598 3.27028 8.8222 3.33931 8.79545 3.40369C8.7687 3.46807 8.7295 3.52653 8.68009 3.57572L8.53181 3.724L8.18928 4.06653C8.13993 4.11649 8.11226 4.18388 8.11226 4.2541C8.11226 4.32433 8.13993 4.39172 8.18928 4.44168L8.34498 4.59737C8.39469 4.64714 8.42261 4.71461 8.42261 4.78495C8.42261 4.85529 8.39469 4.92276 8.34498 4.97253L8.07214 5.23943C8.04793 5.26463 8.0186 5.28435 7.98614 5.29726C7.95424 5.31081 7.91996 5.31786 7.8853 5.31802H7.58874C7.51978 5.31828 7.45351 5.34479 7.40339 5.39216L7.07569 5.71245C7.03452 5.75215 7.00744 5.80422 6.99858 5.86073C6.99413 5.88823 6.99413 5.91627 6.99858 5.94377C7.00193 5.9716 7.00995 5.99867 7.02231 6.02384L7.53981 7.06181C7.56002 7.10226 7.56956 7.1472 7.56752 7.19238C7.56549 7.23755 7.55195 7.28146 7.52818 7.31993C7.50441 7.3584 7.47121 7.39016 7.43173 7.4122C7.39224 7.43424 7.34778 7.44582 7.30256 7.44585H7.11276C7.04897 7.44566 6.98738 7.4225 6.93927 7.38061L6.63085 7.1137C6.59813 7.08143 6.56062 7.05442 6.51964 7.03363C6.47891 7.01289 6.43549 6.99792 6.39063 6.98915C6.34574 6.98028 6.29988 6.97729 6.25421 6.98025C6.20842 6.98348 6.16315 6.99194 6.11928 7.00546L5.08131 7.35095C5.0612 7.35667 5.04181 7.36463 5.02348 7.37468C5.00533 7.38414 4.98797 7.39505 4.97158 7.4073C4.95475 7.41939 4.93888 7.43278 4.92413 7.44734L4.8841 7.49479C4.87232 7.51121 4.8619 7.52857 4.85296 7.54668C4.84316 7.56513 4.83522 7.5845 4.82923 7.60451C4.8161 7.64369 4.80959 7.68479 4.80996 7.7261C4.81064 7.80053 4.83228 7.87325 4.87241 7.93594C4.91254 7.99862 4.96952 8.04872 5.03683 8.0805L5.40308 8.26437C5.71439 8.41982 6.05749 8.50102 6.40546 8.50162C6.75392 8.50162 7.14686 9.40465 7.46567 9.56183H9.67654C9.95779 9.56182 10.2276 9.67326 10.4268 9.87173L10.8806 10.3255C10.9267 10.3708 10.9684 10.4205 11.0051 10.4738C11.042 10.5288 11.0733 10.5874 11.0986 10.6487C11.1238 10.71 11.1432 10.7736 11.1564 10.8385C11.1695 10.9034 11.1759 10.9695 11.1757 11.0357C11.1757 11.1383 11.1658 11.2406 11.146 11.3412ZM14.4408 9.31716L13.5941 9.1066C13.4025 9.05801 13.2356 8.94023 13.1256 8.77594L12.5324 7.88625C12.5114 7.85367 12.4921 7.82001 12.4746 7.78542C12.4586 7.7497 12.4447 7.71306 12.4331 7.67569C12.4217 7.63835 12.4133 7.60018 12.4079 7.56151C12.402 7.52324 12.399 7.48458 12.399 7.44585C12.399 7.40664 12.402 7.36748 12.4079 7.32871C12.4133 7.29054 12.4217 7.25286 12.4331 7.21602C12.4445 7.17856 12.4583 7.1419 12.4746 7.10629C12.4921 7.07121 12.5114 7.03706 12.5324 7.00398L13.1819 6.03125C13.2581 5.91421 13.364 5.81954 13.4888 5.75693L13.8091 5.59679C14.2606 6.49843 14.4947 7.49326 14.4927 8.50162C14.492 8.77426 14.4746 9.04662 14.4408 9.31716Z" fill="white"/>
</g>
<defs>
<clipPath id="clip0_1693_2819">
<rect width="16" height="16" fill="white" transform="translate(0 0.5)"/>
</clipPath>
</defs>
</svg>