<svg width="32" height="32" viewBox="0 0 32 32" fill="none" xmlns="http://www.w3.org/2000/svg">
<g id="lightbulb">
<path id="Vector" d="M13.3213 27.2872V25.8885H18.8493V27.2872C18.8493 27.6841 18.7662 27.8405 18.6971 27.9096C18.6277 27.979 18.4656 28.0672 18.048 28.0672H17.8987H17.5638L17.4363 28.3768L17.287 28.7395L17.2815 28.7528L17.2768 28.7663C17.1922 29.0108 17.1298 29.07 17.0999 29.0909C17.0675 29.1136 16.9813 29.1552 16.704 29.1552H15.4667C15.1894 29.1552 15.1032 29.1136 15.0707 29.0909C15.0409 29.07 14.9785 29.0108 14.8938 28.7663L14.8891 28.7528L14.8837 28.7395L14.7344 28.3768L14.6069 28.0672H14.272H14.1227C13.6986 28.0672 13.5384 27.9816 13.4713 27.9154C13.4059 27.8508 13.3213 27.6981 13.3213 27.2872ZM24.5978 18.2676L24.5978 18.2676L24.6035 18.2703L27.2241 19.4634C27.3056 19.5023 27.3255 19.5412 27.3309 19.5552C27.3363 19.5692 27.3464 19.6083 27.3181 19.683C27.2775 19.7637 27.2368 19.7862 27.2236 19.7915C27.2154 19.7948 27.1847 19.8066 27.1142 19.7735L27.1143 19.7734L27.1085 19.7708L24.4845 18.5761L24.4845 18.5761L24.4804 18.5743C24.3909 18.5345 24.3777 18.4982 24.3759 18.4932L24.3758 18.493C24.3726 18.4842 24.3611 18.4434 24.3938 18.3584C24.4344 18.2775 24.4752 18.2549 24.4884 18.2495C24.4966 18.2462 24.5273 18.2344 24.5978 18.2676ZM7.31119 18.2703L7.31121 18.2703L7.31691 18.2676C7.3874 18.2344 7.41804 18.2462 7.42625 18.2495C7.44005 18.2551 7.48394 18.2795 7.52627 18.3694C7.55944 18.4399 7.54764 18.4706 7.54433 18.4788C7.53881 18.4924 7.51481 18.5357 7.4268 18.5777L4.80616 19.7708L4.80615 19.7708L4.80045 19.7735C4.72995 19.8066 4.69931 19.7948 4.69111 19.7915C4.6773 19.786 4.63341 19.7616 4.59109 19.6716C4.55791 19.6011 4.56971 19.5705 4.57302 19.5623C4.57854 19.5486 4.60254 19.5054 4.69056 19.4634L7.31119 18.2703ZM28.4387 11.5822L28.4386 11.5822L28.4413 11.5937C28.4592 11.6697 28.4443 11.7102 28.4353 11.7263C28.4279 11.7397 28.408 11.767 28.3458 11.7867L25.6741 12.4653C25.5991 12.4822 25.5682 12.4653 25.5637 12.4626C25.5601 12.4604 25.5536 12.4557 25.5453 12.4433C25.5367 12.4303 25.5231 12.404 25.5133 12.3575L25.5134 12.3575L25.5107 12.346C25.4928 12.27 25.5077 12.2295 25.5167 12.2134C25.5242 12.2 25.544 12.1728 25.6062 12.153L28.278 11.4745C28.3529 11.4575 28.3838 11.4744 28.3883 11.4771C28.392 11.4794 28.3984 11.484 28.4067 11.4964C28.4154 11.5095 28.4289 11.5357 28.4387 11.5822ZM6.59693 12.1345L6.59691 12.1346L6.60549 12.1366C6.66696 12.151 6.68296 12.1755 6.68692 12.1824C6.69114 12.1897 6.70865 12.2247 6.68625 12.3054L6.68358 12.315L6.6813 12.3247C6.6672 12.3846 6.64116 12.4091 6.62226 12.421C6.60247 12.4334 6.56386 12.4479 6.50107 12.4397L3.86044 11.769C3.77692 11.7363 3.75602 11.7037 3.75253 11.6977L3.75244 11.6975C3.75003 11.6934 3.73152 11.6617 3.75138 11.5696C3.76562 11.5117 3.79115 11.4877 3.80976 11.4761C3.82955 11.4636 3.86816 11.4492 3.93095 11.4574L6.59693 12.1345ZM23.8656 4.68152L23.8655 4.68143L23.8582 4.69095L22.0917 7.01077C22.0593 7.05056 22.0327 7.07148 22.0161 7.08177C22.0076 7.08701 22.0017 7.08957 21.9983 7.09077C21.9951 7.09194 21.9936 7.09212 21.9934 7.09213L21.9922 7.09209C21.9913 7.09199 21.9883 7.09156 21.9829 7.0897C21.9722 7.086 21.9486 7.0753 21.9147 7.04624L21.9083 7.04072L21.9017 7.03543C21.8241 6.97332 21.8176 6.93089 21.8167 6.92353C21.816 6.91679 21.8123 6.87562 21.8731 6.79955L22.1527 6.45009L22.1362 6.43363C22.1407 6.42773 22.1451 6.42177 22.1497 6.41574C22.3131 6.19886 22.5338 5.91051 22.7563 5.62148C22.9784 5.33276 23.2014 5.04457 23.3689 4.82849L23.5713 4.56759L23.628 4.49458L23.6429 4.47538L23.6456 4.47198C23.6786 4.43109 23.7057 4.40972 23.7226 4.39929C23.7311 4.39405 23.737 4.3915 23.7403 4.39029C23.7436 4.38912 23.7451 4.38895 23.7453 4.38893L23.7465 4.38897C23.7474 4.38907 23.7504 4.3895 23.7558 4.39136C23.7665 4.39506 23.79 4.40576 23.8239 4.43483C23.899 4.49919 23.9127 4.54834 23.9149 4.56555C23.9164 4.57653 23.9198 4.61374 23.8656 4.68152ZM8.04861 4.46722L8.06354 4.45695L8.07769 4.44563C8.14668 4.39044 8.18327 4.39559 8.18607 4.39598L8.18616 4.396L8.18617 4.396C8.18945 4.39644 8.21713 4.4002 8.25448 4.45248L8.2604 4.46078L8.26667 4.46884L10.0587 6.77283L10.0586 6.77286L10.0629 6.77821C10.1171 6.84599 10.1137 6.88319 10.1123 6.89418C10.11 6.91139 10.0964 6.96054 10.0213 7.0249C9.99505 7.04738 9.97448 7.05659 9.96198 7.06049C9.94954 7.06436 9.94015 7.06457 9.93276 7.06358C9.92067 7.06197 9.89044 7.05331 9.85754 7.00725L9.8531 7.00103L9.84848 6.99495L8.07781 4.66962L8.06302 4.6502L8.04641 4.63231C8.01543 4.59895 8.00095 4.57201 7.99452 4.55543C7.98832 4.53943 7.98892 4.5317 7.98901 4.53071L7.98901 4.53063C7.98906 4.52992 7.98927 4.52657 7.99398 4.51897C7.99932 4.51036 8.01388 4.49109 8.04861 4.46722ZM15.9573 8.0752C18.3311 8.0752 19.9578 8.98931 20.9977 10.1928C22.0501 11.4107 22.5187 12.9459 22.5187 14.1885C22.5187 16.0523 21.7873 17.6981 20.9218 19.3153C20.764 19.6102 20.6002 19.9063 20.4357 20.2036C19.7903 21.3701 19.1346 22.5553 18.7909 23.7579H13.1237C12.7806 22.5588 12.1268 21.3821 11.483 20.2234C11.317 19.9246 11.1517 19.6271 10.9925 19.3307C10.1278 17.7202 9.39601 16.074 9.39601 14.1885C9.39601 12.9348 9.86485 11.3999 10.9167 10.1852C11.9561 8.98469 13.5826 8.0752 15.9573 8.0752ZM16.1067 2.14453C16.2209 2.14453 16.2683 2.17772 16.2815 2.18977C16.2906 2.198 16.3107 2.21904 16.3107 2.28453V5.18586C16.3107 5.23003 16.3032 5.25468 16.2986 5.2658C16.2944 5.27593 16.2903 5.28074 16.286 5.28461C16.2778 5.29191 16.2319 5.32586 16.1067 5.32586C15.9925 5.32586 15.945 5.29268 15.9318 5.28062C15.9228 5.27239 15.9027 5.25136 15.9027 5.18586V2.28453C15.9027 2.21904 15.9228 2.198 15.9318 2.18977C15.945 2.17772 15.9925 2.14453 16.1067 2.14453Z" fill="#F7F7F7" stroke="white"/>
</g>
</svg>
