<svg width="60" height="60" viewBox="0 0 60 60" fill="none" xmlns="http://www.w3.org/2000/svg">
<path d="M52.9785 51.4881C53.8495 51.4881 54.4302 51.9858 54.4717 52.608C54.4717 53.0642 54.0984 53.4375 53.6421 53.4375C52.6467 53.4375 52.8955 52.6909 52.4808 52.6909C51.5517 52.6909 50.8221 54.119 50.1269 55.6478L50.0199 55.8834L49.8606 56.238L49.7018 56.5898C49.3285 57.3364 49.1626 57.4608 48.8722 57.4608C48.1671 57.4608 48.0427 55.5943 47.7524 54.7648C47.1717 56.0091 46.0103 57.4608 44.1853 57.4608C43.1069 57.4193 42.07 56.8801 42.07 55.221C42.07 53.3545 43.3143 52.0273 44.5586 52.0273C45.5126 52.0273 46.1347 53.0227 46.1347 53.6864C46.0933 55.5114 43.6461 55.5528 43.6461 55.9261C43.6461 56.2994 44.2683 56.4239 44.6416 56.4239C46.2177 56.4239 47.2546 54.3915 47.6279 52.9813C47.7109 52.7324 47.9183 52.2347 48.3745 52.2347C48.8722 52.2347 48.6234 55.304 49.3285 55.304C49.7847 55.304 50.3654 51.4881 52.9785 51.4881ZM28.4239 47.2989C29.2535 47.2574 29.9171 48.0455 30.0001 49.2898C30.166 52.608 29.0461 53.9352 28.4654 55.1381C28.5899 55.5943 29.3779 56.3824 30.1245 56.3824C30.4149 56.3824 30.7467 56.258 30.8296 56.1335C30.7467 55.9261 30.7052 55.7188 30.7052 55.3455C30.7052 53.4375 31.991 51.8614 33.0694 51.8614C33.9404 51.8614 34.4381 52.9813 34.4381 53.7278C34.4381 54.5989 33.6916 55.304 32.5717 55.9676C32.7791 56.175 33.1524 56.2994 33.4427 56.2994C35.0188 56.3409 35.8899 54.433 36.512 52.7324C36.6364 52.4006 36.8438 51.9443 37.2171 51.9443C37.8808 51.9443 38.1296 56.258 39.2495 56.258C39.7058 56.258 40.1205 55.304 40.1205 54.5574C40.162 53.9767 39.9546 53.9352 39.9546 53.1472C39.9546 52.2761 40.4109 51.5295 41.0745 51.5295C41.4893 51.5295 41.6137 51.9028 41.6137 52.3591C41.5722 54.1011 40.2864 57.3364 38.3785 57.3364C36.9683 57.3364 37.0927 54.9307 36.595 54.9307C36.0558 54.9307 35.2677 57.3364 32.4887 57.3364C32.0325 57.3364 31.5347 57.129 31.1614 56.6727C30.4978 57.129 29.9171 57.2949 29.295 57.2949C28.258 57.2949 27.8018 56.258 27.387 56.258C26.8893 56.258 26.3086 57.2949 24.6495 57.2949C23.3222 57.2949 23.0734 55.5528 22.6171 55.5528C22.2024 55.5528 21.5387 57.2949 20.8336 57.2949C20.267 57.2949 19.9178 56.5744 19.588 55.8365L19.4897 55.6151C19.1782 54.9174 18.8672 54.267 18.3864 54.267C18.0094 54.267 17.2251 54.9693 16.4312 55.6926L16.2147 55.8901C15.4229 56.6118 14.6589 57.2932 14.3217 57.2534C14.0313 57.2119 13.9069 57.046 13.9484 56.7557C13.9899 56.3824 14.3631 55.3455 14.4876 54.8892C14.7364 54.0597 14.9438 53.1472 15.0683 52.8568C15.1512 52.5665 15.483 52.3591 15.7319 52.4006C15.8563 52.4006 15.8978 52.608 15.9393 52.8153C16.0637 53.479 16.2711 54.1841 16.4785 54.1841C16.8518 54.1841 18.1791 51.7784 18.9256 51.7784C19.8796 51.7784 19.9626 55.5943 21.2069 55.5943C21.6217 55.5943 21.912 55.0966 22.2024 54.5159C22.2438 53.5205 22.5342 52.0687 23.3637 52.0687C23.9444 52.0687 24.1933 53.3545 23.7785 54.4744C23.737 55.8017 24.6495 56.1335 25.2302 56.1335C25.645 56.1335 26.3501 56.0091 26.9308 55.1381C26.5989 54.433 26.3916 52.9813 26.3501 52.4835C26.2256 49.829 27.2626 47.3403 28.4239 47.2989ZM12.4552 48.1284C12.9529 47.9625 13.1603 48.2114 13.3677 48.792C13.6166 49.6631 13.6166 50.8244 13.5336 52.442C13.4092 54.6818 12.2478 57.3778 9.38587 57.2949C6.89724 57.2534 5.81883 55.6773 5.73587 53.3131C5.6944 52.1932 5.77735 51.0733 6.27508 49.4972C6.56542 48.6676 6.77281 48.3773 7.56087 48.2114C8.18303 48.0869 8.10008 48.7091 7.97565 49.4557C7.64383 51.0733 7.5194 51.8614 7.60235 53.7278C7.72678 55.6773 8.63928 56.4653 9.63474 56.4653C11.1694 56.5068 11.833 55.304 12.1234 53.5205C12.3308 52.1102 12.1649 51.4466 12.0404 50.9903C11.9575 50.7415 11.7086 50.2023 11.6671 49.7875C11.5012 48.875 11.9989 48.2528 12.4552 48.1284ZM32.6546 53.1472C32.4058 53.1057 31.8251 53.396 31.8251 54.267C31.8251 54.9722 32.0739 55.304 32.1984 55.4284C33.0279 55.1795 33.2353 54.5159 33.1938 53.9767C33.1938 53.5205 32.945 53.1472 32.6546 53.1472ZM44.1853 53.1057C43.1069 53.1057 43.1898 54.8063 43.3558 55.1795C44.1438 55.0551 44.683 54.5989 44.8075 54.1841C44.9319 53.7693 44.766 53.1057 44.1853 53.1057ZM28.516 48.9136L28.4654 48.9165C27.9262 48.958 27.6774 50.6585 27.7603 52.442C27.8433 53.6034 28.0092 53.7693 28.1751 53.7693C28.4654 53.7693 29.212 51.654 29.1291 49.9949C29.0876 49.2483 28.8802 48.875 28.4654 48.9165L28.516 48.9136ZM23.6955 47.6307C24.1933 47.6307 24.5251 47.921 24.5666 48.3773C24.6495 48.9994 24.1933 49.6631 23.5711 49.6631C23.0319 49.6631 22.783 49.2898 22.7001 48.8335C22.6586 48.1699 23.1563 47.6307 23.6955 47.6307Z" fill="white"/>
<path fill-rule="evenodd" clip-rule="evenodd" d="M34.2331 38.5886C34.0672 38.2982 34.1916 37.8005 33.7353 37.8005C33.445 37.8005 33.4035 38.0494 33.362 38.2568C32.7399 38.0494 32.2007 37.9664 31.7029 37.9664C31.3711 37.9664 31.0808 38.0079 30.7904 38.0909C30.6245 37.8005 29.8779 37.2198 29.2558 37.0125C29.0069 38.3812 27.8041 39.4181 26.0206 39.584C25.9376 40.4551 25.2325 40.7039 24.6933 40.7039C24.32 40.7039 23.6978 40.5795 23.6564 40.4136C23.449 39.1278 22.495 38.4227 22.0387 38.2568C22.0387 38.3812 22.0802 38.5471 22.0802 38.6715C22.0802 39.7499 21.3336 40.4136 19.9649 40.4136C19.7575 40.4136 19.4672 40.4136 19.2598 40.3721C20.8359 42.1142 21.9558 41.492 22.6609 41.8238C23.6149 42.2386 24.4029 43.6073 27.4723 43.6073C28.5922 43.6073 29.712 43.1511 30.4586 42.6948C30.5831 43.1511 31.0393 43.5659 31.8274 43.5659C33.1132 43.5659 33.8598 43.1511 33.8598 42.8193C33.8598 42.7363 33.8598 42.6119 33.6109 42.6119C33.4035 42.6119 33.4035 42.6534 32.6984 42.6534C31.8689 42.6534 30.5416 42.3215 29.9194 40.8698C29.795 40.621 29.6291 40.621 29.5876 40.621C29.1728 40.621 28.5092 42.1142 25.8961 42.1142C24.7762 42.1142 24.2785 41.6994 24.2785 41.6164C24.2785 41.6164 24.2785 41.5749 24.32 41.5749C24.4444 41.5749 24.8177 41.6164 25.3154 41.6164C26.9745 41.6164 28.3018 40.8284 29.1314 39.9573C29.4217 39.6255 29.5461 39.584 29.795 39.584C30.0024 39.584 30.2098 39.7499 30.3342 40.0403C30.7075 40.9943 31.5785 41.7823 32.491 41.7823C33.7353 41.7823 33.7768 39.6255 34.0672 39.5011C34.1086 39.5011 34.1916 39.5426 34.2331 39.5426C34.399 39.5426 34.6064 39.4181 34.6064 39.1693C34.6478 38.8375 34.2745 38.7545 34.2331 38.5886ZM32.1592 40.2062C31.8274 40.2062 31.5785 39.9573 31.5785 39.6255C31.5785 39.2937 31.8274 39.0034 32.1592 39.0034C32.491 39.0034 32.7399 39.2937 32.7399 39.584C32.7814 39.9573 32.491 40.2062 32.1592 40.2062Z" fill="white"/>
<path fill-rule="evenodd" clip-rule="evenodd" d="M27.846 34.4409C28.1363 34.4409 28.2607 34.6898 28.3022 34.9386C28.3852 34.8557 28.5096 34.8142 28.634 34.8142C28.9244 34.8142 29.0903 35.0216 29.0903 35.2705C29.0903 35.4364 29.0073 35.5608 28.8829 35.6438C29.0488 35.7267 29.1732 35.8511 29.1732 36.0171C29.1732 36.2244 29.0073 36.3904 28.7585 36.3904C28.5511 36.3904 28.3852 36.1415 28.1778 36.1415C28.0533 36.1415 27.8874 36.183 27.846 36.2659C27.9289 36.4733 27.9704 36.6392 27.9704 36.8466C27.9704 37.925 26.5187 38.796 24.984 38.796C23.4908 38.796 22.9102 37.925 22.9102 37.5517C22.9102 37.4688 22.9516 37.4273 23.0761 37.4273C23.3249 37.4273 23.3664 37.5102 24.0715 37.5102C25.6891 37.5102 25.1085 35.4364 26.6431 35.4364C26.8505 35.4364 27.3067 35.5608 27.4727 35.8511C27.5971 35.7267 27.6386 35.5608 27.6386 35.4364C27.6386 35.1875 27.4727 35.0216 27.4727 34.8142C27.4727 34.6068 27.6386 34.4824 27.846 34.4409Z" fill="white"/>
<path fill-rule="evenodd" clip-rule="evenodd" d="M18.2227 33.3625C20.0477 33.3625 21.458 34.8971 21.458 37.0954C21.458 38.0909 20.9188 39.5426 18.7205 39.5426C16.1074 39.5426 14.5312 37.3443 14.5312 35.9341C14.5312 34.7312 15.3193 33.9846 15.817 33.8602C15.2778 36.017 16.4807 38.0909 18.8864 38.0909C20.0892 38.0909 20.6699 37.5102 20.6699 36.4733C20.6699 35.3119 19.8818 34.192 18.5131 34.192C17.8494 34.192 17.3517 34.5653 17.3517 35.1045C17.3517 35.9756 18.0983 36.5148 18.8864 36.5148C19.3841 36.5148 19.7159 36.3074 19.7159 35.9756C19.7159 35.9341 19.7159 35.8511 19.6744 35.8096C19.633 35.8511 19.5085 35.8511 19.3426 35.8511C18.7205 35.8511 18.2227 35.5193 18.2227 35.146C18.2227 34.8557 18.4301 34.6898 18.679 34.6898C19.5915 34.6898 20.2136 35.6023 20.2136 36.2659C20.2136 36.9295 19.7159 37.5102 18.8864 37.5102C17.1028 37.5102 16.3148 36.0585 16.3148 35.1045C16.3563 34.0676 17.2273 33.3625 18.2227 33.3625Z" fill="white"/>
<path fill-rule="evenodd" clip-rule="evenodd" d="M40.082 38.2568C39.7087 38.5472 38.7962 39.2108 37.2615 39.2108C36.432 39.2108 36.1001 38.962 35.9757 38.962C35.8098 38.962 35.6439 39.1279 35.478 39.2938C35.1047 39.7085 34.6484 40.4551 34.6484 41.3262C34.6484 41.9068 35.1047 42.4875 35.9757 42.4875C38.7962 42.4875 40.87 40.7455 40.87 39.3767C40.9115 38.5887 40.4138 38.2568 40.082 38.2568ZM38.6303 40.9529L37.0126 41.4091C37.1371 41.0773 37.22 40.704 37.22 40.3307C37.22 40.2063 37.22 40.1233 37.1786 39.9989H37.3859C38.5888 39.9989 39.0865 39.5426 39.1695 39.5426C39.2524 39.5426 39.3354 39.5841 39.3354 39.833C39.3354 40.1648 39.1695 40.621 38.6303 40.9529Z" fill="white"/>
<path fill-rule="evenodd" clip-rule="evenodd" d="M37.6783 38.5886C38.3419 38.5886 38.9226 38.4227 39.2959 38.0909C39.4203 38.0079 39.4618 37.842 39.4618 37.6761V37.3443C39.4618 36.9295 38.7982 36.6807 37.8857 36.6807C36.8072 36.6807 36.2266 37.1784 36.2266 37.3858V38.0494C36.2266 38.2983 36.8487 38.5886 37.6783 38.5886Z" fill="white"/>
<path fill-rule="evenodd" clip-rule="evenodd" d="M42.7371 31.5375C40.5388 31.5375 41.1195 33.404 38.5479 33.9846C38.0917 34.0676 37.9258 34.2335 37.9258 34.4409C37.9258 34.8142 38.1332 35.3119 38.4235 35.3119C39.5434 35.3119 41.244 33.0307 41.5758 33.0307C41.7002 33.0307 41.8246 33.0307 41.8246 33.3625C41.8246 34.192 39.419 35.2704 39.419 35.8511C39.419 36.1829 40.2485 36.9295 41.1195 36.9295C42.3224 36.9295 43.4008 34.5238 43.6496 34.5238C43.857 34.5238 43.8985 34.6483 43.8985 34.8142C43.8985 35.4778 43.069 36.7636 41.6587 37.3028C41.3684 37.4272 41.3269 37.5517 41.3269 37.6346C41.3269 37.9665 41.7002 38.4227 42.032 38.4227C42.4468 38.4227 45.2258 36.017 45.2258 34.1091C45.3087 32.3255 43.94 31.5375 42.7371 31.5375ZM43.7326 33.6113C43.5667 33.6113 43.4008 33.5699 43.3178 33.4869C43.1104 33.404 42.7786 33.1136 42.7786 32.6988C42.7786 32.2841 42.986 32.1596 43.1934 32.1596C43.8156 32.1596 44.5207 32.6988 44.5207 33.1551C44.5207 33.5284 44.1889 33.6113 43.7326 33.6113Z" fill="white"/>
<path fill-rule="evenodd" clip-rule="evenodd" d="M22.9923 34.6068H22.619C22.4946 34.6068 22.2872 34.5653 22.1627 34.4824C21.9139 34.275 21.8309 33.1551 21.4162 32.4915C20.9184 31.7449 20.3792 31.5375 19.6741 31.5375C19.1764 31.5375 18.5957 31.8278 18.5957 32.2426C18.5957 32.4915 18.7201 32.6574 19.6741 32.9062C20.877 33.1966 21.4576 33.8602 21.5821 34.6068C21.7065 35.3534 21.8309 35.9341 22.1213 36.2244C22.4946 36.6392 23.1997 37.0125 23.8633 37.0125C24.4025 37.0125 24.8173 36.8466 24.8173 36.3488C24.7758 35.8096 24.0292 34.6068 22.9923 34.6068ZM23.7804 36.2244C23.3241 36.2244 22.6605 35.7682 22.6605 35.4778C22.6605 35.2704 22.8679 35.146 23.0338 35.146C23.4071 35.146 24.0707 35.6023 24.0707 35.9755C24.0707 36.1 23.9877 36.2244 23.7804 36.2244Z" fill="white"/>
<path fill-rule="evenodd" clip-rule="evenodd" d="M32.0371 33.0721C31.7468 33.0721 31.7468 33.5284 31.7468 33.6943C31.7468 33.8602 31.7468 33.9017 31.6224 33.9017C31.4979 33.9017 31.415 33.8602 31.2906 33.8602C31.2076 33.8602 31.1246 33.9432 31.1246 34.0676C31.1246 34.6898 31.9127 35.1875 32.7008 35.1875C33.7377 35.1875 34.2354 34.7312 34.5258 34.7312C34.6502 34.7312 34.6917 34.8557 34.6917 34.9386C34.6917 35.1045 34.5258 35.3119 34.5258 35.3949C34.5258 35.6437 35.0235 35.4363 35.0235 35.7267C35.0235 36.1 34.4014 36.3903 33.4474 36.3903C31.5809 36.3903 30.3781 35.1045 30.3781 33.9017C30.3781 31.6619 32.7837 32.367 32.7837 31.496C32.7837 31.2057 32.4934 31.0398 32.286 31.0398C32.5349 30.7079 32.8667 30.6665 33.1985 30.6665C33.4474 30.6665 33.6962 30.7079 33.9036 30.7079C34.194 30.7079 34.4843 30.5835 34.4843 30.2517C34.4843 30.0443 34.3184 29.7954 33.6133 29.7125C33.6962 29.2562 34.6502 29.5051 34.6502 29.0903C34.6502 28.8 34.111 28.5926 33.4474 28.5926C30.8758 28.5926 29.0508 30.7079 29.0508 32.9892C29.0508 35.063 30.544 37.3443 33.3229 37.3443C36.019 37.3443 37.3048 35.146 37.3048 33.4869C36.807 33.9432 35.4798 34.0676 34.8161 34.0676C32.8667 34.1091 32.3275 33.0721 32.0371 33.0721Z" fill="white"/>
<path fill-rule="evenodd" clip-rule="evenodd" d="M34.1528 33.3625C34.5676 33.3625 34.858 33.0307 34.858 32.6574C34.858 32.0767 34.2773 31.5375 33.4062 31.5375C33.5722 31.7034 33.6136 31.8278 33.6136 31.9937C33.6136 32.2011 33.4892 32.45 33.4892 32.6988C33.4892 33.0721 33.7381 33.3625 34.1528 33.3625ZM38.342 30.542C38.4665 30.7079 38.508 30.8738 38.508 31.0397C38.508 31.4545 38.2176 31.8693 38.2176 32.2841C38.2176 32.7818 38.5909 33.1966 39.1716 33.1966C39.7938 33.1966 40.2085 32.6988 40.2085 32.1182C40.167 31.2886 39.4619 30.625 38.342 30.542ZM35.3557 28.9659C35.5631 29.2147 35.646 29.4636 35.646 29.754C35.646 30.4176 35.1483 31.0812 35.1483 31.7034C35.1483 32.5329 35.6875 33.0721 36.4756 33.0721C37.3051 33.0721 37.8028 32.367 37.8028 31.579C37.8028 30.4591 36.9318 29.2562 35.3557 28.9659ZM36.517 31.3301C36.3097 31.3301 36.1438 31.1642 36.1438 30.9568C36.1438 30.8324 36.2267 30.6664 36.2267 30.5005C36.2682 30.2932 36.2267 30.1272 36.3511 30.1272C36.6 30.1272 36.8903 30.5835 36.8903 30.8738C36.8903 31.1227 36.7659 31.3301 36.517 31.3301Z" fill="white"/>
<path fill-rule="evenodd" clip-rule="evenodd" d="M26.9322 29.5466C26.2686 29.2978 25.9783 28.9245 25.8124 28.1364C25.4805 28.5927 25.3146 29.0074 25.3146 29.2563C25.3146 30.2518 26.6834 30.2518 26.6834 30.9154C26.6834 31.2887 25.9783 31.7035 25.0658 31.7035C24.0288 31.7035 23.2822 31.5375 22.6186 30.8739C22.4527 30.708 22.3697 30.5421 22.1624 30.5421C21.9135 30.5421 21.7891 30.9569 21.7891 31.3716C21.7891 32.7819 23.1578 34.4824 25.0658 34.4824C27.43 34.4824 28.384 32.8648 28.384 31.5375C28.4254 30.7495 28.2595 30.0444 26.9322 29.5466ZM26.2686 33.5285C26.0612 33.5285 26.0197 33.4455 26.0197 33.2381C26.0197 33.1137 26.0612 32.8648 26.0612 32.6574C26.0612 32.1597 26.2686 32.2012 26.7663 31.9523C27.1396 31.7864 27.2641 31.579 27.3885 31.579C27.5129 31.579 27.6374 31.662 27.6374 31.8694C27.6374 32.616 26.8078 33.5285 26.2686 33.5285Z" fill="white"/>
<path fill-rule="evenodd" clip-rule="evenodd" d="M23.9055 27.141C23.6567 27.141 23.2419 26.8921 22.8271 26.5603C22.3709 27.0165 22.0391 27.6387 22.0391 28.3438C22.0391 29.7955 23.5737 30.9983 25.0669 30.9983C25.3158 30.9983 25.5646 30.9569 25.8135 30.9154C24.9839 30.8324 24.4862 30.2103 24.4862 29.4637C24.4862 28.5097 25.5646 27.6387 25.5646 26.8921C25.5646 25.9796 24.4447 25.8966 24.4447 25.15C24.4447 24.5279 25.5232 24.0716 25.4817 23.0762C25.4817 22.4955 24.901 21.7904 24.1129 21.3756C24.2374 21.6245 24.3203 21.9563 24.3203 22.1637C24.3203 23.325 22.0805 23.8228 22.0805 24.7353C22.0805 25.8966 24.2374 26.3529 24.2374 26.8921C24.2374 27.0165 24.1544 27.141 23.9055 27.141Z" fill="white"/>
<path fill-rule="evenodd" clip-rule="evenodd" d="M46.5124 27.8875C47.259 27.8875 47.8397 28.8415 47.8397 29.9614C47.8397 31.1642 47.259 32.45 46.2636 33.3625C46.2636 31.3716 43.8164 31.9938 43.8164 30.5421C43.8164 29.9199 44.2727 29.5051 44.8119 29.5051C45.2681 29.5051 45.6414 29.6296 45.9317 29.9199C45.6829 29.671 45.517 29.2977 45.517 28.9659C45.517 28.4267 45.8488 27.8875 46.5124 27.8875Z" fill="white"/>
<path fill-rule="evenodd" clip-rule="evenodd" d="M17.1457 29.9199C16.9383 29.9613 16.7724 30.0028 16.648 30.1272C16.5235 29.671 16.1088 29.2562 15.5281 29.3806C15.0303 29.4636 14.657 29.9198 14.74 30.5005C14.74 30.5835 14.7815 30.7079 14.823 30.7909C14.823 30.7909 14.74 30.7909 14.6571 30.8324C14.2423 30.9153 13.7446 31.3301 13.8275 31.9522C13.9105 32.4914 14.3667 32.8647 14.9059 32.8233C15.1133 32.7818 15.2792 32.7403 15.4036 32.6574C15.5281 33.1551 15.9428 33.4454 16.4821 33.4039C17.0213 33.321 17.3946 32.8647 17.3531 32.3255C17.3531 32.1596 17.3116 32.0767 17.2701 31.9937H17.3946C17.9338 31.8693 18.307 31.4545 18.2656 30.9153C18.0997 30.2517 17.6434 29.8369 17.1457 29.9199ZM16.0673 31.9522C15.7355 31.9937 15.4866 31.7449 15.4451 31.4545C15.4036 31.1227 15.611 30.8324 15.9428 30.7909C16.2747 30.7494 16.5235 30.9983 16.565 31.2886C16.6065 31.6204 16.3991 31.9108 16.0673 31.9522Z" fill="white"/>
<path fill-rule="evenodd" clip-rule="evenodd" d="M44.0233 27.4313C44.0233 27.2239 44.521 26.7261 44.521 26.5602C44.521 26.5188 44.4795 26.4773 44.4381 26.4773C44.2307 26.4773 43.5256 27.0165 42.4886 27.0165C42.0739 27.0165 41.7835 26.975 41.7835 26.6432C41.7835 26.3528 42.0324 26.104 42.4472 25.9381C42.9034 25.7307 43.8159 25.7307 43.8159 25.5233C43.8159 25.3574 42.9449 25.3574 42.9449 25.1915C42.9449 24.9841 43.2767 24.4864 43.2767 24.279C43.2767 24.279 43.2767 24.196 43.2352 24.196C43.0693 24.196 42.6545 24.6938 42.4057 24.6938C42.1568 24.6938 41.9494 24.0716 41.742 24.0716C41.7006 24.0716 41.6176 24.1131 41.6176 24.2375C41.6176 24.4864 41.742 24.9426 41.742 25.5648C41.742 26.104 41.4517 26.5602 41.1614 26.5602C40.7881 26.5602 40.6636 26.104 40.6636 25.7307C40.6636 25.1915 40.954 24.5693 40.954 23.9886C40.954 23.8642 40.9125 23.8227 40.8295 23.8227C40.6222 23.8227 40.2903 24.4449 40.0415 24.4449C39.8756 24.4449 39.5852 23.6983 39.3364 23.6983C39.2949 23.6983 39.2534 23.8227 39.2534 23.9886C39.2534 24.196 39.2949 24.4864 39.2949 24.6108C39.2949 24.7767 39.0875 24.8182 38.8386 24.8182C38.6727 24.8182 38.3409 24.8182 38.3409 24.9426C38.3409 25.0671 38.6727 25.1915 38.9631 25.3989C39.5023 25.7722 40.3733 26.1455 40.3733 27.0165C40.3733 27.8046 39.2534 28.3438 38.4653 28.5097C38.092 28.5511 37.7188 28.6341 37.7188 28.7585C37.7188 28.9244 38.7142 28.9659 38.7142 29.1733C38.7142 29.2977 38.258 29.8784 38.258 30.0443C38.258 30.0858 38.2994 30.0858 38.2994 30.0858C38.4653 30.0858 38.9631 29.671 39.1705 29.671C39.4608 29.671 39.4193 30.5421 39.6267 30.5421C39.8756 30.5421 39.7926 29.2563 39.8756 28.9244C40.0415 28.3438 40.4563 27.7631 40.8295 27.7631C41.2858 27.7631 41.3273 28.5511 41.3273 28.9244C41.3273 29.671 40.7881 30.4591 40.7881 30.8324C40.7881 30.8739 40.8295 30.9153 40.871 30.9153C41.0369 30.9153 41.4102 30.4176 41.6176 30.4176C41.825 30.4176 42.2813 31.2472 42.4472 31.2472C42.5301 31.2472 42.5716 31.1642 42.5716 31.0813C42.5716 30.8324 42.4472 30.4176 42.4472 30.1688C42.4472 29.8784 43.4011 30.0443 43.4011 29.8369C43.4011 29.754 42.9864 29.5881 42.7375 29.4222C42.1983 29.0903 41.5761 28.3852 41.5761 27.8046C41.5761 27.5972 41.7006 27.4313 41.8665 27.4313C43.0278 27.4313 43.5256 29.2148 43.733 29.2148C43.9403 29.2148 43.8159 28.4267 43.8989 28.3023C43.9403 28.2608 44.0648 28.2193 44.1892 28.2193C44.3966 28.2193 44.6455 28.2608 44.8114 28.2608C44.9358 28.2608 44.9773 28.2608 44.9773 28.2193C44.9358 27.9705 44.0233 27.6801 44.0233 27.4313Z" fill="white"/>
<path fill-rule="evenodd" clip-rule="evenodd" d="M39.4194 26.9336C39.4194 26.5603 37.8017 25.316 37.4699 25.316C37.387 25.316 37.3455 25.3574 37.3455 25.4404C37.3455 25.5648 37.387 25.7307 37.387 25.8552C37.387 26.1455 37.2625 26.187 36.9722 26.187C36.6404 26.187 36.1012 26.0625 36.1012 25.5233C36.1012 24.4864 38.0921 24.7353 38.2995 23.7813C37.4284 23.7813 37.0137 23.2006 36.433 23.2006C36.2256 23.2006 35.8108 23.325 35.8108 23.8642C35.8108 24.0302 35.8523 24.3205 35.8523 24.5694C35.8523 24.8182 35.8108 24.9841 35.5205 24.9841C35.2716 24.9841 35.2301 24.6938 35.2301 24.362C35.2301 24.0716 35.2716 23.7398 35.2716 23.5324C35.2716 21.9978 33.5711 22.6199 33.4051 21.3756C32.9904 22.1222 32.8659 22.6614 32.8659 23.1177C32.8659 24.7353 35.0642 24.5694 35.0642 25.6892C35.0642 25.9796 34.8569 26.1455 34.6495 26.1455C34.2762 26.1455 34.0273 25.3574 33.4466 25.3574C33.1563 25.3574 32.9489 25.5648 32.9489 26.0211C32.9489 26.3529 33.0319 26.6017 33.0319 26.9336C33.0319 27.5972 32.7415 27.8875 32.4512 28.1779C34.4421 28.012 34.5665 26.5188 35.1472 26.5188C35.3131 26.5188 35.3961 26.6432 35.3961 26.7262C35.3961 26.975 34.9813 27.3898 34.9813 27.8046C34.9813 28.3438 35.6034 28.6341 36.0182 28.6341C36.5159 28.6341 36.6819 28.4682 36.6819 28.1364C36.6819 27.7631 36.0182 27.2654 36.0182 26.8506C36.0182 26.6432 36.2256 26.6017 36.5159 26.6017C37.1381 26.6017 37.3455 26.6847 37.3455 26.8091C37.3455 26.975 37.0966 27.3069 37.0966 27.3898C37.0966 27.4313 37.1381 27.5557 37.2625 27.5557C37.7188 27.6387 39.4194 27.2654 39.4194 26.9336Z" fill="white"/>
<path fill-rule="evenodd" clip-rule="evenodd" d="M18.4707 21.3341C18.1803 21.8733 18.0974 22.5784 18.0974 22.9932C18.0974 25.5233 21.1252 27.8875 21.1252 29.4637C21.1252 30.0858 20.669 30.8324 19.8394 30.8324C19.0928 30.8324 18.6781 30.2517 18.6781 29.754C18.6781 29.3807 18.9269 29.0489 19.0513 29.0489C19.0928 29.0489 19.0928 29.0904 19.0928 29.1733C19.0928 29.3807 19.2587 29.671 19.5906 29.6296C19.9224 29.6296 20.0883 29.4222 20.0883 29.1318C20.0883 27.8875 17.5996 25.7307 17.5996 22.7858C17.4752 23.1176 17.3093 23.5324 17.3093 24.1546C17.3093 25.5648 18.3462 27.058 18.3462 28.4267C18.3462 28.9659 17.9315 29.4637 17.3923 29.4637C16.7701 29.4637 16.5627 28.9659 16.5627 28.6756C16.5627 28.4682 16.6457 28.2608 16.7286 28.2608C16.8116 28.2608 16.7701 28.5926 17.1019 28.5926C17.4752 28.5926 17.5996 28.3438 17.5996 27.8875C17.5996 26.6432 16.8945 25.7722 16.8945 24.4864C16.8945 24.279 16.8945 24.0716 16.936 23.9057C16.5627 24.3619 16.5212 25.0256 16.5212 25.6063V27.1409C16.5212 28.1779 16.0235 28.6341 15.4013 28.6341C14.9866 28.6341 14.6133 28.3023 14.6133 27.7631C14.6133 27.6801 14.6548 27.4313 14.7377 27.4313C14.8621 27.4313 14.9451 27.7631 15.2769 27.7631C15.9406 27.7631 15.982 27.1409 15.982 25.8551C15.8991 24.279 16.4798 22.5784 18.4707 21.3341Z" fill="white"/>
<path fill-rule="evenodd" clip-rule="evenodd" d="M14.3659 20.5875C14.5733 20.5875 14.6563 20.7949 14.6563 20.9608C14.6563 21.6659 13.7438 23.7398 13.7438 24.3205C13.7438 24.4034 13.7852 24.4864 13.8682 24.4864C14.2415 24.4864 14.9881 22.8688 15.2369 22.0807C15.3614 21.6659 15.5688 21.4585 15.7347 21.4585C15.9006 21.4585 16.025 21.6245 16.025 21.9563C16.025 22.7443 15.2784 24.6523 14.6148 25.8966C14.117 26.8921 13.2875 28.3023 13.2875 29.0904C13.2875 29.5051 13.3705 29.9199 13.9511 30.4176C12.9972 30.3762 12.5824 30.2517 12.2091 29.5466C10.5915 32.6989 15.1955 32.4085 13.6193 35.229C13.329 34.7313 11.0477 34.1921 11.0477 31.2472C11.0477 28.7171 13.329 27.2239 13.329 26.1455C13.329 25.9381 13.246 25.7722 13.0386 25.6063C12.5409 25.1915 12.5409 24.8597 12.1261 24.8597C11.8358 24.8597 11.504 25.5233 11.8358 26.104C11.9602 26.3114 12.0432 26.4358 12.0432 26.6017C12.0432 27.0165 11.3795 28.1364 10.9233 28.1364C10.467 28.1364 10.0938 26.975 10.0938 25.15C10.0938 23.5324 10.467 21.8733 10.9233 21.8733C11.0477 21.8733 11.0892 21.9563 11.0892 22.0807C11.0892 22.2881 11.0477 22.6614 11.0477 23.325C11.0477 24.0301 11.2136 24.0716 11.3381 24.0716C11.8358 24.0716 11.7528 20.9608 12.5824 20.9608C12.7898 20.9608 12.8312 21.1682 12.8312 21.3756C12.8312 22.0807 12.4994 23.1176 12.4994 23.6568C12.4994 23.9472 12.5824 24.0301 12.7068 24.0301C13.1216 23.9887 13.7438 20.5875 14.3659 20.5875Z" fill="white"/>
<path fill-rule="evenodd" clip-rule="evenodd" d="M48.0882 24.6523C47.3831 24.6523 47.0098 25.8966 46.3047 25.9381C46.7195 24.1546 48.503 23.2006 48.503 21.5415C48.503 19.6336 46.9268 18.9699 46.2632 18.5552C45.1848 16.979 44.3967 15.7347 42.6132 15.7347C41.8666 15.7347 41.3689 15.8591 40.8712 15.8591C39.8757 15.8591 39.5439 15.4858 39.5024 15.4858C39.5024 15.4858 39.4609 15.4858 39.4609 15.5688C39.4609 16.979 40.2075 20.1313 43.3598 20.1313C45.0604 20.1313 45.7655 19.4677 46.1803 19.4677C46.595 19.4677 47.9638 19.9239 47.9638 21.5415C47.9638 22.4125 47.2587 23.325 47.0098 23.325C46.7609 23.325 46.5121 22.9103 46.5121 22.4955C46.5121 22.0392 46.7609 21.1682 46.7609 20.629C46.7609 20.4216 46.7195 20.3387 46.595 20.3387C46.3462 20.3387 45.0604 21.1682 45.0604 22.1637C45.0604 23.0347 46.3462 23.5739 46.8439 23.8228C46.3462 24.6108 46.0558 25.15 45.8484 25.8966C45.8484 25.316 45.3092 24.1961 45.1433 23.6983C44.3553 21.4586 44.0649 21.0438 42.3643 20.8364C42.6132 21.7489 45.5166 23.9057 45.5166 26.104C45.5166 26.2285 45.5166 26.4358 45.4751 26.5188C44.6041 23.9472 43.1109 23.325 42.5717 22.7029C41.7007 21.7074 42.1984 20.7535 40.7882 20.2142C40.8712 20.3387 40.9126 20.5046 40.9126 20.629C40.9126 21.1267 40.6638 21.7074 40.6638 22.1222C40.6638 23.6983 42.4473 23.2006 43.5257 24.0716C44.5626 24.9012 45.1433 26.2699 45.5581 27.8046C45.9729 27.141 46.2217 26.3114 46.9268 26.3114C47.3831 26.3114 47.549 26.8921 47.549 27.3483V27.5557C48.2541 26.9336 48.6274 25.9381 48.6274 25.2745C48.5859 24.9427 48.42 24.6523 48.0882 24.6523ZM45.2678 18.804C45.1018 18.804 44.853 18.7211 44.6456 18.7211C44.1479 18.7211 43.7746 19.4262 43.5257 19.4262C43.4428 19.4262 43.4013 19.3432 43.4013 19.2603C43.4013 18.9699 43.899 18.6381 43.899 18.4307C43.899 18.3063 43.6916 18.2648 43.6087 18.2648C43.1109 18.2648 42.4058 18.9699 41.991 18.9699C41.9081 18.9699 41.8251 18.9285 41.8251 18.8455C41.8251 18.6381 42.3643 18.3892 42.3643 18.1819C42.3643 17.9745 42.157 17.9745 41.991 17.9745C41.7422 17.9745 41.2445 18.0989 40.9541 18.0989C40.7882 18.0989 40.6638 18.0574 40.6638 17.933C40.6638 17.6427 41.6178 17.8086 41.6178 17.4768C41.6178 17.3108 41.3274 16.979 41.3274 16.8131C41.3274 16.7302 41.4104 16.6887 41.4933 16.6887C41.8251 16.6887 42.1984 17.6427 42.5717 17.6427C42.7376 17.6427 42.7791 17.5182 42.7791 17.3108C42.7791 17.1035 42.7376 17.0205 42.7376 16.8546C42.7376 16.6887 42.8206 16.6472 42.8621 16.6472C43.1109 16.6472 43.3183 17.9745 44.0234 17.9745C44.3138 17.9745 44.1064 17.1449 44.3967 17.1449C44.5626 17.1449 44.6041 17.3938 44.6041 17.5182C44.6871 18.3892 45.4751 18.4307 45.4751 18.7625C45.4337 18.7211 45.3922 18.804 45.2678 18.804Z" fill="white"/>
<path fill-rule="evenodd" clip-rule="evenodd" d="M35.3543 16.8545C35.6861 16.8545 35.935 17.1034 35.935 17.3937C35.935 17.6841 35.6861 17.9329 35.3543 17.9329C35.064 17.9329 34.7736 17.6841 34.7736 17.3937C34.7736 17.1034 35.064 16.8545 35.3543 16.8545ZM39.1702 22.0807C38.8799 22.0807 38.5896 22.3295 38.5896 22.6199C38.5896 22.9517 38.8799 23.1591 39.1702 23.1591C39.5021 23.1591 39.7509 22.9102 39.7509 22.5784C39.7509 22.2881 39.5021 22.0807 39.1702 22.0807ZM37.2623 21.0437C36.6816 21.0437 36.2254 21.5 36.2254 22.0392C36.2254 22.5784 36.6816 23.0346 37.2623 23.0346C37.843 23.0346 38.2992 22.5784 38.2992 22.0392C38.2992 21.5 37.843 21.0437 37.2623 21.0437ZM35.4373 20.5875C35.1055 20.5875 34.8566 20.8363 34.8566 21.1682C34.8566 21.5 35.1469 21.7488 35.4373 21.7488C35.7691 21.7488 36.018 21.5 36.018 21.1682C36.018 20.8363 35.7691 20.5875 35.4373 20.5875ZM39.0873 21.5C39.4606 21.5 39.7924 21.2096 39.7924 20.8363C39.7924 20.4631 39.4606 20.1727 39.0873 20.1727C38.714 20.1727 38.3822 20.4631 38.3822 20.8363C38.3822 21.1682 38.714 21.5 39.0873 21.5ZM33.6952 19.3846C33.239 19.3846 32.8242 19.7579 32.8242 20.2142C32.8242 20.6704 33.1975 21.0437 33.6952 21.0437C34.1515 21.0437 34.5663 20.6704 34.5663 20.2142C34.5248 19.7579 34.1515 19.3846 33.6952 19.3846ZM36.806 20.0068C36.806 20.3386 37.0549 20.5875 37.3867 20.5875C37.7185 20.5875 37.9674 20.3386 37.9674 20.0068C37.9674 19.675 37.7185 19.4261 37.3867 19.4261C37.0549 19.4261 36.806 19.7165 36.806 20.0068ZM35.6447 20.1727C36.1424 20.1727 36.5572 19.7994 36.5572 19.3017C36.5572 18.804 36.1424 18.4307 35.6447 18.4307C35.1469 18.4307 34.7322 18.804 34.7322 19.3017C34.7322 19.7579 35.1055 20.1727 35.6447 20.1727ZM38.9629 19.592C39.2947 19.592 39.585 19.3017 39.585 18.9699C39.585 18.6381 39.2947 18.3477 38.9629 18.3892C38.631 18.3892 38.3407 18.6795 38.3407 19.0113C38.3407 19.3432 38.631 19.592 38.9629 19.592ZM33.9441 18.7625C34.2759 18.7625 34.5248 18.5136 34.5248 18.1818C34.5248 17.85 34.2759 17.6011 33.9441 17.6011C33.6123 17.6011 33.3634 17.85 33.3634 18.1818C33.3219 18.5136 33.6123 18.7625 33.9441 18.7625ZM37.3452 18.721C37.8844 18.721 38.2992 18.3062 38.2992 17.8085C38.2992 17.3108 37.8844 16.896 37.3452 16.896C36.806 16.896 36.3913 17.3108 36.3913 17.8085C36.3913 18.3062 36.806 18.721 37.3452 18.721ZM38.0504 16.5642C38.3822 16.5642 38.631 16.3153 38.631 16.025C38.631 15.7346 38.3822 15.4858 38.0504 15.4858C37.7185 15.4858 37.4697 15.7346 37.4697 16.025C37.5111 16.3568 37.76 16.5642 38.0504 16.5642Z" fill="white"/>
<path fill-rule="evenodd" clip-rule="evenodd" d="M21.2934 17.3108C21.6667 17.3108 22.3304 17.933 22.4963 18.5966C22.4133 18.5966 22.3304 18.5551 22.2889 18.5551C21.7912 18.5551 21.5423 19.0114 21.169 19.7994C22.04 19.2188 22.8281 18.7625 23.7406 18.7625C24.5287 18.7625 25.1508 19.2188 25.1508 19.9239C25.1508 20.2142 24.9849 20.546 24.819 20.8779C24.6946 20.2142 24.1554 19.9239 23.2014 19.9239C22.6622 19.9239 21.9985 20.0068 21.4593 20.2142C23.1599 20.4631 23.4088 21.0438 23.4088 21.583C23.4088 22.4955 22.4548 22.9517 21.8326 23.2421C21.8741 22.9932 21.9571 22.7029 21.9571 22.4125C21.9571 21.8733 21.7497 21.2097 20.8787 20.629C20.7542 21.2097 20.2565 21.583 20.2565 22.0392C20.2565 22.2051 20.3809 22.2881 20.4639 22.2881C20.4639 22.5369 20.3395 23.2835 20.3395 23.4909C20.3395 23.8642 20.4224 23.9472 20.6298 23.9886C20.7542 24.3205 20.7542 24.9011 20.8372 25.1915C20.8787 25.3574 21.0031 25.3989 21.1275 25.3989C21.252 25.6892 21.4179 26.1455 21.6667 26.3114C21.7082 26.3529 21.7912 26.4773 21.7912 26.5602C21.7912 26.8091 21.3764 27.0994 21.1275 27.0994C21.0446 27.0994 20.9201 27.058 20.7957 26.7676C20.7127 26.5602 19.9662 26.104 19.9247 25.8551C19.9662 25.8136 20.0076 25.7307 20.0076 25.6063C20.0076 25.1915 19.344 24.7352 19.344 24.0716C19.427 24.0301 19.5099 23.9057 19.5099 23.7813C19.5099 23.408 19.1366 22.7029 19.1366 22.2051C19.3025 22.2051 19.3855 22.2051 19.3855 21.9563C19.427 21.4585 19.5099 20.7534 19.9662 20.3386C19.8417 20.3386 19.7173 20.2972 19.5514 20.2972C18.6389 20.2972 17.2701 20.7949 16.7309 21.9563C16.6895 21.7904 16.6895 21.6244 16.6895 21.4585C16.6895 20.5046 17.2701 19.8824 17.7264 19.675C17.9338 19.5921 18.2241 19.5506 18.5145 19.5506C19.0122 19.5506 19.5514 19.6335 20.1321 19.758C19.6343 19.0943 18.8463 18.6381 18.1826 18.6381C17.8923 18.6381 17.6434 18.721 17.5605 18.9699C17.519 18.8455 17.519 18.6381 17.519 18.4722C17.519 17.7671 17.7679 17.3523 18.39 17.3523C19.3025 17.3523 20.1321 18.4307 20.5883 19.4261V19.3017C20.5883 17.8915 20.6298 17.1864 21.2105 17.1449L21.2934 17.3108Z" fill="white"/>
<path fill-rule="evenodd" clip-rule="evenodd" d="M9.76172 19.675C9.76172 20.7949 10.135 21.3341 10.7572 21.3341C11.2549 21.3341 11.9185 21.0023 12.7066 20.3387C12.0844 20.4631 11.6282 20.546 11.2134 20.546C10.6742 20.546 10.218 20.3387 9.76172 19.675ZM14.0754 18.1404C13.7021 18.2233 12.9969 18.6381 12.9969 19.3847C12.9969 19.9239 13.4117 20.2557 13.9509 20.2557C14.2413 20.2557 14.4487 20.2142 14.5731 20.0898C14.1583 19.675 13.9924 19.2603 13.9924 18.804C13.9924 18.5137 14.0339 18.3063 14.0754 18.1404ZM15.3611 16.9375C15.0293 17.3108 14.656 17.9745 14.656 18.6381C14.656 19.4262 15.1538 20.0898 15.9418 20.0898C16.6884 20.0898 17.0617 19.4676 17.0617 18.8455C17.1032 17.85 16.1492 17.1449 15.3611 16.9375ZM10.3009 18.3478V18.5551C10.3009 19.2603 10.6742 19.6335 11.2134 19.6335C11.5867 19.6335 12.043 19.4262 12.4577 18.9284C12.2918 18.9699 12.0844 18.9699 11.9185 18.9699C11.2964 19.0114 10.6742 18.8455 10.3009 18.3478ZM13.3702 14.5318C12.8725 14.5318 12.2504 14.5733 11.5867 14.9881C10.2594 15.8176 10.4254 17.1449 10.218 17.5182C10.1765 17.5597 10.1765 17.6012 10.1765 17.6841C10.1765 17.8086 10.3424 17.9745 10.4668 17.9745C10.5913 17.9745 10.6742 17.933 10.7157 17.933C11.089 17.933 11.5038 18.1818 12.1259 18.1818C12.4992 18.1818 12.914 18.0574 13.4117 17.8085C14.5316 17.2693 14.9464 15.9421 14.9464 15.7347C14.9464 15.4443 14.6975 15.4858 14.5316 15.237C14.3242 14.9881 14.4072 14.7392 14.2827 14.6148C14.1998 14.5318 13.9924 14.5318 13.7021 14.5318H13.3702ZM12.4577 17.4767C11.96 17.4767 11.3793 16.8546 11.3793 16.3154C11.3793 16.025 11.6282 15.6517 11.7941 15.6517C11.8356 15.6517 11.8771 15.6932 11.9185 15.8176C12.0015 16.5228 12.4992 16.9375 12.9555 17.1449C12.9969 17.1864 13.0384 17.1864 13.0384 17.2279C12.9969 17.3523 12.7066 17.4767 12.4577 17.4767ZM14.2827 16.108C14.2827 16.3154 14.1583 16.5642 13.9094 16.5642C13.3702 16.5642 12.9555 15.7762 12.914 15.3199C12.914 15.0296 13.0799 15.0296 13.3288 15.0296C13.4532 15.0296 13.4947 15.0296 13.5776 15.0711C13.7021 15.154 13.7021 15.4443 13.868 15.6517C13.9924 15.8176 14.2827 15.9836 14.2827 16.108ZM15.4441 15.4443C15.4441 15.7762 15.7344 16.025 16.0663 16.025C16.3981 16.025 16.6884 15.7762 16.6884 15.4443C16.6884 15.1125 16.3981 14.8637 16.0663 14.8637C15.7344 14.8222 15.4441 15.1125 15.4441 15.4443ZM15.2367 14.6978C15.5685 14.6978 15.8589 14.4489 15.8589 14.1171C15.8589 13.7853 15.5685 13.5364 15.2367 13.5364C14.9049 13.5364 14.6146 13.7853 14.6146 14.1171C14.656 14.4074 14.9049 14.6978 15.2367 14.6978ZM11.0475 14.4074C11.5867 14.4074 12.043 14.0756 12.043 14.0756C11.1305 13.8267 10.6327 13.2046 10.6327 12.3336V12.0847C10.0521 12.3336 9.8032 12.7898 9.8032 13.2461C9.84467 13.9512 10.3839 14.4074 11.0475 14.4074ZM13.7435 13.7438C13.8265 13.4949 13.868 13.2046 13.868 12.8728C13.868 12.1676 13.5361 11.0892 12.4577 11.0892C11.8356 11.0892 11.4208 11.5455 11.4208 12.0847C11.4623 13.2875 12.7066 13.7438 13.7435 13.7438Z" fill="white"/>
<path fill-rule="evenodd" clip-rule="evenodd" d="M47.8358 13.3705C47.1722 14.6977 45.5131 14.9881 44.9739 14.9051C45.1398 16.2739 47.1722 18.0989 47.7114 18.0574C48.0847 18.0159 48.2091 16.2739 48.2091 14.9051C48.2091 14.117 48.2506 13.4949 47.8358 13.3705ZM47.8773 12.0847C47.8773 11.5869 47.6699 11.2136 47.0892 11.1307C47.1722 11.2551 47.2137 11.3795 47.2137 11.5869C47.2137 12.375 46.0523 13.246 44.7665 13.246C44.3103 13.246 44.1444 13.5778 44.1858 13.7437C44.1858 14.1585 44.5591 14.3244 45.0983 14.3244C46.55 14.2829 47.8773 13.1216 47.8773 12.0847Z" fill="white"/>
<path fill-rule="evenodd" clip-rule="evenodd" d="M44.7669 12.7068C45.3476 12.7068 46.5919 12.2091 46.5919 11.5454C46.5919 11.3381 46.509 11.1307 46.1772 11.1307C45.7209 11.1307 45.0988 11.5869 44.4766 11.5869C44.2692 11.5869 44.0203 11.5869 43.7715 11.504C44.0203 11.6699 43.9789 12.0847 44.1033 12.375C44.3107 12.7068 44.5596 12.7068 44.7669 12.7068Z" fill="white"/>
<path fill-rule="evenodd" clip-rule="evenodd" d="M36.9695 13.0386C36.9695 14.3659 36.057 14.9051 35.2275 14.9051C35.0201 14.9051 34.8542 14.8636 34.6883 14.7807C34.8542 14.6148 35.0201 14.3659 35.0201 14.2C35.0201 14.0756 34.9371 14.0341 34.8127 14.0341C34.7298 14.0341 34.5224 14.0756 34.3565 14.0756C33.9417 14.0756 33.6099 13.9097 33.2366 13.5364C32.9877 13.9097 32.8633 14.4074 32.8633 14.9051C32.8633 15.6932 33.1536 16.4812 33.4854 16.5227C33.6513 16.5227 33.6513 15.9835 33.9417 15.9835C34.0246 15.9835 34.3565 16.2324 35.0616 16.2324C36.0985 16.2324 37.2599 15.6102 37.2599 13.9926C37.2184 13.7852 37.1354 13.2875 36.9695 13.0386Z" fill="white"/>
<path fill-rule="evenodd" clip-rule="evenodd" d="M34.6046 12.2091C34.812 12.2091 35.2268 12.292 35.3512 12.4994C35.1853 12.5824 35.0194 12.7898 35.0194 12.9557C35.0194 13.0386 35.0609 13.1216 35.1438 13.1631C35.5171 13.329 35.7245 13.6193 35.8489 13.8682C36.5126 13.4949 36.7614 12.4579 36.7614 11.8773C36.7614 11.7114 36.7614 11.4625 36.5955 11.4625C36.4711 11.4625 36.3467 11.6284 36.1808 11.6284C36.0563 11.6284 35.683 11.1307 34.7705 11.1307C33.7336 11.1307 33.2773 11.9187 33.2773 12.5824C33.2773 12.7483 33.3188 12.9557 33.3603 13.0801C33.5677 12.6653 33.9825 12.2091 34.6046 12.2091Z" fill="white"/>
<path fill-rule="evenodd" clip-rule="evenodd" d="M24.1129 13.0802C23.3663 13.0802 22.7027 13.7023 22.205 14.5319C22.2464 14.366 22.2464 14.2 22.2464 14.0341C22.2464 12.8728 21.6243 11.8773 20.5044 11.8773C19.5919 11.8773 18.7209 12.4165 18.3891 13.4949C18.472 13.412 18.8038 13.2046 19.0527 13.2046C19.343 13.2046 19.426 13.4535 19.426 13.8682C19.426 14.1171 19.3845 14.4489 19.2601 14.7392C19.0942 15.237 18.7624 15.3614 18.5964 15.3614C17.8913 15.3614 18.2232 14.1586 17.8499 14.1586C17.5595 14.1586 17.4766 14.8222 17.4766 15.0711C17.4766 15.9006 18.0158 16.7716 19.2186 16.7716C20.5044 16.7716 21.2095 16.1495 21.9561 15.3614C22.122 16.2324 22.5783 17.7671 23.8641 17.7671C24.5692 17.7671 25.0669 17.1864 25.1084 16.4813C25.0254 16.5642 24.901 16.6472 24.7351 16.6472C24.4862 16.6472 24.4033 16.2739 24.4033 15.9421C24.4033 15.4029 24.5692 14.8222 24.818 14.8222C24.9425 14.8222 25.0254 14.9052 25.0669 15.3199C25.1084 15.6103 25.0669 15.9836 25.2743 15.9836C25.4817 15.9836 25.5646 15.3614 25.5646 14.9881C25.5232 13.9097 25.0669 13.0387 24.1129 13.0802ZM19.8408 15.9006C19.7163 15.9006 19.6749 15.7762 19.6749 15.6932C19.6749 15.1125 20.297 12.541 20.7533 12.541C20.8362 12.541 20.8777 12.6239 20.8777 12.7483C20.8777 13.2046 20.3385 15.9006 19.8408 15.9006ZM21.7487 14.7807C21.3754 15.1955 21.168 15.4029 21.0021 15.4029C20.9192 15.4029 20.8362 15.237 20.8362 15.0711C20.8362 14.7807 21.0436 13.5779 21.4999 13.5779C21.6658 13.5779 21.7902 13.9097 21.7902 14.2C21.7902 14.4489 21.7902 14.6148 21.7487 14.7807ZM22.6197 15.8177C22.4953 15.8177 22.3709 15.5688 22.3709 15.0711C22.6197 14.6563 22.7442 14.4904 22.9101 14.4904C22.9516 14.4904 23.0345 14.5319 23.0345 14.7807C22.993 15.3199 22.7857 15.8177 22.6197 15.8177ZM23.3663 16.6887C23.2834 16.6887 23.2004 16.5643 23.2004 16.2324C23.2004 15.4444 23.6982 13.9927 23.9885 13.9927C24.0714 13.9927 24.1129 14.2 24.1129 14.4074C24.1544 15.2785 23.7396 16.6887 23.3663 16.6887Z" fill="white"/>
<path fill-rule="evenodd" clip-rule="evenodd" d="M42.4044 11.3795C42.1141 11.3795 41.6578 11.7113 41.326 11.7113C40.8697 11.7113 40.9942 11.0892 40.4964 11.0892C40.372 11.0892 40.2476 11.1306 40.1231 11.2136C39.0862 11.7528 38.2567 11.5454 38.0908 11.6699C38.0493 11.7113 38.0078 11.7113 38.0078 11.8358C38.0078 12.9971 39.1692 14.7392 41.0771 14.7392C42.4044 14.7392 43.4828 14.2829 43.4828 13.4949C43.4413 12.8312 42.8192 11.3795 42.4044 11.3795ZM41.2016 13.6193C40.1232 13.6193 39.4595 12.9971 39.4595 12.6238C39.4595 12.5824 39.501 12.5409 39.5425 12.5409C39.7084 12.5409 40.1646 12.7897 40.7868 12.8727C41.4919 12.9971 41.8652 12.9971 42.0726 12.9971C42.28 12.9971 42.3629 13.0386 42.3629 13.1216C42.3214 13.3289 41.8237 13.6193 41.2016 13.6193Z" fill="white"/>
<path fill-rule="evenodd" clip-rule="evenodd" d="M48.2112 4.41137C47.4646 4.41137 47.3816 4.20398 46.8839 4.20398C46.3032 4.20398 45.8885 4.61875 45.8885 5.24091C45.8885 5.4483 45.9714 5.78012 45.9714 6.19489C45.9714 6.69262 45.8885 7.19034 45.4322 7.19034C45.0174 7.19034 44.8515 6.9 44.8515 6.56818C44.8515 5.9875 45.1419 5.57273 45.1419 5.19943C45.1419 4.49432 44.3123 4.28693 43.3998 4.28693C42.3214 4.28693 41.16 4.57727 41.16 4.74318C41.16 4.99205 42.6947 4.82614 43.8146 6.27784C43.1095 6.27784 41.7407 6.60966 41.7407 6.81705C41.7407 7.06591 44.2294 7.31477 44.2294 8.35171C44.2294 9.01534 43.6902 9.0983 43.4828 9.0983C42.6532 9.0983 42.2385 8.22727 42.0311 8.22727C41.9896 8.22727 41.9066 8.26875 41.9066 8.35171C41.9066 8.47614 42.0311 8.84943 42.0311 9.22273C42.0311 10.1767 40.9941 10.2597 40.9941 10.467C40.9941 10.55 41.0356 10.55 41.16 10.5915C41.9066 10.7159 42.6947 10.7574 43.3998 10.7574C46.0544 10.7574 48.1697 9.92784 48.1697 7.60512C48.1697 6.31932 47.7549 5.90455 47.7549 5.28239C47.672 5.075 47.8379 4.61875 48.2112 4.41137ZM44.5197 9.47159H43.9805C45.6811 9.18125 46.6351 8.1858 46.6351 6.85853C47.0083 6.98296 47.2572 7.35625 47.2572 7.77103C47.2157 8.55909 46.5106 9.47159 44.5197 9.47159ZM46.8839 5.4483C46.6765 5.4483 46.5106 5.28239 46.5106 5.075C46.5106 4.86762 46.6765 4.70171 46.8839 4.70171C47.0913 4.70171 47.2572 4.86762 47.2572 5.075C47.2572 5.28239 47.0913 5.4483 46.8839 5.4483Z" fill="white"/>
<path fill-rule="evenodd" clip-rule="evenodd" d="M37.8825 3.91364C36.887 3.91364 36.1404 4.41137 35.7257 4.41137C35.4768 4.41137 35.145 3.83069 34.9376 3.83069C34.8547 3.83069 34.7717 3.9966 34.7717 4.24546V4.32841C34.7717 4.5358 34.7302 4.9091 34.6058 4.9091C34.2325 4.9091 32.8223 3.91364 32.8223 4.24546C32.8223 4.57728 33.7762 5.61421 33.7762 5.86307C33.7762 6.11194 32.8637 6.3608 32.8637 6.56819C32.8637 6.90001 33.8592 6.94148 33.8592 7.35626C33.8592 7.77103 32.8223 8.10285 32.8223 8.39319C32.8223 8.64205 33.8592 8.47614 33.8592 8.76648C33.8592 9.05682 33.1126 10.0938 33.1126 10.3841C33.1126 10.4671 33.1126 10.4671 33.1956 10.4671C33.4859 10.4671 34.3569 9.51307 34.5643 9.51307C34.8132 9.51307 34.8547 10.0938 34.8961 10.4256C34.9376 10.5915 34.9376 10.633 35.0206 10.633C35.1865 10.633 35.4768 9.96932 35.6842 9.96932C35.9745 9.96932 36.7211 10.7574 38.0069 10.7574C39.8319 10.7574 41.5325 9.51307 41.5325 7.31478C41.574 5.15796 39.9978 3.91364 37.8825 3.91364ZM35.3524 8.64205C35.3109 8.64205 35.2694 8.60057 35.2694 8.51762L35.2279 7.93694C35.2279 7.89546 35.1865 7.81251 35.1035 7.81251H34.4814C34.3984 7.81251 34.3569 7.81251 34.3569 7.77103C34.3569 7.6466 34.9791 7.23182 34.9791 7.14887C34.9791 6.98296 34.3984 6.69262 34.3984 6.48523C34.3984 6.44376 34.4399 6.44376 34.4814 6.44376C34.6473 6.44376 34.9376 6.48523 35.145 6.48523C35.3524 6.48523 35.3524 5.65569 35.5183 5.65569C35.6427 5.65569 35.8086 6.44376 35.9745 6.44376C36.1819 6.44376 36.5137 6.23637 36.6796 6.23637C36.7211 6.23637 36.7211 6.23637 36.7211 6.27785C36.7211 6.3608 36.3478 6.77557 36.3478 6.90001C36.3478 7.02444 37.1774 7.19035 37.1774 7.31478C37.1774 7.48069 36.3064 7.43921 36.3064 7.56364C36.3064 7.6466 36.6382 8.06137 36.6382 8.22728C36.6382 8.26876 36.6382 8.26876 36.5967 8.26876C36.4723 8.26876 36.016 8.06137 35.8916 8.06137C35.7257 8.06137 35.4768 8.64205 35.3524 8.64205ZM37.924 9.92785C36.887 9.92785 36.1819 9.43012 36.1819 9.13978C36.1819 9.01535 36.2649 8.93239 36.3893 8.93239C36.7211 8.93239 37.4262 9.43012 37.6751 9.43012C37.7166 9.43012 37.7995 9.38864 37.7995 9.30569C37.7995 9.05682 37.5507 8.60057 37.5507 8.39319C37.5507 8.35171 37.5921 8.31023 37.6751 8.31023C38.0899 8.31023 38.6706 8.47614 39.0024 8.47614C39.1268 8.47614 39.1268 8.43466 39.1268 8.35171C39.1268 8.01989 38.1314 7.39773 38.1314 7.19035C38.1314 7.02444 39.3342 6.7341 39.3342 6.48523C39.3342 6.19489 37.6751 6.40228 37.6751 6.11194C37.6751 5.90455 38.0069 5.57273 38.0069 5.40682C38.0069 5.32387 37.9654 5.32387 37.841 5.32387C37.7166 5.32387 36.97 5.61421 36.6796 5.61421C36.5137 5.61421 36.3478 5.57273 36.3478 5.36535C36.3478 5.03353 36.9285 4.66023 37.841 4.66023C39.3342 4.66023 40.2052 5.65569 40.2052 7.31478C40.2467 9.38864 38.7535 9.92785 37.924 9.92785Z" fill="white"/>
<path fill-rule="evenodd" clip-rule="evenodd" d="M22.1651 8.14432C22.7458 8.14432 24.4879 8.93239 25.2759 8.93239C25.5663 8.93239 25.7322 8.76648 25.7322 8.60057C25.7322 7.68807 23.285 6.07045 23.2435 5.40682C23.2435 5.32386 23.285 5.28239 23.3265 5.24091C23.7413 4.78466 25.4833 4.49432 25.4833 4.12102C25.4833 3.91364 25.11 3.91364 24.9441 3.91364C23.5339 3.91364 21.5015 4.41136 21.5015 4.90909C21.5015 5.40682 23.3265 6.65114 23.3265 7.2733C23.3265 7.4392 23.2021 7.48068 23.0361 7.48068C22.5384 7.48068 21.4185 6.85852 20.8793 6.85852C20.6305 6.85852 20.5475 7.02443 20.5475 7.2733C20.5475 7.97841 21.4185 9.34716 21.4185 9.76193C21.4185 9.80341 21.4185 9.88636 21.3356 9.88636C21.0452 9.88636 19.8009 8.39318 19.3447 8.39318C19.1788 8.39318 19.1788 8.60057 19.1788 8.93239V9.43011C19.1788 9.76193 19.1788 9.96932 19.0129 9.96932C18.6396 9.96932 18.4322 8.89091 18.0589 8.89091C17.6856 8.89091 17.6026 10.8403 17.2293 10.8403C16.7731 10.8403 17.1464 8.725 16.7316 8.725C16.2754 8.725 15.7362 10.1352 15.4043 10.1352C15.2799 10.1352 15.2384 10.0108 15.2384 9.92784C15.2384 9.51307 15.4873 8.80795 15.4873 8.39318C15.4873 8.1858 15.4458 8.06136 15.2384 8.06136C14.7822 8.06136 13.7452 8.80795 13.3719 8.80795C13.3305 8.80795 13.2475 8.76648 13.2475 8.725C13.2475 8.3517 14.9066 7.23182 14.9066 6.73409C14.9066 6.23636 12.6254 6.56818 12.6254 5.9875C12.6254 5.53125 14.243 5.03352 14.243 4.53579C14.243 4.12102 12.335 3.91364 11.5884 3.91364C10.7174 3.91364 10.2197 4.03807 10.2197 4.28693C10.2197 4.66023 12.2521 4.78466 12.2521 5.11648C12.2521 5.4483 10.1367 6.31932 10.1367 6.81704C10.1367 7.27329 13.0816 6.85852 13.0816 7.31477C13.0816 7.8125 10.51 10.0108 10.51 10.7574C10.51 10.9233 10.6344 11.0063 10.8004 11.0063C11.5884 11.0063 13.6208 9.51307 14.16 9.51307C14.3674 9.51307 14.3674 9.76193 14.3674 9.96932C14.3674 10.3426 14.243 10.9648 14.243 11.3795C14.243 11.7114 14.3259 11.9602 14.6163 11.9602C15.1555 11.9602 15.6947 11.0063 16.068 11.0063C16.5657 11.0063 16.2754 13.7438 16.9805 13.7438C17.6026 13.7438 17.8515 10.7574 18.2248 10.7574C18.5981 10.7574 18.9299 11.6284 19.3032 11.6284C19.7594 11.6284 19.5521 10.1352 20.0083 10.1352C20.5475 10.1352 22.0407 11.9188 22.7458 11.9188C22.9532 11.9188 23.0361 11.7528 23.0361 11.5455C23.0361 10.7574 21.9163 8.97386 21.9163 8.39318C21.9577 8.1858 21.9992 8.14432 22.1651 8.14432Z" fill="white"/>
<path fill-rule="evenodd" clip-rule="evenodd" d="M23.1182 9.18127C23.0767 9.18127 23.0352 9.22275 23.0352 9.26423C23.0352 9.80343 24.9432 12.3335 25.275 12.3335C25.5653 12.3335 25.8142 11.7943 25.8142 11.3796C25.8142 11.2551 25.7727 11.1307 25.7312 11.0478C25.4409 10.633 23.533 9.18127 23.1182 9.18127ZM11.9608 7.72957C11.9608 7.60514 11.7119 7.56366 11.5045 7.56366C11.1727 7.56366 10.7165 7.64662 10.5091 7.81253C10.3432 7.93696 10.2188 8.35173 10.2188 8.64207C10.2188 8.80798 10.2602 8.97389 10.4261 8.97389C10.7994 9.01537 11.9608 8.01991 11.9608 7.72957ZM14.6568 5.86309C14.9886 5.86309 15.5278 5.69718 15.9011 5.69718C16.1085 5.69718 16.3159 5.73866 16.3159 5.94605C16.3159 6.31934 15.4864 6.98298 15.4864 7.27332C15.4864 7.35628 15.5693 7.39775 15.6523 7.39775C15.9426 7.39775 16.4818 6.65116 16.9381 6.65116C17.7261 6.65116 17.2284 8.35173 17.6432 8.35173C18.0994 8.35173 17.892 6.69264 18.5557 6.69264C19.0949 6.69264 19.4682 7.854 19.8415 7.854C19.9244 7.854 20.0074 7.77105 20.0074 7.68809C20.0074 7.35628 19.5511 6.73412 19.5511 6.31934C19.5511 6.07048 19.717 5.94605 19.9659 5.94605C20.2977 5.94605 20.7955 6.15343 21.0443 6.15343C21.1273 6.15343 21.2102 6.11196 21.2102 6.029C21.2102 5.65571 19.883 5.28241 19.883 4.82616C19.883 4.36991 20.6295 4.36991 20.6295 4.16253C20.6295 4.07957 20.1733 3.99662 19.5511 3.99662C18.5557 3.99662 18.7216 4.78468 17.9335 4.78468C17.1455 4.78468 17.3528 3.95514 16.3574 3.95514C15.7352 3.95514 15.196 4.07957 15.196 4.204C15.196 4.36991 15.9011 4.28696 15.9011 4.78468C15.9011 5.32389 14.3665 5.44832 14.3665 5.78014C14.3665 5.82162 14.4909 5.86309 14.6568 5.86309ZM24.1551 5.65571C24.1551 5.90457 25.1091 6.48525 25.5239 6.48525C25.7727 6.48525 25.8557 6.15343 25.8557 5.78014C25.8557 5.32389 25.6483 5.32389 25.275 5.32389C24.7773 5.32389 24.1551 5.44832 24.1551 5.65571Z" fill="white"/>
</svg>
