<svg width="434" height="276" viewBox="0 0 434 276" fill="none" xmlns="http://www.w3.org/2000/svg">
<rect width="434" height="276" fill="#015EFF"/>
<g clip-path="url(#clip0_1903_10546)">
<path d="M285.641 201.104C288.237 201.104 289.968 202.609 290.091 204.491C290.091 205.871 288.979 207 287.619 207C284.651 207 285.393 204.742 284.157 204.742C281.387 204.742 279.213 209.061 277.141 213.685L276.822 214.398L276.347 215.471L275.873 216.535C274.761 218.793 274.266 219.169 273.401 219.169C271.299 219.169 270.928 213.524 270.062 211.015C268.331 214.778 264.87 219.169 259.43 219.169C256.215 219.044 253.124 217.413 253.124 212.395C253.124 206.749 256.833 202.735 260.542 202.735C263.386 202.735 265.241 205.745 265.241 207.753C265.117 213.273 257.822 213.398 257.822 214.527C257.822 215.656 259.677 216.033 260.79 216.033C265.488 216.033 268.579 209.885 269.691 205.62C269.939 204.867 270.557 203.362 271.917 203.362C273.401 203.362 272.659 212.645 274.761 212.645C276.121 212.645 277.852 201.104 285.641 201.104ZM212.448 188.433C214.921 188.307 216.899 190.691 217.146 194.455C217.641 204.491 214.302 208.505 212.571 212.144C212.942 213.524 215.291 215.907 217.517 215.907C218.382 215.907 219.371 215.531 219.619 215.155C219.371 214.527 219.248 213.9 219.248 212.771C219.248 207 223.081 202.233 226.295 202.233C228.891 202.233 230.375 205.62 230.375 207.878C230.375 210.513 228.15 212.645 224.811 214.653C225.43 215.28 226.542 215.656 227.408 215.656C232.106 215.782 234.702 210.011 236.557 204.867C236.928 203.864 237.546 202.484 238.659 202.484C240.637 202.484 241.379 215.531 244.717 215.531C246.077 215.531 247.313 212.645 247.313 210.387C247.437 208.631 246.819 208.505 246.819 206.122C246.819 203.487 248.179 201.229 250.157 201.229C251.393 201.229 251.764 202.358 251.764 203.738C251.641 209.007 247.808 218.793 242.121 218.793C237.917 218.793 238.288 211.516 236.804 211.516C235.197 211.516 232.848 218.793 224.564 218.793C223.204 218.793 221.721 218.165 220.608 216.785C218.63 218.165 216.899 218.667 215.044 218.667C211.953 218.667 210.593 215.531 209.357 215.531C207.873 215.531 206.142 218.667 201.197 218.667C197.241 218.667 196.499 213.398 195.139 213.398C193.902 213.398 191.924 218.667 189.822 218.667C188.134 218.667 187.093 216.488 186.11 214.256L185.817 213.586C184.888 211.476 183.961 209.509 182.528 209.509C181.404 209.509 179.066 211.633 176.7 213.821L176.054 214.418C173.694 216.601 171.417 218.662 170.411 218.542C169.546 218.416 169.175 217.915 169.299 217.036C169.422 215.907 170.535 212.771 170.906 211.391C171.648 208.882 172.266 206.122 172.637 205.244C172.884 204.365 173.873 203.738 174.615 203.864C174.986 203.864 175.11 204.491 175.233 205.118C175.604 207.125 176.222 209.258 176.841 209.258C177.953 209.258 181.91 201.982 184.135 201.982C186.979 201.982 187.226 213.524 190.935 213.524C192.171 213.524 193.037 212.018 193.902 210.262C194.026 207.251 194.891 202.86 197.364 202.86C199.095 202.86 199.837 206.749 198.601 210.136C198.477 214.151 201.197 215.155 202.928 215.155C204.164 215.155 206.266 214.778 207.997 212.144C207.008 210.011 206.39 205.62 206.266 204.115C205.895 196.085 208.986 188.558 212.448 188.433ZM164.848 190.942C166.331 190.44 166.95 191.193 167.568 192.949C168.31 195.584 168.31 199.096 168.062 203.989C167.691 210.764 164.23 218.918 155.699 218.667C148.281 218.542 145.066 213.775 144.819 206.624C144.695 203.236 144.942 199.849 146.426 195.082C147.291 192.573 147.91 191.695 150.259 191.193C152.113 190.816 151.866 192.698 151.495 194.956C150.506 199.849 150.135 202.233 150.382 207.878C150.753 213.775 153.473 216.158 156.441 216.158C161.015 216.284 162.993 212.645 163.859 207.251C164.477 202.985 163.982 200.978 163.611 199.598C163.364 198.845 162.622 197.215 162.499 195.96C162.004 193.2 163.488 191.318 164.848 190.942ZM225.059 206.122C224.317 205.996 222.586 206.875 222.586 209.509C222.586 211.642 223.328 212.645 223.699 213.022C226.172 212.269 226.79 210.262 226.666 208.631C226.666 207.251 225.924 206.122 225.059 206.122ZM259.43 205.996C256.215 205.996 256.462 211.14 256.957 212.269C259.306 211.893 260.913 210.513 261.284 209.258C261.655 208.004 261.161 205.996 259.43 205.996ZM212.722 193.317L212.571 193.325C210.964 193.451 210.222 198.595 210.47 203.989C210.717 207.502 211.211 208.004 211.706 208.004C212.571 208.004 214.797 201.605 214.55 196.587C214.426 194.329 213.808 193.2 212.571 193.325L212.722 193.317ZM198.353 189.436C199.837 189.436 200.826 190.315 200.95 191.695C201.197 193.576 199.837 195.584 197.982 195.584C196.375 195.584 195.633 194.455 195.386 193.075C195.262 191.067 196.746 189.436 198.353 189.436Z" fill="white"/>
<path fill-rule="evenodd" clip-rule="evenodd" d="M229.758 162.087C229.263 161.209 229.634 159.704 228.274 159.704C227.409 159.704 227.285 160.456 227.161 161.084C225.307 160.456 223.7 160.205 222.216 160.205C221.227 160.205 220.361 160.331 219.496 160.582C219.001 159.704 216.776 157.947 214.921 157.32C214.18 161.46 210.594 164.596 205.278 165.098C205.03 167.733 202.929 168.485 201.321 168.485C200.209 168.485 198.354 168.109 198.23 167.607C197.612 163.718 194.769 161.585 193.409 161.084C193.409 161.46 193.532 161.962 193.532 162.338C193.532 165.6 191.307 167.607 187.227 167.607C186.609 167.607 185.743 167.607 185.125 167.482C189.823 172.751 193.161 170.869 195.263 171.873C198.107 173.127 200.456 177.267 209.605 177.267C212.943 177.267 216.281 175.887 218.507 174.507C218.878 175.887 220.238 177.142 222.587 177.142C226.42 177.142 228.645 175.887 228.645 174.884C228.645 174.633 228.645 174.256 227.903 174.256C227.285 174.256 227.285 174.382 225.183 174.382C222.71 174.382 218.754 173.378 216.9 168.987C216.529 168.234 216.034 168.234 215.91 168.234C214.674 168.234 212.696 172.751 204.907 172.751C201.569 172.751 200.085 171.496 200.085 171.245C200.085 171.245 200.085 171.12 200.209 171.12C200.58 171.12 201.692 171.245 203.176 171.245C208.121 171.245 212.078 168.862 214.55 166.227C215.416 165.224 215.787 165.098 216.529 165.098C217.147 165.098 217.765 165.6 218.136 166.478C219.249 169.364 221.845 171.747 224.565 171.747C228.274 171.747 228.398 165.224 229.263 164.847C229.387 164.847 229.634 164.973 229.758 164.973C230.252 164.973 230.87 164.596 230.87 163.844C230.994 162.84 229.881 162.589 229.758 162.087ZM223.576 166.98C222.587 166.98 221.845 166.227 221.845 165.224C221.845 164.22 222.587 163.342 223.576 163.342C224.565 163.342 225.307 164.22 225.307 165.098C225.43 166.227 224.565 166.98 223.576 166.98Z" fill="white"/>
<path fill-rule="evenodd" clip-rule="evenodd" d="M210.717 149.542C211.582 149.542 211.953 150.295 212.077 151.047C212.324 150.796 212.695 150.671 213.066 150.671C213.931 150.671 214.426 151.298 214.426 152.051C214.426 152.553 214.178 152.929 213.808 153.18C214.302 153.431 214.673 153.807 214.673 154.309C214.673 154.936 214.178 155.438 213.437 155.438C212.818 155.438 212.324 154.685 211.706 154.685C211.335 154.685 210.84 154.811 210.717 155.062C210.964 155.689 211.088 156.191 211.088 156.818C211.088 160.08 206.76 162.715 202.186 162.715C197.735 162.715 196.004 160.08 196.004 158.951C196.004 158.7 196.128 158.575 196.498 158.575C197.24 158.575 197.364 158.825 199.466 158.825C204.288 158.825 202.557 152.553 207.131 152.553C207.749 152.553 209.109 152.929 209.604 153.807C209.975 153.431 210.098 152.929 210.098 152.553C210.098 151.8 209.604 151.298 209.604 150.671C209.604 150.044 210.098 149.667 210.717 149.542Z" fill="white"/>
<path fill-rule="evenodd" clip-rule="evenodd" d="M182.033 146.28C187.473 146.28 191.677 150.922 191.677 157.571C191.677 160.582 190.069 164.973 183.517 164.973C175.727 164.973 171.029 158.324 171.029 154.058C171.029 150.42 173.378 148.162 174.862 147.785C173.255 154.309 176.84 160.582 184.011 160.582C187.597 160.582 189.327 158.825 189.327 155.689C189.327 152.176 186.978 148.789 182.898 148.789C180.92 148.789 179.437 149.918 179.437 151.549C179.437 154.184 181.662 155.815 184.011 155.815C185.495 155.815 186.484 155.187 186.484 154.184C186.484 154.058 186.484 153.807 186.36 153.682C186.237 153.807 185.866 153.807 185.371 153.807C183.517 153.807 182.033 152.804 182.033 151.675C182.033 150.796 182.651 150.295 183.393 150.295C186.113 150.295 187.967 153.055 187.967 155.062C187.967 157.069 186.484 158.825 184.011 158.825C178.695 158.825 176.346 154.435 176.346 151.549C176.469 148.413 179.066 146.28 182.033 146.28Z" fill="white"/>
<path fill-rule="evenodd" clip-rule="evenodd" d="M247.189 161.084C246.076 161.962 243.356 163.969 238.781 163.969C236.309 163.969 235.319 163.216 234.949 163.216C234.454 163.216 233.959 163.718 233.465 164.22C232.352 165.475 230.992 167.733 230.992 170.367C230.992 172.124 232.352 173.88 234.949 173.88C243.356 173.88 249.538 168.611 249.538 164.471C249.661 162.087 248.178 161.084 247.189 161.084ZM242.861 169.238L238.039 170.618C238.41 169.615 238.658 168.485 238.658 167.356C238.658 166.98 238.658 166.729 238.534 166.353H239.152C242.738 166.353 244.221 164.973 244.469 164.973C244.716 164.973 244.963 165.098 244.963 165.851C244.963 166.855 244.469 168.235 242.861 169.238Z" fill="white"/>
<path fill-rule="evenodd" clip-rule="evenodd" d="M240.017 162.087C241.995 162.087 243.726 161.585 244.839 160.582C245.209 160.331 245.333 159.829 245.333 159.327V158.324C245.333 157.069 243.355 156.316 240.635 156.316C237.42 156.316 235.689 157.822 235.689 158.449V160.456C235.689 161.209 237.544 162.087 240.017 162.087Z" fill="white"/>
<path fill-rule="evenodd" clip-rule="evenodd" d="M255.102 140.76C248.549 140.76 250.28 146.405 242.614 148.162C241.254 148.413 240.76 148.915 240.76 149.542C240.76 150.671 241.378 152.176 242.243 152.176C245.582 152.176 250.651 145.276 251.64 145.276C252.011 145.276 252.382 145.276 252.382 146.28C252.382 148.789 245.211 152.051 245.211 153.807C245.211 154.811 247.683 157.069 250.28 157.069C253.865 157.069 257.08 149.793 257.822 149.793C258.44 149.793 258.563 150.169 258.563 150.671C258.563 152.678 256.091 156.567 251.887 158.198C251.022 158.575 250.898 158.951 250.898 159.202C250.898 160.205 252.011 161.585 253 161.585C254.236 161.585 262.52 154.309 262.52 148.538C262.767 143.144 258.687 140.76 255.102 140.76ZM258.069 147.033C257.574 147.033 257.08 146.907 256.833 146.656C256.214 146.405 255.225 145.527 255.225 144.273C255.225 143.018 255.843 142.642 256.462 142.642C258.316 142.642 260.418 144.273 260.418 145.653C260.418 146.782 259.429 147.033 258.069 147.033Z" fill="white"/>
<path fill-rule="evenodd" clip-rule="evenodd" d="M196.25 150.044H195.137C194.766 150.044 194.148 149.918 193.777 149.667C193.035 149.04 192.788 145.653 191.552 143.645C190.068 141.387 188.461 140.76 186.359 140.76C184.875 140.76 183.145 141.638 183.145 142.893C183.145 143.645 183.515 144.147 186.359 144.9C189.945 145.778 191.675 147.785 192.046 150.044C192.417 152.302 192.788 154.058 193.654 154.936C194.766 156.191 196.868 157.32 198.846 157.32C200.454 157.32 201.69 156.818 201.69 155.313C201.566 153.682 199.341 150.044 196.25 150.044ZM198.599 154.936C197.239 154.936 195.261 153.556 195.261 152.678C195.261 152.051 195.879 151.675 196.374 151.675C197.486 151.675 199.465 153.055 199.465 154.184C199.465 154.56 199.217 154.936 198.599 154.936Z" fill="white"/>
<path fill-rule="evenodd" clip-rule="evenodd" d="M223.205 145.402C222.339 145.402 222.339 146.782 222.339 147.284C222.339 147.785 222.339 147.911 221.968 147.911C221.597 147.911 221.35 147.785 220.979 147.785C220.732 147.785 220.485 148.036 220.485 148.413C220.485 150.295 222.834 151.8 225.183 151.8C228.274 151.8 229.757 150.42 230.623 150.42C230.994 150.42 231.117 150.796 231.117 151.047C231.117 151.549 230.623 152.176 230.623 152.427C230.623 153.18 232.106 152.553 232.106 153.431C232.106 154.56 230.252 155.438 227.408 155.438C221.845 155.438 218.259 151.549 218.259 147.911C218.259 141.136 225.43 143.269 225.43 140.635C225.43 139.756 224.565 139.255 223.946 139.255C224.688 138.251 225.677 138.125 226.666 138.125C227.408 138.125 228.15 138.251 228.768 138.251C229.634 138.251 230.499 137.875 230.499 136.871C230.499 136.244 230.005 135.491 227.903 135.24C228.15 133.86 230.994 134.613 230.994 133.358C230.994 132.48 229.386 131.853 227.408 131.853C219.743 131.853 214.303 138.251 214.303 145.151C214.303 151.424 218.754 158.324 227.037 158.324C235.074 158.324 238.906 151.675 238.906 146.656C237.423 148.036 233.466 148.413 231.488 148.413C225.677 148.538 224.07 145.402 223.205 145.402Z" fill="white"/>
<path fill-rule="evenodd" clip-rule="evenodd" d="M229.511 146.28C230.747 146.28 231.612 145.276 231.612 144.147C231.612 142.391 229.882 140.76 227.285 140.76C227.78 141.262 227.903 141.638 227.903 142.14C227.903 142.767 227.532 143.52 227.532 144.273C227.532 145.402 228.274 146.28 229.511 146.28ZM241.998 137.749C242.369 138.251 242.492 138.753 242.492 139.255C242.492 140.509 241.627 141.764 241.627 143.018C241.627 144.524 242.74 145.778 244.471 145.778C246.325 145.778 247.562 144.273 247.562 142.516C247.438 140.007 245.336 138 241.998 137.749ZM233.096 132.982C233.714 133.735 233.962 134.487 233.962 135.365C233.962 137.373 232.478 139.38 232.478 141.262C232.478 143.771 234.085 145.402 236.434 145.402C238.907 145.402 240.391 143.269 240.391 140.885C240.391 137.498 237.794 133.86 233.096 132.982ZM236.558 140.133C235.94 140.133 235.445 139.631 235.445 139.004C235.445 138.627 235.692 138.125 235.692 137.624C235.816 136.996 235.692 136.495 236.063 136.495C236.805 136.495 237.671 137.875 237.671 138.753C237.671 139.505 237.3 140.133 236.558 140.133Z" fill="white"/>
<path fill-rule="evenodd" clip-rule="evenodd" d="M207.995 134.738C206.017 133.985 205.151 132.856 204.657 130.473C203.668 131.853 203.173 133.107 203.173 133.86C203.173 136.871 207.253 136.871 207.253 138.878C207.253 140.007 205.151 141.262 202.431 141.262C199.34 141.262 197.115 140.76 195.137 138.753C194.642 138.251 194.395 137.749 193.777 137.749C193.035 137.749 192.664 139.004 192.664 140.258C192.664 144.524 196.744 149.667 202.431 149.667C209.479 149.667 212.322 144.775 212.322 140.76C212.446 138.376 211.951 136.244 207.995 134.738ZM206.017 146.782C205.399 146.782 205.275 146.531 205.275 145.904C205.275 145.527 205.399 144.775 205.399 144.147C205.399 142.642 206.017 142.767 207.5 142.015C208.613 141.513 208.984 140.885 209.355 140.885C209.726 140.885 210.097 141.136 210.097 141.764C210.097 144.022 207.624 146.782 206.017 146.782Z" fill="white"/>
<path fill-rule="evenodd" clip-rule="evenodd" d="M198.97 127.462C198.228 127.462 196.992 126.709 195.755 125.705C194.395 127.085 193.406 128.967 193.406 131.1C193.406 135.491 197.981 139.129 202.432 139.129C203.174 139.129 203.915 139.004 204.657 138.878C202.184 138.627 200.701 136.745 200.701 134.487C200.701 131.602 203.915 128.967 203.915 126.709C203.915 123.949 200.577 123.698 200.577 121.44C200.577 119.558 203.792 118.178 203.668 115.167C203.668 113.411 201.937 111.278 199.588 110.024C199.959 110.776 200.206 111.78 200.206 112.407C200.206 115.92 193.53 117.425 193.53 120.185C193.53 123.698 199.959 125.078 199.959 126.709C199.959 127.085 199.712 127.462 198.97 127.462Z" fill="white"/>
<path fill-rule="evenodd" clip-rule="evenodd" d="M266.353 129.72C268.578 129.72 270.309 132.605 270.309 135.993C270.309 139.631 268.578 143.52 265.611 146.28C265.611 140.258 258.316 142.14 258.316 137.749C258.316 135.867 259.676 134.613 261.284 134.613C262.644 134.613 263.756 134.989 264.622 135.867C263.88 135.115 263.385 133.985 263.385 132.982C263.385 131.351 264.375 129.72 266.353 129.72Z" fill="white"/>
<path fill-rule="evenodd" clip-rule="evenodd" d="M178.819 135.867C178.2 135.993 177.706 136.118 177.335 136.495C176.964 135.115 175.728 133.86 173.997 134.236C172.513 134.487 171.4 135.867 171.648 137.624C171.648 137.875 171.771 138.251 171.895 138.502C171.895 138.502 171.648 138.502 171.4 138.627C170.164 138.878 168.68 140.133 168.928 142.015C169.175 143.645 170.535 144.775 172.142 144.649C172.76 144.524 173.255 144.398 173.626 144.147C173.997 145.653 175.233 146.531 176.84 146.405C178.448 146.155 179.56 144.775 179.437 143.144C179.437 142.642 179.313 142.391 179.189 142.14H179.56C181.168 141.764 182.28 140.509 182.157 138.878C181.662 136.871 180.302 135.616 178.819 135.867ZM175.604 142.015C174.615 142.14 173.873 141.387 173.749 140.509C173.626 139.505 174.244 138.627 175.233 138.502C176.222 138.376 176.964 139.129 177.088 140.007C177.211 141.011 176.593 141.889 175.604 142.015Z" fill="white"/>
<path fill-rule="evenodd" clip-rule="evenodd" d="M258.933 128.34C258.933 127.713 260.417 126.207 260.417 125.705C260.417 125.58 260.293 125.455 260.17 125.455C259.552 125.455 257.45 127.085 254.359 127.085C253.122 127.085 252.257 126.96 252.257 125.956C252.257 125.078 252.999 124.325 254.235 123.824C255.595 123.196 258.315 123.196 258.315 122.569C258.315 122.067 255.719 122.067 255.719 121.565C255.719 120.938 256.708 119.433 256.708 118.805C256.708 118.805 256.708 118.555 256.584 118.555C256.09 118.555 254.853 120.06 254.112 120.06C253.37 120.06 252.752 118.178 252.133 118.178C252.01 118.178 251.762 118.304 251.762 118.68C251.762 119.433 252.133 120.813 252.133 122.695C252.133 124.325 251.268 125.705 250.402 125.705C249.29 125.705 248.919 124.325 248.919 123.196C248.919 121.565 249.784 119.684 249.784 117.927C249.784 117.551 249.661 117.425 249.413 117.425C248.795 117.425 247.806 119.307 247.064 119.307C246.57 119.307 245.704 117.049 244.962 117.049C244.839 117.049 244.715 117.425 244.715 117.927C244.715 118.555 244.839 119.433 244.839 119.809C244.839 120.311 244.221 120.436 243.479 120.436C242.984 120.436 241.995 120.436 241.995 120.813C241.995 121.189 242.984 121.565 243.85 122.193C245.457 123.322 248.053 124.451 248.053 127.085C248.053 129.469 244.715 131.1 242.366 131.602C241.253 131.727 240.141 131.978 240.141 132.355C240.141 132.856 243.108 132.982 243.108 133.609C243.108 133.985 241.748 135.742 241.748 136.244C241.748 136.369 241.872 136.369 241.872 136.369C242.366 136.369 243.85 135.115 244.468 135.115C245.333 135.115 245.21 137.749 245.828 137.749C246.57 137.749 246.322 133.86 246.57 132.856C247.064 131.1 248.301 129.344 249.413 129.344C250.773 129.344 250.897 131.727 250.897 132.856C250.897 135.115 249.29 137.498 249.29 138.627C249.29 138.753 249.413 138.878 249.537 138.878C250.032 138.878 251.144 137.373 251.762 137.373C252.381 137.373 253.741 139.882 254.235 139.882C254.482 139.882 254.606 139.631 254.606 139.38C254.606 138.627 254.235 137.373 254.235 136.62C254.235 135.742 257.079 136.244 257.079 135.616C257.079 135.365 255.842 134.864 255.101 134.362C253.493 133.358 251.639 131.225 251.639 129.469C251.639 128.842 252.01 128.34 252.504 128.34C255.966 128.34 257.45 133.735 258.068 133.735C258.686 133.735 258.315 131.351 258.562 130.975C258.686 130.849 259.057 130.724 259.428 130.724C260.046 130.724 260.788 130.849 261.282 130.849C261.653 130.849 261.777 130.849 261.777 130.724C261.653 129.971 258.933 129.093 258.933 128.34Z" fill="white"/>
<path fill-rule="evenodd" clip-rule="evenodd" d="M245.21 126.835C245.21 125.705 240.389 121.942 239.399 121.942C239.152 121.942 239.029 122.067 239.029 122.318C239.029 122.695 239.152 123.196 239.152 123.573C239.152 124.451 238.781 124.576 237.916 124.576C236.927 124.576 235.319 124.2 235.319 122.569C235.319 119.433 241.254 120.185 241.872 117.3C239.276 117.3 238.039 115.544 236.309 115.544C235.69 115.544 234.454 115.92 234.454 117.551C234.454 118.053 234.578 118.931 234.578 119.684C234.578 120.436 234.454 120.938 233.589 120.938C232.847 120.938 232.723 120.06 232.723 119.056C232.723 118.178 232.847 117.175 232.847 116.547C232.847 111.905 227.778 113.787 227.283 110.024C226.047 112.282 225.676 113.913 225.676 115.293C225.676 120.185 232.229 119.684 232.229 123.071C232.229 123.949 231.61 124.451 230.992 124.451C229.879 124.451 229.138 122.067 227.407 122.067C226.541 122.067 225.923 122.695 225.923 124.075C225.923 125.078 226.17 125.831 226.17 126.835C226.17 128.842 225.305 129.72 224.439 130.598C230.374 130.096 230.745 125.58 232.476 125.58C232.97 125.58 233.218 125.956 233.218 126.207C233.218 126.96 231.981 128.215 231.981 129.469C231.981 131.1 233.836 131.978 235.072 131.978C236.556 131.978 237.05 131.476 237.05 130.473C237.05 129.344 235.072 127.838 235.072 126.584C235.072 125.956 235.69 125.831 236.556 125.831C238.41 125.831 239.029 126.082 239.029 126.458C239.029 126.96 238.287 127.964 238.287 128.215C238.287 128.34 238.41 128.716 238.781 128.716C240.141 128.967 245.21 127.838 245.21 126.835Z" fill="white"/>
<path fill-rule="evenodd" clip-rule="evenodd" d="M182.776 109.898C181.91 111.529 181.663 113.662 181.663 114.916C181.663 122.569 190.688 129.72 190.688 134.487C190.688 136.369 189.328 138.627 186.856 138.627C184.63 138.627 183.394 136.871 183.394 135.365C183.394 134.236 184.136 133.233 184.506 133.233C184.63 133.233 184.63 133.358 184.63 133.609C184.63 134.236 185.125 135.115 186.114 134.989C187.103 134.989 187.597 134.362 187.597 133.484C187.597 129.72 180.179 123.196 180.179 114.289C179.808 115.293 179.314 116.547 179.314 118.429C179.314 122.695 182.405 127.211 182.405 131.351C182.405 132.982 181.168 134.487 179.561 134.487C177.706 134.487 177.088 132.982 177.088 132.104C177.088 131.476 177.336 130.849 177.583 130.849C177.83 130.849 177.706 131.853 178.696 131.853C179.808 131.853 180.179 131.1 180.179 129.72C180.179 125.956 178.077 123.322 178.077 119.433C178.077 118.805 178.077 118.178 178.201 117.676C177.088 119.056 176.965 121.064 176.965 122.82V127.462C176.965 130.598 175.481 131.978 173.626 131.978C172.39 131.978 171.277 130.975 171.277 129.344C171.277 129.093 171.401 128.34 171.648 128.34C172.019 128.34 172.266 129.344 173.256 129.344C175.234 129.344 175.357 127.462 175.357 123.573C175.11 118.805 176.841 113.662 182.776 109.898Z" fill="white"/>
<path fill-rule="evenodd" clip-rule="evenodd" d="M170.535 107.64C171.154 107.64 171.401 108.267 171.401 108.769C171.401 110.902 168.681 117.175 168.681 118.931C168.681 119.182 168.804 119.433 169.052 119.433C170.164 119.433 172.39 114.54 173.132 112.156C173.503 110.902 174.121 110.275 174.615 110.275C175.11 110.275 175.481 110.776 175.481 111.78C175.481 114.164 173.255 119.935 171.277 123.698C169.794 126.709 167.321 130.975 167.321 133.358C167.321 134.613 167.568 135.867 169.299 137.373C166.455 137.247 165.219 136.871 164.106 134.738C159.284 144.273 173.008 143.395 168.31 151.925C167.444 150.42 160.644 148.789 160.644 139.882C160.644 132.229 167.444 127.713 167.444 124.451C167.444 123.824 167.197 123.322 166.579 122.82C165.095 121.565 165.095 120.562 163.859 120.562C162.994 120.562 162.004 122.569 162.994 124.325C163.364 124.953 163.612 125.329 163.612 125.831C163.612 127.085 161.634 130.473 160.274 130.473C158.914 130.473 157.801 126.96 157.801 121.44C157.801 116.547 158.914 111.529 160.274 111.529C160.644 111.529 160.768 111.78 160.768 112.156C160.768 112.784 160.644 113.913 160.644 115.92C160.644 118.053 161.139 118.178 161.51 118.178C162.994 118.178 162.746 108.769 165.219 108.769C165.837 108.769 165.961 109.396 165.961 110.024C165.961 112.156 164.972 115.293 164.972 116.924C164.972 117.802 165.219 118.053 165.59 118.053C166.826 117.927 168.681 107.64 170.535 107.64Z" fill="white"/>
<path fill-rule="evenodd" clip-rule="evenodd" d="M271.05 119.935C268.949 119.935 267.836 123.698 265.734 123.824C266.97 118.429 272.287 115.544 272.287 110.525C272.287 104.755 267.589 102.747 265.61 101.493C262.396 96.7255 260.047 92.9618 254.73 92.9618C252.505 92.9618 251.021 93.3382 249.538 93.3382C246.57 93.3382 245.581 92.2091 245.458 92.2091C245.458 92.2091 245.334 92.2091 245.334 92.46C245.334 96.7255 247.559 106.26 256.956 106.26C262.025 106.26 264.127 104.253 265.363 104.253C266.599 104.253 270.679 105.633 270.679 110.525C270.679 113.16 268.578 115.92 267.836 115.92C267.094 115.92 266.352 114.665 266.352 113.411C266.352 112.031 267.094 109.396 267.094 107.765C267.094 107.138 266.97 106.887 266.599 106.887C265.858 106.887 262.025 109.396 262.025 112.407C262.025 115.042 265.858 116.673 267.341 117.425C265.858 119.809 264.992 121.44 264.374 123.698C264.374 121.942 262.767 118.555 262.272 117.049C259.923 110.275 259.058 109.02 253.989 108.393C254.73 111.153 263.385 117.676 263.385 124.325C263.385 124.702 263.385 125.329 263.261 125.58C260.665 117.802 256.214 115.92 254.607 114.038C252.01 111.027 253.494 108.142 249.29 106.511C249.538 106.887 249.661 107.389 249.661 107.765C249.661 109.271 248.919 111.027 248.919 112.282C248.919 117.049 254.236 115.544 257.45 118.178C260.541 120.687 262.272 124.827 263.509 129.469C264.745 127.462 265.487 124.953 267.589 124.953C268.949 124.953 269.443 126.709 269.443 128.089V128.716C271.545 126.835 272.658 123.824 272.658 121.816C272.534 120.813 272.039 119.935 271.05 119.935ZM262.643 102.245C262.149 102.245 261.407 101.995 260.789 101.995C259.305 101.995 258.192 104.127 257.45 104.127C257.203 104.127 257.079 103.876 257.079 103.625C257.079 102.747 258.563 101.744 258.563 101.116C258.563 100.74 257.945 100.615 257.698 100.615C256.214 100.615 254.112 102.747 252.876 102.747C252.629 102.747 252.381 102.622 252.381 102.371C252.381 101.744 253.989 100.991 253.989 100.364C253.989 99.7364 253.37 99.7364 252.876 99.7364C252.134 99.7364 250.65 100.113 249.785 100.113C249.29 100.113 248.919 99.9873 248.919 99.6109C248.919 98.7327 251.763 99.2346 251.763 98.2309C251.763 97.7291 250.898 96.7255 250.898 96.2236C250.898 95.9727 251.145 95.8473 251.392 95.8473C252.381 95.8473 253.494 98.7327 254.607 98.7327C255.101 98.7327 255.225 98.3564 255.225 97.7291C255.225 97.1018 255.101 96.8509 255.101 96.3491C255.101 95.8473 255.349 95.7218 255.472 95.7218C256.214 95.7218 256.832 99.7364 258.934 99.7364C259.799 99.7364 259.181 97.2273 260.047 97.2273C260.541 97.2273 260.665 97.98 260.665 98.3564C260.912 100.991 263.261 101.116 263.261 102.12C263.138 101.995 263.014 102.245 262.643 102.245Z" fill="white"/>
<path fill-rule="evenodd" clip-rule="evenodd" d="M233.095 96.3491C234.084 96.3491 234.825 97.1018 234.825 97.98C234.825 98.8582 234.084 99.6109 233.095 99.6109C232.229 99.6109 231.364 98.8582 231.364 97.98C231.364 97.1018 232.229 96.3491 233.095 96.3491ZM244.469 112.156C243.604 112.156 242.738 112.909 242.738 113.787C242.738 114.791 243.604 115.418 244.469 115.418C245.458 115.418 246.2 114.665 246.2 113.662C246.2 112.784 245.458 112.156 244.469 112.156ZM238.782 109.02C237.051 109.02 235.691 110.4 235.691 112.031C235.691 113.662 237.051 115.042 238.782 115.042C240.513 115.042 241.873 113.662 241.873 112.031C241.873 110.4 240.513 109.02 238.782 109.02ZM233.342 107.64C232.353 107.64 231.611 108.393 231.611 109.396C231.611 110.4 232.476 111.153 233.342 111.153C234.331 111.153 235.073 110.4 235.073 109.396C235.073 108.393 234.331 107.64 233.342 107.64ZM244.222 110.4C245.335 110.4 246.324 109.522 246.324 108.393C246.324 107.264 245.335 106.385 244.222 106.385C243.109 106.385 242.12 107.264 242.12 108.393C242.12 109.396 243.109 110.4 244.222 110.4ZM228.149 104.002C226.789 104.002 225.553 105.131 225.553 106.511C225.553 107.891 226.665 109.02 228.149 109.02C229.509 109.02 230.745 107.891 230.745 106.511C230.622 105.131 229.509 104.002 228.149 104.002ZM237.422 105.884C237.422 106.887 238.164 107.64 239.153 107.64C240.142 107.64 240.884 106.887 240.884 105.884C240.884 104.88 240.142 104.127 239.153 104.127C238.164 104.127 237.422 105.005 237.422 105.884ZM233.96 106.385C235.444 106.385 236.68 105.256 236.68 103.751C236.68 102.245 235.444 101.116 233.96 101.116C232.476 101.116 231.24 102.245 231.24 103.751C231.24 105.131 232.353 106.385 233.96 106.385ZM243.851 104.629C244.84 104.629 245.705 103.751 245.705 102.747C245.705 101.744 244.84 100.865 243.851 100.991C242.862 100.991 241.996 101.869 241.996 102.873C241.996 103.876 242.862 104.629 243.851 104.629ZM228.891 102.12C229.88 102.12 230.622 101.367 230.622 100.364C230.622 99.36 229.88 98.6073 228.891 98.6073C227.902 98.6073 227.16 99.36 227.16 100.364C227.036 101.367 227.902 102.12 228.891 102.12ZM239.029 101.995C240.636 101.995 241.873 100.74 241.873 99.2346C241.873 97.7291 240.636 96.4746 239.029 96.4746C237.422 96.4746 236.185 97.7291 236.185 99.2346C236.185 100.74 237.422 101.995 239.029 101.995ZM241.131 95.4709C242.12 95.4709 242.862 94.7182 242.862 93.84C242.862 92.9618 242.12 92.2091 241.131 92.2091C240.142 92.2091 239.4 92.9618 239.4 93.84C239.524 94.8437 240.265 95.4709 241.131 95.4709Z" fill="white"/>
<path fill-rule="evenodd" clip-rule="evenodd" d="M191.183 97.7291C192.295 97.7291 194.274 99.6109 194.768 101.618C194.521 101.618 194.274 101.493 194.15 101.493C192.666 101.493 191.924 102.873 190.812 105.256C193.408 103.5 195.757 102.12 198.477 102.12C200.826 102.12 202.681 103.5 202.681 105.633C202.681 106.511 202.186 107.515 201.692 108.518C201.321 106.511 199.714 105.633 196.87 105.633C195.263 105.633 193.284 105.884 191.677 106.511C196.746 107.264 197.488 109.02 197.488 110.651C197.488 113.411 194.644 114.791 192.79 115.669C192.914 114.916 193.161 114.038 193.161 113.16C193.161 111.529 192.543 109.522 189.946 107.765C189.575 109.522 188.092 110.651 188.092 112.031C188.092 112.533 188.463 112.784 188.71 112.784C188.71 113.536 188.339 115.795 188.339 116.422C188.339 117.551 188.586 117.802 189.204 117.927C189.575 118.931 189.575 120.687 189.823 121.565C189.946 122.067 190.317 122.193 190.688 122.193C191.059 123.071 191.554 124.451 192.295 124.953C192.419 125.078 192.666 125.455 192.666 125.705C192.666 126.458 191.43 127.336 190.688 127.336C190.441 127.336 190.07 127.211 189.699 126.333C189.452 125.705 187.226 124.325 187.103 123.573C187.226 123.447 187.35 123.196 187.35 122.82C187.35 121.565 185.372 120.185 185.372 118.178C185.619 118.053 185.866 117.676 185.866 117.3C185.866 116.171 184.754 114.038 184.754 112.533C185.248 112.533 185.495 112.533 185.495 111.78C185.619 110.275 185.866 108.142 187.226 106.887C186.855 106.887 186.484 106.762 185.99 106.762C183.27 106.762 179.19 108.267 177.583 111.78C177.459 111.278 177.459 110.776 177.459 110.275C177.459 107.389 179.19 105.507 180.55 104.88C181.168 104.629 182.034 104.504 182.899 104.504C184.383 104.504 185.99 104.755 187.721 105.131C186.237 103.124 183.888 101.744 181.91 101.744C181.044 101.744 180.303 101.995 180.055 102.747C179.932 102.371 179.932 101.744 179.932 101.242C179.932 99.1091 180.674 97.8546 182.528 97.8546C185.248 97.8546 187.721 101.116 189.081 104.127V103.751C189.081 99.4855 189.204 97.3527 190.935 97.2273L191.183 97.7291Z" fill="white"/>
<path fill-rule="evenodd" clip-rule="evenodd" d="M156.811 104.88C156.811 108.267 157.923 109.898 159.778 109.898C161.261 109.898 163.24 108.895 165.589 106.887C163.734 107.264 162.374 107.515 161.138 107.515C159.531 107.515 158.171 106.887 156.811 104.88ZM169.669 100.238C168.556 100.489 166.454 101.744 166.454 104.002C166.454 105.633 167.691 106.636 169.298 106.636C170.163 106.636 170.781 106.511 171.152 106.135C169.916 104.88 169.421 103.625 169.421 102.245C169.421 101.367 169.545 100.74 169.669 100.238ZM173.501 96.6C172.512 97.7291 171.4 99.7363 171.4 101.744C171.4 104.127 172.883 106.135 175.232 106.135C177.458 106.135 178.571 104.253 178.571 102.371C178.694 99.36 175.851 97.2272 173.501 96.6ZM158.418 100.865V101.493C158.418 103.625 159.531 104.755 161.138 104.755C162.251 104.755 163.611 104.127 164.847 102.622C164.352 102.747 163.734 102.747 163.24 102.747C161.385 102.873 159.531 102.371 158.418 100.865ZM167.567 89.3236C166.083 89.3236 164.229 89.4491 162.251 90.7036C158.294 93.2127 158.789 97.2273 158.171 98.3563C158.047 98.4818 158.047 98.6073 158.047 98.8582C158.047 99.2345 158.541 99.7363 158.912 99.7363C159.283 99.7363 159.531 99.6109 159.654 99.6109C160.767 99.6109 162.003 100.364 163.858 100.364C164.971 100.364 166.207 99.9872 167.691 99.2345C171.029 97.6036 172.265 93.5891 172.265 92.9618C172.265 92.0836 171.523 92.2091 171.029 91.4563C170.411 90.7036 170.658 89.9509 170.287 89.5745C170.04 89.3236 169.421 89.3236 168.556 89.3236H167.567ZM164.847 98.2309C163.363 98.2309 161.632 96.3491 161.632 94.7182C161.632 93.84 162.374 92.7109 162.869 92.7109C162.992 92.7109 163.116 92.8363 163.24 93.2127C163.487 95.3454 164.971 96.6 166.331 97.2272C166.454 97.3527 166.578 97.3527 166.578 97.4782C166.454 97.8545 165.589 98.2309 164.847 98.2309ZM170.287 94.0909C170.287 94.7182 169.916 95.4709 169.174 95.4709C167.567 95.4709 166.331 93.0872 166.207 91.7072C166.207 90.8291 166.701 90.8291 167.443 90.8291C167.814 90.8291 167.938 90.8291 168.185 90.9545C168.556 91.2054 168.556 92.0836 169.051 92.7109C169.421 93.2127 170.287 93.7145 170.287 94.0909ZM173.749 92.0836C173.749 93.0873 174.614 93.84 175.603 93.84C176.592 93.84 177.458 93.0873 177.458 92.0836C177.458 91.08 176.592 90.3272 175.603 90.3272C174.614 90.2018 173.749 91.08 173.749 92.0836ZM173.131 89.8254C174.12 89.8254 174.985 89.0727 174.985 88.0691C174.985 87.0654 174.12 86.3127 173.131 86.3127C172.141 86.3127 171.276 87.0654 171.276 88.0691C171.4 88.9472 172.141 89.8254 173.131 89.8254ZM160.643 88.9473C162.251 88.9473 163.611 87.9436 163.611 87.9436C160.891 87.1909 159.407 85.3091 159.407 82.6745V81.9218C157.676 82.6745 156.934 84.0545 156.934 85.4345C157.058 87.5672 158.665 88.9473 160.643 88.9473ZM168.68 86.94C168.927 86.1873 169.051 85.3091 169.051 84.3054C169.051 82.1727 168.061 78.9109 164.847 78.9109C162.992 78.9109 161.756 80.2909 161.756 81.9218C161.88 85.56 165.589 86.94 168.68 86.94Z" fill="white"/>
<path fill-rule="evenodd" clip-rule="evenodd" d="M270.31 85.8109C268.332 89.8255 263.387 90.7036 261.78 90.4527C262.274 94.5927 268.332 100.113 269.94 99.9873C271.052 99.8618 271.423 94.5927 271.423 90.4527C271.423 88.0691 271.547 86.1873 270.31 85.8109ZM270.434 81.9218C270.434 80.4164 269.816 79.2873 268.085 79.0364C268.332 79.4127 268.456 79.7891 268.456 80.4164C268.456 82.8 264.994 85.4346 261.161 85.4346C259.801 85.4346 259.307 86.4382 259.43 86.94C259.43 88.1946 260.543 88.6964 262.15 88.6964C266.478 88.5709 270.434 85.0582 270.434 81.9218Z" fill="white"/>
<path fill-rule="evenodd" clip-rule="evenodd" d="M261.161 83.8037C262.892 83.8037 266.601 82.2982 266.601 80.2909C266.601 79.6636 266.353 79.0364 265.364 79.0364C264.004 79.0364 262.15 80.4164 260.295 80.4164C259.677 80.4164 258.935 80.4164 258.193 80.1655C258.935 80.6673 258.812 81.9218 259.182 82.8C259.801 83.8036 260.542 83.8037 261.161 83.8037Z" fill="white"/>
<path fill-rule="evenodd" clip-rule="evenodd" d="M237.916 84.8073C237.916 88.8219 235.196 90.4528 232.723 90.4528C232.105 90.4528 231.61 90.3273 231.116 90.0764C231.61 89.5746 232.105 88.8219 232.105 88.32C232.105 87.9437 231.858 87.8182 231.487 87.8182C231.239 87.8182 230.621 87.9437 230.127 87.9437C228.89 87.9437 227.901 87.4419 226.789 86.3128C226.047 87.4419 225.676 88.9473 225.676 90.4528C225.676 92.8364 226.541 95.22 227.53 95.3455C228.025 95.3455 228.025 93.7146 228.89 93.7146C229.138 93.7146 230.127 94.4673 232.229 94.4673C235.319 94.4673 238.781 92.5855 238.781 87.6928C238.658 87.0655 238.41 85.56 237.916 84.8073Z" fill="white"/>
<path fill-rule="evenodd" clip-rule="evenodd" d="M230.868 82.2982C231.487 82.2982 232.723 82.5491 233.094 83.1764C232.599 83.4273 232.105 84.0546 232.105 84.5564C232.105 84.8073 232.228 85.0582 232.476 85.1837C233.588 85.6855 234.207 86.5636 234.578 87.3164C236.556 86.1873 237.298 83.0509 237.298 81.2946C237.298 80.7927 237.298 80.04 236.803 80.04C236.432 80.04 236.061 80.5418 235.567 80.5418C235.196 80.5418 234.083 79.0364 231.363 79.0364C228.272 79.0364 226.912 81.42 226.912 83.4273C226.912 83.9291 227.036 84.5564 227.159 84.9327C227.778 83.6782 229.014 82.2982 230.868 82.2982Z" fill="white"/>
<path fill-rule="evenodd" clip-rule="evenodd" d="M199.59 84.9327C197.365 84.9327 195.387 86.8145 193.903 89.3236C194.027 88.8218 194.027 88.32 194.027 87.8182C194.027 84.3055 192.172 81.2946 188.834 81.2946C186.114 81.2946 183.518 82.9255 182.529 86.1873C182.776 85.9364 183.765 85.3091 184.507 85.3091C185.372 85.3091 185.619 86.0618 185.619 87.3164C185.619 88.0691 185.496 89.0727 185.125 89.9509C184.63 91.4564 183.641 91.8327 183.147 91.8327C181.045 91.8327 182.034 88.1946 180.921 88.1946C180.056 88.1946 179.809 90.2018 179.809 90.9545C179.809 93.4636 181.416 96.0982 185.001 96.0982C188.834 96.0982 190.936 94.2164 193.161 91.8327C193.656 94.4673 195.016 99.1091 198.849 99.1091C200.95 99.1091 202.434 97.3527 202.558 95.22C202.31 95.4709 201.94 95.7218 201.445 95.7218C200.703 95.7218 200.456 94.5927 200.456 93.5891C200.456 91.9582 200.95 90.2018 201.692 90.2018C202.063 90.2018 202.31 90.4527 202.434 91.7073C202.558 92.5855 202.434 93.7145 203.052 93.7145C203.67 93.7145 203.918 91.8327 203.918 90.7036C203.794 87.4418 202.434 84.8073 199.59 84.9327ZM186.856 93.4636C186.485 93.4636 186.361 93.0873 186.361 92.8364C186.361 91.08 188.216 83.3018 189.576 83.3018C189.823 83.3018 189.947 83.5527 189.947 83.9291C189.947 85.3091 188.339 93.4636 186.856 93.4636ZM192.543 90.0764C191.43 91.3309 190.812 91.9582 190.318 91.9582C190.07 91.9582 189.823 91.4564 189.823 90.9545C189.823 90.0764 190.441 86.4382 191.801 86.4382C192.296 86.4382 192.667 87.4418 192.667 88.32C192.667 89.0727 192.667 89.5746 192.543 90.0764ZM195.139 93.2127C194.769 93.2127 194.398 92.46 194.398 90.9545C195.139 89.7 195.51 89.1982 196.005 89.1982C196.129 89.1982 196.376 89.3236 196.376 90.0764C196.252 91.7073 195.634 93.2127 195.139 93.2127ZM197.365 95.8473C197.118 95.8473 196.87 95.4709 196.87 94.4673C196.87 92.0836 198.354 87.6927 199.219 87.6927C199.467 87.6927 199.59 88.32 199.59 88.9473C199.714 91.5818 198.478 95.8473 197.365 95.8473Z" fill="white"/>
<path fill-rule="evenodd" clip-rule="evenodd" d="M254.113 79.7891C253.248 79.7891 251.888 80.7927 250.899 80.7927C249.539 80.7927 249.91 78.9109 248.426 78.9109C248.055 78.9109 247.684 79.0363 247.313 79.2873C244.222 80.9182 241.75 80.2909 241.255 80.6673C241.131 80.7927 241.008 80.7927 241.008 81.1691C241.008 84.6818 244.47 89.9509 250.157 89.9509C254.113 89.9509 257.328 88.5709 257.328 86.1872C257.204 84.18 255.35 79.7891 254.113 79.7891ZM250.528 86.5636C247.313 86.5636 245.335 84.6818 245.335 83.5527C245.335 83.4272 245.459 83.3018 245.582 83.3018C246.077 83.3018 247.437 84.0545 249.291 84.3054C251.393 84.6818 252.506 84.6818 253.124 84.6818C253.742 84.6818 253.99 84.8073 253.99 85.0582C253.866 85.6854 252.382 86.5636 250.528 86.5636Z" fill="white"/>
<path fill-rule="evenodd" clip-rule="evenodd" d="M271.421 58.7127C269.195 58.7127 268.948 58.0854 267.465 58.0854C265.734 58.0854 264.497 59.34 264.497 61.2218C264.497 61.8491 264.745 62.8527 264.745 64.1073C264.745 65.6127 264.497 67.1182 263.137 67.1182C261.901 67.1182 261.406 66.24 261.406 65.2364C261.406 63.48 262.272 62.2255 262.272 61.0964C262.272 58.9636 259.799 58.3364 257.079 58.3364C253.865 58.3364 250.403 59.2145 250.403 59.7164C250.403 60.4691 254.977 59.9673 258.315 64.3582C256.214 64.3582 252.134 65.3618 252.134 65.9891C252.134 66.7418 259.552 67.4945 259.552 70.6309C259.552 72.6382 257.945 72.8891 257.326 72.8891C254.854 72.8891 253.617 70.2545 252.999 70.2545C252.875 70.2545 252.628 70.38 252.628 70.6309C252.628 71.0073 252.999 72.1364 252.999 73.2655C252.999 76.1509 249.908 76.4018 249.908 77.0291C249.908 77.28 250.032 77.28 250.403 77.4054C252.628 77.7818 254.977 77.9073 257.079 77.9073C264.992 77.9073 271.297 75.3982 271.297 68.3727C271.297 64.4836 270.061 63.2291 270.061 61.3473C269.814 60.72 270.308 59.34 271.421 58.7127ZM260.417 74.0182H258.81C263.879 73.14 266.723 70.1291 266.723 66.1145C267.835 66.4909 268.577 67.62 268.577 68.8745C268.454 71.2582 266.352 74.0182 260.417 74.0182ZM267.465 61.8491C266.846 61.8491 266.352 61.3473 266.352 60.72C266.352 60.0927 266.846 59.5909 267.465 59.5909C268.083 59.5909 268.577 60.0927 268.577 60.72C268.577 61.3473 268.083 61.8491 267.465 61.8491Z" fill="white"/>
<path fill-rule="evenodd" clip-rule="evenodd" d="M240.636 57.2073C237.669 57.2073 235.444 58.7127 234.207 58.7127C233.465 58.7127 232.476 56.9564 231.858 56.9564C231.611 56.9564 231.364 57.4582 231.364 58.2109V58.4618C231.364 59.0891 231.24 60.2182 230.869 60.2182C229.756 60.2182 225.553 57.2073 225.553 58.2109C225.553 59.2145 228.396 62.3509 228.396 63.1036C228.396 63.8564 225.676 64.6091 225.676 65.2364C225.676 66.24 228.644 66.3655 228.644 67.62C228.644 68.8745 225.553 69.8782 225.553 70.7564C225.553 71.5091 228.644 71.0073 228.644 71.8854C228.644 72.7636 226.418 75.9 226.418 76.7782C226.418 77.0291 226.418 77.0291 226.665 77.0291C227.531 77.0291 230.127 74.1436 230.745 74.1436C231.487 74.1436 231.611 75.9 231.735 76.9036C231.858 77.4054 231.858 77.5309 232.105 77.5309C232.6 77.5309 233.465 75.5236 234.084 75.5236C234.949 75.5236 237.175 77.9073 241.007 77.9073C246.447 77.9073 251.516 74.1436 251.516 67.4945C251.64 60.9709 246.942 57.2073 240.636 57.2073ZM233.095 71.5091C232.971 71.5091 232.847 71.3836 232.847 71.1327L232.724 69.3764C232.724 69.2509 232.6 69 232.353 69H230.498C230.251 69 230.127 69 230.127 68.8745C230.127 68.4982 231.982 67.2436 231.982 66.9927C231.982 66.4909 230.251 65.6127 230.251 64.9854C230.251 64.86 230.375 64.86 230.498 64.86C230.993 64.86 231.858 64.9854 232.476 64.9854C233.095 64.9854 233.095 62.4764 233.589 62.4764C233.96 62.4764 234.455 64.86 234.949 64.86C235.567 64.86 236.556 64.2327 237.051 64.2327C237.175 64.2327 237.175 64.2327 237.175 64.3582C237.175 64.6091 236.062 65.8636 236.062 66.24C236.062 66.6164 238.535 67.1182 238.535 67.4945C238.535 67.9964 235.938 67.8709 235.938 68.2473C235.938 68.4982 236.927 69.7527 236.927 70.2545C236.927 70.38 236.927 70.38 236.804 70.38C236.433 70.38 235.073 69.7527 234.702 69.7527C234.207 69.7527 233.465 71.5091 233.095 71.5091ZM240.76 75.3982C237.669 75.3982 235.567 73.8927 235.567 73.0145C235.567 72.6382 235.815 72.3873 236.185 72.3873C237.175 72.3873 239.276 73.8927 240.018 73.8927C240.142 73.8927 240.389 73.7673 240.389 73.5164C240.389 72.7636 239.647 71.3836 239.647 70.7564C239.647 70.6309 239.771 70.5054 240.018 70.5054C241.255 70.5054 242.985 71.0073 243.975 71.0073C244.345 71.0073 244.345 70.8818 244.345 70.6309C244.345 69.6273 241.378 67.7454 241.378 67.1182C241.378 66.6164 244.964 65.7382 244.964 64.9854C244.964 64.1073 240.018 64.7345 240.018 63.8564C240.018 63.2291 241.007 62.2255 241.007 61.7236C241.007 61.4727 240.884 61.4727 240.513 61.4727C240.142 61.4727 237.916 62.3509 237.051 62.3509C236.556 62.3509 236.062 62.2254 236.062 61.5982C236.062 60.5945 237.793 59.4655 240.513 59.4655C244.964 59.4655 247.56 62.4764 247.56 67.4945C247.684 73.7673 243.233 75.3982 240.76 75.3982Z" fill="white"/>
<path fill-rule="evenodd" clip-rule="evenodd" d="M193.778 70.0036C195.509 70.0036 200.702 72.3873 203.051 72.3873C203.917 72.3873 204.411 71.8855 204.411 71.3836C204.411 68.6236 197.117 63.7309 196.993 61.7236C196.993 61.4727 197.117 61.3473 197.24 61.2218C198.477 59.8418 203.669 58.9636 203.669 57.8345C203.669 57.2073 202.557 57.2073 202.062 57.2073C197.858 57.2073 191.8 58.7127 191.8 60.2182C191.8 61.7236 197.24 65.4873 197.24 67.3691C197.24 67.8709 196.869 67.9964 196.375 67.9964C194.891 67.9964 191.553 66.1146 189.946 66.1146C189.204 66.1146 188.957 66.6164 188.957 67.3691C188.957 69.5018 191.553 73.6418 191.553 74.8964C191.553 75.0218 191.553 75.2727 191.306 75.2727C190.44 75.2727 186.731 70.7564 185.371 70.7564C184.877 70.7564 184.877 71.3836 184.877 72.3873V73.8927C184.877 74.8964 184.877 75.5236 184.382 75.5236C183.269 75.5236 182.651 72.2618 181.538 72.2618C180.426 72.2618 180.178 78.1582 179.066 78.1582C177.706 78.1582 178.818 71.76 177.582 71.76C176.222 71.76 174.615 76.0255 173.626 76.0255C173.255 76.0255 173.131 75.6491 173.131 75.3982C173.131 74.1436 173.873 72.0109 173.873 70.7564C173.873 70.1291 173.749 69.7527 173.131 69.7527C171.771 69.7527 168.68 72.0109 167.567 72.0109C167.444 72.0109 167.197 71.8855 167.197 71.76C167.197 70.6309 172.142 67.2436 172.142 65.7382C172.142 64.2327 165.342 65.2364 165.342 63.48C165.342 62.1 170.164 60.5945 170.164 59.0891C170.164 57.8345 164.477 57.2073 162.251 57.2073C159.655 57.2073 158.171 57.5836 158.171 58.3364C158.171 59.4655 164.229 59.8418 164.229 60.8455C164.229 61.8491 157.924 64.4836 157.924 65.9891C157.924 67.3691 166.702 66.1145 166.702 67.4945C166.702 69 159.037 75.6491 159.037 77.9073C159.037 78.4091 159.407 78.66 159.902 78.66C162.251 78.66 168.309 74.1436 169.917 74.1436C170.535 74.1436 170.535 74.8964 170.535 75.5236C170.535 76.6527 170.164 78.5345 170.164 79.7891C170.164 80.7927 170.411 81.5455 171.277 81.5455C172.884 81.5455 174.491 78.66 175.604 78.66C177.087 78.66 176.222 86.94 178.324 86.94C180.178 86.94 180.92 77.9073 182.033 77.9073C183.146 77.9073 184.135 80.5418 185.247 80.5418C186.607 80.5418 185.989 76.0255 187.349 76.0255C188.957 76.0255 193.407 81.42 195.509 81.42C196.127 81.42 196.375 80.9182 196.375 80.2909C196.375 77.9073 193.037 72.5127 193.037 70.7564C193.16 70.1291 193.284 70.0036 193.778 70.0036Z" fill="white"/>
<path fill-rule="evenodd" clip-rule="evenodd" d="M196.623 73.14C196.499 73.14 196.376 73.2654 196.376 73.3909C196.376 75.0218 202.063 82.6745 203.052 82.6745C203.917 82.6745 204.659 81.0436 204.659 79.7891C204.659 79.4127 204.536 79.0363 204.412 78.7854C203.546 77.5309 197.859 73.14 196.623 73.14ZM163.365 68.7491C163.365 68.3727 162.623 68.2472 162.005 68.2472C161.016 68.2472 159.656 68.4982 159.037 69C158.543 69.3763 158.172 70.6309 158.172 71.5091C158.172 72.0109 158.296 72.5127 158.79 72.5127C159.903 72.6382 163.365 69.6272 163.365 68.7491ZM171.401 63.1036C172.39 63.1036 173.997 62.6018 175.11 62.6018C175.728 62.6018 176.346 62.7272 176.346 63.3545C176.346 64.4836 173.874 66.4909 173.874 67.3691C173.874 67.62 174.121 67.7454 174.368 67.7454C175.234 67.7454 176.841 65.4872 178.201 65.4872C180.55 65.4872 179.066 70.6309 180.303 70.6309C181.663 70.6309 181.045 65.6127 183.023 65.6127C184.63 65.6127 185.743 69.1254 186.856 69.1254C187.103 69.1254 187.35 68.8745 187.35 68.6236C187.35 67.62 185.99 65.7382 185.99 64.4836C185.99 63.7309 186.485 63.3545 187.226 63.3545C188.216 63.3545 189.699 63.9818 190.441 63.9818C190.688 63.9818 190.936 63.8563 190.936 63.6054C190.936 62.4763 186.979 61.3472 186.979 59.9672C186.979 58.5872 189.205 58.5872 189.205 57.96C189.205 57.7091 187.845 57.4582 185.99 57.4582C183.023 57.4582 183.517 59.8418 181.168 59.8418C178.819 59.8418 179.437 57.3327 176.47 57.3327C174.616 57.3327 173.008 57.7091 173.008 58.0854C173.008 58.5872 175.11 58.3363 175.11 59.8418C175.11 61.4727 170.536 61.8491 170.536 62.8527C170.536 62.9782 170.906 63.1036 171.401 63.1036ZM199.714 62.4763C199.714 63.2291 202.557 64.9854 203.794 64.9854C204.536 64.9854 204.783 63.9818 204.783 62.8527C204.783 61.4727 204.165 61.4727 203.052 61.4727C201.568 61.4727 199.714 61.8491 199.714 62.4763Z" fill="white"/>
</g>
<defs>
<clipPath id="clip0_1903_10546">
<rect width="272" height="276" fill="white" transform="translate(83)"/>
</clipPath>
</defs>
</svg>
