<svg width="144" height="144" viewBox="0 0 144 144" fill="none" xmlns="http://www.w3.org/2000/svg">
<g clip-path="url(#clip0_1621_4770)">
<rect width="144" height="144" fill="white"/>
<g clip-path="url(#clip1_1621_4770)">
<g clip-path="url(#clip2_1621_4770)">
<path d="M107.28 104.924C108.654 104.924 109.571 105.709 109.636 106.691C109.636 107.411 109.047 108 108.327 108C106.756 108 107.149 106.822 106.494 106.822C105.028 106.822 103.877 109.075 102.78 111.488L102.611 111.86L102.36 112.42L102.109 112.975C101.52 114.153 101.258 114.349 100.8 114.349C99.6871 114.349 99.4907 111.404 99.0326 110.095C98.1162 112.058 96.2835 114.349 93.4035 114.349C91.7016 114.284 90.0653 113.433 90.0653 110.815C90.0653 107.869 92.0289 105.775 93.9926 105.775C95.498 105.775 96.4798 107.345 96.4798 108.393C96.4144 111.273 92.5526 111.338 92.5526 111.927C92.5526 112.516 93.5344 112.713 94.1235 112.713C96.6107 112.713 98.2471 109.505 98.8362 107.28C98.9671 106.887 99.2944 106.102 100.014 106.102C100.8 106.102 100.407 110.945 101.52 110.945C102.24 110.945 103.156 104.924 107.28 104.924ZM68.5307 98.3128C69.8398 98.2473 70.8871 99.4909 71.018 101.455C71.2798 106.691 69.5126 108.785 68.5962 110.684C68.7926 111.404 70.0362 112.647 71.2144 112.647C71.6726 112.647 72.1962 112.451 72.3271 112.255C72.1962 111.927 72.1307 111.6 72.1307 111.011C72.1307 108 74.1598 105.513 75.8616 105.513C77.2362 105.513 78.0216 107.28 78.0216 108.458C78.0216 109.833 76.8435 110.945 75.0762 111.993C75.4035 112.32 75.9926 112.516 76.4507 112.516C78.938 112.582 80.3126 109.571 81.2944 106.887C81.4907 106.364 81.818 105.644 82.4071 105.644C83.4544 105.644 83.8471 112.451 85.6144 112.451C86.3344 112.451 86.9889 110.945 86.9889 109.767C87.0544 108.851 86.7271 108.785 86.7271 107.542C86.7271 106.167 87.4471 104.989 88.4944 104.989C89.1489 104.989 89.3453 105.578 89.3453 106.298C89.2798 109.047 87.2507 114.153 84.2398 114.153C82.0144 114.153 82.2107 110.356 81.4253 110.356C80.5744 110.356 79.3307 114.153 74.9453 114.153C74.2253 114.153 73.4398 113.825 72.8507 113.105C71.8035 113.825 70.8871 114.087 69.9053 114.087C68.2689 114.087 67.5489 112.451 66.8944 112.451C66.1089 112.451 65.1926 114.087 62.5744 114.087C60.4798 114.087 60.0871 111.338 59.3671 111.338C58.7126 111.338 57.6653 114.087 56.5526 114.087C55.6584 114.087 55.1073 112.95 54.587 111.786L54.4318 111.436C53.9403 110.335 53.4494 109.309 52.6907 109.309C52.0958 109.309 50.858 110.417 49.6052 111.559L49.2635 111.87C48.014 113.009 46.8083 114.085 46.2762 114.022C45.818 113.956 45.6216 113.695 45.6871 113.236C45.7526 112.647 46.3416 111.011 46.538 110.291C46.9307 108.982 47.258 107.542 47.4544 107.084C47.5853 106.625 48.1089 106.298 48.5016 106.364C48.698 106.364 48.7635 106.691 48.8289 107.018C49.0253 108.065 49.3526 109.178 49.6798 109.178C50.2689 109.178 52.3635 105.382 53.5416 105.382C55.0471 105.382 55.178 111.404 57.1416 111.404C57.7962 111.404 58.2544 110.618 58.7126 109.702C58.778 108.131 59.2362 105.84 60.5453 105.84C61.4616 105.84 61.8544 107.869 61.1998 109.636C61.1344 111.731 62.5744 112.255 63.4907 112.255C64.1453 112.255 65.258 112.058 66.1744 110.684C65.6507 109.571 65.3235 107.28 65.258 106.495C65.0616 102.305 66.698 98.3782 68.5307 98.3128ZM43.3307 99.6219C44.1162 99.36 44.4435 99.7528 44.7707 100.669C45.1635 102.044 45.1635 103.876 45.0326 106.429C44.8362 109.964 43.0035 114.218 38.4871 114.087C34.5598 114.022 32.858 111.535 32.7271 107.804C32.6616 106.036 32.7926 104.269 33.578 101.782C34.0362 100.473 34.3635 100.015 35.6071 99.7528C36.5889 99.5564 36.458 100.538 36.2616 101.716C35.738 104.269 35.5416 105.513 35.6726 108.458C35.8689 111.535 37.3089 112.778 38.8798 112.778C41.3016 112.844 42.3489 110.945 42.8071 108.131C43.1344 105.905 42.8726 104.858 42.6762 104.138C42.5453 103.745 42.1526 102.895 42.0871 102.24C41.8253 100.8 42.6107 99.8182 43.3307 99.6219ZM75.2071 107.542C74.8144 107.476 73.898 107.935 73.898 109.309C73.898 110.422 74.2907 110.945 74.4871 111.142C75.7962 110.749 76.1235 109.702 76.058 108.851C76.058 108.131 75.6653 107.542 75.2071 107.542ZM93.4035 107.476C91.7016 107.476 91.8326 110.16 92.0944 110.749C93.338 110.553 94.1889 109.833 94.3853 109.178C94.5816 108.524 94.3198 107.476 93.4035 107.476ZM68.676 100.861L68.5962 100.865C67.7453 100.931 67.3526 103.615 67.4835 106.429C67.6144 108.262 67.8762 108.524 68.138 108.524C68.5962 108.524 69.7744 105.185 69.6435 102.567C69.578 101.389 69.2507 100.8 68.5962 100.865L68.676 100.861ZM61.0689 98.8364C61.8544 98.8364 62.378 99.2946 62.4435 100.015C62.5744 100.996 61.8544 102.044 60.8726 102.044C60.0216 102.044 59.6289 101.455 59.498 100.735C59.4326 99.6873 60.218 98.8364 61.0689 98.8364Z" fill="#1F35C6"/>
<path fill-rule="evenodd" clip-rule="evenodd" d="M77.6945 84.5673C77.4327 84.1092 77.6291 83.3237 76.9091 83.3237C76.4509 83.3237 76.3854 83.7164 76.32 84.0437C75.3382 83.7164 74.4872 83.5855 73.7018 83.5855C73.1782 83.5855 72.72 83.651 72.2618 83.7819C72 83.3237 70.8218 82.4074 69.84 82.0801C69.4472 84.2401 67.5491 85.8764 64.7345 86.1383C64.6036 87.5128 63.4909 87.9055 62.64 87.9055C62.0509 87.9055 61.0691 87.7092 61.0036 87.4474C60.6763 85.4183 59.1709 84.3055 58.4509 84.0437C58.4509 84.2401 58.5163 84.5019 58.5163 84.6983C58.5163 86.4001 57.3382 87.4474 55.1782 87.4474C54.8509 87.4474 54.3927 87.4473 54.0654 87.3819C56.5527 90.131 58.32 89.1492 59.4327 89.6728C60.9382 90.3273 62.1818 92.4874 67.0254 92.4874C68.7927 92.4874 70.56 91.7674 71.7382 91.0474C71.9345 91.7674 72.6545 92.4219 73.8982 92.4219C75.9272 92.4219 77.1054 91.7673 77.1054 91.2437C77.1054 91.1128 77.1054 90.9164 76.7127 90.9164C76.3854 90.9164 76.3854 90.9819 75.2727 90.9819C73.9636 90.9819 71.8691 90.4583 70.8873 88.1673C70.6909 87.7746 70.4291 87.7746 70.3636 87.7746C69.7091 87.7746 68.6618 90.131 64.5382 90.131C62.7709 90.131 61.9854 89.4764 61.9854 89.3455C61.9854 89.3455 61.9854 89.2801 62.0509 89.2801C62.2473 89.2801 62.8363 89.3455 63.6218 89.3455C66.24 89.3455 68.3345 88.1019 69.6436 86.7273C70.1018 86.2037 70.2982 86.1383 70.6909 86.1383C71.0182 86.1383 71.3454 86.4001 71.5418 86.8583C72.1309 88.3637 73.5054 89.6073 74.9454 89.6073C76.9091 89.6073 76.9745 86.2037 77.4327 86.0073C77.4982 86.0073 77.6291 86.0728 77.6945 86.0728C77.9563 86.0728 78.2836 85.8764 78.2836 85.4837C78.3491 84.9601 77.76 84.8292 77.6945 84.5673ZM74.4218 87.1201C73.8982 87.1201 73.5054 86.7273 73.5054 86.2037C73.5054 85.6801 73.8982 85.2219 74.4218 85.2219C74.9454 85.2219 75.3382 85.6801 75.3382 86.1383C75.4036 86.7274 74.9454 87.1201 74.4218 87.1201Z" fill="#1F35C6"/>
<path fill-rule="evenodd" clip-rule="evenodd" d="M67.6148 78.0217C68.073 78.0217 68.2693 78.4145 68.3348 78.8072C68.4657 78.6763 68.662 78.6108 68.8584 78.6108C69.3166 78.6108 69.5784 78.9381 69.5784 79.3308C69.5784 79.5926 69.4475 79.789 69.2511 79.9199C69.513 80.0508 69.7093 80.2472 69.7093 80.509C69.7093 80.8363 69.4475 81.0981 69.0548 81.0981C68.7275 81.0981 68.4657 80.7054 68.1384 80.7054C67.942 80.7054 67.6802 80.7708 67.6148 80.9017C67.7457 81.229 67.8111 81.4908 67.8111 81.8181C67.8111 83.5199 65.5202 84.8945 63.0984 84.8945C60.742 84.8945 59.8257 83.5199 59.8257 82.9308C59.8257 82.7999 59.8911 82.7345 60.0875 82.7345C60.4802 82.7345 60.5457 82.8654 61.6584 82.8654C64.2111 82.8654 63.2948 79.5926 65.7166 79.5926C66.0439 79.5926 66.7639 79.789 67.0257 80.2472C67.222 80.0508 67.2875 79.789 67.2875 79.5926C67.2875 79.1999 67.0257 78.9381 67.0257 78.6108C67.0257 78.2835 67.2875 78.0872 67.6148 78.0217Z" fill="#1F35C6"/>
<path fill-rule="evenodd" clip-rule="evenodd" d="M52.429 76.3201C55.309 76.3201 57.5344 78.7419 57.5344 82.211C57.5344 83.7819 56.6835 86.0728 53.2144 86.0728C49.0908 86.0728 46.6035 82.6037 46.6035 80.3783C46.6035 78.4801 47.8472 77.3019 48.6326 77.1055C47.7817 80.5092 49.6799 83.7819 53.4762 83.7819C55.3744 83.7819 56.2908 82.8655 56.2908 81.2292C56.2908 79.3964 55.0472 77.6292 52.8872 77.6292C51.8399 77.6292 51.0544 78.2183 51.0544 79.0692C51.0544 80.4437 52.2326 81.2946 53.4762 81.2946C54.2617 81.2946 54.7853 80.9673 54.7853 80.4437C54.7853 80.3783 54.7853 80.2473 54.7199 80.1819C54.6544 80.2473 54.4581 80.2473 54.1962 80.2473C53.2144 80.2473 52.429 79.7237 52.429 79.1346C52.429 78.6764 52.7562 78.4146 53.149 78.4146C54.589 78.4146 55.5708 79.8546 55.5708 80.9019C55.5708 81.9492 54.7853 82.8655 53.4762 82.8655C50.6617 82.8655 49.4181 80.5746 49.4181 79.0692C49.4835 77.4328 50.8581 76.3201 52.429 76.3201Z" fill="#1F35C6"/>
<path fill-rule="evenodd" clip-rule="evenodd" d="M86.9237 84.0437C86.3346 84.5019 84.8946 85.5492 82.4728 85.5492C81.1637 85.5492 80.64 85.1564 80.4437 85.1564C80.1819 85.1564 79.92 85.4182 79.6582 85.6801C79.0691 86.3346 78.3491 87.5128 78.3491 88.8873C78.3491 89.8037 79.0691 90.7201 80.4437 90.7201C84.8946 90.7201 88.1673 87.971 88.1673 85.811C88.2328 84.5673 87.4473 84.0437 86.9237 84.0437ZM84.6328 88.2982L82.08 89.0183C82.2764 88.4946 82.4073 87.9055 82.4073 87.3164C82.4073 87.1201 82.4073 86.9892 82.3419 86.7928H82.6691C84.5673 86.7928 85.3528 86.0728 85.4837 86.0728C85.6146 86.0728 85.7455 86.1382 85.7455 86.531C85.7455 87.0546 85.4837 87.7746 84.6328 88.2982Z" fill="#1F35C6"/>
<path fill-rule="evenodd" clip-rule="evenodd" d="M83.1273 84.5673C84.1746 84.5673 85.091 84.3055 85.6801 83.7819C85.8764 83.6509 85.9419 83.3891 85.9419 83.1273V82.6037C85.9419 81.9491 84.8946 81.5564 83.4546 81.5564C81.7528 81.5564 80.8364 82.3419 80.8364 82.6691V83.7164C80.8364 84.1091 81.8182 84.5673 83.1273 84.5673Z" fill="#1F35C6"/>
<path fill-rule="evenodd" clip-rule="evenodd" d="M91.1127 73.4399C87.6437 73.4399 88.56 76.3854 84.5018 77.3018C83.7818 77.4327 83.52 77.6945 83.52 78.0218C83.52 78.6109 83.8473 79.3963 84.3055 79.3963C86.0727 79.3963 88.7564 75.7963 89.28 75.7963C89.4764 75.7963 89.6727 75.7963 89.6727 76.3199C89.6727 77.629 85.8764 79.3309 85.8764 80.2472C85.8764 80.7709 87.1855 81.949 88.56 81.949C90.4582 81.949 92.16 78.1527 92.5527 78.1527C92.88 78.1527 92.9455 78.349 92.9455 78.6109C92.9455 79.6581 91.6364 81.6872 89.4109 82.5381C88.9528 82.7345 88.8873 82.9309 88.8873 83.0618C88.8873 83.5854 89.4764 84.3054 90 84.3054C90.6546 84.3054 95.04 80.509 95.04 77.4981C95.1709 74.6836 93.0109 73.4399 91.1127 73.4399ZM92.6837 76.7127C92.4218 76.7127 92.16 76.6472 92.0291 76.5163C91.7018 76.3854 91.1782 75.9272 91.1782 75.2727C91.1782 74.6181 91.5055 74.4218 91.8327 74.4218C92.8146 74.4218 93.9273 75.2727 93.9273 75.9927C93.9273 76.5818 93.4037 76.7127 92.6837 76.7127Z" fill="#1F35C6"/>
<path fill-rule="evenodd" clip-rule="evenodd" d="M59.9562 78.2836H59.3672C59.1708 78.2836 58.8435 78.2181 58.6472 78.0872C58.2544 77.7599 58.1235 75.9927 57.469 74.9454C56.6835 73.7672 55.8326 73.4399 54.7199 73.4399C53.9344 73.4399 53.0181 73.8981 53.0181 74.5527C53.0181 74.9454 53.2144 75.2072 54.7199 75.5999C56.6181 76.0581 57.5344 77.1054 57.7308 78.2836C57.9272 79.4618 58.1235 80.3781 58.5817 80.8363C59.1708 81.4909 60.2835 82.0799 61.3308 82.0799C62.1817 82.0799 62.8362 81.8181 62.8362 81.0327C62.7708 80.1818 61.5926 78.2836 59.9562 78.2836ZM61.1999 80.8363C60.4799 80.8363 59.4326 80.1163 59.4326 79.6581C59.4326 79.3309 59.7599 79.1345 60.0217 79.1345C60.6108 79.1345 61.6581 79.8545 61.6581 80.4436C61.6581 80.6399 61.5272 80.8363 61.1999 80.8363Z" fill="#1F35C6"/>
<path fill-rule="evenodd" clip-rule="evenodd" d="M74.2254 75.8618C73.7672 75.8618 73.7672 76.5818 73.7672 76.8436C73.7672 77.1055 73.7672 77.1709 73.5709 77.1709C73.3745 77.1709 73.2436 77.1055 73.0472 77.1055C72.9163 77.1055 72.7854 77.2364 72.7854 77.4327C72.7854 78.4145 74.0291 79.2 75.2727 79.2C76.9091 79.2 77.6945 78.48 78.1527 78.48C78.3491 78.48 78.4145 78.6764 78.4145 78.8073C78.4145 79.0691 78.1527 79.3964 78.1527 79.5273C78.1527 79.92 78.9382 79.5927 78.9382 80.0509C78.9382 80.64 77.9563 81.0982 76.4509 81.0982C73.5054 81.0982 71.6072 79.0691 71.6072 77.1709C71.6072 73.6364 75.4036 74.7491 75.4036 73.3745C75.4036 72.9164 74.9454 72.6545 74.6182 72.6545C75.0109 72.1309 75.5345 72.0655 76.0581 72.0655C76.4509 72.0655 76.8436 72.1309 77.1709 72.1309C77.6291 72.1309 78.0872 71.9345 78.0872 71.4109C78.0872 71.0836 77.8254 70.6909 76.7127 70.56C76.8436 69.84 78.3491 70.2327 78.3491 69.5782C78.3491 69.12 77.4982 68.7927 76.4509 68.7927C72.3927 68.7927 69.5127 72.1309 69.5127 75.7309C69.5127 79.0036 71.8691 82.6036 76.2545 82.6036C80.5091 82.6036 82.5381 79.1345 82.5381 76.5164C81.7527 77.2364 79.6582 77.4327 78.6109 77.4327C75.5345 77.4982 74.6836 75.8618 74.2254 75.8618Z" fill="#1F35C6"/>
<path fill-rule="evenodd" clip-rule="evenodd" d="M77.5634 76.32C78.218 76.32 78.6762 75.7964 78.6762 75.2073C78.6762 74.2909 77.7598 73.44 76.3853 73.44C76.6471 73.7018 76.7125 73.8982 76.7125 74.16C76.7125 74.4873 76.5162 74.88 76.5162 75.2727C76.5162 75.8618 76.9089 76.32 77.5634 76.32ZM84.1744 71.8691C84.3707 72.1309 84.4362 72.3927 84.4362 72.6546C84.4362 73.3091 83.978 73.9637 83.978 74.6182C83.978 75.4037 84.5671 76.0582 85.4834 76.0582C86.4653 76.0582 87.1198 75.2727 87.1198 74.3564C87.0543 73.0473 85.9416 72 84.1744 71.8691ZM79.4616 69.3818C79.7889 69.7746 79.9198 70.1673 79.9198 70.6255C79.9198 71.6727 79.1343 72.72 79.1343 73.7018C79.1343 75.0109 79.9853 75.8618 81.2289 75.8618C82.538 75.8618 83.3234 74.7491 83.3234 73.5055C83.3234 71.7382 81.9489 69.84 79.4616 69.3818ZM81.2943 73.1127C80.9671 73.1127 80.7053 72.8509 80.7053 72.5237C80.7053 72.3273 80.8362 72.0655 80.8362 71.8037C80.9016 71.4764 80.8362 71.2146 81.0325 71.2146C81.4253 71.2146 81.8834 71.9346 81.8834 72.3927C81.8834 72.7855 81.6871 73.1127 81.2943 73.1127Z" fill="#1F35C6"/>
<path fill-rule="evenodd" clip-rule="evenodd" d="M66.1745 70.2982C65.1272 69.9055 64.669 69.3164 64.4072 68.0728C63.8836 68.7928 63.6217 69.4473 63.6217 69.84C63.6217 71.4109 65.7817 71.4109 65.7817 72.4582C65.7817 73.0473 64.669 73.7018 63.229 73.7018C61.5927 73.7018 60.4145 73.44 59.3672 72.3928C59.1054 72.1309 58.9745 71.8691 58.6472 71.8691C58.2545 71.8691 58.0581 72.5237 58.0581 73.1782C58.0581 75.4037 60.2181 78.0873 63.229 78.0873C66.9599 78.0873 68.4654 75.5346 68.4654 73.44C68.5308 72.1964 68.269 71.0837 66.1745 70.2982ZM65.1272 76.5818C64.7999 76.5818 64.7345 76.4509 64.7345 76.1237C64.7345 75.9273 64.7999 75.5346 64.7999 75.2073C64.7999 74.4218 65.1272 74.4873 65.9127 74.0946C66.5017 73.8328 66.6981 73.5055 66.8945 73.5055C67.0908 73.5055 67.2872 73.6364 67.2872 73.9637C67.2872 75.1418 65.9781 76.5818 65.1272 76.5818Z" fill="#1F35C6"/>
<path fill-rule="evenodd" clip-rule="evenodd" d="M61.3961 66.5017C61.0034 66.5017 60.3489 66.109 59.6943 65.5854C58.9743 66.3054 58.4507 67.2872 58.4507 68.3999C58.4507 70.6908 60.8725 72.589 63.2289 72.589C63.6216 72.589 64.0143 72.5236 64.407 72.4581C63.098 72.3272 62.3125 71.3454 62.3125 70.1672C62.3125 68.6617 64.0143 67.2872 64.0143 66.109C64.0143 64.669 62.247 64.5381 62.247 63.3599C62.247 62.3781 63.9489 61.6581 63.8834 60.0872C63.8834 59.1708 62.967 58.0581 61.7234 57.4036C61.9198 57.7963 62.0507 58.3199 62.0507 58.6472C62.0507 60.4799 58.5161 61.2654 58.5161 62.7054C58.5161 64.5381 61.9198 65.2581 61.9198 66.109C61.9198 66.3054 61.7889 66.5017 61.3961 66.5017Z" fill="#1F35C6"/>
<path fill-rule="evenodd" clip-rule="evenodd" d="M97.069 67.6799C98.2472 67.6799 99.1635 69.1854 99.1635 70.9527C99.1635 72.8508 98.2472 74.8799 96.6763 76.3199C96.6763 73.1781 92.8145 74.1599 92.8145 71.869C92.8145 70.8872 93.5344 70.2327 94.3854 70.2327C95.1054 70.2327 95.6944 70.429 96.1526 70.8872C95.7599 70.4945 95.4981 69.9054 95.4981 69.3817C95.4981 68.5308 96.0217 67.6799 97.069 67.6799Z" fill="#1F35C6"/>
<path fill-rule="evenodd" clip-rule="evenodd" d="M50.7274 70.8872C50.4001 70.9526 50.1383 71.0181 49.9419 71.2145C49.7455 70.4945 49.091 69.8399 48.1746 70.0363C47.3892 70.1672 46.8001 70.8872 46.931 71.8035C46.931 71.9345 46.9965 72.1308 47.0619 72.2617C47.0619 72.2617 46.931 72.2617 46.8001 72.3272C46.1455 72.4581 45.3601 73.1126 45.491 74.0945C45.6219 74.9454 46.3419 75.5345 47.1928 75.469C47.5201 75.4036 47.7819 75.3381 47.9783 75.2072C48.1746 75.9926 48.8292 76.4508 49.6801 76.3854C50.531 76.2545 51.1201 75.5345 51.0546 74.6835C51.0546 74.4217 50.9892 74.2908 50.9237 74.1599H51.1201C51.971 73.9636 52.5601 73.309 52.4946 72.4581C52.2328 71.4108 51.5128 70.7563 50.7274 70.8872ZM49.0255 74.0945C48.5019 74.1599 48.1092 73.7672 48.0437 73.309C47.9783 72.7854 48.3055 72.3272 48.8292 72.2617C49.3528 72.1963 49.7455 72.589 49.811 73.0472C49.8764 73.5708 49.5492 74.029 49.0255 74.0945Z" fill="#1F35C6"/>
<path fill-rule="evenodd" clip-rule="evenodd" d="M93.1415 66.96C93.1415 66.6327 93.9269 65.8473 93.9269 65.5855C93.9269 65.52 93.8615 65.4545 93.796 65.4545C93.4688 65.4545 92.356 66.3055 90.7197 66.3055C90.0651 66.3055 89.6069 66.24 89.6069 65.7164C89.6069 65.2582 89.9997 64.8655 90.6542 64.6036C91.3742 64.2764 92.8142 64.2764 92.8142 63.9491C92.8142 63.6873 91.4397 63.6873 91.4397 63.4255C91.4397 63.0982 91.9633 62.3127 91.9633 61.9855C91.9633 61.9855 91.9633 61.8545 91.8978 61.8545C91.636 61.8545 90.9815 62.64 90.5887 62.64C90.196 62.64 89.8687 61.6582 89.5415 61.6582C89.476 61.6582 89.3451 61.7236 89.3451 61.92C89.3451 62.3127 89.5415 63.0327 89.5415 64.0145C89.5415 64.8655 89.0833 65.5855 88.6251 65.5855C88.036 65.5855 87.8397 64.8655 87.8397 64.2764C87.8397 63.4255 88.2978 62.4436 88.2978 61.5273C88.2978 61.3309 88.2324 61.2655 88.1015 61.2655C87.7742 61.2655 87.2506 62.2473 86.8578 62.2473C86.596 62.2473 86.1378 61.0691 85.7451 61.0691C85.6797 61.0691 85.6142 61.2655 85.6142 61.5273C85.6142 61.8545 85.6797 62.3127 85.6797 62.5091C85.6797 62.7709 85.3524 62.8364 84.9597 62.8364C84.6978 62.8364 84.1742 62.8364 84.1742 63.0327C84.1742 63.2291 84.6978 63.4255 85.156 63.7527C86.0069 64.3418 87.3815 64.9309 87.3815 66.3055C87.3815 67.5491 85.6142 68.4 84.3706 68.6618C83.7815 68.7273 83.1924 68.8582 83.1924 69.0545C83.1924 69.3164 84.7633 69.3818 84.7633 69.7091C84.7633 69.9055 84.0433 70.8218 84.0433 71.0836C84.0433 71.1491 84.1087 71.1491 84.1087 71.1491C84.3706 71.1491 85.156 70.4945 85.4833 70.4945C85.9415 70.4945 85.876 71.8691 86.2033 71.8691C86.596 71.8691 86.4651 69.84 86.596 69.3164C86.8578 68.4 87.5124 67.4836 88.1015 67.4836C88.8215 67.4836 88.8869 68.7273 88.8869 69.3164C88.8869 70.4945 88.036 71.7382 88.036 72.3273C88.036 72.3927 88.1015 72.4582 88.1669 72.4582C88.4287 72.4582 89.0178 71.6727 89.3451 71.6727C89.6724 71.6727 90.3924 72.9818 90.6542 72.9818C90.7851 72.9818 90.8506 72.8509 90.8506 72.72C90.8506 72.3273 90.6542 71.6727 90.6542 71.28C90.6542 70.8218 92.1597 71.0836 92.1597 70.7564C92.1597 70.6255 91.5051 70.3636 91.1124 70.1018C90.2615 69.5782 89.2797 68.4655 89.2797 67.5491C89.2797 67.2218 89.476 66.96 89.7378 66.96C91.5706 66.96 92.356 69.7745 92.6833 69.7745C93.0106 69.7745 92.8142 68.5309 92.9451 68.3345C93.0106 68.2691 93.2069 68.2036 93.4033 68.2036C93.7306 68.2036 94.1233 68.2691 94.3851 68.2691C94.5815 68.2691 94.6469 68.2691 94.6469 68.2036C94.5815 67.8109 93.1415 67.3527 93.1415 66.96Z" fill="#1F35C6"/>
<path fill-rule="evenodd" clip-rule="evenodd" d="M85.8762 66.1745C85.8762 65.5854 83.3235 63.6217 82.7999 63.6217C82.669 63.6217 82.6035 63.6872 82.6035 63.8181C82.6035 64.0145 82.669 64.2763 82.669 64.4727C82.669 64.9308 82.4726 64.9963 82.0144 64.9963C81.4908 64.9963 80.6399 64.7999 80.6399 63.949C80.6399 62.3127 83.7817 62.7054 84.109 61.1999C82.7344 61.1999 82.0799 60.2836 81.1635 60.2836C80.8362 60.2836 80.1817 60.4799 80.1817 61.3308C80.1817 61.5927 80.2472 62.0508 80.2472 62.4436C80.2472 62.8363 80.1817 63.0981 79.7235 63.0981C79.3308 63.0981 79.2653 62.6399 79.2653 62.1163C79.2653 61.6581 79.3308 61.1345 79.3308 60.8072C79.3308 58.3854 76.6472 59.3672 76.3853 57.4036C75.7308 58.5817 75.5344 59.4327 75.5344 60.1527C75.5344 62.7054 79.0035 62.4436 79.0035 64.2108C79.0035 64.669 78.6762 64.9308 78.349 64.9308C77.7599 64.9308 77.3672 63.6872 76.4508 63.6872C75.9926 63.6872 75.6653 64.0145 75.6653 64.7345C75.6653 65.2581 75.7962 65.6508 75.7962 66.1745C75.7962 67.2217 75.3381 67.6799 74.8799 68.1381C78.0217 67.8763 78.2181 65.5199 79.1344 65.5199C79.3962 65.5199 79.5272 65.7163 79.5272 65.8472C79.5272 66.2399 78.8726 66.8945 78.8726 67.549C78.8726 68.3999 79.8544 68.8581 80.509 68.8581C81.2944 68.8581 81.5562 68.5963 81.5562 68.0727C81.5562 67.4836 80.509 66.6981 80.509 66.0436C80.509 65.7163 80.8362 65.6508 81.2944 65.6508C82.2762 65.6508 82.6035 65.7817 82.6035 65.9781C82.6035 66.2399 82.2108 66.7636 82.2108 66.8945C82.2108 66.9599 82.2762 67.1563 82.4726 67.1563C83.1926 67.2872 85.8762 66.6981 85.8762 66.1745Z" fill="#1F35C6"/>
<path fill-rule="evenodd" clip-rule="evenodd" d="M52.8216 57.3381C52.3635 58.189 52.2326 59.3018 52.2326 59.9563C52.2326 63.949 57.0107 67.68 57.0107 70.1672C57.0107 71.149 56.2907 72.3272 54.9816 72.3272C53.8035 72.3272 53.1489 71.4109 53.1489 70.6254C53.1489 70.0363 53.5416 69.5127 53.738 69.5127C53.8035 69.5127 53.8035 69.5781 53.8035 69.709C53.8035 70.0363 54.0653 70.4945 54.5889 70.429C55.1126 70.429 55.3744 70.1018 55.3744 69.6436C55.3744 67.68 51.4471 64.2763 51.4471 59.629C51.2507 60.1527 50.9889 60.8072 50.9889 61.789C50.9889 64.0145 52.6253 66.3709 52.6253 68.5309C52.6253 69.3818 51.9707 70.1672 51.1198 70.1672C50.138 70.1672 49.8107 69.3818 49.8107 68.9236C49.8107 68.5963 49.9416 68.269 50.0726 68.269C50.2035 68.269 50.138 68.7927 50.6616 68.7927C51.2507 68.7927 51.4471 68.4 51.4471 67.68C51.4471 65.7163 50.3344 64.3418 50.3344 62.3127C50.3344 61.9854 50.3344 61.6581 50.3998 61.3963C49.8107 62.1163 49.7453 63.1636 49.7453 64.08V66.5018C49.7453 68.1381 48.9598 68.8581 47.978 68.8581C47.3235 68.8581 46.7344 68.3345 46.7344 67.4836C46.7344 67.3527 46.7998 66.96 46.9307 66.96C47.1271 66.96 47.258 67.4836 47.7816 67.4836C48.8289 67.4836 48.8944 66.5018 48.8944 64.4727C48.7635 61.9854 49.6798 59.3018 52.8216 57.3381Z" fill="#1F35C6"/>
<path fill-rule="evenodd" clip-rule="evenodd" d="M46.3419 56.1599C46.6692 56.1599 46.8001 56.4872 46.8001 56.749C46.8001 57.8617 45.3601 61.1345 45.3601 62.0508C45.3601 62.1817 45.4256 62.3126 45.5565 62.3126C46.1456 62.3126 47.3237 59.7599 47.7165 58.5163C47.9128 57.8617 48.2401 57.5345 48.5019 57.5345C48.7637 57.5345 48.9601 57.7963 48.9601 58.3199C48.9601 59.5635 47.7819 62.5745 46.7346 64.5381C45.9492 66.109 44.6401 68.3345 44.6401 69.5781C44.6401 70.2326 44.771 70.8872 45.6874 71.6726C44.1819 71.6072 43.5274 71.4108 42.9383 70.2981C40.3856 75.2726 47.651 74.8145 45.1637 79.2654C44.7056 78.4799 41.1056 77.629 41.1056 72.9817C41.1056 68.989 44.7056 66.6326 44.7056 64.9308C44.7056 64.6035 44.5746 64.3417 44.2474 64.0799C43.4619 63.4254 43.4619 62.9017 42.8074 62.9017C42.3492 62.9017 41.8256 63.949 42.3492 64.8654C42.5456 65.1926 42.6765 65.389 42.6765 65.6508C42.6765 66.3054 41.6292 68.0726 40.9092 68.0726C40.1892 68.0726 39.6001 66.2399 39.6001 63.3599C39.6001 60.8072 40.1892 58.189 40.9092 58.189C41.1056 58.189 41.171 58.3199 41.171 58.5163C41.171 58.8435 41.1056 59.4326 41.1056 60.4799C41.1056 61.5926 41.3674 61.6581 41.5637 61.6581C42.3492 61.6581 42.2183 56.749 43.5274 56.749C43.8546 56.749 43.9201 57.0763 43.9201 57.4035C43.9201 58.5163 43.3965 60.1526 43.3965 61.0035C43.3965 61.4617 43.5274 61.5926 43.7237 61.5926C44.3783 61.5272 45.3601 56.1599 46.3419 56.1599Z" fill="#1F35C6"/>
<path fill-rule="evenodd" clip-rule="evenodd" d="M99.5564 62.5746C98.4437 62.5746 97.8546 64.5382 96.7419 64.6037C97.3964 61.7891 100.211 60.2837 100.211 57.6655C100.211 54.6546 97.7237 53.6073 96.6764 52.9528C94.9746 50.4655 93.731 48.5019 90.9164 48.5019C89.7383 48.5019 88.9528 48.6982 88.1673 48.6982C86.5964 48.6982 86.0728 48.1091 86.0073 48.1091C86.0073 48.1091 85.9419 48.1091 85.9419 48.24C85.9419 50.4655 87.1201 55.44 92.0946 55.44C94.7783 55.44 95.891 54.3928 96.5455 54.3928C97.2001 54.3928 99.3601 55.1128 99.3601 57.6655C99.3601 59.04 98.2473 60.48 97.8546 60.48C97.4619 60.48 97.0692 59.8255 97.0692 59.1709C97.0692 58.4509 97.4619 57.0764 97.4619 56.2255C97.4619 55.8982 97.3964 55.7673 97.2001 55.7673C96.8073 55.7673 94.7783 57.0764 94.7783 58.6473C94.7783 60.0219 96.8074 60.8728 97.5928 61.2655C96.8074 62.5091 96.3492 63.36 96.0219 64.5382C96.0219 63.6219 95.171 61.8546 94.9092 61.0691C93.6655 57.5346 93.2073 56.88 90.5237 56.5528C90.9164 57.9928 95.4983 61.3964 95.4983 64.8655C95.4983 65.0619 95.4983 65.3891 95.4328 65.52C94.0583 61.4619 91.7019 60.48 90.851 59.4982C89.4764 57.9273 90.2619 56.4219 88.0364 55.5709C88.1673 55.7673 88.2328 56.0291 88.2328 56.2255C88.2328 57.011 87.8401 57.9273 87.8401 58.5819C87.8401 61.0691 90.6546 60.2837 92.3564 61.6582C93.9928 62.9673 94.9092 65.1273 95.5637 67.5491C96.2183 66.5019 96.611 65.1928 97.7237 65.1928C98.4437 65.1928 98.7055 66.1091 98.7055 66.8291V67.1564C99.8183 66.1746 100.407 64.6037 100.407 63.5564C100.342 63.0328 100.08 62.5746 99.5564 62.5746ZM95.1055 53.3455C94.8437 53.3455 94.451 53.2146 94.1237 53.2146C93.3383 53.2146 92.7492 54.3273 92.3564 54.3273C92.2255 54.3273 92.1601 54.1964 92.1601 54.0655C92.1601 53.6073 92.9455 53.0837 92.9455 52.7564C92.9455 52.56 92.6183 52.4946 92.4873 52.4946C91.7019 52.4946 90.5892 53.6073 89.9346 53.6073C89.8037 53.6073 89.6728 53.5419 89.6728 53.4109C89.6728 53.0837 90.5237 52.6909 90.5237 52.3637C90.5237 52.0364 90.1964 52.0364 89.9346 52.0364C89.5419 52.0364 88.7564 52.2328 88.2983 52.2328C88.0364 52.2328 87.8401 52.1673 87.8401 51.9709C87.8401 51.5128 89.3455 51.7746 89.3455 51.251C89.3455 50.9891 88.8873 50.4655 88.8873 50.2037C88.8873 50.0728 89.0183 50.0073 89.1492 50.0073C89.6728 50.0073 90.2619 51.5128 90.851 51.5128C91.1128 51.5128 91.1783 51.3164 91.1783 50.9891C91.1783 50.6619 91.1128 50.531 91.1128 50.2691C91.1128 50.0073 91.2437 49.9419 91.3092 49.9419C91.7019 49.9419 92.0292 52.0364 93.1419 52.0364C93.6001 52.0364 93.2728 50.7273 93.731 50.7273C93.9928 50.7273 94.0583 51.12 94.0583 51.3164C94.1892 52.6909 95.4328 52.7564 95.4328 53.28C95.3673 53.2146 95.3019 53.3455 95.1055 53.3455Z" fill="#1F35C6"/>
<path fill-rule="evenodd" clip-rule="evenodd" d="M79.462 50.2691C79.9856 50.2691 80.3783 50.6619 80.3783 51.12C80.3783 51.5782 79.9856 51.971 79.462 51.971C79.0038 51.971 78.5456 51.5782 78.5456 51.12C78.5456 50.6619 79.0038 50.2691 79.462 50.2691ZM85.4838 58.5164C85.0256 58.5164 84.5674 58.9091 84.5674 59.3673C84.5674 59.8909 85.0256 60.2182 85.4838 60.2182C86.0074 60.2182 86.4001 59.8255 86.4001 59.3019C86.4001 58.8437 86.0074 58.5164 85.4838 58.5164ZM82.4729 56.88C81.5565 56.88 80.8365 57.6 80.8365 58.451C80.8365 59.3019 81.5565 60.0219 82.4729 60.0219C83.3892 60.0219 84.1092 59.3019 84.1092 58.451C84.1092 57.6 83.3892 56.88 82.4729 56.88ZM79.5929 56.16C79.0692 56.16 78.6765 56.5528 78.6765 57.0764C78.6765 57.6 79.1347 57.9928 79.5929 57.9928C80.1165 57.9928 80.5092 57.6 80.5092 57.0764C80.5092 56.5528 80.1165 56.16 79.5929 56.16ZM85.3529 57.6C85.942 57.6 86.4656 57.1419 86.4656 56.5528C86.4656 55.9637 85.942 55.5055 85.3529 55.5055C84.7638 55.5055 84.2401 55.9637 84.2401 56.5528C84.2401 57.0764 84.7638 57.6 85.3529 57.6ZM76.8438 54.2619C76.1238 54.2619 75.4692 54.851 75.4692 55.571C75.4692 56.291 76.0583 56.88 76.8438 56.88C77.5638 56.88 78.2183 56.291 78.2183 55.571C78.1529 54.851 77.5638 54.2619 76.8438 54.2619ZM81.7529 55.2437C81.7529 55.7673 82.1456 56.16 82.6692 56.16C83.1929 56.16 83.5856 55.7673 83.5856 55.2437C83.5856 54.72 83.1929 54.3273 82.6692 54.3273C82.1456 54.3273 81.7529 54.7855 81.7529 55.2437ZM79.9201 55.5055C80.7056 55.5055 81.3601 54.9164 81.3601 54.1309C81.3601 53.3455 80.7056 52.7564 79.9201 52.7564C79.1347 52.7564 78.4801 53.3455 78.4801 54.1309C78.4801 54.8509 79.0692 55.5055 79.9201 55.5055ZM85.1565 54.5891C85.6802 54.5891 86.1383 54.131 86.1383 53.6073C86.1383 53.0837 85.6802 52.6255 85.1565 52.6909C84.6329 52.6909 84.1747 53.1491 84.1747 53.6728C84.1747 54.1964 84.6329 54.5891 85.1565 54.5891ZM77.2365 53.28C77.7601 53.28 78.1529 52.8873 78.1529 52.3637C78.1529 51.84 77.7601 51.4473 77.2365 51.4473C76.7129 51.4473 76.3201 51.84 76.3201 52.3637C76.2547 52.8873 76.7129 53.28 77.2365 53.28ZM82.6038 53.2146C83.4547 53.2146 84.1092 52.56 84.1092 51.7746C84.1092 50.9891 83.4547 50.3346 82.6038 50.3346C81.7529 50.3346 81.0983 50.9891 81.0983 51.7746C81.0983 52.56 81.7529 53.2146 82.6038 53.2146ZM83.7165 49.8109C84.2401 49.8109 84.6329 49.4182 84.6329 48.96C84.6329 48.5019 84.2401 48.1091 83.7165 48.1091C83.1929 48.1091 82.8001 48.5019 82.8001 48.96C82.8656 49.4837 83.2583 49.8109 83.7165 49.8109Z" fill="#1F35C6"/>
<path fill-rule="evenodd" clip-rule="evenodd" d="M57.2728 50.9891C57.8619 50.9891 58.9091 51.9709 59.171 53.0182C59.0401 53.0182 58.9091 52.9528 58.8437 52.9528C58.0582 52.9528 57.6655 53.6728 57.0764 54.9164C58.451 54 59.6946 53.28 61.1346 53.28C62.3782 53.28 63.3601 54 63.3601 55.1127C63.3601 55.5709 63.0982 56.0946 62.8364 56.6182C62.64 55.5709 61.7891 55.1127 60.2837 55.1127C59.4328 55.1127 58.3855 55.2437 57.5346 55.5709C60.2182 55.9637 60.611 56.88 60.611 57.7309C60.611 59.1709 59.1055 59.8909 58.1237 60.3491C58.1891 59.9564 58.32 59.4982 58.32 59.04C58.32 58.1891 57.9928 57.1418 56.6182 56.2255C56.4219 57.1418 55.6364 57.7309 55.6364 58.4509C55.6364 58.7128 55.8328 58.8437 55.9637 58.8437C55.9637 59.2364 55.7673 60.4146 55.7673 60.7418C55.7673 61.3309 55.8982 61.4618 56.2255 61.5273C56.4219 62.0509 56.4219 62.9673 56.5528 63.4255C56.6182 63.6873 56.8146 63.7528 57.011 63.7528C57.2073 64.2109 57.4691 64.9309 57.8619 65.1927C57.9273 65.2582 58.0582 65.4546 58.0582 65.5855C58.0582 65.9782 57.4037 66.4364 57.011 66.4364C56.88 66.4364 56.6837 66.3709 56.4873 65.9127C56.3564 65.5855 55.1782 64.8655 55.1128 64.4727C55.1782 64.4073 55.2437 64.2764 55.2437 64.08C55.2437 63.4255 54.1964 62.7055 54.1964 61.6582C54.3273 61.5927 54.4582 61.3964 54.4582 61.2C54.4582 60.6109 53.8691 59.4982 53.8691 58.7127C54.131 58.7127 54.2619 58.7127 54.2619 58.32C54.3273 57.5346 54.4582 56.4218 55.1782 55.7673C54.9819 55.7673 54.7855 55.7018 54.5237 55.7018C53.0837 55.7018 50.9237 56.4873 50.0728 58.32C50.0073 58.0582 50.0073 57.7964 50.0073 57.5346C50.0073 56.0291 50.9237 55.0473 51.6437 54.72C51.971 54.5891 52.4291 54.5237 52.8873 54.5237C53.6728 54.5237 54.5237 54.6546 55.44 54.8509C54.6546 53.8037 53.411 53.0837 52.3637 53.0837C51.9055 53.0837 51.5128 53.2146 51.3819 53.6073C51.3164 53.4109 51.3164 53.0837 51.3164 52.8218C51.3164 51.7091 51.7091 51.0546 52.691 51.0546C54.131 51.0546 55.4401 52.7564 56.1601 54.3273V54.1309C56.1601 51.9055 56.2255 50.7927 57.1419 50.7273L57.2728 50.9891Z" fill="#1F35C6"/>
<path fill-rule="evenodd" clip-rule="evenodd" d="M39.0762 54.72C39.0762 56.4873 39.6653 57.3382 40.6471 57.3382C41.4325 57.3382 42.4798 56.8145 43.7234 55.7673C42.7416 55.9636 42.0216 56.0945 41.3671 56.0945C40.5162 56.0945 39.7962 55.7673 39.0762 54.72ZM45.8834 52.2982C45.2944 52.4291 44.1816 53.0836 44.1816 54.2618C44.1816 55.1127 44.8362 55.6364 45.6871 55.6364C46.1453 55.6364 46.4725 55.5709 46.6689 55.3745C46.0144 54.72 45.7525 54.0654 45.7525 53.3454C45.7525 52.8873 45.818 52.56 45.8834 52.2982ZM47.9125 50.4C47.3889 50.9891 46.7998 52.0364 46.7998 53.0836C46.7998 54.3273 47.5853 55.3745 48.8289 55.3745C50.0071 55.3745 50.5962 54.3927 50.5962 53.4109C50.6616 51.84 49.1562 50.7273 47.9125 50.4ZM39.9271 52.6254V52.9527C39.9271 54.0654 40.5162 54.6545 41.3671 54.6545C41.9562 54.6545 42.6762 54.3273 43.3307 53.5418C43.0689 53.6073 42.7416 53.6073 42.4798 53.6073C41.498 53.6727 40.5162 53.4109 39.9271 52.6254ZM44.7707 46.6036C43.9853 46.6036 43.0034 46.6691 41.9562 47.3236C39.8616 48.6327 40.1234 50.7273 39.7962 51.3164C39.7307 51.3818 39.7307 51.4473 39.7307 51.5782C39.7307 51.7745 39.9925 52.0364 40.1889 52.0364C40.3853 52.0364 40.5162 51.9709 40.5816 51.9709C41.1707 51.9709 41.8253 52.3636 42.8071 52.3636C43.3962 52.3636 44.0507 52.1673 44.8362 51.7745C46.6034 50.9236 47.258 48.8291 47.258 48.5018C47.258 48.0436 46.8653 48.1091 46.6034 47.7164C46.2762 47.3236 46.4071 46.9309 46.2107 46.7345C46.0798 46.6036 45.7525 46.6036 45.2944 46.6036H44.7707ZM43.3307 51.2509C42.5453 51.2509 41.6289 50.2691 41.6289 49.4182C41.6289 48.96 42.0216 48.3709 42.2834 48.3709C42.3489 48.3709 42.4144 48.4364 42.4798 48.6327C42.6107 49.7454 43.3962 50.4 44.1162 50.7273C44.1816 50.7927 44.2471 50.7927 44.2471 50.8582C44.1816 51.0545 43.7234 51.2509 43.3307 51.2509ZM46.2107 49.0909C46.2107 49.4182 46.0144 49.8109 45.6216 49.8109C44.7707 49.8109 44.1162 48.5673 44.0507 47.8473C44.0507 47.3891 44.3125 47.3891 44.7053 47.3891C44.9016 47.3891 44.9671 47.3891 45.098 47.4545C45.2944 47.5854 45.2944 48.0436 45.5562 48.3709C45.7525 48.6327 46.2107 48.8945 46.2107 49.0909ZM48.0434 48.0436C48.0434 48.5673 48.5016 48.96 49.0253 48.96C49.5489 48.96 50.0071 48.5673 50.0071 48.0436C50.0071 47.52 49.5489 47.1273 49.0253 47.1273C48.5016 47.0618 48.0434 47.52 48.0434 48.0436ZM47.7162 46.8654C48.2398 46.8654 48.698 46.4727 48.698 45.9491C48.698 45.4254 48.2398 45.0327 47.7162 45.0327C47.1925 45.0327 46.7344 45.4254 46.7344 45.9491C46.7998 46.4073 47.1925 46.8654 47.7162 46.8654ZM41.1053 46.4073C41.9562 46.4073 42.6762 45.8836 42.6762 45.8836C41.2362 45.4909 40.4507 44.5091 40.4507 43.1345V42.7418C39.5344 43.1345 39.1416 43.8545 39.1416 44.5745C39.2071 45.6873 40.058 46.4073 41.1053 46.4073ZM45.3598 45.36C45.4907 44.9673 45.5562 44.5091 45.5562 43.9854C45.5562 42.8727 45.0325 41.1709 43.3307 41.1709C42.3489 41.1709 41.6944 41.8909 41.6944 42.7418C41.7598 44.64 43.7234 45.36 45.3598 45.36Z" fill="#1F35C6"/>
<path fill-rule="evenodd" clip-rule="evenodd" d="M99.1637 44.7709C98.1165 46.8654 95.4983 47.3236 94.6474 47.1927C94.9092 49.3527 98.1165 52.2327 98.9674 52.1672C99.5565 52.1018 99.7528 49.3527 99.7528 47.1927C99.7528 45.9491 99.8183 44.9672 99.1637 44.7709ZM99.2292 42.7418C99.2292 41.9563 98.9019 41.3672 97.9856 41.2363C98.1165 41.4327 98.1819 41.6291 98.1819 41.9563C98.1819 43.2 96.3492 44.5745 94.3201 44.5745C93.6001 44.5745 93.3383 45.0981 93.4037 45.36C93.4037 46.0145 93.9928 46.2763 94.8437 46.2763C97.1346 46.2109 99.2292 44.3781 99.2292 42.7418Z" fill="#1F35C6"/>
<path fill-rule="evenodd" clip-rule="evenodd" d="M94.3199 43.7236C95.2363 43.7236 97.1999 42.9381 97.1999 41.8909C97.1999 41.5636 97.069 41.2363 96.5454 41.2363C95.8254 41.2363 94.8436 41.9563 93.8617 41.9563C93.5345 41.9563 93.1418 41.9563 92.749 41.8254C93.1418 42.0872 93.0763 42.7418 93.2727 43.2C93.5999 43.7236 93.9927 43.7236 94.3199 43.7236Z" fill="#1F35C6"/>
<path fill-rule="evenodd" clip-rule="evenodd" d="M82.0147 44.2473C82.0147 46.3419 80.5747 47.1928 79.2656 47.1928C78.9383 47.1928 78.6765 47.1273 78.4147 46.9964C78.6765 46.7346 78.9383 46.3419 78.9383 46.08C78.9383 45.8837 78.8074 45.8182 78.611 45.8182C78.4801 45.8182 78.1528 45.8837 77.891 45.8837C77.2365 45.8837 76.7129 45.6219 76.1238 45.0328C75.731 45.6219 75.5347 46.4073 75.5347 47.1928C75.5347 48.4364 75.9928 49.68 76.5165 49.7455C76.7783 49.7455 76.7783 48.8946 77.2365 48.8946C77.3674 48.8946 77.891 49.2873 79.0038 49.2873C80.6401 49.2873 82.4728 48.3055 82.4728 45.7528C82.4074 45.4255 82.2765 44.64 82.0147 44.2473Z" fill="#1F35C6"/>
<path fill-rule="evenodd" clip-rule="evenodd" d="M78.284 42.9381C78.6113 42.9381 79.2658 43.0691 79.4622 43.3963C79.2004 43.5272 78.9385 43.8545 78.9385 44.1163C78.9385 44.2472 79.004 44.3781 79.1349 44.4436C79.724 44.7054 80.0513 45.1636 80.2476 45.5563C81.2949 44.9672 81.6876 43.3309 81.6876 42.4145C81.6876 42.1527 81.6876 41.76 81.4258 41.76C81.2295 41.76 81.0331 42.0218 80.7713 42.0218C80.5749 42.0218 79.9858 41.2363 78.5458 41.2363C76.9095 41.2363 76.1895 42.48 76.1895 43.5272C76.1895 43.7891 76.2549 44.1163 76.3204 44.3127C76.6476 43.6581 77.3022 42.9381 78.284 42.9381Z" fill="#1F35C6"/>
<path fill-rule="evenodd" clip-rule="evenodd" d="M61.7237 44.3127C60.5455 44.3127 59.4982 45.2945 58.7128 46.6036C58.7782 46.3418 58.7782 46.08 58.7782 45.8182C58.7782 43.9855 57.7964 42.4146 56.0292 42.4146C54.5892 42.4146 53.2146 43.2655 52.691 44.9673C52.8219 44.8364 53.3455 44.5091 53.7382 44.5091C54.1964 44.5091 54.3273 44.9018 54.3273 45.5564C54.3273 45.9491 54.2619 46.4727 54.0655 46.9309C53.8037 47.7164 53.2801 47.9127 53.0182 47.9127C51.9055 47.9127 52.4292 46.0146 51.8401 46.0146C51.3819 46.0146 51.251 47.0618 51.251 47.4545C51.251 48.7636 52.1019 50.1382 54.0001 50.1382C56.0292 50.1382 57.1419 49.1564 58.3201 47.9127C58.5819 49.2873 59.3019 51.7091 61.331 51.7091C62.4437 51.7091 63.2292 50.7927 63.2946 49.68C63.1637 49.8109 62.9673 49.9418 62.7055 49.9418C62.3128 49.9418 62.1819 49.3527 62.1819 48.8291C62.1819 47.9782 62.4437 47.0618 62.8364 47.0618C63.0328 47.0618 63.1637 47.1927 63.2292 47.8473C63.2946 48.3055 63.2292 48.8945 63.5564 48.8945C63.8837 48.8945 64.0146 47.9127 64.0146 47.3236C63.9492 45.6218 63.2292 44.2473 61.7237 44.3127ZM54.9819 48.7636C54.7855 48.7636 54.7201 48.5673 54.7201 48.4364C54.7201 47.52 55.7019 43.4618 56.4219 43.4618C56.5528 43.4618 56.6182 43.5927 56.6182 43.7891C56.6182 44.5091 55.7673 48.7636 54.9819 48.7636ZM57.9928 46.9964C57.4037 47.6509 57.0764 47.9782 56.8146 47.9782C56.6837 47.9782 56.5528 47.7164 56.5528 47.4545C56.5528 46.9964 56.8801 45.0982 57.6001 45.0982C57.8619 45.0982 58.0582 45.6218 58.0582 46.08C58.0582 46.4727 58.0582 46.7346 57.9928 46.9964ZM59.3673 48.6327C59.171 48.6327 58.9746 48.24 58.9746 47.4545C59.3673 46.8 59.5637 46.5382 59.8255 46.5382C59.891 46.5382 60.0219 46.6036 60.0219 46.9964C59.9564 47.8473 59.6292 48.6327 59.3673 48.6327ZM60.5455 50.0073C60.4146 50.0073 60.2837 49.8109 60.2837 49.2873C60.2837 48.0436 61.0692 45.7527 61.5273 45.7527C61.6582 45.7527 61.7237 46.08 61.7237 46.4073C61.7892 47.7818 61.1346 50.0073 60.5455 50.0073Z" fill="#1F35C6"/>
<path fill-rule="evenodd" clip-rule="evenodd" d="M90.5891 41.6291C90.1309 41.6291 89.4109 42.1527 88.8872 42.1527C88.1672 42.1527 88.3636 41.1709 87.5782 41.1709C87.3818 41.1709 87.1854 41.2364 86.9891 41.3673C85.3527 42.2182 84.0436 41.8909 83.7818 42.0873C83.7163 42.1527 83.6509 42.1527 83.6509 42.3491C83.6509 44.1818 85.4836 46.9309 88.4945 46.9309C90.5891 46.9309 92.2909 46.2109 92.2909 44.9673C92.2254 43.92 91.2436 41.6291 90.5891 41.6291ZM88.6909 45.1636C86.9891 45.1636 85.9418 44.1818 85.9418 43.5927C85.9418 43.5273 86.0072 43.4618 86.0727 43.4618C86.3345 43.4618 87.0545 43.8545 88.0363 43.9854C89.1491 44.1818 89.7382 44.1818 90.0654 44.1818C90.3927 44.1818 90.5236 44.2473 90.5236 44.3782C90.4582 44.7054 89.6727 45.1636 88.6909 45.1636Z" fill="#1F35C6"/>
<path fill-rule="evenodd" clip-rule="evenodd" d="M99.7529 30.6327C98.5747 30.6327 98.4438 30.3054 97.6583 30.3054C96.7419 30.3054 96.0874 30.96 96.0874 31.9418C96.0874 32.2691 96.2183 32.7927 96.2183 33.4472C96.2183 34.2327 96.0874 35.0181 95.3674 35.0181C94.7129 35.0181 94.451 34.56 94.451 34.0363C94.451 33.12 94.9092 32.4654 94.9092 31.8763C94.9092 30.7636 93.6001 30.4363 92.1601 30.4363C90.4583 30.4363 88.6256 30.8945 88.6256 31.1563C88.6256 31.5491 91.0474 31.2872 92.8147 33.5781C91.702 33.5781 89.542 34.1018 89.542 34.4291C89.542 34.8218 93.4692 35.2145 93.4692 36.8509C93.4692 37.8981 92.6183 38.0291 92.291 38.0291C90.982 38.0291 90.3274 36.6545 90.0001 36.6545C89.9347 36.6545 89.8038 36.72 89.8038 36.8509C89.8038 37.0472 90.0001 37.6363 90.0001 38.2254C90.0001 39.7309 88.3638 39.8618 88.3638 40.1891C88.3638 40.32 88.4292 40.32 88.6256 40.3854C89.8038 40.5818 91.0474 40.6472 92.1601 40.6472C96.3492 40.6472 99.6874 39.3381 99.6874 35.6727C99.6874 33.6436 99.0329 32.9891 99.0329 32.0072C98.902 31.68 99.1638 30.96 99.7529 30.6327ZM93.9274 38.6181H93.0765C95.7601 38.16 97.2656 36.5891 97.2656 34.4945C97.8547 34.6909 98.2474 35.28 98.2474 35.9345C98.182 37.1781 97.0692 38.6181 93.9274 38.6181ZM97.6583 32.2691C97.331 32.2691 97.0692 32.0072 97.0692 31.68C97.0692 31.3527 97.331 31.0909 97.6583 31.0909C97.9856 31.0909 98.2474 31.3527 98.2474 31.68C98.2474 32.0072 97.9856 32.2691 97.6583 32.2691Z" fill="#1F35C6"/>
<path fill-rule="evenodd" clip-rule="evenodd" d="M83.4547 29.8472C81.8838 29.8472 80.7056 30.6327 80.0511 30.6327C79.6583 30.6327 79.1347 29.7163 78.8074 29.7163C78.6765 29.7163 78.5456 29.9781 78.5456 30.3709V30.5018C78.5456 30.829 78.4801 31.4181 78.2838 31.4181C77.6947 31.4181 75.4692 29.8472 75.4692 30.3709C75.4692 30.8945 76.9747 32.5309 76.9747 32.9236C76.9747 33.3163 75.5347 33.709 75.5347 34.0363C75.5347 34.5599 77.1056 34.6254 77.1056 35.2799C77.1056 35.9345 75.4692 36.4581 75.4692 36.9163C75.4692 37.309 77.1056 37.0472 77.1056 37.5054C77.1056 37.9636 75.9274 39.5999 75.9274 40.0581C75.9274 40.189 75.9274 40.189 76.0583 40.189C76.5165 40.189 77.8911 38.6836 78.2183 38.6836C78.6111 38.6836 78.6765 39.5999 78.742 40.1236C78.8074 40.3854 78.8074 40.4509 78.9383 40.4509C79.2001 40.4509 79.6583 39.4036 79.9856 39.4036C80.4438 39.4036 81.622 40.6472 83.6511 40.6472C86.5311 40.6472 89.2147 38.6836 89.2147 35.2145C89.2801 31.8109 86.7929 29.8472 83.4547 29.8472ZM79.462 37.309C79.3965 37.309 79.3311 37.2436 79.3311 37.1127L79.2656 36.1963C79.2656 36.1309 79.2001 35.9999 79.0692 35.9999H78.0874C77.9565 35.9999 77.8911 35.9999 77.8911 35.9345C77.8911 35.7381 78.8729 35.0836 78.8729 34.9527C78.8729 34.6909 77.9565 34.2327 77.9565 33.9054C77.9565 33.8399 78.022 33.8399 78.0874 33.8399C78.3492 33.8399 78.8074 33.9054 79.1347 33.9054C79.462 33.9054 79.462 32.5963 79.7238 32.5963C79.9201 32.5963 80.182 33.8399 80.4438 33.8399C80.7711 33.8399 81.2947 33.5127 81.5565 33.5127C81.622 33.5127 81.622 33.5127 81.622 33.5781C81.622 33.709 81.0329 34.3636 81.0329 34.5599C81.0329 34.7563 82.342 35.0181 82.342 35.2145C82.342 35.4763 80.9674 35.4109 80.9674 35.6072C80.9674 35.7381 81.4911 36.3927 81.4911 36.6545C81.4911 36.7199 81.4911 36.7199 81.4256 36.7199C81.2292 36.7199 80.5092 36.3927 80.3129 36.3927C80.0511 36.3927 79.6583 37.309 79.462 37.309ZM83.5201 39.3381C81.8838 39.3381 80.7711 38.5527 80.7711 38.0945C80.7711 37.8981 80.902 37.7672 81.0983 37.7672C81.622 37.7672 82.7347 38.5527 83.1274 38.5527C83.1929 38.5527 83.3238 38.4872 83.3238 38.3563C83.3238 37.9636 82.9311 37.2436 82.9311 36.9163C82.9311 36.8509 82.9965 36.7854 83.1274 36.7854C83.782 36.7854 84.6983 37.0472 85.222 37.0472C85.4183 37.0472 85.4183 36.9818 85.4183 36.8509C85.4183 36.3272 83.8474 35.3454 83.8474 35.0181C83.8474 34.7563 85.7456 34.2981 85.7456 33.9054C85.7456 33.4472 83.1274 33.7745 83.1274 33.3163C83.1274 32.989 83.6511 32.4654 83.6511 32.2036C83.6511 32.0727 83.5856 32.0727 83.3892 32.0727C83.1929 32.0727 82.0147 32.5309 81.5565 32.5309C81.2947 32.5309 81.0329 32.4654 81.0329 32.1381C81.0329 31.6145 81.9492 31.0254 83.3892 31.0254C85.7456 31.0254 87.1201 32.5963 87.1201 35.2145C87.1856 38.4872 84.8292 39.3381 83.5201 39.3381Z" fill="#1F35C6"/>
<path fill-rule="evenodd" clip-rule="evenodd" d="M58.6473 36.5235C59.5637 36.5235 62.3128 37.7672 63.5564 37.7672C64.0146 37.7672 64.2764 37.5054 64.2764 37.2435C64.2764 35.8035 60.4146 33.2508 60.3492 32.2035C60.3492 32.0726 60.4146 32.0072 60.4801 31.9417C61.1346 31.2217 63.8837 30.7635 63.8837 30.1744C63.8837 29.8472 63.2946 29.8472 63.0328 29.8472C60.8074 29.8472 57.6001 30.6326 57.6001 31.4181C57.6001 32.2035 60.4801 34.1672 60.4801 35.149C60.4801 35.4108 60.2837 35.4763 60.0219 35.4763C59.2364 35.4763 57.4692 34.4944 56.6183 34.4944C56.2255 34.4944 56.0946 34.7563 56.0946 35.149C56.0946 36.2617 57.4692 38.4217 57.4692 39.0763C57.4692 39.1417 57.4692 39.2726 57.3383 39.2726C56.8801 39.2726 54.9164 36.9163 54.1964 36.9163C53.9346 36.9163 53.9346 37.2435 53.9346 37.7672V38.5526C53.9346 39.0763 53.9346 39.4035 53.6728 39.4035C53.0837 39.4035 52.7564 37.7017 52.1673 37.7017C51.5783 37.7017 51.4473 40.7781 50.8583 40.7781C50.1383 40.7781 50.7273 37.4399 50.0728 37.4399C49.3528 37.4399 48.5019 39.6653 47.9783 39.6653C47.7819 39.6653 47.7164 39.469 47.7164 39.3381C47.7164 38.6835 48.1092 37.5708 48.1092 36.9163C48.1092 36.589 48.0437 36.3926 47.7164 36.3926C46.9964 36.3926 45.3601 37.5708 44.771 37.5708C44.7055 37.5708 44.5746 37.5054 44.5746 37.4399C44.5746 36.8508 47.1928 35.0835 47.1928 34.2981C47.1928 33.5126 43.5928 34.0363 43.5928 33.1199C43.5928 32.3999 46.1455 31.6144 46.1455 30.829C46.1455 30.1744 43.1346 29.8472 41.9564 29.8472C40.5819 29.8472 39.7964 30.0435 39.7964 30.4363C39.7964 31.0254 43.0037 31.2217 43.0037 31.7454C43.0037 32.269 39.6655 33.6435 39.6655 34.429C39.6655 35.149 44.3128 34.4944 44.3128 35.2144C44.3128 35.9999 40.2546 39.469 40.2546 40.6472C40.2546 40.909 40.451 41.0399 40.7128 41.0399C41.9564 41.0399 45.1637 38.6835 46.0146 38.6835C46.3419 38.6835 46.3419 39.0763 46.3419 39.4035C46.3419 39.9926 46.1455 40.9744 46.1455 41.629C46.1455 42.1526 46.2764 42.5454 46.7346 42.5454C47.5855 42.5454 48.4364 41.0399 49.0255 41.0399C49.811 41.0399 49.3528 45.3599 50.4655 45.3599C51.4473 45.3599 51.8401 40.6472 52.4292 40.6472C53.0183 40.6472 53.5419 42.0217 54.131 42.0217C54.851 42.0217 54.5237 39.6653 55.2437 39.6653C56.0946 39.6653 58.451 42.4799 59.5637 42.4799C59.891 42.4799 60.0219 42.2181 60.0219 41.8908C60.0219 40.6472 58.2546 37.8326 58.2546 36.9163C58.3201 36.589 58.3855 36.5235 58.6473 36.5235Z" fill="#1F35C6"/>
<path fill-rule="evenodd" clip-rule="evenodd" d="M60.1528 38.1599C60.0873 38.1599 60.0218 38.2253 60.0218 38.2908C60.0218 39.1417 63.0327 43.1344 63.5564 43.1344C64.0146 43.1344 64.4073 42.2835 64.4073 41.629C64.4073 41.4326 64.3418 41.2362 64.2764 41.1053C63.8182 40.4508 60.8073 38.1599 60.1528 38.1599ZM42.5455 35.869C42.5455 35.6726 42.1528 35.6071 41.8255 35.6071C41.3018 35.6071 40.5818 35.7381 40.2546 35.9999C39.9928 36.1962 39.7964 36.8508 39.7964 37.309C39.7964 37.5708 39.8618 37.8326 40.1237 37.8326C40.7128 37.8981 42.5455 36.3271 42.5455 35.869ZM46.8 32.9235C47.3237 32.9235 48.1746 32.6617 48.7637 32.6617C49.0909 32.6617 49.4182 32.7271 49.4182 33.0544C49.4182 33.6435 48.1091 34.6908 48.1091 35.149C48.1091 35.2799 48.24 35.3453 48.3709 35.3453C48.8291 35.3453 49.68 34.1671 50.4 34.1671C51.6437 34.1671 50.8582 36.8508 51.5127 36.8508C52.2327 36.8508 51.9055 34.2326 52.9528 34.2326C53.8037 34.2326 54.3927 36.0653 54.9818 36.0653C55.1128 36.0653 55.2437 35.9344 55.2437 35.8035C55.2437 35.2799 54.5237 34.2981 54.5237 33.6435C54.5237 33.2508 54.7855 33.0544 55.1782 33.0544C55.7018 33.0544 56.4873 33.3817 56.88 33.3817C57.0109 33.3817 57.1418 33.3162 57.1418 33.1853C57.1418 32.5962 55.0473 32.0071 55.0473 31.2871C55.0473 30.5671 56.2255 30.5671 56.2255 30.2399C56.2255 30.109 55.5055 29.9781 54.5237 29.9781C52.9528 29.9781 53.2146 31.2217 51.9709 31.2217C50.7273 31.2217 51.0546 29.9126 49.4837 29.9126C48.5018 29.9126 47.6509 30.109 47.6509 30.3053C47.6509 30.5671 48.7637 30.4362 48.7637 31.2217C48.7637 32.0726 46.3418 32.269 46.3418 32.7926C46.3418 32.8581 46.5382 32.9235 46.8 32.9235ZM61.7891 32.5962C61.7891 32.989 63.2946 33.9053 63.9491 33.9053C64.3418 33.9053 64.4727 33.3817 64.4727 32.7926C64.4727 32.0726 64.1455 32.0726 63.5564 32.0726C62.7709 32.0726 61.7891 32.269 61.7891 32.5962Z" fill="#1F35C6"/>
</g>
</g>
</g>
<defs>
<clipPath id="clip0_1621_4770">
<rect width="144" height="144" fill="white"/>
</clipPath>
<clipPath id="clip1_1621_4770">
<rect width="144" height="144" fill="white"/>
</clipPath>
<clipPath id="clip2_1621_4770">
<rect width="144" height="144" fill="white"/>
</clipPath>
</defs>
</svg>
