<svg width="1233" height="454" viewBox="0 0 1233 454" fill="none" xmlns="http://www.w3.org/2000/svg">
<path fill-rule="evenodd" clip-rule="evenodd" d="M1721.24 1827.17C1555.47 1827.17 1467.71 2120 1301.94 2129.76C1399.45 1710.04 1818.75 1485.54 1818.75 1095.1C1818.75 646.094 1448.2 489.919 1292.19 392.31C1038.66 21.3941 853.384 -271.434 434.085 -271.434C258.565 -271.434 141.552 -242.151 24.538 -242.151C-209.489 -242.151 -287.499 -330 -297.25 -330C-297.25 -330 -307 -330 -307 -310.478C-307 21.3937 -131.48 763.225 609.606 763.225C1009.4 763.225 1175.17 607.05 1272.68 607.05C1370.19 607.05 1691.98 714.421 1691.98 1095.1C1691.98 1300.08 1526.21 1514.82 1467.71 1514.82C1409.2 1514.82 1350.69 1417.21 1350.69 1319.6C1350.69 1212.23 1409.2 1007.25 1409.2 880.357C1409.2 831.552 1399.45 812.03 1370.19 812.03C1311.69 812.03 1009.4 1007.25 1009.4 1241.51C1009.4 1446.49 1311.69 1573.38 1428.7 1631.95C1311.69 1817.41 1243.43 1944.3 1194.67 2120C1194.67 1983.34 1067.91 1719.8 1028.91 1602.67C843.634 1075.58 775.376 977.967 375.579 929.162C434.086 1143.9 1116.66 1651.47 1116.66 2168.8C1116.66 2198.08 1116.67 2246.89 1106.91 2266.41C902.141 1661.23 551.1 1514.82 424.335 1368.4C219.561 1134.14 336.575 909.64 5.03604 782.748C24.5383 812.031 34.2897 851.074 34.2897 880.357C34.2897 997.489 -24.2177 1134.14 -24.2177 1231.75C-24.2177 1602.67 395.082 1485.54 648.612 1690.52C892.39 1885.73 1028.91 2207.84 1126.42 2569C1223.93 2412.82 1282.44 2217.61 1448.2 2217.61C1555.47 2217.61 1594.47 2354.26 1594.47 2461.63V2510.43C1760.24 2364.02 1848 2129.76 1848 1973.58C1838.25 1895.49 1799.25 1827.17 1721.24 1827.17ZM1058.16 450.875C1019.15 450.875 960.648 431.354 911.892 431.354C794.878 431.354 707.118 597.29 648.612 597.29C629.109 597.29 619.358 577.768 619.358 558.246C619.358 489.919 736.371 411.832 736.371 363.027C736.371 333.744 687.616 323.983 668.114 323.983C551.1 323.983 385.33 489.919 287.818 489.919C268.316 489.919 248.814 480.158 248.814 460.636C248.814 411.832 375.579 353.266 375.579 304.461C375.579 255.657 326.823 255.657 287.818 255.657C229.312 255.657 112.298 284.94 44.04 284.94C5.03543 284.94 -24.2177 275.179 -24.2177 245.896C-24.2177 177.569 200.059 216.613 200.059 138.526C200.059 99.4818 131.801 21.3937 131.801 -17.6501C131.801 -37.172 151.303 -46.9325 170.805 -46.9325C248.814 -46.9325 336.575 177.569 424.335 177.569C463.34 177.569 473.091 148.286 473.091 99.4817C473.091 50.6769 463.339 31.1552 463.339 -7.88855C463.339 -46.9323 482.842 -56.6933 492.593 -56.6933C551.1 -56.6933 599.856 255.657 765.625 255.657C833.883 255.657 785.127 60.4377 853.385 60.4377C892.389 60.4377 902.14 119.004 902.14 148.286C921.642 353.266 1106.91 363.027 1106.91 441.115C1097.16 431.354 1087.41 450.875 1058.16 450.875Z" fill="#A655BA"/>
</svg>
