<svg width="960" height="454" viewBox="0 0 960 454" fill="none" xmlns="http://www.w3.org/2000/svg">
<path fill-rule="evenodd" clip-rule="evenodd" d="M1076.54 1630.64C944.184 1582.47 790.925 1785.53 655.799 1744.98C852.893 1445.71 1251.45 1392.32 1362.37 1087.57C1489.92 737.108 1238.45 507.528 1141.61 386.001C1044.56 22.8122 979.83 -259.591 645.057 -381.439C504.92 -432.445 403.176 -443.592 309.751 -477.596C122.9 -545.604 85.574 -636.842 77.7886 -639.676C77.7886 -639.676 70.004 -642.51 64.458 -627.272C-29.8244 -368.233 -100.436 261.8 491.256 477.159C810.458 593.339 987.178 519.611 1065.03 547.947C1142.89 576.284 1369.3 753.601 1261.16 1050.73C1202.92 1210.73 1009.56 1330.17 962.851 1313.17C916.138 1296.17 897.156 1202.98 924.886 1126.79C955.389 1042.98 1060.33 899.989 1096.38 800.945C1110.25 762.851 1108.01 744.779 1084.65 736.278C1037.94 719.276 741.133 783.809 674.581 966.66C616.347 1126.65 821.647 1313.54 898.434 1393.26C752.321 1504.01 661.774 1583.22 572.932 1706.19C611.754 1599.53 585.415 1356.98 587.55 1254.22C589.369 788.968 562.602 692.945 257.265 538.671C242.971 723.286 643.753 1317.82 496.783 1721.61C488.464 1744.47 474.6 1782.56 461.269 1794.97C469.702 1263.1 231.022 1046.8 171.406 895.684C74.4647 653.327 231.669 512.098 3.01371 316.71C10.2655 345.233 6.95912 378.542 -1.35991 401.399C-34.6361 492.824 -120.171 582.485 -147.901 658.673C-253.276 948.187 114.774 978.609 258.962 1212.28C398.137 1435.5 415.623 1726.59 390.876 2036.82C513.098 1943.25 615.271 1807.88 747.623 1856.05C833.263 1887.22 825.583 2005.22 795.08 2089.03L781.214 2127.12C955.162 2061.01 1091.78 1903.66 1136.15 1781.76C1150.55 1717.98 1138.82 1653.31 1076.54 1630.64ZM938.122 363.706C906.98 352.372 865.814 320.132 826.886 305.964C733.461 271.96 616.252 375.976 569.539 358.974C553.968 353.307 551.729 335.236 557.275 319.998C576.686 266.667 692.295 239.72 706.16 201.626C714.479 178.77 678.325 156.983 662.754 151.315C569.329 117.311 389.835 198.659 311.981 170.322C296.41 164.655 283.613 151.369 289.159 136.131C303.024 98.037 420.873 89.1621 434.738 51.0682C448.603 12.9742 409.675 -1.19436 378.533 -12.529C331.821 -29.531 230.076 -40.6783 175.578 -60.5139C144.437 -71.8486 123.854 -87.9684 132.173 -110.825C151.584 -164.156 319.557 -68.5067 341.741 -129.457C352.833 -159.932 320.519 -240.718 331.612 -271.194C337.158 -286.431 355.501 -288.382 371.072 -282.715C433.355 -260.046 439.645 -59.311 509.714 -33.808C540.856 -22.4734 556.96 -42.4957 570.825 -80.5897C584.69 -118.684 582.45 -136.755 593.542 -167.23C604.634 -197.705 622.978 -199.657 630.764 -196.823C677.476 -179.821 627.667 78.1484 760.019 126.321C814.517 146.156 831.05 -20.3879 885.548 -0.552281C916.69 10.7824 907.837 59.3289 899.518 82.1852C856.855 247.847 1002.01 309.306 979.822 370.256C974.809 359.803 961.478 372.207 938.122 363.706Z" fill="#A655BA"/>
</svg>
