<svg width="960" height="454" viewBox="0 0 960 454" fill="none" xmlns="http://www.w3.org/2000/svg">
<path opacity="0.3" fill-rule="evenodd" clip-rule="evenodd" d="M1388.06 1464.16C1248.21 1464.16 1174.18 1705.68 1034.33 1713.73C1116.59 1367.56 1470.32 1182.39 1470.32 860.374C1470.32 490.05 1157.72 361.243 1026.1 280.738C812.222 -25.1817 655.923 -266.697 302.194 -266.697C154.122 -266.697 55.4069 -242.545 -43.3081 -242.545C-240.738 -242.545 -306.548 -315 -314.775 -315C-314.775 -315 -323 -315 -323 -298.899C-323 -25.182 -174.928 586.656 450.267 586.656C787.543 586.656 927.389 457.848 1009.65 457.848C1091.91 457.848 1363.38 546.404 1363.38 860.374C1363.38 1029.43 1223.53 1206.55 1174.18 1206.55C1124.82 1206.55 1075.46 1126.04 1075.46 1045.54C1075.46 956.98 1124.82 787.919 1124.82 683.263C1124.82 643.01 1116.59 626.909 1091.91 626.909C1042.56 626.909 787.543 787.919 787.543 981.131C787.543 1150.19 1042.56 1254.85 1141.27 1303.15C1042.56 1456.11 984.973 1560.77 943.842 1705.68C943.842 1592.97 836.901 1375.61 803.996 1279C647.697 844.273 590.113 763.768 252.837 723.515C302.195 900.626 878.031 1319.25 878.031 1745.93C878.031 1770.08 878.032 1810.33 869.806 1826.43C697.055 1327.3 400.91 1206.55 293.969 1085.79C121.217 892.576 219.932 707.414 -59.7603 602.758C-43.3078 626.909 -35.0813 659.111 -35.0813 683.263C-35.0813 779.869 -84.4393 892.576 -84.4393 973.081C-84.4393 1279 269.29 1182.39 483.172 1351.45C688.829 1512.46 803.996 1778.13 886.258 2076C968.521 1947.19 1017.88 1786.18 1157.72 1786.18C1248.21 1786.18 1281.12 1898.89 1281.12 1987.44V2027.7C1420.96 1906.94 1495 1713.73 1495 1584.92C1486.77 1520.52 1453.87 1464.16 1388.06 1464.16ZM828.675 329.04C795.77 329.04 746.412 312.94 705.281 312.94C606.566 312.94 532.53 449.798 483.172 449.798C466.72 449.798 458.494 433.697 458.494 417.596C458.494 361.242 557.208 296.838 557.208 256.586C557.208 232.434 516.077 224.384 499.625 224.384C400.91 224.384 261.063 361.243 178.8 361.243C162.348 361.243 145.896 353.192 145.896 337.091C145.896 296.838 252.837 248.535 252.837 208.283C252.837 168.03 211.705 168.03 178.8 168.03C129.443 168.03 30.7279 192.182 -26.8558 192.182C-59.7608 192.182 -84.4393 184.132 -84.4393 159.98C-84.4393 103.626 104.765 135.829 104.765 71.4245C104.765 39.2225 47.1811 -25.182 47.1811 -57.3841C47.1811 -73.4851 63.6331 -81.5352 80.0856 -81.5352C145.896 -81.5352 219.932 103.626 293.969 103.626C326.874 103.626 335.1 79.4749 335.1 39.2224C335.1 -1.03015 326.873 -17.131 326.873 -49.3331C326.873 -81.5351 343.326 -89.5856 351.552 -89.5856C400.91 -89.5856 442.041 168.03 581.887 168.03C639.471 168.03 598.339 7.02023 655.923 7.02023C688.828 7.02023 697.054 55.3234 697.054 79.4749C713.507 248.536 869.806 256.586 869.806 320.99C861.58 312.94 853.353 329.04 828.675 329.04Z" fill="#FFEC9A"/>
</svg>
