<svg viewBox="0 0 1920 454" fill="none" xmlns="http://www.w3.org/2000/svg -z-[1]">
  <path fill-rule="evenodd" clip-rule="evenodd" d="M3725.98 1024C3509.94 1192.78 3687.11 1655.29 3480.79 1836.51C3190 1202.38 3512.93 489.367 3124.22 -8.16743C2677.19 -580.332 2038.8 -402.058 1738.29 -367.585C1038.6 -582.099 505.614 -766.607 -40.8309 -339.678C-269.575 -160.963 -392.917 -4.50487 -545.413 114.638C-850.406 352.924 -1039.53 320.408 -1052.24 330.336C-1052.24 330.336 -1064.95 340.264 -1045.51 365.141C-715.102 788.045 252.204 1554.65 1218.01 800.074C1739.04 393.002 1799.59 25.2019 1926.67 -74.0841C2053.75 -173.37 2580.01 -364.192 2959.01 120.905C3163.09 382.11 3160.85 824.541 3084.6 884.113C3008.35 943.684 2834.92 878.872 2737.74 754.488C2630.85 617.666 2503.02 296.89 2376.69 135.191C2328.1 72.999 2295.95 58.0497 2257.83 87.8354C2181.58 147.407 1981.99 703.96 2215.22 1002.48C2419.3 1263.69 2939.58 1117.6 3150.38 1073.09C3182.53 1428.56 3219.9 1659.76 3331.28 1933.29C3195.23 1759.15 2767.65 1552.39 2600.2 1442.84C1833.98 959.816 1647.84 904.932 1078.23 1249.81C1368.27 1463.88 2763.16 1415.68 3278.21 2074.91C3307.36 2112.23 3355.95 2174.42 3362.68 2209.22C2493.3 1646.55 1890.05 1817.4 1579.07 1759.9C1078.97 1669.88 1007.96 1264.65 449.553 1440.52C504.122 1457.98 555.702 1497.81 584.856 1535.12C701.471 1684.38 761.273 1918.09 858.452 2042.47C1227.73 2515.13 1657.56 1938.94 2192.05 1942C2704.11 1942.56 3202.71 2214.02 3689.35 2574.96C3660.95 2276.66 3542.84 1968.32 3758.87 1799.53C3898.66 1690.32 4085.54 1824.74 4192.44 1961.56L4241.03 2023.75C4311.3 1668.39 4192.44 1280.52 4036.95 1081.5C3946.5 991.923 3827.65 944.567 3725.98 1024ZM1491.61 -54.669C1440.78 -14.9548 1345.09 19.7404 1281.55 69.3833C1129.06 188.526 1179.89 489.335 1103.64 548.907C1078.23 568.764 1046.08 553.816 1026.65 528.939C958.62 441.871 1033.37 223.221 984.783 161.029C955.629 123.714 882.371 160.918 856.955 180.775C704.459 299.918 653.627 680.158 526.547 779.444C501.131 799.301 465.997 806.719 446.561 781.842C397.972 719.651 504.869 515.949 456.279 453.757C407.69 391.565 344.149 441.209 293.317 480.923C217.068 540.495 93.7263 696.953 4.77021 766.453C-46.0618 806.168 -93.9036 823.515 -123.057 786.199C-191.083 699.131 140.074 520.527 62.3305 421.02C23.4588 371.266 -143.241 341.258 -182.112 291.505C-201.548 266.628 -185.851 234.334 -160.435 214.477C-58.7704 135.048 279.114 331.772 393.486 242.415C444.318 202.7 427.873 155.457 379.283 93.2653C330.694 31.0734 298.549 16.1261 259.678 -33.6273C220.806 -83.3808 236.505 -115.677 249.213 -125.605C325.461 -185.177 699.974 163.207 916.01 -5.57872C1004.97 -75.0789 747.067 -274.203 836.023 -343.703C886.856 -383.417 957.871 -318.715 987.025 -281.4C1216.52 -40.0518 1467.69 -216.257 1545.43 -116.75C1523.01 -119.26 1529.73 -84.4548 1491.61 -54.669Z" fill="#76DDF5"/>
</svg>