<svg  viewBox="0 0 1233 454" fill="none" xmlns="http://www.w3.org/2000/svg">
<g clip-path="url(#clip0_456_12570)">
<rect width="1233" height="454" fill="#B55CCB"/>
<path fill-rule="evenodd" clip-rule="evenodd" d="M1721.24 1827.17C1555.47 1827.17 1467.71 2120 1301.94 2129.76C1399.45 1710.04 1818.75 1485.54 1818.75 1095.1C1818.75 646.094 1448.2 489.919 1292.19 392.31C1038.66 21.3941 853.384 -271.434 434.085 -271.434C258.565 -271.434 141.552 -242.151 24.538 -242.151C-209.489 -242.151 -287.499 -330 -297.25 -330C-297.25 -330 -307 -330 -307 -310.478C-307 21.3937 -131.48 763.225 609.606 763.225C1009.4 763.225 1175.17 607.05 1272.68 607.05C1370.19 607.05 1691.98 714.421 1691.98 1095.1C1691.98 1300.08 1526.21 1514.82 1467.71 1514.82C1409.2 1514.82 1350.69 1417.21 1350.69 1319.6C1350.69 1212.23 1409.2 1007.25 1409.2 880.357C1409.2 831.552 1399.45 812.03 1370.19 812.03C1311.69 812.03 1009.4 1007.25 1009.4 1241.51C1009.4 1446.49 1311.69 1573.38 1428.7 1631.95C1311.69 1817.41 1243.43 1944.3 1194.67 2120C1194.67 1983.34 1067.91 1719.8 1028.91 1602.67C843.634 1075.58 775.376 977.967 375.579 929.162C434.086 1143.9 1116.66 1651.47 1116.66 2168.8C1116.66 2198.08 1116.67 2246.89 1106.91 2266.41C902.141 1661.23 551.1 1514.82 424.335 1368.4C219.561 1134.14 336.575 909.64 5.03604 782.748C24.5383 812.031 34.2897 851.074 34.2897 880.357C34.2897 997.489 -24.2177 1134.14 -24.2177 1231.75C-24.2177 1602.67 395.082 1485.54 648.612 1690.52C892.39 1885.73 1028.91 2207.84 1126.42 2569C1223.93 2412.82 1282.44 2217.61 1448.2 2217.61C1555.47 2217.61 1594.47 2354.26 1594.47 2461.63V2510.43C1760.24 2364.02 1848 2129.76 1848 1973.58C1838.25 1895.49 1799.25 1827.17 1721.24 1827.17ZM1058.16 450.875C1019.15 450.875 960.648 431.354 911.892 431.354C794.878 431.354 707.118 597.29 648.612 597.29C629.109 597.29 619.358 577.768 619.358 558.246C619.358 489.919 736.371 411.832 736.371 363.027C736.371 333.744 687.616 323.983 668.114 323.983C551.1 323.983 385.33 489.919 287.818 489.919C268.316 489.919 248.814 480.158 248.814 460.636C248.814 411.832 375.579 353.266 375.579 304.461C375.579 255.657 326.823 255.657 287.818 255.657C229.312 255.657 112.298 284.94 44.04 284.94C5.03543 284.94 -24.2177 275.179 -24.2177 245.896C-24.2177 177.569 200.059 216.613 200.059 138.526C200.059 99.4818 131.801 21.3937 131.801 -17.6501C131.801 -37.172 151.303 -46.9325 170.805 -46.9325C248.814 -46.9325 336.575 177.569 424.335 177.569C463.34 177.569 473.091 148.286 473.091 99.4817C473.091 50.6769 463.339 31.1552 463.339 -7.88855C463.339 -46.9323 482.842 -56.6933 492.593 -56.6933C551.1 -56.6933 599.856 255.657 765.625 255.657C833.883 255.657 785.127 60.4377 853.385 60.4377C892.389 60.4377 902.14 119.004 902.14 148.286C921.642 353.266 1106.91 363.027 1106.91 441.115C1097.16 431.354 1087.41 450.875 1058.16 450.875Z" fill="#A655BA"/>
<path d="M297.856 150L297.812 131.564L288.748 146.744H285.58L276.516 131.916V150H269.828V119.2H275.724L287.252 138.34L298.604 119.2H304.5L304.544 150H297.856ZM322.403 150.66C318.649 150.66 315.833 149.824 313.955 148.152C312.078 146.48 311.139 144.016 311.139 140.76V126.328H317.959V134.336C318.634 133.867 319.514 133.471 320.599 133.148C321.714 132.825 322.975 132.664 324.383 132.664C327.287 132.664 329.561 133.397 331.203 134.864C332.846 136.331 333.667 138.472 333.667 141.288C333.667 144.28 332.655 146.597 330.631 148.24C328.607 149.853 325.865 150.66 322.403 150.66ZM336.175 126.328H343.039V150H336.175V126.328ZM322.403 145.82C323.811 145.82 324.882 145.409 325.615 144.588C326.349 143.767 326.715 142.696 326.715 141.376C326.715 140.144 326.334 139.161 325.571 138.428C324.838 137.665 323.767 137.284 322.359 137.284C321.362 137.284 320.482 137.489 319.719 137.9C318.986 138.281 318.399 138.809 317.959 139.484V141.42C317.959 142.799 318.341 143.884 319.103 144.676C319.866 145.439 320.966 145.82 322.403 145.82ZM358.77 135.48H380.77V139.748H358.77V135.48ZM404.538 125.888C407.09 125.888 409.364 126.416 411.358 127.472C413.382 128.499 414.966 129.951 416.11 131.828C417.254 133.705 417.826 135.817 417.826 138.164C417.826 140.511 417.254 142.623 416.11 144.5C414.966 146.377 413.382 147.844 411.358 148.9C409.364 149.927 407.09 150.44 404.538 150.44C402.28 150.44 400.226 150.073 398.378 149.34C396.56 148.577 395.049 147.492 393.846 146.084L397.762 142.388C399.552 144.236 401.722 145.16 404.274 145.16C405.976 145.16 407.442 144.735 408.674 143.884C409.906 143.033 410.742 141.875 411.182 140.408H401.238V135.7H411.094C410.625 134.292 409.789 133.177 408.586 132.356C407.384 131.535 405.946 131.124 404.274 131.124C401.752 131.124 399.581 132.063 397.762 133.94L393.846 130.288C395.049 128.851 396.56 127.765 398.378 127.032C400.226 126.269 402.28 125.888 404.538 125.888ZM452.756 125.976C455.718 125.976 458.065 126.856 459.796 128.616C461.556 130.347 462.436 132.957 462.436 136.448V150H455.572V137.504C455.572 135.627 455.176 134.233 454.384 133.324C453.621 132.385 452.521 131.916 451.084 131.916C449.47 131.916 448.194 132.444 447.256 133.5C446.317 134.527 445.848 136.067 445.848 138.12V150H438.984V137.504C438.984 133.779 437.488 131.916 434.496 131.916C432.912 131.916 431.65 132.444 430.712 133.5C429.773 134.527 429.304 136.067 429.304 138.12V150H422.44V126.328H428.996V129.056C429.876 128.059 430.946 127.296 432.208 126.768C433.498 126.24 434.906 125.976 436.432 125.976C438.104 125.976 439.614 126.313 440.964 126.988C442.313 127.633 443.398 128.587 444.22 129.848C445.188 128.616 446.405 127.663 447.872 126.988C449.368 126.313 450.996 125.976 452.756 125.976ZM479.505 150.352C477.012 150.352 474.768 149.839 472.773 148.812C470.808 147.756 469.268 146.304 468.153 144.456C467.039 142.608 466.481 140.511 466.481 138.164C466.481 135.817 467.039 133.72 468.153 131.872C469.268 130.024 470.808 128.587 472.773 127.56C474.768 126.504 477.012 125.976 479.505 125.976C481.999 125.976 484.228 126.504 486.193 127.56C488.159 128.587 489.699 130.024 490.813 131.872C491.928 133.72 492.485 135.817 492.485 138.164C492.485 140.511 491.928 142.608 490.813 144.456C489.699 146.304 488.159 147.756 486.193 148.812C484.228 149.839 481.999 150.352 479.505 150.352ZM479.505 144.72C481.265 144.72 482.703 144.133 483.817 142.96C484.961 141.757 485.533 140.159 485.533 138.164C485.533 136.169 484.961 134.585 483.817 133.412C482.703 132.209 481.265 131.608 479.505 131.608C477.745 131.608 476.293 132.209 475.149 133.412C474.005 134.585 473.433 136.169 473.433 138.164C473.433 140.159 474.005 141.757 475.149 142.96C476.293 144.133 477.745 144.72 479.505 144.72ZM537.563 119.2V150H530.655V146.26C528.543 149.105 525.434 150.528 521.327 150.528C517.69 150.528 514.845 149.384 512.791 147.096C510.767 144.779 509.755 141.493 509.755 137.24V119.2H516.883V137.02C516.883 139.484 517.455 141.347 518.599 142.608C519.773 143.84 521.357 144.456 523.351 144.456C525.493 144.456 527.209 143.796 528.499 142.476C529.79 141.127 530.435 139.147 530.435 136.536V119.2H537.563ZM558.771 125.976C561.704 125.976 564.066 126.856 565.855 128.616C567.674 130.376 568.583 132.987 568.583 136.448V150H561.719V137.504C561.719 135.627 561.308 134.233 560.487 133.324C559.666 132.385 558.478 131.916 556.923 131.916C555.192 131.916 553.814 132.459 552.787 133.544C551.76 134.6 551.247 136.184 551.247 138.296V150H544.383V126.328H550.939V129.1C551.848 128.103 552.978 127.34 554.327 126.812C555.676 126.255 557.158 125.976 558.771 125.976ZM574.805 126.328H581.669V150H574.805V126.328ZM578.237 123.028C576.975 123.028 575.949 122.661 575.157 121.928C574.365 121.195 573.969 120.285 573.969 119.2C573.969 118.115 574.365 117.205 575.157 116.472C575.949 115.739 576.975 115.372 578.237 115.372C579.498 115.372 580.525 115.724 581.317 116.428C582.109 117.132 582.505 118.012 582.505 119.068C582.505 120.212 582.109 121.165 581.317 121.928C580.525 122.661 579.498 123.028 578.237 123.028ZM596.531 150.352C593.862 150.352 591.779 149.648 590.283 148.24C588.787 146.803 588.039 144.779 588.039 142.168V117.352H594.903V141.772C594.903 142.769 595.152 143.547 595.651 144.104C596.179 144.632 596.912 144.896 597.851 144.896C598.203 144.896 598.555 144.852 598.907 144.764C599.288 144.676 599.582 144.573 599.787 144.456L600.095 149.78C598.951 150.161 597.763 150.352 596.531 150.352ZM614.959 144.852C616.191 144.852 617.277 144.676 618.215 144.324C619.183 143.943 620.078 143.356 620.899 142.564L624.551 146.524C622.322 149.076 619.066 150.352 614.783 150.352C612.114 150.352 609.753 149.839 607.699 148.812C605.646 147.756 604.062 146.304 602.947 144.456C601.833 142.608 601.275 140.511 601.275 138.164C601.275 135.847 601.818 133.764 602.903 131.916C604.018 130.039 605.529 128.587 607.435 127.56C609.371 126.504 611.542 125.976 613.947 125.976C616.206 125.976 618.259 126.46 620.107 127.428C621.955 128.367 623.422 129.745 624.507 131.564C625.622 133.353 626.179 135.48 626.179 137.944L608.667 141.332C609.166 142.505 609.943 143.385 610.999 143.972C612.085 144.559 613.405 144.852 614.959 144.852ZM613.947 131.168C612.217 131.168 610.809 131.725 609.723 132.84C608.638 133.955 608.066 135.495 608.007 137.46L619.535 135.216C619.213 133.984 618.553 133.001 617.555 132.268C616.558 131.535 615.355 131.168 613.947 131.168ZM653.859 126.328L643.871 150H636.787L626.843 126.328H633.927L640.483 142.432L647.259 126.328H653.859ZM667.94 144.852C669.172 144.852 670.257 144.676 671.196 144.324C672.164 143.943 673.058 143.356 673.88 142.564L677.532 146.524C675.302 149.076 672.046 150.352 667.764 150.352C665.094 150.352 662.733 149.839 660.68 148.812C658.626 147.756 657.042 146.304 655.928 144.456C654.813 142.608 654.256 140.511 654.256 138.164C654.256 135.847 654.798 133.764 655.884 131.916C656.998 130.039 658.509 128.587 660.416 127.56C662.352 126.504 664.522 125.976 666.928 125.976C669.186 125.976 671.24 126.46 673.088 127.428C674.936 128.367 676.402 129.745 677.488 131.564C678.602 133.353 679.16 135.48 679.16 137.944L661.648 141.332C662.146 142.505 662.924 143.385 663.98 143.972C665.065 144.559 666.385 144.852 667.94 144.852ZM666.928 131.168C665.197 131.168 663.789 131.725 662.704 132.84C661.618 133.955 661.046 135.495 660.988 137.46L672.516 135.216C672.193 133.984 671.533 133.001 670.536 132.268C669.538 131.535 668.336 131.168 666.928 131.168ZM690.329 129.452C691.151 128.308 692.251 127.443 693.629 126.856C695.037 126.269 696.651 125.976 698.469 125.976V132.312C697.707 132.253 697.193 132.224 696.929 132.224C694.964 132.224 693.424 132.781 692.309 133.896C691.195 134.981 690.637 136.624 690.637 138.824V150H683.773V126.328H690.329V129.452Z" fill="white"/>
<path d="M298.076 197.2V228H290.948V215.372H276.956V228H269.828V197.2H276.956V209.344H290.948V197.2H298.076ZM329.157 204.328V228H322.601V225.272C320.9 227.325 318.436 228.352 315.209 228.352C312.98 228.352 310.956 227.853 309.137 226.856C307.348 225.859 305.94 224.436 304.913 222.588C303.886 220.74 303.373 218.599 303.373 216.164C303.373 213.729 303.886 211.588 304.913 209.74C305.94 207.892 307.348 206.469 309.137 205.472C310.956 204.475 312.98 203.976 315.209 203.976C318.23 203.976 320.592 204.929 322.293 206.836V204.328H329.157ZM316.397 222.72C318.128 222.72 319.565 222.133 320.709 220.96C321.853 219.757 322.425 218.159 322.425 216.164C322.425 214.169 321.853 212.585 320.709 211.412C319.565 210.209 318.128 209.608 316.397 209.608C314.637 209.608 313.185 210.209 312.041 211.412C310.897 212.585 310.325 214.169 310.325 216.164C310.325 218.159 310.897 219.757 312.041 220.96C313.185 222.133 314.637 222.72 316.397 222.72ZM371.768 204.328V228H335.644V204.328H342.464V222.368H350.34V204.328H357.16V222.368H364.948V204.328H371.768ZM402.247 204.328V228H395.691V225.272C393.989 227.325 391.525 228.352 388.299 228.352C386.069 228.352 384.045 227.853 382.227 226.856C380.437 225.859 379.029 224.436 378.003 222.588C376.976 220.74 376.463 218.599 376.463 216.164C376.463 213.729 376.976 211.588 378.003 209.74C379.029 207.892 380.437 206.469 382.227 205.472C384.045 204.475 386.069 203.976 388.299 203.976C391.32 203.976 393.681 204.929 395.383 206.836V204.328H402.247ZM389.487 222.72C391.217 222.72 392.655 222.133 393.799 220.96C394.943 219.757 395.515 218.159 395.515 216.164C395.515 214.169 394.943 212.585 393.799 211.412C392.655 210.209 391.217 209.608 389.487 209.608C387.727 209.608 386.275 210.209 385.131 211.412C383.987 212.585 383.415 214.169 383.415 216.164C383.415 218.159 383.987 219.757 385.131 220.96C386.275 222.133 387.727 222.72 389.487 222.72ZM447.859 222.368V233.192H441.479V228H421.195V204.328H428.015V222.368H437.563V204.328H444.427V222.368H447.859ZM463.967 222.852C465.199 222.852 466.284 222.676 467.223 222.324C468.191 221.943 469.086 221.356 469.907 220.564L473.559 224.524C471.33 227.076 468.074 228.352 463.791 228.352C461.122 228.352 458.76 227.839 456.707 226.812C454.654 225.756 453.07 224.304 451.955 222.456C450.84 220.608 450.283 218.511 450.283 216.164C450.283 213.847 450.826 211.764 451.911 209.916C453.026 208.039 454.536 206.587 456.443 205.56C458.379 204.504 460.55 203.976 462.955 203.976C465.214 203.976 467.267 204.46 469.115 205.428C470.963 206.367 472.43 207.745 473.515 209.564C474.63 211.353 475.187 213.48 475.187 215.944L457.675 219.332C458.174 220.505 458.951 221.385 460.007 221.972C461.092 222.559 462.412 222.852 463.967 222.852ZM462.955 209.168C461.224 209.168 459.816 209.725 458.731 210.84C457.646 211.955 457.074 213.495 457.015 215.46L468.543 213.216C468.22 211.984 467.56 211.001 466.563 210.268C465.566 209.535 464.363 209.168 462.955 209.168ZM502.422 204.328V228H495.558V209.96H488.078L487.858 214.14C487.741 217.249 487.447 219.831 486.978 221.884C486.509 223.937 485.746 225.551 484.69 226.724C483.634 227.897 482.167 228.484 480.29 228.484C479.293 228.484 478.105 228.308 476.726 227.956L477.078 222.324C477.547 222.383 477.885 222.412 478.09 222.412C479.117 222.412 479.879 222.045 480.378 221.312C480.906 220.549 481.258 219.596 481.434 218.452C481.61 217.279 481.742 215.739 481.83 213.832L482.182 204.328H502.422ZM519.891 228.66C516.136 228.66 513.291 227.824 511.355 226.152C509.448 224.48 508.495 222.016 508.495 218.76V204.328H515.315V212.336C516.048 211.808 516.987 211.397 518.131 211.104C519.304 210.811 520.609 210.664 522.047 210.664C525.009 210.664 527.327 211.397 528.999 212.864C530.671 214.331 531.507 216.472 531.507 219.288C531.507 222.309 530.465 224.627 528.383 226.24C526.329 227.853 523.499 228.66 519.891 228.66ZM519.891 223.82C521.357 223.82 522.487 223.424 523.279 222.632C524.1 221.84 524.511 220.769 524.511 219.42C524.511 218.129 524.115 217.117 523.323 216.384C522.56 215.651 521.46 215.284 520.023 215.284C518.967 215.284 518.028 215.475 517.207 215.856C516.385 216.237 515.755 216.78 515.315 217.484V219.42C515.315 220.799 515.711 221.884 516.503 222.676C517.324 223.439 518.453 223.82 519.891 223.82ZM545.082 213.48H567.082V217.748H545.082V213.48ZM594.107 228.352C591.584 228.352 589.311 227.839 587.287 226.812C585.292 225.756 583.723 224.304 582.579 222.456C581.464 220.608 580.907 218.511 580.907 216.164C580.907 213.817 581.464 211.72 582.579 209.872C583.723 208.024 585.292 206.587 587.287 205.56C589.311 204.504 591.584 203.976 594.107 203.976C596.6 203.976 598.771 204.504 600.619 205.56C602.496 206.587 603.86 208.068 604.711 210.004L599.387 212.864C598.155 210.693 596.38 209.608 594.063 209.608C592.274 209.608 590.792 210.195 589.619 211.368C588.446 212.541 587.859 214.14 587.859 216.164C587.859 218.188 588.446 219.787 589.619 220.96C590.792 222.133 592.274 222.72 594.063 222.72C596.41 222.72 598.184 221.635 599.387 219.464L604.711 222.368C603.86 224.245 602.496 225.712 600.619 226.768C598.771 227.824 596.6 228.352 594.107 228.352ZM632.737 204.328V224.04C632.737 228.381 631.608 231.608 629.349 233.72C627.091 235.832 623.791 236.888 619.449 236.888C617.161 236.888 614.991 236.609 612.937 236.052C610.884 235.495 609.183 234.688 607.833 233.632L610.561 228.704C611.559 229.525 612.82 230.171 614.345 230.64C615.871 231.139 617.396 231.388 618.921 231.388C621.297 231.388 623.043 230.845 624.157 229.76C625.301 228.704 625.873 227.091 625.873 224.92V223.908C624.084 225.873 621.591 226.856 618.393 226.856C616.223 226.856 614.228 226.387 612.409 225.448C610.62 224.48 609.197 223.131 608.141 221.4C607.085 219.669 606.557 217.675 606.557 215.416C606.557 213.157 607.085 211.163 608.141 209.432C609.197 207.701 610.62 206.367 612.409 205.428C614.228 204.46 616.223 203.976 618.393 203.976C621.825 203.976 624.436 205.105 626.225 207.364V204.328H632.737ZM619.757 221.224C621.576 221.224 623.057 220.696 624.201 219.64C625.375 218.555 625.961 217.147 625.961 215.416C625.961 213.685 625.375 212.292 624.201 211.236C623.057 210.151 621.576 209.608 619.757 209.608C617.939 209.608 616.443 210.151 615.269 211.236C614.096 212.292 613.509 213.685 613.509 215.416C613.509 217.147 614.096 218.555 615.269 219.64C616.443 220.696 617.939 221.224 619.757 221.224ZM651.139 222.852C652.371 222.852 653.456 222.676 654.395 222.324C655.363 221.943 656.258 221.356 657.079 220.564L660.731 224.524C658.502 227.076 655.246 228.352 650.963 228.352C648.294 228.352 645.932 227.839 643.879 226.812C641.826 225.756 640.242 224.304 639.127 222.456C638.012 220.608 637.455 218.511 637.455 216.164C637.455 213.847 637.998 211.764 639.083 209.916C640.198 208.039 641.708 206.587 643.615 205.56C645.551 204.504 647.722 203.976 650.127 203.976C652.386 203.976 654.439 204.46 656.287 205.428C658.135 206.367 659.602 207.745 660.687 209.564C661.802 211.353 662.359 213.48 662.359 215.944L644.847 219.332C645.346 220.505 646.123 221.385 647.179 221.972C648.264 222.559 649.584 222.852 651.139 222.852ZM650.127 209.168C648.396 209.168 646.988 209.725 645.903 210.84C644.818 211.955 644.246 213.495 644.187 215.46L655.715 213.216C655.392 211.984 654.732 211.001 653.735 210.268C652.738 209.535 651.535 209.168 650.127 209.168ZM689.594 204.328V228H682.73V209.96H675.25L675.03 214.14C674.913 217.249 674.619 219.831 674.15 221.884C673.681 223.937 672.918 225.551 671.862 226.724C670.806 227.897 669.339 228.484 667.462 228.484C666.465 228.484 665.277 228.308 663.898 227.956L664.25 222.324C664.719 222.383 665.057 222.412 665.262 222.412C666.289 222.412 667.051 222.045 667.55 221.312C668.078 220.549 668.43 219.596 668.606 218.452C668.782 217.279 668.914 215.739 669.002 213.832L669.354 204.328H689.594ZM720.087 204.328V228H713.531V225.272C711.829 227.325 709.365 228.352 706.139 228.352C703.909 228.352 701.885 227.853 700.067 226.856C698.277 225.859 696.869 224.436 695.843 222.588C694.816 220.74 694.303 218.599 694.303 216.164C694.303 213.729 694.816 211.588 695.843 209.74C696.869 207.892 698.277 206.469 700.067 205.472C701.885 204.475 703.909 203.976 706.139 203.976C709.16 203.976 711.521 204.929 713.223 206.836V204.328H720.087ZM707.327 222.72C709.057 222.72 710.495 222.133 711.639 220.96C712.783 219.757 713.355 218.159 713.355 216.164C713.355 214.169 712.783 212.585 711.639 211.412C710.495 210.209 709.057 209.608 707.327 209.608C705.567 209.608 704.115 210.209 702.971 211.412C701.827 212.585 701.255 214.169 701.255 216.164C701.255 218.159 701.827 219.757 702.971 220.96C704.115 222.133 705.567 222.72 707.327 222.72ZM756.845 203.976C759.808 203.976 762.155 204.856 763.885 206.616C765.645 208.347 766.525 210.957 766.525 214.448V228H759.661V215.504C759.661 213.627 759.265 212.233 758.473 211.324C757.711 210.385 756.611 209.916 755.173 209.916C753.56 209.916 752.284 210.444 751.345 211.5C750.407 212.527 749.937 214.067 749.937 216.12V228H743.073V215.504C743.073 211.779 741.577 209.916 738.585 209.916C737.001 209.916 735.74 210.444 734.801 211.5C733.863 212.527 733.393 214.067 733.393 216.12V228H726.529V204.328H733.085V207.056C733.965 206.059 735.036 205.296 736.297 204.768C737.588 204.24 738.996 203.976 740.521 203.976C742.193 203.976 743.704 204.313 745.053 204.988C746.403 205.633 747.488 206.587 748.309 207.848C749.277 206.616 750.495 205.663 751.961 204.988C753.457 204.313 755.085 203.976 756.845 203.976ZM783.375 228.66C779.62 228.66 776.775 227.824 774.839 226.152C772.932 224.48 771.979 222.016 771.979 218.76V204.328H778.799V212.336C779.532 211.808 780.471 211.397 781.615 211.104C782.788 210.811 784.094 210.664 785.531 210.664C788.494 210.664 790.811 211.397 792.483 212.864C794.155 214.331 794.991 216.472 794.991 219.288C794.991 222.309 793.95 224.627 791.867 226.24C789.814 227.853 786.983 228.66 783.375 228.66ZM783.375 223.82C784.842 223.82 785.971 223.424 786.763 222.632C787.584 221.84 787.995 220.769 787.995 219.42C787.995 218.129 787.599 217.117 786.807 216.384C786.044 215.651 784.944 215.284 783.507 215.284C782.451 215.284 781.512 215.475 780.691 215.856C779.87 216.237 779.239 216.78 778.799 217.484V219.42C778.799 220.799 779.195 221.884 779.987 222.676C780.808 223.439 781.938 223.82 783.375 223.82ZM293.016 258.328V278.04C293.016 282.381 291.916 285.608 289.716 287.72C287.516 289.832 284.319 290.888 280.124 290.888C277.895 290.888 275.783 290.609 273.788 290.052C271.823 289.495 270.165 288.688 268.816 287.632L271.544 282.704C272.541 283.525 273.759 284.171 275.196 284.64C276.633 285.109 278.085 285.344 279.552 285.344C281.84 285.344 283.512 284.816 284.568 283.76C285.624 282.704 286.152 281.091 286.152 278.92V278.128C285.272 279.008 284.231 279.683 283.028 280.152C281.825 280.621 280.535 280.856 279.156 280.856C276.047 280.856 273.583 279.976 271.764 278.216C269.945 276.427 269.036 273.757 269.036 270.208V258.328H275.9V269.196C275.9 273.039 277.499 274.96 280.696 274.96C282.339 274.96 283.659 274.432 284.656 273.376C285.653 272.291 286.152 270.692 286.152 268.58V258.328H293.016ZM310.771 282.352C308.248 282.352 305.975 281.839 303.951 280.812C301.956 279.756 300.387 278.304 299.243 276.456C298.128 274.608 297.571 272.511 297.571 270.164C297.571 267.817 298.128 265.72 299.243 263.872C300.387 262.024 301.956 260.587 303.951 259.56C305.975 258.504 308.248 257.976 310.771 257.976C313.264 257.976 315.435 258.504 317.283 259.56C319.16 260.587 320.524 262.068 321.375 264.004L316.051 266.864C314.819 264.693 313.044 263.608 310.727 263.608C308.938 263.608 307.456 264.195 306.283 265.368C305.11 266.541 304.523 268.14 304.523 270.164C304.523 272.188 305.11 273.787 306.283 274.96C307.456 276.133 308.938 276.72 310.727 276.72C313.074 276.72 314.848 275.635 316.051 273.464L321.375 276.368C320.524 278.245 319.16 279.712 317.283 280.768C315.435 281.824 313.264 282.352 310.771 282.352ZM355.818 257.976C358.781 257.976 361.127 258.856 362.858 260.616C364.618 262.347 365.498 264.957 365.498 268.448V282H358.634V269.504C358.634 267.627 358.238 266.233 357.446 265.324C356.683 264.385 355.583 263.916 354.146 263.916C352.533 263.916 351.257 264.444 350.318 265.5C349.379 266.527 348.91 268.067 348.91 270.12V282H342.046V269.504C342.046 265.779 340.55 263.916 337.558 263.916C335.974 263.916 334.713 264.444 333.774 265.5C332.835 266.527 332.366 268.067 332.366 270.12V282H325.502V258.328H332.058V261.056C332.938 260.059 334.009 259.296 335.27 258.768C336.561 258.24 337.969 257.976 339.494 257.976C341.166 257.976 342.677 258.313 344.026 258.988C345.375 259.633 346.461 260.587 347.282 261.848C348.25 260.616 349.467 259.663 350.934 258.988C352.43 258.313 354.058 257.976 355.818 257.976ZM382.568 282.352C380.074 282.352 377.83 281.839 375.836 280.812C373.87 279.756 372.33 278.304 371.216 276.456C370.101 274.608 369.544 272.511 369.544 270.164C369.544 267.817 370.101 265.72 371.216 263.872C372.33 262.024 373.87 260.587 375.836 259.56C377.83 258.504 380.074 257.976 382.568 257.976C385.061 257.976 387.29 258.504 389.256 259.56C391.221 260.587 392.761 262.024 393.876 263.872C394.99 265.72 395.548 267.817 395.548 270.164C395.548 272.511 394.99 274.608 393.876 276.456C392.761 278.304 391.221 279.756 389.256 280.812C387.29 281.839 385.061 282.352 382.568 282.352ZM382.568 276.72C384.328 276.72 385.765 276.133 386.88 274.96C388.024 273.757 388.596 272.159 388.596 270.164C388.596 268.169 388.024 266.585 386.88 265.412C385.765 264.209 384.328 263.608 382.568 263.608C380.808 263.608 379.356 264.209 378.212 265.412C377.068 266.585 376.496 268.169 376.496 270.164C376.496 272.159 377.068 273.757 378.212 274.96C379.356 276.133 380.808 276.72 382.568 276.72ZM423.633 258.328V282H417.077V279.228C416.197 280.255 415.111 281.032 413.821 281.56C412.559 282.088 411.21 282.352 409.773 282.352C406.663 282.352 404.185 281.457 402.337 279.668C400.518 277.879 399.609 275.224 399.609 271.704V258.328H406.473V270.692C406.473 274.505 408.071 276.412 411.269 276.412C412.941 276.412 414.275 275.884 415.273 274.828C416.27 273.743 416.769 272.144 416.769 270.032V258.328H423.633ZM411.445 255.776C406.282 255.776 403.686 253.503 403.657 248.956H408.145C408.174 249.983 408.453 250.789 408.981 251.376C409.538 251.933 410.345 252.212 411.401 252.212C412.457 252.212 413.263 251.933 413.821 251.376C414.407 250.789 414.701 249.983 414.701 248.956H419.277C419.247 253.503 416.637 255.776 411.445 255.776ZM451.471 258.328V282H444.607V273.2C442.612 274.197 440.412 274.696 438.007 274.696C434.81 274.696 432.39 273.977 430.747 272.54C429.134 271.073 428.327 268.815 428.327 265.764V258.328H435.191V265.324C435.191 266.761 435.558 267.803 436.291 268.448C437.054 269.093 438.139 269.416 439.547 269.416C441.336 269.416 443.023 269.035 444.607 268.272V258.328H451.471ZM481.426 258.328V282H474.87V279.228C473.99 280.255 472.904 281.032 471.614 281.56C470.352 282.088 469.003 282.352 467.566 282.352C464.456 282.352 461.978 281.457 460.13 279.668C458.311 277.879 457.402 275.224 457.402 271.704V258.328H464.266V270.692C464.266 274.505 465.864 276.412 469.062 276.412C470.734 276.412 472.068 275.884 473.066 274.828C474.063 273.743 474.562 272.144 474.562 270.032V258.328H481.426ZM506.052 269.636C508.839 270.575 510.232 272.452 510.232 275.268C510.232 277.409 509.425 279.067 507.812 280.24C506.199 281.413 503.793 282 500.596 282H487.968V258.328H500.068C503.031 258.328 505.348 258.871 507.02 259.956C508.692 261.012 509.528 262.508 509.528 264.444C509.528 265.617 509.22 266.659 508.604 267.568C508.017 268.448 507.167 269.137 506.052 269.636ZM494.26 268.052H499.452C501.857 268.052 503.06 267.201 503.06 265.5C503.06 263.828 501.857 262.992 499.452 262.992H494.26V268.052ZM500.024 277.336C502.547 277.336 503.808 276.471 503.808 274.74C503.808 273.831 503.515 273.171 502.928 272.76C502.341 272.32 501.417 272.1 500.156 272.1H494.26V277.336H500.024ZM526.427 282.352C523.934 282.352 521.69 281.839 519.695 280.812C517.73 279.756 516.19 278.304 515.075 276.456C513.96 274.608 513.403 272.511 513.403 270.164C513.403 267.817 513.96 265.72 515.075 263.872C516.19 262.024 517.73 260.587 519.695 259.56C521.69 258.504 523.934 257.976 526.427 257.976C528.92 257.976 531.15 258.504 533.115 259.56C535.08 260.587 536.62 262.024 537.735 263.872C538.85 265.72 539.407 267.817 539.407 270.164C539.407 272.511 538.85 274.608 537.735 276.456C536.62 278.304 535.08 279.756 533.115 280.812C531.15 281.839 528.92 282.352 526.427 282.352ZM526.427 276.72C528.187 276.72 529.624 276.133 530.739 274.96C531.883 273.757 532.455 272.159 532.455 270.164C532.455 268.169 531.883 266.585 530.739 265.412C529.624 264.209 528.187 263.608 526.427 263.608C524.667 263.608 523.215 264.209 522.071 265.412C520.927 266.585 520.355 268.169 520.355 270.164C520.355 272.159 520.927 273.757 522.071 274.96C523.215 276.133 524.667 276.72 526.427 276.72ZM555.92 276.852C557.152 276.852 558.237 276.676 559.176 276.324C560.144 275.943 561.039 275.356 561.86 274.564L565.512 278.524C563.283 281.076 560.027 282.352 555.744 282.352C553.075 282.352 550.713 281.839 548.66 280.812C546.607 279.756 545.023 278.304 543.908 276.456C542.793 274.608 542.236 272.511 542.236 270.164C542.236 267.847 542.779 265.764 543.864 263.916C544.979 262.039 546.489 260.587 548.396 259.56C550.332 258.504 552.503 257.976 554.908 257.976C557.167 257.976 559.22 258.46 561.068 259.428C562.916 260.367 564.383 261.745 565.468 263.564C566.583 265.353 567.14 267.48 567.14 269.944L549.628 273.332C550.127 274.505 550.904 275.385 551.96 275.972C553.045 276.559 554.365 276.852 555.92 276.852ZM554.908 263.168C553.177 263.168 551.769 263.725 550.684 264.84C549.599 265.955 549.027 267.495 548.968 269.46L560.496 267.216C560.173 265.984 559.513 265.001 558.516 264.268C557.519 263.535 556.316 263.168 554.908 263.168ZM594.775 273.024H591.211V282H584.347V258.328H591.211V267.524H594.907L601.331 258.328H608.635L600.363 269.68L609.207 282H601.111L594.775 273.024ZM635.739 258.328V282H629.183V279.272C627.482 281.325 625.018 282.352 621.791 282.352C619.562 282.352 617.538 281.853 615.719 280.856C613.93 279.859 612.522 278.436 611.495 276.588C610.468 274.74 609.955 272.599 609.955 270.164C609.955 267.729 610.468 265.588 611.495 263.74C612.522 261.892 613.93 260.469 615.719 259.472C617.538 258.475 619.562 257.976 621.791 257.976C624.812 257.976 627.174 258.929 628.875 260.836V258.328H635.739ZM622.979 276.72C624.71 276.72 626.147 276.133 627.291 274.96C628.435 273.757 629.007 272.159 629.007 270.164C629.007 268.169 628.435 266.585 627.291 265.412C626.147 264.209 624.71 263.608 622.979 263.608C621.219 263.608 619.767 264.209 618.623 265.412C617.479 266.585 616.907 268.169 616.907 270.164C616.907 272.159 617.479 273.757 618.623 274.96C619.767 276.133 621.219 276.72 622.979 276.72ZM663.522 258.328V282H656.658V273.2C654.663 274.197 652.463 274.696 650.058 274.696C646.86 274.696 644.44 273.977 642.798 272.54C641.184 271.073 640.378 268.815 640.378 265.764V258.328H647.242V265.324C647.242 266.761 647.608 267.803 648.342 268.448C649.104 269.093 650.19 269.416 651.598 269.416C653.387 269.416 655.074 269.035 656.658 268.272V258.328H663.522ZM681.905 276.852C683.137 276.852 684.222 276.676 685.161 276.324C686.129 275.943 687.023 275.356 687.845 274.564L691.497 278.524C689.267 281.076 686.011 282.352 681.729 282.352C679.059 282.352 676.698 281.839 674.645 280.812C672.591 279.756 671.007 278.304 669.893 276.456C668.778 274.608 668.221 272.511 668.221 270.164C668.221 267.847 668.763 265.764 669.849 263.916C670.963 262.039 672.474 260.587 674.381 259.56C676.317 258.504 678.487 257.976 680.893 257.976C683.151 257.976 685.205 258.46 687.053 259.428C688.901 260.367 690.367 261.745 691.453 263.564C692.567 265.353 693.125 267.48 693.125 269.944L675.613 273.332C676.111 274.505 676.889 275.385 677.945 275.972C679.03 276.559 680.35 276.852 681.905 276.852ZM680.893 263.168C679.162 263.168 677.754 263.725 676.669 264.84C675.583 265.955 675.011 267.495 674.953 269.46L686.481 267.216C686.158 265.984 685.498 265.001 684.501 264.268C683.503 263.535 682.301 263.168 680.893 263.168ZM709.134 282.352C706.612 282.352 704.338 281.839 702.314 280.812C700.32 279.756 698.75 278.304 697.606 276.456C696.492 274.608 695.934 272.511 695.934 270.164C695.934 267.817 696.492 265.72 697.606 263.872C698.75 262.024 700.32 260.587 702.314 259.56C704.338 258.504 706.612 257.976 709.134 257.976C711.628 257.976 713.798 258.504 715.646 259.56C717.524 260.587 718.888 262.068 719.738 264.004L714.414 266.864C713.182 264.693 711.408 263.608 709.09 263.608C707.301 263.608 705.82 264.195 704.646 265.368C703.473 266.541 702.886 268.14 702.886 270.164C702.886 272.188 703.473 273.787 704.646 274.96C705.82 276.133 707.301 276.72 709.09 276.72C711.437 276.72 713.212 275.635 714.414 273.464L719.738 276.368C718.888 278.245 717.524 279.712 715.646 280.768C713.798 281.824 711.628 282.352 709.134 282.352ZM754.181 257.976C757.144 257.976 759.491 258.856 761.221 260.616C762.981 262.347 763.861 264.957 763.861 268.448V282H756.997V269.504C756.997 267.627 756.601 266.233 755.809 265.324C755.047 264.385 753.947 263.916 752.509 263.916C750.896 263.916 749.62 264.444 748.681 265.5C747.743 266.527 747.273 268.067 747.273 270.12V282H740.409V269.504C740.409 265.779 738.913 263.916 735.921 263.916C734.337 263.916 733.076 264.444 732.137 265.5C731.199 266.527 730.729 268.067 730.729 270.12V282H723.865V258.328H730.421V261.056C731.301 260.059 732.372 259.296 733.633 258.768C734.924 258.24 736.332 257.976 737.857 257.976C739.529 257.976 741.04 258.313 742.389 258.988C743.739 259.633 744.824 260.587 745.645 261.848C746.613 260.616 747.831 259.663 749.297 258.988C750.793 258.313 752.421 257.976 754.181 257.976ZM787.927 269.636C790.714 270.575 792.107 272.452 792.107 275.268C792.107 277.409 791.3 279.067 789.687 280.24C788.074 281.413 785.668 282 782.471 282H769.843V258.328H781.943C784.906 258.328 787.223 258.871 788.895 259.956C790.567 261.012 791.403 262.508 791.403 264.444C791.403 265.617 791.095 266.659 790.479 267.568C789.892 268.448 789.042 269.137 787.927 269.636ZM776.135 268.052H781.327C783.732 268.052 784.935 267.201 784.935 265.5C784.935 263.828 783.732 262.992 781.327 262.992H776.135V268.052ZM781.899 277.336C784.422 277.336 785.683 276.471 785.683 274.74C785.683 273.831 785.39 273.171 784.803 272.76C784.216 272.32 783.292 272.1 782.031 272.1H776.135V277.336H781.899ZM808.302 282.352C805.809 282.352 803.565 281.839 801.57 280.812C799.605 279.756 798.065 278.304 796.95 276.456C795.835 274.608 795.278 272.511 795.278 270.164C795.278 267.817 795.835 265.72 796.95 263.872C798.065 262.024 799.605 260.587 801.57 259.56C803.565 258.504 805.809 257.976 808.302 257.976C810.795 257.976 813.025 258.504 814.99 259.56C816.955 260.587 818.495 262.024 819.61 263.872C820.725 265.72 821.282 267.817 821.282 270.164C821.282 272.511 820.725 274.608 819.61 276.456C818.495 278.304 816.955 279.756 814.99 280.812C813.025 281.839 810.795 282.352 808.302 282.352ZM808.302 276.72C810.062 276.72 811.499 276.133 812.614 274.96C813.758 273.757 814.33 272.159 814.33 270.164C814.33 268.169 813.758 266.585 812.614 265.412C811.499 264.209 810.062 263.608 808.302 263.608C806.542 263.608 805.09 264.209 803.946 265.412C802.802 266.585 802.23 268.169 802.23 270.164C802.23 272.159 802.802 273.757 803.946 274.96C805.09 276.133 806.542 276.72 808.302 276.72ZM292.752 327.024H289.452V336H282.676V327.024H279.376L274.36 336H266.264L273.7 323.768L266.792 312.328H274.052L279.288 321.524H282.676V312.328H289.452V321.524H292.796L298.076 312.328H305.336L298.428 323.768L305.908 336H297.768L292.752 327.024ZM332.41 312.328V336H325.854V333.228C324.974 334.255 323.889 335.032 322.598 335.56C321.337 336.088 319.987 336.352 318.55 336.352C315.441 336.352 312.962 335.457 311.114 333.668C309.295 331.879 308.386 329.224 308.386 325.704V312.328H315.25V324.692C315.25 328.505 316.849 330.412 320.046 330.412C321.718 330.412 323.053 329.884 324.05 328.828C325.047 327.743 325.546 326.144 325.546 324.032V312.328H332.41ZM354.094 323.68C355.502 324.12 356.587 324.795 357.35 325.704C358.142 326.613 358.538 327.699 358.538 328.96C358.538 330.456 358.024 331.776 356.998 332.92C355.971 334.035 354.563 334.9 352.774 335.516C350.984 336.132 348.96 336.44 346.702 336.44C344.854 336.44 343.035 336.249 341.245 335.868C339.456 335.487 337.799 334.915 336.274 334.152L338.122 329.356C340.615 330.559 343.372 331.16 346.394 331.16C348.007 331.16 349.268 330.925 350.178 330.456C351.116 329.957 351.586 329.268 351.586 328.388C351.586 327.625 351.263 327.053 350.618 326.672C349.972 326.261 349.034 326.056 347.802 326.056H342.962V321.788H347.186C348.388 321.788 349.312 321.597 349.958 321.216C350.603 320.835 350.926 320.277 350.926 319.544C350.926 318.781 350.515 318.195 349.694 317.784C348.902 317.373 347.758 317.168 346.262 317.168C343.974 317.168 341.48 317.711 338.782 318.796L337.11 314.044C340.395 312.607 343.592 311.888 346.702 311.888C348.843 311.888 350.75 312.152 352.422 312.68C354.123 313.208 355.458 313.985 356.426 315.012C357.394 316.009 357.878 317.183 357.878 318.532C357.878 319.647 357.54 320.659 356.866 321.568C356.191 322.448 355.267 323.152 354.094 323.68ZM363.53 312.328H370.35V321.568H380.646V312.328H387.51V336H380.646V327.156H370.35V336H363.53V312.328ZM417.445 312.328V336H410.889V333.228C410.009 334.255 408.924 335.032 407.633 335.56C406.372 336.088 405.023 336.352 403.585 336.352C400.476 336.352 397.997 335.457 396.149 333.668C394.331 331.879 393.421 329.224 393.421 325.704V312.328H400.285V324.692C400.285 328.505 401.884 330.412 405.081 330.412C406.753 330.412 408.088 329.884 409.085 328.828C410.083 327.743 410.581 326.144 410.581 324.032V312.328H417.445ZM460.604 312.328V332.04C460.604 336.381 459.475 339.608 457.216 341.72C454.958 343.832 451.658 344.888 447.316 344.888C445.028 344.888 442.858 344.609 440.804 344.052C438.751 343.495 437.05 342.688 435.7 341.632L438.428 336.704C439.426 337.525 440.687 338.171 442.212 338.64C443.738 339.139 445.263 339.388 446.788 339.388C449.164 339.388 450.91 338.845 452.024 337.76C453.168 336.704 453.74 335.091 453.74 332.92V331.908C451.951 333.873 449.458 334.856 446.26 334.856C444.09 334.856 442.095 334.387 440.276 333.448C438.487 332.48 437.064 331.131 436.008 329.4C434.952 327.669 434.424 325.675 434.424 323.416C434.424 321.157 434.952 319.163 436.008 317.432C437.064 315.701 438.487 314.367 440.276 313.428C442.095 312.46 444.09 311.976 446.26 311.976C449.692 311.976 452.303 313.105 454.092 315.364V312.328H460.604ZM447.624 329.224C449.443 329.224 450.924 328.696 452.068 327.64C453.242 326.555 453.828 325.147 453.828 323.416C453.828 321.685 453.242 320.292 452.068 319.236C450.924 318.151 449.443 317.608 447.624 317.608C445.806 317.608 444.31 318.151 443.136 319.236C441.963 320.292 441.376 321.685 441.376 323.416C441.376 325.147 441.963 326.555 443.136 327.64C444.31 328.696 445.806 329.224 447.624 329.224ZM478.302 336.352C475.809 336.352 473.565 335.839 471.57 334.812C469.605 333.756 468.065 332.304 466.95 330.456C465.835 328.608 465.278 326.511 465.278 324.164C465.278 321.817 465.835 319.72 466.95 317.872C468.065 316.024 469.605 314.587 471.57 313.56C473.565 312.504 475.809 311.976 478.302 311.976C480.795 311.976 483.025 312.504 484.99 313.56C486.955 314.587 488.495 316.024 489.61 317.872C490.725 319.72 491.282 321.817 491.282 324.164C491.282 326.511 490.725 328.608 489.61 330.456C488.495 332.304 486.955 333.756 484.99 334.812C483.025 335.839 480.795 336.352 478.302 336.352ZM478.302 330.72C480.062 330.72 481.499 330.133 482.614 328.96C483.758 327.757 484.33 326.159 484.33 324.164C484.33 322.169 483.758 320.585 482.614 319.412C481.499 318.209 480.062 317.608 478.302 317.608C476.542 317.608 475.09 318.209 473.946 319.412C472.802 320.585 472.23 322.169 472.23 324.164C472.23 326.159 472.802 327.757 473.946 328.96C475.09 330.133 476.542 330.72 478.302 330.72ZM507.267 336.352C504.744 336.352 502.471 335.839 500.447 334.812C498.452 333.756 496.883 332.304 495.739 330.456C494.624 328.608 494.067 326.511 494.067 324.164C494.067 321.817 494.624 319.72 495.739 317.872C496.883 316.024 498.452 314.587 500.447 313.56C502.471 312.504 504.744 311.976 507.267 311.976C509.76 311.976 511.931 312.504 513.779 313.56C515.656 314.587 517.02 316.068 517.871 318.004L512.547 320.864C511.315 318.693 509.54 317.608 507.223 317.608C505.434 317.608 503.952 318.195 502.779 319.368C501.606 320.541 501.019 322.14 501.019 324.164C501.019 326.188 501.606 327.787 502.779 328.96C503.952 330.133 505.434 330.72 507.223 330.72C509.57 330.72 511.344 329.635 512.547 327.464L517.871 330.368C517.02 332.245 515.656 333.712 513.779 334.768C511.931 335.824 509.76 336.352 507.267 336.352ZM552.314 311.976C555.277 311.976 557.624 312.856 559.354 314.616C561.114 316.347 561.994 318.957 561.994 322.448V336H555.13V323.504C555.13 321.627 554.734 320.233 553.942 319.324C553.18 318.385 552.08 317.916 550.642 317.916C549.029 317.916 547.753 318.444 546.814 319.5C545.876 320.527 545.406 322.067 545.406 324.12V336H538.542V323.504C538.542 319.779 537.046 317.916 534.054 317.916C532.47 317.916 531.209 318.444 530.27 319.5C529.332 320.527 528.862 322.067 528.862 324.12V336H521.998V312.328H528.554V315.056C529.434 314.059 530.505 313.296 531.766 312.768C533.057 312.24 534.465 311.976 535.99 311.976C537.662 311.976 539.173 312.313 540.522 312.988C541.872 313.633 542.957 314.587 543.778 315.848C544.746 314.616 545.964 313.663 547.43 312.988C548.926 312.313 550.554 311.976 552.314 311.976ZM591.692 312.328V332.04C591.692 336.381 590.592 339.608 588.392 341.72C586.192 343.832 582.994 344.888 578.8 344.888C576.57 344.888 574.458 344.609 572.464 344.052C570.498 343.495 568.841 342.688 567.492 341.632L570.22 336.704C571.217 337.525 572.434 338.171 573.872 338.64C575.309 339.109 576.761 339.344 578.228 339.344C580.516 339.344 582.188 338.816 583.244 337.76C584.3 336.704 584.828 335.091 584.828 332.92V332.128C583.948 333.008 582.906 333.683 581.704 334.152C580.501 334.621 579.21 334.856 577.832 334.856C574.722 334.856 572.258 333.976 570.44 332.216C568.621 330.427 567.712 327.757 567.712 324.208V312.328H574.576V323.196C574.576 327.039 576.174 328.96 579.372 328.96C581.014 328.96 582.334 328.432 583.332 327.376C584.329 326.291 584.828 324.692 584.828 322.58V312.328H591.692ZM621.723 312.328V336H614.859V317.96H605.003V336H598.183V312.328H621.723ZM628.304 312.328H635.124V321.568H645.42V312.328H652.284V336H645.42V327.156H635.124V336H628.304V312.328ZM669.591 336.66C665.836 336.66 663.02 335.824 661.143 334.152C659.265 332.48 658.327 330.016 658.327 326.76V312.328H665.147V320.336C665.821 319.867 666.701 319.471 667.787 319.148C668.901 318.825 670.163 318.664 671.571 318.664C674.475 318.664 676.748 319.397 678.391 320.864C680.033 322.331 680.855 324.472 680.855 327.288C680.855 330.28 679.843 332.597 677.819 334.24C675.795 335.853 673.052 336.66 669.591 336.66ZM683.363 312.328H690.227V336H683.363V312.328ZM669.591 331.82C670.999 331.82 672.069 331.409 672.803 330.588C673.536 329.767 673.903 328.696 673.903 327.376C673.903 326.144 673.521 325.161 672.759 324.428C672.025 323.665 670.955 323.284 669.547 323.284C668.549 323.284 667.669 323.489 666.907 323.9C666.173 324.281 665.587 324.809 665.147 325.484V327.42C665.147 328.799 665.528 329.884 666.291 330.676C667.053 331.439 668.153 331.82 669.591 331.82ZM719.896 336V321.832L712.812 333.712H709.908L703 321.788V336H696.796V312.328H703.968L711.536 326.012L719.588 312.328H726.012L726.1 336H719.896ZM769.292 312.328V332.04C769.292 336.381 768.163 339.608 765.904 341.72C763.645 343.832 760.345 344.888 756.004 344.888C753.716 344.888 751.545 344.609 749.492 344.052C747.439 343.495 745.737 342.688 744.388 341.632L747.116 336.704C748.113 337.525 749.375 338.171 750.9 338.64C752.425 339.139 753.951 339.388 755.476 339.388C757.852 339.388 759.597 338.845 760.712 337.76C761.856 336.704 762.428 335.091 762.428 332.92V331.908C760.639 333.873 758.145 334.856 754.948 334.856C752.777 334.856 750.783 334.387 748.964 333.448C747.175 332.48 745.752 331.131 744.696 329.4C743.64 327.669 743.112 325.675 743.112 323.416C743.112 321.157 743.64 319.163 744.696 317.432C745.752 315.701 747.175 314.367 748.964 313.428C750.783 312.46 752.777 311.976 754.948 311.976C758.38 311.976 760.991 313.105 762.78 315.364V312.328H769.292ZM756.312 329.224C758.131 329.224 759.612 328.696 760.756 327.64C761.929 326.555 762.516 325.147 762.516 323.416C762.516 321.685 761.929 320.292 760.756 319.236C759.612 318.151 758.131 317.608 756.312 317.608C754.493 317.608 752.997 318.151 751.824 319.236C750.651 320.292 750.064 321.685 750.064 323.416C750.064 325.147 750.651 326.555 751.824 327.64C752.997 328.696 754.493 329.224 756.312 329.224ZM798.606 312.328V336H791.742V317.96H784.262L784.042 322.14C783.924 325.249 783.631 327.831 783.162 329.884C782.692 331.937 781.93 333.551 780.874 334.724C779.818 335.897 778.351 336.484 776.474 336.484C775.476 336.484 774.288 336.308 772.91 335.956L773.262 330.324C773.731 330.383 774.068 330.412 774.274 330.412C775.3 330.412 776.063 330.045 776.562 329.312C777.09 328.549 777.442 327.596 777.618 326.452C777.794 325.279 777.926 323.739 778.014 321.832L778.366 312.328H798.606ZM826.238 312.328V336H820.122V329.224H815.062L810.574 336H803.27L808.682 328.256C807.04 327.611 805.778 326.687 804.898 325.484C804.048 324.252 803.622 322.771 803.622 321.04C803.622 318.253 804.62 316.112 806.614 314.616C808.638 313.091 811.41 312.328 814.93 312.328H826.238ZM815.062 317.916C813.596 317.916 812.481 318.18 811.718 318.708C810.985 319.236 810.618 320.087 810.618 321.26C810.618 322.433 810.97 323.299 811.674 323.856C812.408 324.384 813.508 324.648 814.974 324.648H820.122V317.916H815.062ZM863.38 323.636C866.167 324.575 867.56 326.452 867.56 329.268C867.56 331.409 866.753 333.067 865.14 334.24C863.527 335.413 861.121 336 857.924 336H845.296V312.328H857.396C860.359 312.328 862.676 312.871 864.348 313.956C866.02 315.012 866.856 316.508 866.856 318.444C866.856 319.617 866.548 320.659 865.932 321.568C865.345 322.448 864.495 323.137 863.38 323.636ZM851.588 322.052H856.78C859.185 322.052 860.388 321.201 860.388 319.5C860.388 317.828 859.185 316.992 856.78 316.992H851.588V322.052ZM857.352 331.336C859.875 331.336 861.136 330.471 861.136 328.74C861.136 327.831 860.843 327.171 860.256 326.76C859.669 326.32 858.745 326.1 857.484 326.1H851.588V331.336H857.352ZM883.931 336.352C881.409 336.352 879.135 335.839 877.111 334.812C875.117 333.756 873.547 332.304 872.403 330.456C871.289 328.608 870.731 326.511 870.731 324.164C870.731 321.817 871.289 319.72 872.403 317.872C873.547 316.024 875.117 314.587 877.111 313.56C879.135 312.504 881.409 311.976 883.931 311.976C886.425 311.976 888.595 312.504 890.443 313.56C892.321 314.587 893.685 316.068 894.535 318.004L889.211 320.864C887.979 318.693 886.205 317.608 883.887 317.608C882.098 317.608 880.617 318.195 879.443 319.368C878.27 320.541 877.683 322.14 877.683 324.164C877.683 326.188 878.27 327.787 879.443 328.96C880.617 330.133 882.098 330.72 883.887 330.72C886.234 330.72 888.009 329.635 889.211 327.464L894.535 330.368C893.685 332.245 892.321 333.712 890.443 334.768C888.595 335.824 886.425 336.352 883.931 336.352ZM910.197 330.852C911.429 330.852 912.515 330.676 913.453 330.324C914.421 329.943 915.316 329.356 916.137 328.564L919.789 332.524C917.56 335.076 914.304 336.352 910.021 336.352C907.352 336.352 904.991 335.839 902.937 334.812C900.884 333.756 899.3 332.304 898.185 330.456C897.071 328.608 896.513 326.511 896.513 324.164C896.513 321.847 897.056 319.764 898.141 317.916C899.256 316.039 900.767 314.587 902.673 313.56C904.609 312.504 906.78 311.976 909.185 311.976C911.444 311.976 913.497 312.46 915.345 313.428C917.193 314.367 918.66 315.745 919.745 317.564C920.86 319.353 921.417 321.48 921.417 323.944L903.905 327.332C904.404 328.505 905.181 329.385 906.237 329.972C907.323 330.559 908.643 330.852 910.197 330.852ZM909.185 317.168C907.455 317.168 906.047 317.725 904.961 318.84C903.876 319.955 903.304 321.495 903.245 323.46L914.773 321.216C914.451 319.984 913.791 319.001 912.793 318.268C911.796 317.535 910.593 317.168 909.185 317.168ZM940.391 336L935.199 328.74L929.831 336H922.351L931.459 324.076L922.659 312.328H930.359L935.375 319.236L940.523 312.328H947.827L939.027 323.9L948.179 336H940.391Z" fill="white"/>
</g>
<defs>
<clipPath id="clip0_456_12570">
<rect width="1233" height="454" fill="white"/>
</clipPath>
</defs>
</svg>
