<svg width="16" height="16" viewBox="0 0 16 16" fill="none" xmlns="http://www.w3.org/2000/svg">
<g id="clock" clip-path="url(#clip0_6_142)">
<path id="Vector" d="M8 0C6.41775 0 4.87103 0.469192 3.55544 1.34824C2.23985 2.22729 1.21447 3.47672 0.608967 4.93853C0.00346629 6.40034 -0.15496 8.00887 0.153721 9.56072C0.462403 11.1126 1.22433 12.538 2.34315 13.6569C3.46197 14.7757 4.88743 15.5376 6.43928 15.8463C7.99113 16.155 9.59966 15.9965 11.0615 15.391C12.5233 14.7855 13.7727 13.7602 14.6518 12.4446C15.5308 11.129 16 9.58225 16 8C16 5.87827 15.1571 3.84344 13.6569 2.34315C12.1566 0.842855 10.1217 0 8 0ZM9.94815 11.8785L7.40741 8.44444C7.31124 8.31622 7.25926 8.16027 7.25926 8V1.88H8.74074V7.75555L11.1393 11.003L9.94815 11.8785Z" fill="black"/>
</g>
<defs>
<clipPath id="clip0_6_142">
<rect width="16" height="16" fill="white"/>
</clipPath>
</defs>
</svg>
