<svg width="16" height="16" viewBox="0 0 16 16" fill="none" xmlns="http://www.w3.org/2000/svg">
<g id="globe" clip-path="url(#clip0_5551_9863)">
<path id="Vector" d="M15.7279 5.9064C15.6686 5.6825 15.5989 5.46156 15.5203 5.24952C15.2969 4.64192 15.0012 4.06342 14.6395 3.52649C14.4912 3.31445 14.3429 3.10834 14.1784 2.91112C14.0138 2.71391 13.8432 2.52411 13.6623 2.34321C12.1609 0.842819 10.1251 0 8.00245 0C5.87981 0 3.84403 0.842819 2.34256 2.34321C2.16165 2.52411 1.98965 2.71342 1.82654 2.91112C1.66343 3.10834 1.50922 3.31445 1.36538 3.52649C1.14966 3.84759 0.956909 4.18355 0.788571 4.53184C0.675877 4.76464 0.575046 5.00485 0.484594 5.24952C-0.139674 6.96137 -0.161411 8.83495 0.422974 10.5608C1.00736 12.2867 2.16291 13.7617 3.69879 14.7421C5.23467 15.7225 7.05901 16.1498 8.87052 15.9533C10.682 15.7568 12.3724 14.9484 13.6623 13.6615C13.8432 13.4791 14.0152 13.2908 14.1784 13.0921C14.3415 12.8934 14.4957 12.6888 14.6395 12.4767C15.0012 11.9398 15.2969 11.3613 15.5203 10.7537C15.5989 10.5387 15.6686 10.3207 15.7279 10.0968C16.0976 8.72448 16.0976 7.27875 15.7279 5.9064ZM11.146 10.8412C11.1272 10.943 11.0973 11.0424 11.057 11.1378C10.9797 11.3254 10.8658 11.4958 10.7219 11.639L10.3468 12.0052C10.2487 12.1034 10.1782 12.2256 10.1421 12.3596C10.0917 12.5479 10.0517 12.7377 9.98348 12.9186L9.46302 14.3228C8.98413 14.4343 8.49413 14.491 8.00245 14.4919V13.7208C8.05879 13.3027 7.74889 12.5197 7.25215 12.023C7.15373 11.9244 7.07571 11.8074 7.02254 11.6787C6.96936 11.5499 6.94207 11.412 6.94224 11.2727V10.2125C6.94251 10.0233 6.89202 9.83755 6.79604 9.67454C6.70007 9.51153 6.56211 9.37726 6.39656 9.28573C5.92058 9.02179 5.24294 8.65405 4.77882 8.42125C4.39706 8.22976 4.04211 7.98897 3.72305 7.70505L3.70229 7.6754C3.47768 7.47126 3.27853 7.24074 3.10917 6.98885C2.81261 6.57219 2.36776 5.91382 2.04451 5.43042C2.71831 3.87732 3.96942 2.64694 5.53357 1.9992L6.16673 2.31652C6.24763 2.35694 6.33752 2.37602 6.42787 2.37195C6.51822 2.36788 6.60603 2.34079 6.68297 2.29326C6.75991 2.24573 6.82343 2.17933 6.86751 2.10035C6.91159 2.02138 6.93476 1.93246 6.93482 1.84202V1.60032C7.24372 1.54903 7.55593 1.52028 7.86899 1.51432L8.68009 2.32541C8.7295 2.3746 8.7687 2.43306 8.79545 2.49744C8.8222 2.56182 8.83598 2.63085 8.83598 2.70057C8.83598 2.77028 8.8222 2.83931 8.79545 2.90369C8.7687 2.96807 8.7295 3.02653 8.68009 3.07572L8.53181 3.224L8.18928 3.56653C8.13993 3.61649 8.11226 3.68388 8.11226 3.7541C8.11226 3.82433 8.13993 3.89172 8.18928 3.94168L8.34498 4.09737C8.39469 4.14714 8.42261 4.21461 8.42261 4.28495C8.42261 4.35529 8.39469 4.42276 8.34498 4.47253L8.07214 4.73943C8.04793 4.76463 8.0186 4.78435 7.98614 4.79726C7.95424 4.81081 7.91996 4.81786 7.8853 4.81802H7.58874C7.51978 4.81828 7.45351 4.84479 7.40339 4.89216L7.07569 5.21245C7.03452 5.25215 7.00744 5.30422 6.99858 5.36073C6.99413 5.38823 6.99413 5.41627 6.99858 5.44377C7.00193 5.4716 7.00995 5.49867 7.02231 5.52384L7.53981 6.56181C7.56002 6.60226 7.56956 6.6472 7.56752 6.69238C7.56549 6.73755 7.55195 6.78146 7.52818 6.81993C7.50441 6.8584 7.47121 6.89016 7.43173 6.9122C7.39224 6.93424 7.34778 6.94582 7.30256 6.94585H7.11276C7.04897 6.94566 6.98738 6.9225 6.93927 6.88061L6.63085 6.6137C6.59813 6.58143 6.56062 6.55442 6.51964 6.53363C6.47891 6.51289 6.43549 6.49792 6.39063 6.48915C6.34574 6.48028 6.29988 6.47729 6.25421 6.48025C6.20842 6.48348 6.16315 6.49194 6.11928 6.50546L5.08131 6.85095C5.0612 6.85667 5.04181 6.86463 5.02348 6.87468C5.00533 6.88414 4.98797 6.89505 4.97158 6.9073C4.95475 6.91939 4.93888 6.93278 4.92413 6.94734L4.8841 6.99479C4.87232 7.01121 4.8619 7.02857 4.85296 7.04668C4.84316 7.06513 4.83522 7.0845 4.82923 7.10451C4.8161 7.14369 4.80959 7.18479 4.80996 7.2261C4.81064 7.30053 4.83228 7.37325 4.87241 7.43594C4.91254 7.49862 4.96952 7.54872 5.03683 7.5805L5.40308 7.76437C5.71439 7.91982 6.05749 8.00102 6.40546 8.00162C6.75392 8.00162 7.14686 8.90465 7.46567 9.06183H9.67654C9.95779 9.06182 10.2276 9.17326 10.4268 9.37173L10.8806 9.82547C10.9267 9.87084 10.9684 9.92049 11.0051 9.97375C11.042 10.0288 11.0733 10.0874 11.0986 10.1487C11.1238 10.21 11.1432 10.2736 11.1564 10.3385C11.1695 10.4034 11.1759 10.4695 11.1757 10.5357C11.1757 10.6383 11.1658 10.7406 11.146 10.8412ZM14.4408 8.81716L13.5941 8.6066C13.4025 8.55801 13.2356 8.44023 13.1256 8.27594L12.5324 7.38625C12.5114 7.35367 12.4921 7.32001 12.4746 7.28542C12.4586 7.2497 12.4447 7.21306 12.4331 7.17569C12.4217 7.13835 12.4133 7.10018 12.4079 7.06151C12.402 7.02324 12.399 6.98458 12.399 6.94585C12.399 6.90664 12.402 6.86748 12.4079 6.82871C12.4133 6.79054 12.4217 6.75286 12.4331 6.71602C12.4445 6.67856 12.4583 6.6419 12.4746 6.60629C12.4921 6.57121 12.5114 6.53706 12.5324 6.50398L13.1819 5.53125C13.2581 5.41421 13.364 5.31954 13.4888 5.25693L13.8091 5.09679C14.2606 5.99843 14.4947 6.99326 14.4927 8.00162C14.492 8.27426 14.4746 8.54662 14.4408 8.81716Z" fill="white"/>
</g>
<defs>
<clipPath id="clip0_5551_9863">
<rect width="16" height="16" fill="white"/>
</clipPath>
</defs>
</svg>
