<svg width="16" height="16" viewBox="0 0 16 16" fill="none" xmlns="http://www.w3.org/2000/svg">
<g id="lightbulb">
<path id="Vector" d="M9.67467 12.6934V13.6427C9.67467 14.0907 9.49334 14.2827 9.024 14.2827H8.94934L8.87467 14.464C8.77867 14.7414 8.66134 14.8267 8.35201 14.8267H7.73334C7.424 14.8267 7.30667 14.7414 7.21067 14.464L7.136 14.2827H7.06134C6.592 14.2827 6.41067 14.1014 6.41067 13.6427V12.6934H9.67467ZM7.97867 3.78668C10.496 3.78668 11.5093 5.73868 11.5093 7.09335C11.5093 9.08802 9.94134 10.5707 9.58934 12.128H6.368C6.016 10.5707 4.448 9.10935 4.448 7.09335C4.448 5.72802 5.46134 3.78668 7.97867 3.78668ZM11.968 9.07735C12.0533 8.89602 12.224 8.82135 12.4053 8.90668L13.7173 9.50402C13.8987 9.58935 13.9627 9.76002 13.888 9.94135C13.8027 10.1227 13.632 10.1974 13.4507 10.112L12.1387 9.51468C11.9467 9.42935 11.8933 9.25868 11.968 9.07735ZM3.552 8.90668C3.73334 8.82135 3.90401 8.89602 3.98934 9.07735C4.07467 9.25868 4 9.42935 3.81867 9.51468L2.50667 10.112C2.32534 10.1974 2.15467 10.1227 2.06934 9.94135C1.984 9.76002 2.05867 9.58935 2.24 9.50402L3.552 8.90668ZM14.08 5.49335C14.2613 5.45068 14.4213 5.53602 14.464 5.73868C14.5067 5.92002 14.4213 6.08002 14.24 6.13335L12.896 6.47468C12.7147 6.51735 12.5547 6.43202 12.512 6.22935C12.4693 6.04802 12.5547 5.88802 12.736 5.83468L14.08 5.49335ZM1.632 5.72802C1.67467 5.54668 1.83467 5.45068 2.016 5.48268L3.36 5.82402C3.54134 5.86668 3.63734 6.02668 3.584 6.21868C3.54134 6.40002 3.38134 6.49602 3.2 6.46402L1.856 6.12268C1.67467 6.05868 1.58934 5.92002 1.632 5.72802ZM11.6267 2.08002C11.7547 1.92002 11.9253 1.89868 12.0747 2.02668C12.224 2.15468 12.256 2.33602 12.128 2.49602L11.2427 3.65868C11.1147 3.81868 10.944 3.84002 10.7947 3.71202C10.6347 3.58402 10.6133 3.40268 10.7413 3.24268C10.7307 3.23202 11.6267 2.08002 11.6267 2.08002ZM3.88267 2.02668C4.04267 1.89868 4.224 1.93068 4.33067 2.08002L5.22667 3.23202C5.35467 3.39202 5.32267 3.57335 5.17334 3.70135C5.024 3.82935 4.832 3.79735 4.72534 3.64802L3.84 2.48535C3.70134 2.33602 3.712 2.14402 3.88267 2.02668ZM8.05334 0.82135C8.26667 0.82135 8.40534 0.94935 8.40534 1.14135V2.59202C8.40534 2.79468 8.26667 2.91202 8.05334 2.91202C7.84 2.91202 7.70134 2.78402 7.70134 2.59202V1.14135C7.70134 0.94935 7.84 0.82135 8.05334 0.82135Z" fill="black"/>
</g>
</svg>
