<svg width="16" height="16" viewBox="0 0 16 16" fill="none" xmlns="http://www.w3.org/2000/svg">
<g id="ok">
<path id="Vector" fill-rule="evenodd" clip-rule="evenodd" d="M8.00042 8.20034C6.24042 8.20034 4.80042 6.80034 4.80042 5.12034C4.80042 3.40034 6.24042 2.04034 8.00042 2.04034C9.76042 2.04034 11.2004 3.44034 11.2004 5.12034C11.2004 6.80034 9.76042 8.20034 8.00042 8.20034ZM8.00042 3.80034C7.28042 3.80034 6.68042 4.36034 6.68042 5.08034C6.68042 5.80034 7.28042 6.36034 8.00042 6.36034C8.72042 6.36034 9.32042 5.80034 9.32042 5.08034C9.32042 4.40034 8.72042 3.80034 8.00042 3.80034ZM9.28042 10.7203L11.0804 12.4403C11.4404 12.8003 11.4404 13.3603 11.0804 13.7203C10.7204 14.0803 10.1204 14.0803 9.76042 13.7203L8.00042 12.0403L6.24042 13.7603C6.04042 13.9203 5.80042 14.0403 5.56042 14.0403C5.32042 14.0403 5.08042 13.9603 4.88042 13.7603C4.52042 13.4003 4.52042 12.8403 4.88042 12.4803L6.68042 10.7603C6.04042 10.6003 5.40042 10.3603 4.80042 10.0003C4.36042 9.72034 4.24042 9.16034 4.52042 8.76034C4.80042 8.32034 5.36042 8.20034 5.80042 8.48034C7.12042 9.28034 8.80042 9.28034 10.1204 8.48034C10.5604 8.20034 11.1204 8.36034 11.4004 8.76034C11.6804 9.20034 11.5604 9.76034 11.1204 10.0003C10.6004 10.3203 9.96042 10.5603 9.28042 10.7203Z" fill="black"/>
</g>
</svg>
