<svg width="16" height="16" viewBox="0 0 16 16" fill="none" xmlns="http://www.w3.org/2000/svg">
<g id="quotes-up">
<path id="Vector" d="M0.72222 2.5C0.603703 2.5 0.5 2.60155 0.5 2.7176V13.8879C0.5 14.004 0.573184 14.033 0.662073 13.9605L6.85653 8.44783C6.94542 8.36079 7.01861 8.20121 7.01861 8.08516V2.7176C7.01861 2.60155 6.9149 2.5 6.79639 2.5H0.72222ZM9.20361 2.5C9.0851 2.5 8.98139 2.60155 8.98139 2.7176V13.8879C8.98139 14.004 9.05458 14.033 9.14347 13.9605L15.3379 8.44783C15.4268 8.36079 15.5 8.20121 15.5 8.08516V2.7176C15.5 2.60155 15.3963 2.5 15.2778 2.5H9.20361Z" fill="#015EFF"/>
</g>
</svg>
