<svg width="16" height="16" viewBox="0 0 16 16" fill="none" xmlns="http://www.w3.org/2000/svg">
<g id="quotes-down">
<path id="Vector" d="M15.2778 14C15.3963 14 15.5 13.8985 15.5 13.7824L15.5 2.61208C15.5 2.49602 15.4268 2.46701 15.3379 2.53955L9.14347 8.05217C9.05458 8.13921 8.98139 8.29879 8.98139 8.41484L8.98139 13.7824C8.98139 13.8985 9.0851 14 9.20361 14L15.2778 14ZM6.79639 14C6.9149 14 7.01861 13.8985 7.01861 13.7824L7.01861 2.61208C7.01861 2.49602 6.94542 2.46701 6.85653 2.53955L0.662073 8.05217C0.573184 8.13921 0.5 8.29879 0.5 8.41484L0.5 13.7824C0.5 13.8985 0.603703 14 0.72222 14L6.79639 14Z" fill="#015EFF"/>
</g>
</svg>
