<svg width="16" height="16" viewBox="0 0 16 16" fill="none" xmlns="http://www.w3.org/2000/svg">
<g id="telegram">
<path id="Vector" fill-rule="evenodd" clip-rule="evenodd" d="M13.1847 2.95331C13.3494 2.88397 13.5297 2.86006 13.7069 2.88405C13.884 2.90805 14.0514 2.97909 14.1918 3.08977C14.3321 3.20044 14.4403 3.34672 14.5049 3.51337C14.5696 3.68001 14.5883 3.86094 14.5593 4.03731L13.0473 13.2086C12.9007 14.0933 11.93 14.6006 11.1187 14.16C10.44 13.7913 9.432 13.2233 8.52533 12.6306C8.072 12.334 6.68333 11.384 6.854 10.708C7.00067 10.13 9.334 7.95798 10.6673 6.66664C11.1907 6.15931 10.952 5.86664 10.334 6.33331C8.79867 7.49198 6.33533 9.25398 5.52067 9.74998C4.802 10.1873 4.42733 10.262 3.97933 10.1873C3.162 10.0513 2.404 9.84064 1.78533 9.58398C0.949334 9.23731 0.99 8.08798 1.78467 7.75331L13.1847 2.95331Z" fill="black"/>
</g>
</svg>
