<svg width="16" height="16" viewBox="0 0 16 16" fill="none" xmlns="http://www.w3.org/2000/svg">
<g id="twitter">
<path id="Vector" d="M14.9733 4.00002C14.46 4.23335 13.9067 4.38669 13.3333 4.46002C13.92 4.10669 14.3733 3.54669 14.5867 2.87335C14.0333 3.20669 13.42 3.44002 12.7733 3.57335C12.2467 3.00002 11.5067 2.66669 10.6667 2.66669C9.1 2.66669 7.82 3.94669 7.82 5.52669C7.82 5.75335 7.84667 5.97335 7.89333 6.18002C5.52 6.06002 3.40667 4.92002 2 3.19335C1.75333 3.61335 1.61333 4.10669 1.61333 4.62669C1.61333 5.62002 2.11333 6.50002 2.88667 7.00002C2.41333 7.00002 1.97333 6.86669 1.58667 6.66669V6.68669C1.58667 8.07335 2.57333 9.23335 3.88 9.49335C3.46048 9.60816 3.02006 9.62413 2.59333 9.54002C2.7744 10.1083 3.12902 10.6056 3.60734 10.962C4.08566 11.3183 4.66363 11.5158 5.26 11.5267C4.24909 12.327 2.996 12.7596 1.70667 12.7534C1.48 12.7534 1.25333 12.74 1.02667 12.7134C2.29333 13.5267 3.8 14 5.41333 14C10.6667 14 13.5533 9.64002 13.5533 5.86002C13.5533 5.73335 13.5533 5.61335 13.5467 5.48669C14.1067 5.08669 14.5867 4.58002 14.9733 4.00002Z" fill="black"/>
</g>
</svg>
