<svg width="16" height="16" viewBox="0 0 16 16" fill="none" xmlns="http://www.w3.org/2000/svg">
<g id="vk">
<path id="Vector" fill-rule="evenodd" clip-rule="evenodd" d="M14.1203 5.3195C14.2003 5.0395 14.1203 4.7995 13.6803 4.7995H12.2803C11.9203 4.7995 11.7603 4.9995 11.6803 5.1995C11.6803 5.1995 10.9603 6.9195 9.96026 8.0795C9.64026 8.3995 9.48026 8.5195 9.32026 8.5195C9.24026 8.5195 9.08026 8.3995 9.08026 8.1195V5.3595C9.08026 4.9995 9.00026 4.8395 8.68026 4.8395H6.48026C6.24026 4.8395 6.12026 4.9995 6.12026 5.1595C6.12026 5.4795 6.64026 5.5595 6.68026 6.5195V8.5995C6.68026 9.0395 6.60026 9.1195 6.44026 9.1195C5.96026 9.1195 4.80026 7.3595 4.12026 5.3995C4.00026 4.9995 3.84026 4.8395 3.48026 4.8395H2.08026C1.68026 4.8395 1.60026 5.0395 1.60026 5.2395C1.60026 5.5995 2.08026 7.4395 3.80026 9.8795C4.96026 11.5595 6.60026 12.4395 8.08026 12.4395C8.96026 12.4395 9.08026 12.2395 9.08026 11.8795V10.6395C9.08026 10.2395 9.16026 10.1595 9.44026 10.1595C9.64026 10.1595 10.0003 10.2795 10.8403 11.0795C11.8003 12.0395 11.9603 12.4395 12.4803 12.4395H13.8803C14.2803 12.4395 14.4803 12.2395 14.3603 11.8395C14.2403 11.4395 13.8003 10.8795 13.1603 10.1995C12.8403 9.7995 12.3603 9.3995 12.2003 9.1995C12.0003 8.9195 12.0403 8.7995 12.2003 8.5595C12.2003 8.5195 13.9203 6.1195 14.1203 5.3195Z" fill="black"/>
</g>
</svg>
