<svg width="16" height="16" viewBox="0 0 16 16" fill="none" xmlns="http://www.w3.org/2000/svg">
<g id="youtube">
<path id="Vector" fill-rule="evenodd" clip-rule="evenodd" d="M14.1203 5.04028C14.4003 6.08028 14.4003 8.20028 14.4003 8.20028C14.4003 8.20028 14.4003 10.3203 14.1203 11.3603C13.9603 11.9203 13.5203 12.3603 13.0003 12.5203C12.0003 12.8003 8.00026 12.8003 8.00026 12.8003C8.00026 12.8003 4.00026 12.8003 3.00026 12.5203C2.44026 12.3603 2.00026 11.9203 1.88026 11.3603C1.60026 10.3203 1.60026 8.20028 1.60026 8.20028C1.60026 8.20028 1.60026 6.08028 1.88026 5.04028C2.04026 4.48028 2.48026 4.04028 3.00026 3.88028C4.00026 3.60028 8.00026 3.60028 8.00026 3.60028C8.00026 3.60028 12.0003 3.60028 13.0003 3.88028C13.5603 4.04028 14.0003 4.48028 14.1203 5.04028ZM6.80026 10.4003L10.0003 8.40028L6.80026 6.40028V10.4003Z" fill="#20A980"/>
</g>
</svg>
